<svg xmlns="http://www.w3.org/2000/svg" viewBox="0 0 71.9 71.9"><defs><style>.cls-1{fill:none;stroke:#124537;stroke-miterlimit:10;stroke-width:0.86px;}</style></defs><g id="Layer_2" data-name="Layer 2"><circle class="cls-1" cx="35.95" cy="35.95" r="31.5"/><path class="cls-1" d="M19.92,53.29A40.76,40.76,0,0,0,23.53,51c1.55-1.18,2.37-3.4,1.21-3.7-1.66-.43-2.13,5.1-.56,5.84,1.89.9,6.77-4.93,6.77-4.93l-1.6,5a8.75,8.75,0,0,1,5.14-1.72"/><path class="cls-1" d="M49.7,19c2.32.33-1.54,8.14-5.68,17.12a92.22,92.22,0,0,1-9.31,15.41c-.38,1,1.54-8.14,5.68-17.12S47.69,18.74,49.7,19Z"/><line class="cls-1" x1="42.73" y1="29.58" x2="46.19" y2="31.21"/></g></svg>