<svg xmlns="http://www.w3.org/2000/svg" viewBox="0 0 70.73 70.73"><defs><style>.cls-1{fill:none;stroke:#6BCDB2;stroke-miterlimit:10;stroke-width:0.86px;}</style></defs><g id="Layer_2" data-name="Layer 2"><circle class="cls-1" cx="35.37" cy="35.37" r="31.5"/><path class="cls-1" d="M32.88,49.19a1.31,1.31,0,0,1-1.31-1.3V44.34a4.55,4.55,0,0,0-1.09-3l-1.63-1.92-.06-.08A8.41,8.41,0,0,1,27,34.15a8.5,8.5,0,1,1,15.21,5.22l-.07.08-1.63,1.92a4.61,4.61,0,0,0-1.09,3v3.55a1.31,1.31,0,0,1-1.31,1.3Z"/><path class="cls-1" d="M37.46,49.19a2,2,0,0,1-3.92,0"/><line class="cls-1" x1="39.42" y1="44.62" x2="31.57" y2="44.62"/><line class="cls-1" x1="20.46" y1="34.81" x2="23.07" y2="34.81"/><line class="cls-1" x1="47.92" y1="34.81" x2="50.54" y2="34.81"/><line class="cls-1" x1="35.5" y1="19.77" x2="35.5" y2="22.38"/><line class="cls-1" x1="22.47" y1="42.33" x2="24.74" y2="41.02"/><line class="cls-1" x1="46.26" y1="28.6" x2="48.52" y2="27.29"/><line class="cls-1" x1="27.98" y1="21.78" x2="29.28" y2="24.05"/><line class="cls-1" x1="41.71" y1="24.05" x2="43.02" y2="21.78"/><line class="cls-1" x1="22.47" y1="27.29" x2="24.74" y2="28.6"/><line class="cls-1" x1="46.26" y1="41.02" x2="48.52" y2="42.33"/></g></svg>