<svg xmlns="http://www.w3.org/2000/svg" viewBox="0 0 70.73 70.73"><defs><style>.cls-1{fill:none;stroke:#6BCDB2;stroke-miterlimit:10;stroke-width:0.86px;}</style></defs><g id="Layer_2" data-name="Layer 2"><circle class="cls-1" cx="35.37" cy="35.37" r="31.5"/><path class="cls-1" d="M44.84,28.23c-3,.55-12.68,7.24-12.68,15.86"/><path class="cls-1" d="M35.33,35.37a5.31,5.31,0,0,1,.79-7.14c3-2.82,10.73-3.86,14.27-4,0,4.5-1.38,13.49-12.68,13.49"/><path class="cls-1" d="M31.36,34.5c-.75-6.48-7.93-7.06-10.31-7.06,0,3.47.62,11.1,9.64,11.1-.48-3.08-3.39-4.88-5.38-6.72"/><polyline class="cls-1" points="21.05 49.64 22.64 47.26 25.81 46.47 29.78 46.47 32.16 44.09 33.74 45.67 35.33 45.67 36.91 46.47 38.5 46.47 40.09 48.05 41.67 48.05 43.26 48.85"/></g></svg>