<svg xmlns="http://www.w3.org/2000/svg" viewBox="0 0 70.73 70.73"><defs><style>.cls-1{fill:none;stroke:#6BCDB2;stroke-miterlimit:10;stroke-width:0.86px;}</style></defs><g id="Layer_2" data-name="Layer 2"><circle class="cls-1" cx="35.37" cy="35.37" r="31.5"/><line class="cls-1" x1="41.49" y1="24.8" x2="46.59" y2="28.31"/><circle class="cls-1" cx="41" cy="30.97" r="2.38" transform="translate(-7.76 47.17) rotate(-55.44)"/><line class="cls-1" x1="36.61" y1="37.35" x2="30.53" y2="46.18"/><path class="cls-1" d="M34.51,30.86C31.11,35.8,29.09,43,29.09,43L34,46.39s6-4.46,9.42-9.39c4.29-6.24,3.32-14.36,3.32-14.36S38.81,24.62,34.51,30.86Z"/><path class="cls-1" d="M32.29,34.72l-4.57.84-4.06,5.89a7.82,7.82,0,0,1,6.54-1.8"/><path class="cls-1" d="M36.74,44.16a7.81,7.81,0,0,1,.66,6.74L41.45,45l-.84-4.58"/><line class="cls-1" x1="31.48" y1="49" x2="29.45" y2="51.94"/></g></svg>