<svg xmlns="http://www.w3.org/2000/svg" viewBox="0 0 70.73 70.73"><defs><style>.cls-1{fill:none;stroke:#6BCDB2;stroke-miterlimit:10;stroke-width:0.86px;}</style></defs><g id="Layer_2" data-name="Layer 2"><circle class="cls-1" cx="35.37" cy="35.37" r="31.5"/><path class="cls-1" d="M22.87,39.67h3.06A1.19,1.19,0,0,0,27,39.05a1.2,1.2,0,0,0,0-1.24,2,2,0,0,1-.38-1.53A1.86,1.86,0,0,1,28,34.82a1.84,1.84,0,0,1,2.23,1.79,2.28,2.28,0,0,1-.42,1.2,1.2,1.2,0,0,0,0,1.24,1.19,1.19,0,0,0,1.07.62h3.06"/><path class="cls-1" d="M33.88,39.67v3a1.2,1.2,0,0,1-1.86,1,2,2,0,0,0-1.53-.38A1.86,1.86,0,0,0,29,44.77,1.84,1.84,0,0,0,30.82,47a2.28,2.28,0,0,0,1.2-.42,1.23,1.23,0,0,1,1.24,0,1.19,1.19,0,0,1,.62,1.07v3.06"/><path class="cls-1" d="M36.93,39.67a1.21,1.21,0,0,1,1.08.61,1.23,1.23,0,0,1,0,1.24,2,2,0,0,0-.38,1.53A1.86,1.86,0,0,0,39,44.51a1.83,1.83,0,0,0,2.23-1.79,2.28,2.28,0,0,0-.42-1.2,1.22,1.22,0,0,1,0-1.24,1.18,1.18,0,0,1,1.07-.61h3.06v9.78a1.22,1.22,0,0,1-1.22,1.22H24.1a1.23,1.23,0,0,1-1.23-1.22V29.89a1.23,1.23,0,0,1,1.23-1.23h9.78v3.06a1.2,1.2,0,0,0,1.85,1,2,2,0,0,1,1.53-.39,1.87,1.87,0,0,1,1.46,1.41A1.84,1.84,0,0,1,36.93,36a2.28,2.28,0,0,1-1.2-.42,1.2,1.2,0,0,0-1.85,1v3.06Z"/><path class="cls-1" d="M52.21,32.33H49.16a1.23,1.23,0,0,0-1.08.61,1.25,1.25,0,0,0,.05,1.25,2.23,2.23,0,0,1,.42,1.2,1.84,1.84,0,0,1-2.23,1.79,1.88,1.88,0,0,1-1.41-1.46,2,2,0,0,1,.39-1.53,1.24,1.24,0,0,0,0-1.25,1.2,1.2,0,0,0-1.07-.61H41.21V29.27a1.21,1.21,0,0,1,.61-1.07,1.24,1.24,0,0,1,1.25,0,2.23,2.23,0,0,0,1.2.42,1.83,1.83,0,0,0,1.79-2.23A1.86,1.86,0,0,0,44.6,25a2,2,0,0,0-1.53.38,1.25,1.25,0,0,1-1.25.05,1.21,1.21,0,0,1-.61-1.08V21.33H51a1.22,1.22,0,0,1,1.22,1.22Z"/></g></svg>