<svg xmlns="http://www.w3.org/2000/svg" viewBox="0 0 70.73 70.73"><defs><style>.cls-1{fill:none;stroke:#6BCDB2;stroke-miterlimit:10;stroke-width:0.86px;}</style></defs><g id="Layer_2" data-name="Layer 2"><path class="cls-1" d="M20.58,51.61a40.41,40.41,0,0,0,3.62-2.25c1.55-1.18,2.37-3.4,1.21-3.7-1.67-.42-2.14,5.1-.57,5.84,1.9.9,6.78-4.92,6.78-4.92l-1.61,5a8.83,8.83,0,0,1,5.15-1.71"/><path class="cls-1" d="M50.37,17.35c2.32.33-1.55,8.13-5.69,17.12a91.12,91.12,0,0,1-9.31,15.4c-.37,1.05,1.55-8.13,5.69-17.11S48.35,17.06,50.37,17.35Z"/><line class="cls-1" x1="43.4" y1="27.9" x2="46.86" y2="29.53"/><circle class="cls-1" cx="35.37" cy="35.37" r="31.5"/></g></svg>