<svg width="132px" height="93px" viewBox="0 0 132 93" version="1.1" xmlns="http://www.w3.org/2000/svg" xmlns:xlink="http://www.w3.org/1999/xlink">
    <g id="Page-1" stroke="none" stroke-width="1" fill="none" fill-rule="evenodd">
        <g id="Landing-page-–-Vertical-Copy-22" transform="translate(-1428.000000, -3922.000000)" fill="#F2F2F2" fill-rule="nonzero">
            <g id="noun-quote-1740489-copy-5" transform="translate(1428.000000, 3922.000000)">
                <path d="M104.686567,53.2237275 L73.6454134,53.1428571 C72.1836844,53.1388537 71,51.9506173 71,50.4853043 L71,2.65755282 C71,1.18986214 72.1876126,0 73.6525742,0 L129.347426,0 C130.812367,0 132,1.18984164 132,2.65755282 L132,47.8287764 C132,72.7767713 111.813839,93 86.9133993,93 C85.4484582,93 84.2616435,91.8101584 84.2616435,90.3424472 L84.2616435,69.0861242 C84.2616435,67.6184336 85.4484582,66.4285714 86.9133993,66.4285714 C95.2295724,66.4280651 102.367278,60.9167946 104.686567,53.2237275 Z M126.620321,5.26415094 L76.2285714,5.26415094 L76.2285714,47.784996 L107.885556,47.8682687 C109.482359,47.8722722 110.713877,49.2782988 110.509282,50.8652668 C109.096308,61.8379979 100.329044,70.341552 89.4891919,71.5455987 L89.4891919,87.5483097 C110.222849,86.1807103 126.619093,68.8976799 126.619093,47.7782829 L126.620321,5.26415094 Z" id="Shape"></path>
                <path d="M2.64541338,53.1428571 C1.18288647,53.1388537 0,51.9506173 0,50.4853043 L0,2.65755282 C0,1.18986214 1.18761261,0 2.65257421,0 L58.3474258,0 C59.8123669,0 61,1.18984164 61,2.65755282 L61,47.8287764 C61,72.7767713 40.8138387,93 15.9133993,93 C14.4484582,93 13.2616435,91.8101584 13.2616435,90.3424472 L13.2616435,69.0861242 C13.2616435,67.6184336 14.4484582,66.4285714 15.9133993,66.4285714 C24.2305953,66.4285714 31.3683012,60.9173009 33.6867718,53.2242338 L2.64541338,53.1428571 Z M55.6203205,5.26415094 L5.22857143,5.26415094 L5.22857143,47.784996 L36.8855562,47.8682687 C38.4823588,47.8722722 39.7138775,49.2782988 39.5092825,50.8652668 C38.0963085,61.8379979 29.3290443,70.341552 18.4891919,71.5455987 L18.4891919,87.5483097 C39.2228495,86.1807103 55.619093,68.8976799 55.619093,47.7782829 L55.6203205,5.26415094 Z" id="Shape-Copy"></path>
            </g>
        </g>
    </g>
</svg>