<?xml version="1.0" encoding="utf-8"?>
<!-- Generator: Adobe Illustrator 25.0.1, SVG Export Plug-In . SVG Version: 6.00 Build 0)  -->
<svg version="1.1" id="Layer_1" xmlns="http://www.w3.org/2000/svg" xmlns:xlink="http://www.w3.org/1999/xlink" x="0px" y="0px"
	 viewBox="0 0 16 16" style="enable-background:new 0 0 16 16;" xml:space="preserve">
<style type="text/css">
	.st0{fill-rule:evenodd;clip-rule:evenodd;fill:#124538;}
</style>
<path class="st0" d="M13.6,4l-0.8,0.6c1.6,1.9,1.6,4.8-0.1,6.6l0.7,0.7C15.5,9.8,15.5,6.4,13.6,4L13.6,4z M9,15
	c-0.1,0-0.3-0.1-0.4-0.1L4.8,11H1.5C1.2,11,1,10.8,1,10.5v-5C1,5.2,1.2,5,1.5,5h3.3l3.8-3.9C8.8,1,9.2,1,9.4,1.1
	c0.1,0.1,0.1,0.2,0.1,0.3v13C9.5,14.8,9.3,15,9,15z M10.8,6c1,1.2,0.9,2.9-0.1,4l0.7,0.7c1.4-1.5,1.4-3.8,0.1-5.3L10.8,6z M5,10H2V6
	h3c0.1,0,0.3-0.1,0.4-0.2l3.1-3.1v10.6l-3.1-3.1C5.3,10.1,5.2,10,5,10z"/>
</svg>