<?xml version="1.0" encoding="utf-8"?>
<!-- Generator: Adobe Illustrator 25.0.1, SVG Export Plug-In . SVG Version: 6.00 Build 0)  -->
<svg version="1.1" id="Layer_1" xmlns="http://www.w3.org/2000/svg" xmlns:xlink="http://www.w3.org/1999/xlink" x="0px" y="0px"
	 viewBox="0 0 16 16" style="enable-background:new 0 0 16 16;" xml:space="preserve">
<style type="text/css">
	.st0{fill-rule:evenodd;clip-rule:evenodd;fill:#124538;}
</style>
<path class="st0" d="M9,15c-0.1,0-0.3-0.1-0.4-0.1L4.8,11H1.5C1.2,11,1,10.8,1,10.5v-5C1,5.2,1.2,5,1.5,5h3.3l3.8-3.9
	C8.8,1,9.2,1,9.4,1.1c0.1,0.1,0.1,0.2,0.1,0.3v13C9.5,14.8,9.3,15,9,15z M5,10H2V6h3c0.1,0,0.3-0.1,0.4-0.2l3.1-3.1v10.6l-3.1-3.1
	C5.3,10.1,5.2,10,5,10z"/>
</svg>