<svg width="164px" height="106px" viewBox="0 0 164 106" version="1.1" xmlns="http://www.w3.org/2000/svg" xmlnsXlink="http://www.w3.org/1999/xlink">
    <g id="Page-1" stroke="none" stroke-width="1" fill="none" fill-rule="evenodd">
        <g id="Landing-page-–-Vertical-Copy-22" transform="translate(-1058.000000, -255.000000)" fill="#FFFFFF" fill-rule="nonzero">
            <g id="noun-quote-1740489" transform="translate(1058.000000, 255.000000)">
                <path d="M132.656716,60.6636034 L97.0357203,60.5714286 C95.3583263,60.5668655 94,59.2125315 94,57.5423899 L94,3.02903869 C94,1.35618695 95.3628341,0 97.0439376,0 L160.956062,0 C162.637142,0 164,1.35616359 164,3.02903869 L164,54.5145193 C164,82.9498683 140.835553,106 112.261278,106 C110.580198,106 109.218279,104.643836 109.218279,102.970961 L109.218279,78.7433244 C109.218279,77.0704727 110.580198,75.7142857 112.261278,75.7142857 C121.804427,75.7137086 129.995237,69.4320454 132.656716,60.6636034 Z M157.826597,6 L100,6 L100,54.4646191 L136.327687,54.5595321 C138.160084,54.5640951 139.573302,56.1666631 139.338521,57.9754653 C137.717075,70.4820192 127.65628,80.1742421 115.217105,81.5465964 L115.217105,99.7862455 C139.009827,98.2274762 157.825189,78.5285384 157.825189,54.4569676 L157.826597,6 Z" id="Shape"></path>
                <path d="M3.03572028,60.5714286 C1.3574107,60.5668655 0,59.2125315 0,57.5423899 L0,3.02903869 C0,1.35618695 1.36283414,0 3.04393762,0 L66.9560624,0 C68.6371424,0 70,1.35616359 70,3.02903869 L70,54.5145193 C70,82.9498683 46.8355526,106 18.2612779,106 C16.5801979,106 15.2182794,104.643836 15.2182794,102.970961 L15.2182794,78.7433244 C15.2182794,77.0704727 16.5801979,75.7142857 18.2612779,75.7142857 C27.8056012,75.7142857 35.9964112,69.4326225 38.6569512,60.6641805 L3.03572028,60.5714286 Z M63.8265974,6 L6,6 L6,54.4646191 L42.3276874,54.5595321 C44.1600839,54.5640951 45.573302,56.1666631 45.3385209,57.9754653 C43.7170753,70.4820192 33.6562804,80.1742421 21.2171055,81.5465964 L21.2171055,99.7862455 C45.0098273,98.2274762 63.8251887,78.5285384 63.8251887,54.4569676 L63.8265974,6 Z" id="Shape-Copy"></path>
            </g>
        </g>
    </g>
</svg>