<svg width="693px" height="447px" viewBox="0 0 693 447" version="1.1" xmlns="http://www.w3.org/2000/svg" xmlns:xlink="http://www.w3.org/1999/xlink">
    <g id="Page-1" stroke="none" stroke-width="1" fill="none" fill-rule="evenodd" opacity="0.380833217">
        <g id="Landing-page-–-Vertical-Copy-22" transform="translate(-1443.000000, -352.000000)" fill="#F6F6F6" fill-rule="nonzero">
            <g id="noun-quote-1740489-copy-2" transform="translate(1443.000000, 352.000000)">
                <path d="M560.462687,255.817271 L409.83676,255.428571 C402.74378,255.409329 397,249.698128 397,242.655172 L397,12.773399 C397,5.71901478 402.762842,0 409.871508,0 L680.128492,0 C687.237059,0 693,5.71891626 693,12.773399 L693,229.8867 C693,349.79803 595.047479,447 474.219118,447 C467.110551,447 461.351581,441.281084 461.351581,434.226601 L461.351581,332.059113 C461.351581,325.004729 467.110551,319.285714 474.219118,319.285714 C514.573007,319.283281 549.208432,292.793626 560.462687,255.817271 Z M666.895326,25.3018868 L422.371429,25.3018868 L422.371429,229.676271 L575.98565,230.076517 C583.734069,230.09576 589.709963,236.853759 588.717174,244.481443 C581.860776,297.221345 539.317986,338.093266 486.718046,343.880458 L486.718046,420.796714 C587.32727,414.223414 666.889369,331.153365 666.889369,229.644005 L666.895326,25.3018868 Z" id="Shape"></path>
                <path d="M12.83676,255.428571 C5.7399081,255.409329 0,249.698128 0,242.655172 L0,12.773399 C0,5.71901478 5.76284152,0 12.8715076,0 L283.128492,0 C290.237059,0 296,5.71891626 296,12.773399 L296,229.8867 C296,349.79803 198.047479,447 77.2191179,447 C70.1105511,447 64.3515814,441.281084 64.3515814,434.226601 L64.3515814,332.059113 C64.3515814,325.004729 70.1105511,319.285714 77.2191179,319.285714 C117.577971,319.285714 152.213396,292.796059 163.463679,255.819704 L12.83676,255.428571 Z M269.895326,25.3018868 L25.3714286,25.3018868 L25.3714286,229.676271 L178.98565,230.076517 C186.734069,230.09576 192.709963,236.853759 191.717174,244.481443 C184.860776,297.221345 142.317986,338.093266 89.718046,343.880458 L89.718046,420.796714 C190.32727,414.223414 269.889369,331.153365 269.889369,229.644005 L269.895326,25.3018868 Z" id="Shape-Copy"></path>
            </g>
        </g>
    </g>
</svg>