<svg width="16" height="16" viewBox="0 0 16 16" fill="none" xmlns="http://www.w3.org/2000/svg">
	<path fill-rule="evenodd" clip-rule="evenodd"
		  d="M13.58 4.03979L12.815 4.68479C14.4411 6.61106 14.379 9.44662 12.67 11.2998L13.405 11.9998C15.4573 9.77594 15.5323 6.3719 13.58 4.05979V4.03979ZM9 14.9998C8.86638 14.9992 8.73854 14.9452 8.645 14.8498L4.835 10.9998H1.5C1.22386 10.9998 1 10.7759 1 10.4998V5.49979C1 5.22365 1.22386 4.99979 1.5 4.99979H4.835L8.645 1.14979C8.84002 0.955929 9.15498 0.955929 9.35 1.14979C9.44421 1.24211 9.49812 1.36791 9.5 1.49979V14.4998C9.5 14.7759 9.27614 14.9998 9 14.9998ZM10.79 5.99979C11.7654 7.15647 11.7269 8.85851 10.7 9.96979L11.435 10.6498C12.8037 9.16655 12.853 6.89606 11.55 5.35479L10.79 5.99979ZM5.04 9.99979H2V5.99979H5.04C5.17362 5.99924 5.30146 5.94522 5.395 5.84979L8.5 2.71479V13.2848L5.395 10.1498C5.30146 10.0544 5.17362 10.0003 5.04 9.99979Z"
		  fill="white"/>
</svg>