<svg width="9" height="14" viewBox="0 0 9 14" fill="none" xmlns="http://www.w3.org/2000/svg">
<path fill-rule="evenodd" clip-rule="evenodd" d="M7.645 13.8498C7.73854 13.9452 7.86638 13.9992 8 13.9998C8.27614 13.9998 8.5 13.7759 8.5 13.4998V0.499791C8.49812 0.367906 8.44421 0.242106 8.35 0.149791C8.15498 -0.0440709 7.84002 -0.0440709 7.645 0.149791L3.835 3.99979H0.5C0.223858 3.99979 0 4.22365 0 4.49979V9.49979C0 9.77593 0.223858 9.99979 0.5 9.99979H3.835L7.645 13.8498ZM4.04 8.99979H1V4.99979H4.04C4.17362 4.99924 4.30146 4.94522 4.395 4.84979L7.5 1.71479V12.2848L4.395 9.14979C4.30146 9.05436 4.17362 9.00035 4.04 8.99979Z" fill="white"/>
</svg>