<svg xmlns="http://www.w3.org/2000/svg" viewBox="0 0 68.17 68.17"><defs><style>.cls-1{fill:none;stroke:#124537;stroke-miterlimit:10;stroke-width:0.86px;}</style></defs><g id="Layer_2" data-name="Layer 2"><circle class="cls-1" cx="34.08" cy="34.08" r="31.5"/><path class="cls-1" d="M14.79,43.33h6.09c2.09,0,2.26,0,3.88,1.44l4,3.64a4,4,0,0,0,2.59,1.19,2.6,2.6,0,0,0,1.79-.74,3,3,0,0,0,.93-2.16,1.68,1.68,0,0,0,.32.09,3,3,0,0,0,3.45-2.42,3.4,3.4,0,0,0,0-.45,2.07,2.07,0,0,0,.43.1,2.94,2.94,0,0,0,3.36-2.89,3.12,3.12,0,0,0,.44.09,3.08,3.08,0,0,0,2.33-.73A3.15,3.15,0,0,0,45,36.27l-.06-.07-9.12-9.13A3,3,0,0,0,31.6,27l-4.77,4.13a1.83,1.83,0,0,1-2.52,0,1.59,1.59,0,0,1-.13-2.33l7.36-7.22A4.32,4.32,0,0,1,35.34,20H36.5c1.68,0,2.35.58,3.57,1.65L44,25.11c1.24,1.09,2.06,1.14,4,1.14H54"/><line class="cls-1" x1="34.1" y1="46.7" x2="31.85" y2="44.05"/><line class="cls-1" x1="37.93" y1="43.94" x2="35.23" y2="40.75"/><line class="cls-1" x1="41.71" y1="41.29" x2="38.44" y2="37.46"/></g></svg>