<?xml version="1.0" encoding="UTF-8" standalone="no"?>
<svg
   xmlns:dc="http://purl.org/dc/elements/1.1/"
   xmlns:cc="http://creativecommons.org/ns#"
   xmlns:rdf="http://www.w3.org/1999/02/22-rdf-syntax-ns#"
   xmlns:svg="http://www.w3.org/2000/svg"
   xmlns="http://www.w3.org/2000/svg"
   xmlns:xlink="http://www.w3.org/1999/xlink"
   xmlns:sodipodi="http://sodipodi.sourceforge.net/DTD/sodipodi-0.dtd"
   xmlns:inkscape="http://www.inkscape.org/namespaces/inkscape"
   version="1.1"
   id="svg5814"
   inkscape:version="1.0.1 (c497b03c, 2020-09-10)"
   sodipodi:docname="ecosystem-darkMode.inline.svg"
   x="0px"
   y="0px"
   viewBox="0 0 850 850"
   style="enable-background:new 0 0 850 850;"
   xml:space="preserve"><metadata
   id="metadata1273"><rdf:RDF><cc:Work
       rdf:about=""><dc:format>image/svg+xml</dc:format><dc:type
         rdf:resource="http://purl.org/dc/dcmitype/StillImage" /></cc:Work></rdf:RDF></metadata><defs
   id="defs1271" />
<style
   type="text/css"
   id="style833">
	.st0{fill:#E7E8EB;}
	.st1{fill:#6BCDB2;}
	.st2{fill:#262A2D;}
	.st3{fill:#6BCDB2;}
	.st4{fill:#49C7ED;}
	.st5{fill:#009DE1;}
	.st6{fill:#11034C;}
	.st7{fill-opacity:0;}
	.st8{fill:#0099A8;}
	.st9{fill:#C2D500;}
	.st10{fill:#004438;}
	.st11{fill:#500000;}
	.st12{fill:#FEBE10;}
	.st13{fill:#EE3124;}
	.st14{fill:#AA182C;}
	.st15{fill:#4D4D4D;}
	.st16{fill:url(#path5231_1_);}
	.st17{fill:url(#path5233_1_);}
	.st18{fill:url(#path5235_1_);}
	.st19{fill:url(#path5237_1_);}
	.st20{fill:url(#path5239_1_);}
	.st21{fill:#8E1537;}
	.st22{fill:#00B3F0;}
	.st23{fill:#0095DA;}
	.st24{fill:#0080C6;}
	.st25{fill:#0E69B4;}
	.st26{fill:#524FA1;}
	.st27{fill:#7F3F98;}
	.st28{fill:#92278F;}
	.st29{fill:#A5247A;}
	.st30{fill:#BE1B87;}
	.st31{fill:#D80B8C;}
	.st32{fill:#ED0180;}
	.st33{fill:#EE3D85;}
	.st34{fill:#F05B78;}
	.st35{fill:#F37167;}
	.st36{fill:#F5833C;}
	.st37{fill:#F99D1C;}
	.st38{fill:#FFE600;}
	.st39{fill:#FFF56D;}
	.st40{fill:#FFD400;}
	.st41{fill:#FDB714;}
	.st42{fill:#0066AB;}
	.st43{fill:#00A1E4;}
	.st44{fill:#0083CA;}
	.st45{fill:#0E4A8F;}
	.st46{fill:#2B2873;}
	.st47{fill:#0099D8;}
</style>
<sodipodi:namedview
   bordercolor="#666666"
   borderopacity="1"
   gridtolerance="10"
   guidetolerance="10"
   id="namedview5816"
   inkscape:current-layer="svg5814"
   inkscape:cx="360.44828"
   inkscape:cy="495.28316"
   inkscape:document-rotation="0"
   inkscape:window-height="749"
   inkscape:window-maximized="0"
   inkscape:window-width="1440"
   inkscape:window-x="0"
   inkscape:window-y="23"
   inkscape:zoom="0.78374771"
   objecttolerance="10"
   pagecolor="#ffffff"
   showgrid="false">
	</sodipodi:namedview>























<g
   id="g1302"><path
     id="path5135"
     class="st0"
     d="M403.8,740.5c-0.5-2.6-0.5-5.3,0-7.9c0.9-2.4,3.6-3.7,6-2.8c1.3,0.5,2.3,1.5,2.8,2.8  c0.5,2.6,0.5,5.3,0,7.9c-0.9,2.4-3.6,3.7-6,2.8C405.3,742.8,404.3,741.8,403.8,740.5z M411.5,733c-0.7-1.8-2.7-2.8-4.5-2.1  c-1,0.4-1.7,1.1-2.1,2.1c-0.5,2.4-0.5,4.8,0,7.2c0.7,1.8,2.7,2.8,4.5,2.1c1-0.4,1.7-1.1,2.1-2.1C411.9,737.8,411.9,735.4,411.5,733z  " /><path
     id="path5137"
     class="st0"
     d="M418.9,743.5c-1.8,0-2.5-0.7-2.5-2.6V735c0-0.1,0-0.1-0.1-0.1l0,0h-1c-0.1,0-0.2-0.1-0.2-0.2l0,0  V734c0-0.1,0.1-0.2,0.2-0.2l0,0h1c0.1,0,0.1,0,0.1-0.1l0,0V731c0-0.1,0.1-0.2,0.2-0.2l0,0h0.7c0.1,0,0.2,0.1,0.2,0.2l0,0v2.7  c0,0.1,0,0.1,0.1,0.1l0,0h1.8c0.1,0,0.2,0.1,0.2,0.2l0,0v0.6c0,0.1-0.1,0.2-0.2,0.2l0,0h-1.8c-0.1,0-0.1,0-0.1,0.1l0,0v5.9  c0,1.3,0.4,1.6,1.5,1.6h0.4c0.1,0,0.2,0.1,0.2,0.2l0,0v0.6c0,0.1-0.1,0.2-0.2,0.2l0,0L418.9,743.5z" /><path
     id="path5139"
     class="st0"
     d="M428.7,743.4c-0.1,0-0.2-0.1-0.2-0.2l0,0v-5.6c0-1.9-0.8-2.9-2.5-2.9c-1.4-0.1-2.5,1-2.6,2.4  c0,0.1,0,0.2,0,0.3v5.8c0,0.1-0.1,0.2-0.2,0.2l0,0h-0.7c-0.1,0-0.2-0.1-0.2-0.2l0,0V730c0-0.1,0.1-0.2,0.2-0.2l0,0h0.7  c0.1,0,0.2,0.1,0.2,0.2l0,0v5.2l0,0c0.6-1,1.7-1.6,2.8-1.5c2.1,0,3.3,1.3,3.3,3.6v5.9c0,0.1-0.1,0.2-0.2,0.2l0,0H428.7z" /><path
     id="path5141"
     class="st0"
     d="M432.8,741.1c-0.2-0.8-0.3-1.6-0.3-2.5c0-0.8,0.1-1.7,0.3-2.5c0.7-2,2.9-3,4.8-2.3  c1,0.4,1.9,1.2,2.3,2.3c0.2,0.8,0.3,1.7,0.3,2.5c0,0.1-0.1,0.2-0.2,0.2l0,0h-6.2c-0.1,0-0.1,0.1-0.1,0.1c0,0.6,0,1.1,0.2,1.7  c0.4,1.2,1.5,1.9,2.7,1.9c1,0,2-0.4,2.7-1.2c0.1-0.1,0.2-0.1,0.3,0l0,0l0.5,0.4c0.1,0.1,0.1,0.2,0,0.3l0,0c-0.8,1.1-2.1,1.7-3.5,1.6  C434.8,743.7,433.2,742.7,432.8,741.1z M439,738c0.1,0,0.1,0,0.1-0.1l0,0c0-0.5,0-0.9-0.2-1.4c-0.5-1.4-2.1-2.1-3.5-1.6  c-0.8,0.3-1.4,0.9-1.6,1.6c-0.1,0.4-0.2,0.9-0.2,1.4c0,0.1,0,0.1,0.1,0.1l0,0H439z" /><path
     id="path5143"
     class="st0"
     d="M443.4,743.4c-0.1,0-0.2-0.1-0.2-0.2l0,0V734c0-0.1,0.1-0.2,0.2-0.2l0,0h0.7  c0.1,0,0.2,0.1,0.2,0.2l0,0v1.2l0,0c0.4-1,1.4-1.7,2.6-1.6c0.7,0,1.4,0.2,1.9,0.7c0.1,0.1,0.1,0.2,0,0.2l0,0l-0.4,0.6  c-0.1,0.1-0.2,0.1-0.3,0c-0.4-0.3-1-0.5-1.5-0.5c-1.7,0-2.3,1.5-2.3,3.2v5.3c0,0.1-0.1,0.2-0.2,0.2l0,0L443.4,743.4z" /><path
     id="path5145"
     class="st0"
     d="M395.5,767.4c-0.1,0-0.2-0.1-0.2-0.2l0,0V754c0-0.1,0.1-0.2,0.2-0.2l0,0h4.5  c2.6,0,4.2,1.5,4.2,3.9s-1.6,3.8-4.2,3.8h-3.5c-0.1,0-0.1,0-0.1,0.1l0,0v5.6c0,0.1-0.1,0.2-0.2,0.2l0,0L395.5,767.4z M403.1,757.7  c0-1.7-1.1-2.8-3.1-2.8h-3.4c-0.1,0-0.1,0-0.1,0.1l0,0v5.3c0,0.1,0,0.1,0.1,0.1l0,0h3.4C402,760.4,403.1,759.4,403.1,757.7  L403.1,757.7z" /><path
     id="path5147"
     class="st0"
     d="M407.4,759.4c-0.1,0.1-0.2,0.1-0.3,0l0,0l-0.3-0.5c-0.1-0.1,0-0.2,0.1-0.3l0,0  c0.9-0.6,1.9-1,3-0.9c2.5,0,3.5,0.8,3.5,3.2v6.4c0,0.1-0.1,0.2-0.2,0.2l0,0h-0.6c-0.1,0-0.2-0.1-0.2-0.2l0,0v-1l0,0  c-0.6,1-1.8,1.6-3,1.4c-1.9,0-3.2-1-3.2-2.8s1.3-2.8,3.6-2.8h2.4c0.1,0,0.1,0,0.1-0.1l0,0v-1c0-1.6-0.5-2.2-2.5-2.2  C408.9,758.6,408,758.9,407.4,759.4L407.4,759.4z M412.2,764.5V763c0-0.1,0-0.1-0.1-0.1l0,0h-2.3c-1.9,0-2.7,0.6-2.7,1.9  s0.8,1.8,2.4,1.8S412.2,765.8,412.2,764.5L412.2,764.5z" /><path
     id="path5149"
     class="st0"
     d="M417.1,767.4c-0.1,0-0.2-0.1-0.2-0.2l0,0V758c0-0.1,0.1-0.2,0.2-0.2l0,0h0.7  c0.1,0,0.2,0.1,0.2,0.2l0,0v1.2l0,0c0.4-1,1.4-1.7,2.6-1.6c0.7,0,1.4,0.2,1.9,0.7c0.1,0.1,0.1,0.2,0,0.2l0,0l-0.4,0.6  c-0.1,0.1-0.2,0.1-0.3,0c-0.4-0.3-1-0.5-1.5-0.5c-1.7,0-2.3,1.5-2.3,3.2v5.3c0,0.1-0.1,0.2-0.2,0.2l0,0L417.1,767.4z" /><path
     id="path5151"
     class="st0"
     d="M427.5,767.5c-1.8,0-2.5-0.7-2.5-2.6V759c0-0.1,0-0.1-0.1-0.1l0,0h-1c-0.1,0-0.2-0.1-0.2-0.2l0,0  V758c0-0.1,0.1-0.2,0.2-0.2l0,0h1c0.1,0,0.1,0,0.1-0.1l0,0V755c0-0.1,0.1-0.2,0.2-0.2l0,0h0.7c0.1,0,0.2,0.1,0.2,0.2l0,0v2.7  c0,0.1,0,0.1,0.1,0.1l0,0h1.8c0.1,0,0.2,0.1,0.2,0.2l0,0v0.6c0,0.1-0.1,0.2-0.2,0.2l0,0h-1.8c-0.1,0-0.1,0-0.1,0.1l0,0v5.9  c0,1.3,0.4,1.6,1.5,1.6h0.4c0.1,0,0.2,0.1,0.2,0.2l0,0v0.6c0,0.1-0.1,0.2-0.2,0.2l0,0L427.5,767.5z" /><path
     id="path5153"
     class="st0"
     d="M437.4,767.4c-0.1,0-0.2-0.1-0.2-0.2l0,0v-5.6c0-1.9-0.8-2.9-2.5-2.9c-1.4-0.1-2.5,1-2.6,2.4  c0,0.1,0,0.2,0,0.3v5.8c0,0.1-0.1,0.2-0.2,0.2l0,0h-0.7c-0.1,0-0.2-0.1-0.2-0.2l0,0V758c0-0.1,0.1-0.2,0.2-0.2l0,0h0.7  c0.1,0,0.2,0.1,0.2,0.2l0,0v1.1l0,0c0.6-1,1.7-1.6,2.8-1.5c2.1,0,3.3,1.3,3.3,3.6v5.9c0,0.1-0.1,0.2-0.2,0.2l0,0L437.4,767.4z" /><path
     id="path5155"
     class="st0"
     d="M441.5,765.1c-0.2-0.8-0.3-1.6-0.3-2.5c0-0.8,0.1-1.7,0.3-2.5c0.7-2,2.9-3,4.8-2.3  c1,0.4,1.9,1.2,2.3,2.3c0.2,0.8,0.3,1.7,0.3,2.5c0,0.1-0.1,0.2-0.2,0.2l0,0h-6.2c-0.1,0-0.1,0.1-0.1,0.1c0,0.6,0,1.1,0.2,1.7  c0.4,1.2,1.5,1.9,2.7,1.9c1,0,2-0.4,2.7-1.2c0.1-0.1,0.2-0.1,0.3,0l0,0l0.5,0.4c0.1,0.1,0.1,0.2,0,0.3l0,0c-0.8,1.1-2.1,1.7-3.5,1.6  C443.4,767.7,441.9,766.7,441.5,765.1z M447.6,762c0.1,0,0.1,0,0.1-0.1l0,0c0-0.5,0-0.9-0.2-1.4c-0.5-1.4-2.1-2.1-3.5-1.6  c-0.8,0.3-1.4,0.9-1.6,1.6c-0.1,0.4-0.2,0.9-0.2,1.4c0,0.1,0,0.1,0.1,0.1l0,0H447.6z" /><path
     id="path5157"
     class="st0"
     d="M452.1,767.4c-0.1,0-0.2-0.1-0.2-0.2l0,0V758c0-0.1,0.1-0.2,0.2-0.2l0,0h0.7  c0.1,0,0.2,0.1,0.2,0.2l0,0v1.2l0,0c0.4-1,1.4-1.7,2.6-1.6c0.7,0,1.4,0.2,1.9,0.7c0.1,0.1,0.1,0.2,0,0.2l0,0l-0.4,0.6  c-0.1,0.1-0.2,0.1-0.3,0c-0.4-0.3-1-0.5-1.5-0.5c-1.7,0-2.3,1.5-2.3,3.2v5.3c0,0.1-0.1,0.2-0.2,0.2l0,0L452.1,767.4z" /><path
     id="path5159"
     class="st0"
     d="M378.3,786.7c0,2.6,1.3,3.8,3.5,3.8s3.5-1.2,3.5-3.8V778c0-0.1,0.1-0.2,0.2-0.2l0,0h0.7  c0.1,0,0.2,0.1,0.2,0.2l0,0v8.7c0,3.3-1.8,4.9-4.6,4.9s-4.6-1.6-4.6-4.9V778c0-0.1,0.1-0.2,0.2-0.2l0,0h0.7c0.1,0,0.2,0.1,0.2,0.2  l0,0L378.3,786.7z" /><path
     id="path5161"
     class="st0"
     d="M396.4,791.4c-0.1,0-0.2-0.1-0.2-0.2l0,0v-5.6c0-1.9-0.8-2.9-2.5-2.9c-1.4-0.1-2.5,1-2.6,2.4  c0,0.1,0,0.2,0,0.3v5.8c0,0.1-0.1,0.2-0.2,0.2l0,0h-0.7c-0.1,0-0.2-0.1-0.2-0.2l0,0V782c0-0.1,0.1-0.2,0.2-0.2l0,0h0.7  c0.1,0,0.2,0.1,0.2,0.2l0,0v1.1l0,0c0.6-1,1.7-1.6,2.8-1.5c2.1,0,3.3,1.3,3.3,3.6v5.9c0,0.1-0.1,0.2-0.2,0.2l0,0L396.4,791.4z" /><path
     id="path5163"
     class="st0"
     d="M400.9,779.3c-0.1,0-0.2-0.1-0.2-0.2l0,0V778c0-0.1,0.1-0.2,0.2-0.2l0,0h0.9  c0.1,0,0.2,0.1,0.2,0.2l0,0v1.1c0,0.1-0.1,0.2-0.2,0.2l0,0H400.9z M401,791.4c-0.1,0-0.2-0.1-0.2-0.2l0,0V782c0-0.1,0.1-0.2,0.2-0.2  l0,0h0.7c0.1,0,0.2,0.1,0.2,0.2l0,0v9.1c0,0.1-0.1,0.2-0.2,0.2l0,0H401V791.4z" /><path
     id="path5165"
     class="st0"
     d="M408.1,791.4c-0.1,0-0.2-0.1-0.2-0.2l-3.5-9.1c0-0.1,0-0.2,0.2-0.2h0.7c0.1,0,0.2,0.1,0.3,0.2  l2.9,7.6l0,0l2.8-7.6c0.1-0.1,0.1-0.2,0.3-0.2h0.7c0.1,0,0.2,0.1,0.2,0.2l-3.4,9.1c0,0.1-0.1,0.2-0.2,0.2H408.1z" /><path
     id="path5167"
     class="st0"
     d="M414.5,789.1c-0.2-0.8-0.3-1.6-0.3-2.5c0-0.8,0.1-1.7,0.3-2.5c0.7-2,2.9-3,4.8-2.3  c1,0.4,1.9,1.2,2.3,2.3c0.2,0.8,0.3,1.7,0.3,2.5c0,0.1-0.1,0.2-0.2,0.2l0,0h-6.2c-0.1,0-0.1,0.1-0.1,0.1c0,0.6,0,1.1,0.2,1.7  c0.4,1.2,1.5,1.9,2.7,1.9c1,0,2-0.4,2.7-1.2c0.1-0.1,0.2-0.1,0.3,0l0,0l0.5,0.4c0.1,0.1,0.1,0.2,0,0.3l0,0c-0.8,1.1-2.1,1.7-3.5,1.6  C416.5,791.7,415,790.7,414.5,789.1z M420.7,786c0.1,0,0.1,0,0.1-0.1l0,0c0-0.5,0-0.9-0.2-1.4c-0.5-1.4-2.1-2.1-3.5-1.6  c-0.8,0.3-1.4,0.9-1.6,1.6c-0.1,0.4-0.2,0.9-0.2,1.4c0,0.1,0,0.1,0.1,0.1l0,0H420.7z" /><path
     id="path5169"
     class="st0"
     d="M425.1,791.4c-0.1,0-0.2-0.1-0.2-0.2l0,0V782c0-0.1,0.1-0.2,0.2-0.2l0,0h0.7  c0.1,0,0.2,0.1,0.2,0.2l0,0v1.2l0,0c0.4-1,1.4-1.7,2.6-1.6c0.7,0,1.4,0.2,1.9,0.7c0.1,0.1,0.1,0.2,0,0.2l0,0l-0.4,0.6  c-0.1,0.1-0.2,0.1-0.3,0c-0.4-0.3-1-0.5-1.5-0.5c-1.7,0-2.3,1.5-2.3,3.2v5.3c0,0.1-0.1,0.2-0.2,0.2l0,0L425.1,791.4z" /><path
     id="path5171"
     class="st0"
     d="M432,790.2c-0.1-0.1-0.1-0.2,0-0.3l0,0l0.4-0.5c0.1-0.1,0.2-0.1,0.3,0c0.9,0.7,2,1.1,3.1,1.1  c1.7,0,2.5-0.7,2.5-1.8s-0.4-1.5-2.2-1.7l-1-0.1c-1.8-0.2-2.8-1-2.8-2.5c0-1.7,1.3-2.8,3.4-2.8c1.1,0,2.2,0.3,3.2,0.9  c0.1,0.1,0.1,0.2,0,0.3l-0.4,0.5c-0.1,0.1-0.2,0.1-0.3,0.1l0,0c-0.8-0.5-1.7-0.7-2.6-0.7c-1.5,0-2.2,0.6-2.2,1.7s0.6,1.4,2.2,1.6  l1,0.1c1.9,0.2,2.8,1.1,2.8,2.6c0,1.8-1.3,3-3.7,3C434.3,791.6,433,791.1,432,790.2z" /><path
     id="path5173"
     class="st0"
     d="M442.4,779.3c-0.1,0-0.2-0.1-0.2-0.2l0,0V778c0-0.1,0.1-0.2,0.2-0.2l0,0h0.9  c0.1,0,0.2,0.1,0.2,0.2l0,0v1.1c0,0.1-0.1,0.2-0.2,0.2l0,0H442.4z M442.5,791.4c-0.1,0-0.2-0.1-0.2-0.2l0,0V782  c0-0.1,0.1-0.2,0.2-0.2l0,0h0.7c0.1,0,0.2,0.1,0.2,0.2l0,0v9.1c0,0.1-0.1,0.2-0.2,0.2l0,0h-0.7V791.4z" /><path
     id="path5175"
     class="st0"
     d="M449.8,791.5c-1.8,0-2.5-0.7-2.5-2.6V783c0-0.1,0-0.1-0.1-0.1l0,0h-1c-0.1,0-0.2-0.1-0.2-0.2l0,0  V782c0-0.1,0.1-0.2,0.2-0.2l0,0h1c0.1,0,0.1,0,0.1-0.1l0,0V779c0-0.1,0.1-0.2,0.2-0.2l0,0h0.7c0.1,0,0.2,0.1,0.2,0.2l0,0v2.7  c0,0.1,0,0.1,0.1,0.1l0,0h1.8c0.1,0,0.2,0.1,0.2,0.2l0,0v0.6c0,0.1-0.1,0.2-0.2,0.2l0,0h-1.8c-0.1,0-0.1,0-0.1,0.1l0,0v5.9  c0,1.3,0.4,1.6,1.5,1.6h0.4c0.1,0,0.2,0.1,0.2,0.2l0,0v0.6c0,0.1-0.1,0.2-0.2,0.2l0,0L449.8,791.5z" /><path
     id="path5177"
     class="st0"
     d="M453.4,779.3c-0.1,0-0.2-0.1-0.2-0.2l0,0V778c0-0.1,0.1-0.2,0.2-0.2l0,0h0.9  c0.1,0,0.2,0.1,0.2,0.2l0,0v1.1c0,0.1-0.1,0.2-0.2,0.2l0,0H453.4z M453.5,791.4c-0.1,0-0.2-0.1-0.2-0.2l0,0V782  c0-0.1,0.1-0.2,0.2-0.2l0,0h0.7c0.1,0,0.2,0.1,0.2,0.2l0,0v9.1c0,0.1-0.1,0.2-0.2,0.2l0,0h-0.7V791.4z" /><path
     id="path5179"
     class="st0"
     d="M457.7,789.1c-0.2-0.8-0.3-1.6-0.3-2.5c0-0.8,0.1-1.7,0.3-2.5c0.7-2,2.9-3,4.8-2.3  c1,0.4,1.9,1.2,2.3,2.3c0.2,0.8,0.3,1.7,0.3,2.5c0,0.1-0.1,0.2-0.2,0.2l0,0h-6.2c-0.1,0-0.1,0.1-0.1,0.1c0,0.6,0,1.1,0.2,1.7  c0.4,1.2,1.5,1.9,2.7,1.9c1,0,2-0.4,2.7-1.2c0.1-0.1,0.2-0.1,0.3,0l0,0l0.5,0.4c0.1,0.1,0.1,0.2,0,0.3l0,0c-0.8,1.1-2.1,1.7-3.5,1.6  C459.7,791.7,458.2,790.7,457.7,789.1z M463.9,786c0.1,0,0.1,0,0.1-0.1l0,0c0-0.5,0-0.9-0.2-1.4c-0.5-1.4-2.1-2.1-3.5-1.6  c-0.8,0.3-1.4,0.9-1.6,1.6c-0.1,0.4-0.2,0.9-0.2,1.4c0,0.1,0,0.1,0.1,0.1l0,0H463.9z" /><path
     id="path5181"
     class="st0"
     d="M467.4,790.2c-0.1-0.1-0.1-0.2,0-0.3l0,0l0.4-0.5c0.1-0.1,0.2-0.1,0.3,0c0.9,0.7,2,1.1,3.1,1.1  c1.7,0,2.5-0.7,2.5-1.8s-0.4-1.5-2.2-1.7l-1-0.1c-1.8-0.2-2.8-1-2.8-2.5c0-1.7,1.3-2.8,3.4-2.8c1.1,0,2.2,0.3,3.2,0.9  c0.1,0.1,0.1,0.2,0,0.3l-0.4,0.5c-0.1,0.1-0.2,0.1-0.3,0.1l0,0c-0.8-0.5-1.7-0.7-2.6-0.7c-1.5,0-2.2,0.6-2.2,1.7s0.6,1.4,2.2,1.6  l1,0.1c1.9,0.2,2.8,1.1,2.8,2.6c0,1.8-1.3,3-3.7,3C469.7,791.6,468.4,791.1,467.4,790.2L467.4,790.2z" /></g>




<g
   id="g1317"><g
     id="g1276"><path
       id="circle5537"
       class="st1"
       d="M508.5,424.8c0,46.1-37.4,83.5-83.5,83.5l0,0c-46.1,0-83.5-37.4-83.5-83.5l0,0  c0-46.1,37.4-83.5,83.5-83.5l0,0C471.1,341.3,508.5,378.7,508.5,424.8L508.5,424.8z" /></g><g
     id="g1308"><path
       id="path5539"
       class="st2"
       d="M395.9,415.5c0-0.2,0.1-0.3,0.3-0.3l0,0h1.1c0.2,0,0.3,0.1,0.3,0.3l0,0v19.8  c0,0.2-0.1,0.3-0.3,0.3l0,0h-1.1c-0.2,0-0.3-0.1-0.3-0.3l0,0V415.5z" /><path
       id="path5541"
       class="st2"
       d="M404.8,415.5c0-0.2,0.1-0.3,0.3-0.3l0,0h6.4c3.4,0,5.6,1.4,6.5,4.1c0.4,1.2,0.6,2.3,0.6,6.1  s-0.2,4.9-0.6,6.1c-0.9,2.8-3.1,4.1-6.5,4.1h-6.4c-0.2,0-0.3-0.1-0.3-0.3l0,0V415.5z M406.7,434h4.5c2.6,0,4.4-0.9,5.1-3.1  c0.3-1,0.5-2,0.5-5.5s-0.1-4.5-0.5-5.5c-0.7-2.2-2.5-3.1-5.1-3.1h-4.5c-0.1,0-0.2,0-0.2,0.1l0,0v16.8  C406.5,433.9,406.5,434,406.7,434C406.6,434,406.6,434,406.7,434z" /><path
       id="path5543"
       class="st2"
       d="M424.9,415.5c0-0.2,0.1-0.3,0.3-0.3l0,0h1.1c0.2,0,0.3,0.1,0.3,0.3l0,0v11.8l9.7-11.8  c0.1-0.2,0.3-0.3,0.5-0.3h1.4c0.1,0,0.2,0.1,0.2,0.2s0,0.1-0.1,0.2l-6.5,7.7l7,12c0.1,0.2,0,0.3-0.1,0.3h-1.4  c-0.2,0-0.4-0.1-0.5-0.3l-6.1-10.7l-4.2,5v5.7c0,0.2-0.1,0.3-0.3,0.3l0,0h-1.1c-0.2,0-0.3-0.1-0.3-0.3l0,0L424.9,415.5z" /><path
       id="path5545"
       class="st2"
       d="M448.8,435.6c-0.2,0-0.3-0.1-0.3-0.3l0,0V417c0-0.1,0-0.2-0.1-0.2l0,0h-5.9  c-0.2,0-0.3-0.1-0.3-0.3l0,0v-1c0-0.2,0.1-0.3,0.3-0.3l0,0h13.8c0.2,0,0.3,0.1,0.3,0.3l0,0v1c0,0.2-0.1,0.3-0.3,0.3l0,0h-5.9  c-0.1,0-0.2,0-0.2,0.1l0,0v18.3c0,0.2-0.1,0.3-0.3,0.3l0,0L448.8,435.6z" /></g></g>
<g
   id="g12219">
	<path
   id="path5547"
   class="st3"
   d="M479.3,510.1l53.5,82.1l0.8-0.5l-53.5-82.2C479.9,509.7,479.6,509.9,479.3,510.1L479.3,510.1z" />
	<path
   id="path5549"
   class="st3"
   d="M543.9,609.2l5,7.7l0.8-0.5l-5-7.7L543.9,609.2z" />
	<path
   id="path5551"
   class="st3"
   d="M549.9,618.5l3.6,5.6l0.8-0.5l-3.6-5.6L549.9,618.5z" />
	<path
   id="path5553"
   class="st3"
   d="M533.9,593.9l8.9,13.6l0.8-0.5l-8.9-13.6L533.9,593.9z" />
	<path
   id="path5555"
   class="st3"
   d="M555.5,625.2l-0.8,0.5l2.6,4l0.8-0.5L555.5,625.2z" />
	<path
   id="path5557"
   class="st3"
   d="M559.2,630.8l-0.8,0.5l1.7,2.6l0.8-0.5L559.2,630.8z" />
	<path
   id="path5559"
   class="st3"
   d="M565,639.7l-3.1-4.7l-0.8,0.5l3,4.7l-5.5-1.4l-0.3,1.3l7.6,1.9l1.3-7.7l-1.3-0.2L565,639.7z" />
	<circle
   id="circle5561"
   class="st3"
   cx="571.6"
   cy="652.2"
   r="5" />
	<path
   id="path5563"
   class="st3"
   d="M576.7,649.2c14.3-8.1,30.9-11.2,47.1-8.7l0.2-1c-16.5-2.5-33.4,0.6-47.9,8.9   C576.3,648.6,576.5,648.9,576.7,649.2z" />
	<path
   id="path5565"
   class="st3"
   d="M541.8,694.1c4.1-15.1,12.8-28.6,25.1-38.3c-0.2-0.3-0.4-0.6-0.5-0.8   c-12.4,9.9-21.4,23.6-25.5,38.9L541.8,694.1z" />
</g>
<g
   id="g12231">
	<path
   id="path5567"
   class="st3"
   d="M518.5,466.1l89.4,40.2c0.1-0.3,0.3-0.6,0.4-0.9l-89.4-40.2   C518.7,465.5,518.6,465.8,518.5,466.1z" />
	<path
   id="path5569"
   class="st3"
   d="M626.3,514.6l8.3,3.8c0.1-0.3,0.3-0.6,0.4-0.9l-8.3-3.8C626.6,514,626.4,514.3,626.3,514.6z" />
	<path
   id="path5571"
   class="st3"
   d="M636.5,519.2l6.1,2.7c0.1-0.3,0.3-0.6,0.4-0.9l-6.1-2.7C636.7,518.6,636.6,518.9,636.5,519.2   L636.5,519.2z" />
	<path
   id="path5573"
   class="st3"
   d="M609.7,507.1l14.8,6.7c0.1-0.3,0.3-0.6,0.4-0.9l-14.8-6.7C609.9,506.5,609.8,506.8,609.7,507.1z   " />
	<path
   id="path5575"
   class="st3"
   d="M644.7,521.8c-0.1,0.3-0.3,0.6-0.4,0.9l4.3,1.9c0.1-0.3,0.3-0.6,0.4-0.9L644.7,521.8z" />
	<path
   id="path5577"
   class="st3"
   d="M650.8,524.6c-0.1,0.3-0.3,0.6-0.4,0.9l2.8,1.3c0.1-0.3,0.3-0.6,0.4-0.9L650.8,524.6z" />
	<path
   id="path5579"
   class="st3"
   d="M660.5,528.9l-5.1-2.3c-0.1,0.3-0.3,0.6-0.4,0.9l5.1,2.3l-5.4,1.8l0.4,1.2l7.4-2.5l-3-7.2   l-1.2,0.5L660.5,528.9z" />
	<circle
   id="circle5581"
   class="st3"
   cx="672.9"
   cy="535.8"
   r="5" />
	<path
   id="path5583"
   class="st3"
   d="M675.5,530.6c7.7-14.5,20-26.1,35-32.8l-0.4-0.9c-15.2,6.8-27.7,18.5-35.5,33.3   C674.9,530.3,675.2,530.4,675.5,530.6z" />
	<path
   id="path5585"
   class="st3"
   d="M670.5,587.2c-4.8-14.9-4.6-31,0.4-45.8c-0.3-0.1-0.6-0.3-0.9-0.4c-5.1,15.1-5.3,31.4-0.4,46.5   L670.5,587.2z" />
</g>
<g
   id="g12243">
	<path
   id="path5587"
   class="st3"
   d="M525.7,410.3l97-14.5l-0.2-1l-97,14.5C525.6,409.7,525.7,410,525.7,410.3z" />
	<path
   id="path5589"
   class="st3"
   d="M642.7,392.9l9-1.4l-0.2-1l-9,1.4C642.5,392.2,642.6,392.6,642.7,392.9z" />
	<path
   id="path5591"
   class="st3"
   d="M653.7,391.2l6.6-1c0-0.3-0.1-0.7-0.2-1l-6.6,1C653.5,390.6,653.6,390.9,653.7,391.2z" />
	<path
   id="path5593"
   class="st3"
   d="M624.6,395.6l16.1-2.4c0-0.3-0.1-0.7-0.2-1l-16.1,2.4C624.5,394.9,624.6,395.2,624.6,395.6   L624.6,395.6z" />
	<path
   id="path5595"
   class="st3"
   d="M662,389c0,0.3,0.1,0.7,0.2,1l4.7-0.7c0-0.3-0.1-0.7-0.2-1L662,389z" />
	<path
   id="path5597"
   class="st3"
   d="M668.7,388c0.1,0.3,0.1,0.7,0.2,1l3-0.5l-0.2-1L668.7,388z" />
	<path
   id="path5599"
   class="st3"
   d="M679.2,386.4l-5.5,0.8l0.2,1l5.5-0.8l-3.5,4.4l1,0.8l4.9-6.1l-6.4-4.4l-0.7,1.1L679.2,386.4z" />
	<circle
   id="circle5601"
   class="st3"
   cx="693.3"
   cy="385.6"
   r="5" />
	<path
   id="path5603"
   class="st3"
   d="M692.7,379.7c-1.4-16.4,2.7-32.7,11.7-46.5l-0.8-0.5c-2.8,4.2-5.1,8.8-7,13.5   c-4.2,10.7-5.9,22.3-4.9,33.8C692,379.8,692.3,379.8,692.7,379.7z" />
	<path
   id="path5605"
   class="st3"
   d="M719,430.1c-12.1-10-20.6-23.6-24.4-38.8c-0.3,0.1-0.7,0.1-1,0.1c3.8,15.4,12.5,29.3,24.8,39.4   L719,430.1z" />
</g>
<g
   id="g12255">
	<path
   id="path5607"
   class="st3"
   d="M503.1,358l73.8-64.6l-0.7-0.8l-73.8,64.6C502.7,357.5,502.9,357.7,503.1,358L503.1,358z" />
	<path
   id="path5609"
   class="st3"
   d="M592.1,280.1l6.9-6l-0.7-0.8l-6.9,6C591.6,279.6,591.9,279.8,592.1,280.1z" />
	<path
   id="path5611"
   class="st3"
   d="M600.5,272.8l5-4.4l-0.7-0.8l-5,4.4L600.5,272.8z" />
	<path
   id="path5613"
   class="st3"
   d="M578.4,292.1l12.2-10.7l-0.7-0.7l-12.2,10.7C577.9,291.6,578.2,291.9,578.4,292.1z" />
	<path
   id="path5615"
   class="st3"
   d="M606.3,266.3l0.7,0.7l3.6-3.1l-0.7-0.8L606.3,266.3z" />
	<path
   id="path5617"
   class="st3"
   d="M611.4,261.9l0.7,0.8l2.3-2l-0.7-0.8L611.4,261.9z" />
	<path
   id="path5619"
   class="st3"
   d="M619.4,254.9l-4.2,3.7l0.7,0.7l4.2-3.7l-0.6,5.7l1.3,0.1l0.8-7.8l-7.8-0.2v1.3L619.4,254.9z" />
	<circle
   id="circle5621"
   class="st3"
   cx="630.8"
   cy="246.6"
   r="5" />
	<path
   id="path5623"
   class="st3"
   d="M627.1,242c-10-13-15.4-29-15.3-45.4h-1c-0.2,16.7,5.3,32.9,15.5,46.1   C626.6,242.5,626.8,242.2,627.1,242z" />
	<path
   id="path5625"
   class="st3"
   d="M676.5,270.1c-15.5-1.9-30.1-8.7-41.5-19.4c-0.2,0.2-0.5,0.5-0.8,0.7   c11.6,10.9,26.3,17.9,42.1,19.8L676.5,270.1z" />
</g>
<g
   id="g12279">
	<path
   id="path5627"
   class="st3"
   d="M477.1,510.8c-3.2,0.2-6-2.3-6.2-5.6c-0.2-3.2,2.3-6,5.6-6.2c3.2-0.2,6,2.3,6.2,5.6   C482.8,507.9,480.3,510.6,477.1,510.8z M476.5,499.8c-2.8,0.1-5,2.6-4.8,5.4c0.1,2.8,2.6,5,5.4,4.8c2.8-0.1,5-2.5,4.8-5.4   C481.7,501.8,479.3,499.7,476.5,499.8L476.5,499.8z" />
	<path
   id="path5629"
   class="st3"
   d="M498.1,367c-3.2,0.2-6-2.3-6.2-5.6c-0.2-3.2,2.3-6,5.6-6.2c3.2-0.2,6,2.3,6.2,5.6   C503.9,364.1,501.4,366.8,498.1,367z M497.6,356c-2.8,0.1-5,2.6-4.8,5.4c0.1,2.8,2.6,5,5.4,4.8c2.8-0.1,5-2.5,4.8-5.4   C502.8,358,500.4,355.9,497.6,356z" />
	<path
   id="path5631"
   class="st3"
   d="M337.3,470.5c-3.2,0.2-6-2.3-6.2-5.6s2.3-6,5.6-6.2c3.2-0.2,6,2.3,6.2,5.6   C343,467.6,340.6,470.3,337.3,470.5z M336.7,459.5c-2.8,0.1-5,2.6-4.8,5.4c0.1,2.8,2.6,5,5.4,4.8c2.8-0.1,5-2.6,4.8-5.4l0,0   C342,461.5,339.6,459.4,336.7,459.5L336.7,459.5z" />
	<path
   id="path5633"
   class="st3"
   d="M520.8,416.5c-1,0.1-2.1-0.2-3-0.6l0,0c-2.9-1.5-4-5-2.6-7.9c1.5-2.9,5-4,7.9-2.6   c2.9,1.5,4,5,2.6,7.9C524.7,415.2,522.8,416.4,520.8,416.5z M518.1,415.2c2.5,1.3,5.6,0.3,6.9-2.2c1.3-2.5,0.3-5.6-2.2-6.9   s-5.6-0.3-6.9,2.2l0,0C514.6,410.8,515.6,413.9,518.1,415.2z" />
	<path
   id="path5635"
   class="st3"
   d="M330.5,416.2c-1,0.1-2.1-0.2-3-0.6c-2.9-1.5-4-5-2.6-7.9c1.5-2.9,5-4,7.9-2.6s4,5,2.6,7.9   c-0.7,1.4-1.9,2.4-3.4,2.9C331.5,416.1,331,416.2,330.5,416.2L330.5,416.2z M329.9,405.2c-0.4,0-0.9,0.1-1.3,0.2   c-1.3,0.4-2.4,1.3-3,2.5c-1.3,2.5-0.3,5.6,2.2,6.9s5.6,0.3,6.9-2.2s0.3-5.6-2.2-6.9C331.7,405.3,330.8,405.1,329.9,405.2   L329.9,405.2z" />
	<path
   id="path5637"
   class="st3"
   d="M374,512.1c-3.2,0.2-6-2.3-6.2-5.6c-0.1-2.1,0.9-4.1,2.7-5.3l0,0c1.3-0.8,2.9-1.1,4.4-0.8   c1.5,0.3,2.9,1.2,3.7,2.6c1.8,2.7,1,6.4-1.7,8.1C376,511.7,375,512.1,374,512.1z M373.4,501.1c-0.9,0-1.8,0.3-2.5,0.8l0,0   c-2.4,1.5-3.1,4.7-1.6,7.2c1.5,2.4,4.7,3.1,7.2,1.6c2.4-1.5,3.1-4.7,1.6-7.2C377.1,501.9,375.3,501,373.4,501.1z" />
	<path
   id="path5639"
   class="st3"
   d="M513.5,469.4c-2.1,0.1-4.1-0.9-5.3-2.7l0,0c-1.8-2.7-1-6.4,1.7-8.2c2.7-1.8,6.4-1,8.2,1.7   s1,6.4-1.7,8.2l0,0C515.5,469.1,514.5,469.4,513.5,469.4z M512.9,458.4c-2.8,0.2-5,2.6-4.8,5.4c0.1,0.9,0.3,1.7,0.8,2.5l0,0   c1.5,2.4,4.7,3.1,7.1,1.5c2.4-1.5,3.1-4.7,1.5-7.1C516.5,459.2,514.7,458.3,512.9,458.4z" />
	<path
   id="path5641"
   class="st3"
   d="M425.2,526.5c-3.3,0.1-6-2.4-6.1-5.6c-0.1-3.3,2.4-6,5.6-6.1c3.3-0.1,6,2.4,6.1,5.6   c0,1-0.2,2-0.6,2.9C429.2,525.2,427.3,526.4,425.2,526.5z M420.4,518.3c-1.3,2.5-0.3,5.6,2.2,6.9c2.5,1.3,5.6,0.3,6.9-2.2   s0.3-5.6-2.2-6.9C424.7,514.8,421.6,515.8,420.4,518.3z" />
	<path
   id="path5643"
   class="st3"
   d="M398,337.7c-3.2,0.2-6-2.3-6.2-5.6s2.3-6,5.6-6.2c3.2-0.2,6,2.3,6.2,5.6   C403.7,334.7,401.2,337.5,398,337.7z M397.4,326.7c-2.8,0.1-5,2.5-4.8,5.4c0.1,2.8,2.5,5,5.4,4.8s5-2.5,4.8-5.4l0,0   C402.6,328.7,400.2,326.6,397.4,326.7L397.4,326.7z" />
	<path
   id="path5645"
   class="st3"
   d="M352.1,367.1c-3.2,0.2-6-2.3-6.2-5.6c-0.1-1,0.2-2.1,0.6-3l0,0c1.5-2.9,5-4,7.9-2.6   c2.9,1.5,4,5,2.6,7.9C356.1,365.8,354.2,367,352.1,367.1z M347.2,358.9c-1.2,2.6,0,5.6,2.5,6.8c2.4,1.1,5.3,0.2,6.6-2.1   c1.3-2.5,0.3-5.6-2.2-6.8l0,0C351.6,355.4,348.5,356.4,347.2,358.9z" />
	<path
   id="path5647"
   class="st3"
   d="M452.2,337.9c-3.2,0.2-6-2.3-6.2-5.6c-0.1-2.1,0.9-4.1,2.7-5.3l0,0c2.7-1.8,6.4-1,8.1,1.8   c0.9,1.3,1.2,2.9,0.8,4.4C457.1,335.9,454.8,337.8,452.2,337.9z M451.6,326.9c-0.9,0-1.8,0.3-2.5,0.8l0,0c-2.3,1.6-3,4.7-1.4,7.1   c1.5,2.3,4.6,2.9,6.9,1.5c2.4-1.5,3-4.7,1.5-7.1c-0.7-1.1-1.9-1.9-3.2-2.2C452.5,326.9,452,326.9,451.6,326.9L451.6,326.9z" />
	<path
   id="path5649"
   class="st3"
   d="M430.8,521.3c14.7-0.9,29-5.1,41.8-12.3c-0.2-0.2-0.5-0.5-0.6-0.8   c-12.6,7.1-26.7,11.2-41.2,12.1C430.8,520.6,430.8,521,430.8,521.3L430.8,521.3z" />
	<path
   id="path5651"
   class="st3"
   d="M501.9,365.4c-0.2,0.2-0.5,0.4-0.8,0.6c8.8,11.4,14.9,24.8,17.8,38.9c0.3-0.1,0.7-0.1,1-0.2   C517.1,390.4,510.9,376.9,501.9,365.4z" />
	<path
   id="path5653"
   class="st3"
   d="M419.1,521.3c0-0.3,0-0.7,0-1c-14-0.9-27.7-4.8-40-11.6c-0.1,0.3-0.3,0.6-0.5,0.9   C391,516.4,404.9,520.4,419.1,521.3z" />
	<path
   id="path5655"
   class="st3"
   d="M457.6,333.3c-0.1,0.3-0.2,0.5-0.3,0.8c11.8,4.2,22.6,10.7,31.9,19.1c1.4,1.3,2.8,2.6,4.2,4   c0.2-0.2,0.5-0.5,0.7-0.7c-1.4-1.4-2.8-2.8-4.2-4.1c-9.4-8.5-20.4-15.1-32.3-19.4L457.6,333.3z" />
	<path
   id="path5657"
   class="st3"
   d="M403.5,330.9c5.4-1.2,10.9-2,16.5-2.3c1.7-0.1,3.4-0.1,5.1-0.1c7,0,14.1,0.8,20.9,2.3   c0.1-0.3,0.2-0.7,0.3-1c-14.2-3.1-28.9-3.1-43.1,0.1C403.3,330.2,403.4,330.6,403.5,330.9L403.5,330.9z" />
	<path
   id="path5659"
   class="st3"
   d="M510.2,468.7c-6.8,13.1-16.5,24.4-28.4,33.2c0.2,0.3,0.3,0.6,0.5,0.9   c12.1-8.9,22-20.4,28.9-33.7C510.8,469,510.5,468.8,510.2,468.7z" />
	<path
   id="path5661"
   class="st3"
   d="M369.1,502.5c-12-8.6-21.9-19.9-28.8-32.9c-0.3,0.2-0.6,0.3-0.9,0.5c7,13.2,17,24.6,29.1,33.3   C368.7,503,368.9,502.7,369.1,502.5z" />
	<path
   id="path5663"
   class="st3"
   d="M521.7,416.4c-0.3,0.1-0.6,0.1-0.9,0.1l0,0c0.1,1,0.2,2,0.2,3c0.7,13.1-1.4,26.2-6,38.5   c0.3,0.1,0.6,0.2,0.9,0.4c4.7-12.4,6.7-25.7,6-38.9C521.8,418.4,521.8,417.4,521.7,416.4L521.7,416.4z" />
	<path
   id="path5665"
   class="st3"
   d="M347.9,365.7c-8.8,11.4-14.8,24.6-17.8,38.7c0.3,0,0.7,0,1,0.1c2.9-13.9,9-27,17.6-38.2   C348.4,366.1,348.2,365.9,347.9,365.7L347.9,365.7z" />
	<path
   id="path5667"
   class="st3"
   d="M356.3,357.5c10.1-10.4,22.4-18.3,36-23.3c-0.1-0.3-0.2-0.6-0.3-0.9c-13.7,5-26.2,13-36.4,23.5   C355.9,357,356.1,357.2,356.3,357.5L356.3,357.5z" />
	<path
   id="path5669"
   class="st3"
   d="M335.4,459c-5.2-13.6-7.3-28.3-6-42.8c-0.3,0-0.7-0.1-1-0.2c-0.4,4.5-0.5,9.1-0.2,13.6   c0.5,10.2,2.7,20.2,6.3,29.8C334.8,459.2,335.1,459.1,335.4,459L335.4,459z" />
</g>
<g
   id="g12291">
	<path
   id="path5671"
   class="st3"
   d="M454.8,326.8l27.2-94.2l-1-0.3l-27.2,94.2C454.1,326.6,454.5,326.7,454.8,326.8z" />
	<path
   id="path5673"
   class="st3"
   d="M487.6,213.2l2.5-8.8c-0.3-0.1-0.6-0.2-1-0.3l-2.5,8.8L487.6,213.2z" />
	<path
   id="path5675"
   class="st3"
   d="M490.7,202.5l1.9-6.4l-1-0.3l-1.8,6.4L490.7,202.5z" />
	<path
   id="path5677"
   class="st3"
   d="M482.6,230.7l4.5-15.6c-0.3-0.1-0.6-0.2-1-0.3l-4.5,15.6L482.6,230.7z" />
	<path
   id="path5679"
   class="st3"
   d="M492.2,194c0.3,0.1,0.6,0.2,1,0.3l1.3-4.5l-1-0.3L492.2,194z" />
	<path
   id="path5681"
   class="st3"
   d="M494,187.5l1,0.3l0.9-2.9l-1-0.3L494,187.5z" />
	<path
   id="path5683"
   class="st3"
   d="M497,177.3l-1.5,5.4l1,0.3l1.5-5.4l2.6,5.1l1.2-0.6l-3.5-7l-6.7,4l0.7,1.1L497,177.3z" />
	<circle
   id="circle5685"
   class="st3"
   cx="502.1"
   cy="164.1"
   r="5" />
	<path
   id="path5687"
   class="st3"
   d="M496.5,162.3c-15.5-5.5-28.6-16.1-37.4-30l-0.9,0.5c2.7,4.3,5.8,8.3,9.4,11.9   c8,8.3,17.8,14.6,28.6,18.5C496.3,162.9,496.4,162.6,496.5,162.3z" />
	<path
   id="path5689"
   class="st3"
   d="M553.2,159.3c-14.1,6.8-30,8.9-45.4,6.1c-0.1,0.3-0.2,0.7-0.3,1c15.6,2.9,31.8,0.8,46.1-6.1   L553.2,159.3z" />
</g>
<g
   id="g12303">
	<path
   id="path5691"
   class="st3"
   d="M396.4,326.6l-28-94l-1,0.3l28,94C395.7,326.8,396,326.7,396.4,326.6L396.4,326.6z" />
	<path
   id="path5693"
   class="st3"
   d="M362.6,213.3l-2.6-8.8l-1,0.3l2.6,8.8L362.6,213.3z" />
	<path
   id="path5695"
   class="st3"
   d="M359.4,202.6l-1.9-6.4l-1,0.3l1.9,6.4L359.4,202.6z" />
	<path
   id="path5697"
   class="st3"
   d="M367.8,230.8l-4.6-15.6l-1,0.3l4.6,15.6L367.8,230.8z" />
	<path
   id="path5699"
   class="st3"
   d="M356,194.7l1-0.3l-1.4-4.5l-1,0.3L356,194.7z" />
	<path
   id="path5701"
   class="st3"
   d="M354.1,188.2l1-0.3l-0.9-2.9l-1,0.3L354.1,188.2z" />
	<path
   id="path5703"
   class="st3"
   d="M351.1,178l1.6,5.4l1-0.3l-1.6-5.3l4.9,2.9l0.7-1.1l-6.7-4l-3.5,7l1.2,0.6L351.1,178z" />
	<circle
   id="circle5705"
   class="st3"
   cx="348.2"
   cy="164.2"
   r="5" />
	<path
   id="path5707"
   class="st3"
   d="M342.5,165.6c-16,3.7-32.8,2-47.6-5l-0.4,0.9c15.1,7.1,32.2,8.9,48.4,5.1   C342.7,166.3,342.6,166,342.5,165.6z" />
	<path
   id="path5709"
   class="st3"
   d="M388.7,132.5c-8.2,13.4-20.4,23.7-34.9,29.6c0.1,0.3,0.2,0.7,0.3,1c14.8-6,27.2-16.5,35.5-30.1   L388.7,132.5z" />
</g>
<g
   id="g12315">
	<path
   id="path5711"
   class="st3"
   d="M347.4,357.2l-74.3-64c-0.2,0.2-0.4,0.5-0.6,0.8l74.3,64C347,357.7,347.2,357.4,347.4,357.2   L347.4,357.2z" />
	<path
   id="path5713"
   class="st3"
   d="M257.8,280l-6.9-6l-0.6,0.8l6.9,6C257.3,280.6,257.6,280.3,257.8,280L257.8,280z" />
	<path
   id="path5715"
   class="st3"
   d="M249.3,272.8l-5-4.3l-0.6,0.8l5,4.3L249.3,272.8z" />
	<path
   id="path5717"
   class="st3"
   d="M271.6,291.9l-12.3-10.6l-0.6,0.8l12.4,10.6L271.6,291.9z" />
	<path
   id="path5719"
   class="st3"
   d="M242.1,267.9c0.2-0.2,0.4-0.5,0.6-0.8l-3.6-3.1l-0.6,0.8L242.1,267.9z" />
	<path
   id="path5721"
   class="st3"
   d="M237.1,263.5l0.6-0.8l-2.3-2l-0.6,0.8L237.1,263.5z" />
	<path
   id="path5723"
   class="st3"
   d="M229,256.6l4.2,3.6c0.2-0.2,0.4-0.5,0.6-0.8l-4.2-3.6l5.7-0.2l-0.1-1.3l-7.8,0.3l0.9,7.8   l1.3-0.1L229,256.6z" />
	<circle
   id="circle5725"
   class="st3"
   cx="219.1"
   cy="246.5"
   r="5" />
	<path
   id="path5727"
   class="st3"
   d="M215.1,250.8c-11.5,11.8-26.5,19.3-42.8,21.5l0.1,1c16.5-2.2,31.9-9.9,43.5-21.9   C215.6,251.2,215.4,251,215.1,250.8z" />
	<path
   id="path5729"
   class="st3"
   d="M236,197.9c0.3,15.7-4.4,31-13.4,43.8c0.3,0.2,0.5,0.4,0.8,0.7c9.2-13,14-28.6,13.6-44.5H236z" />
</g>
<g
   id="g12327">
	<path
   id="path5731"
   class="st3"
   d="M324.9,409.3l-97.1-13.7c-0.1,0.3-0.1,0.7-0.1,1l97.1,13.7C324.8,409.9,324.8,409.6,324.9,409.3   z" />
	<path
   id="path5733"
   class="st3"
   d="M207.8,392.8l-9.1-1.3c0,0.3-0.1,0.7-0.1,1l9.1,1.3L207.8,392.8z" />
	<path
   id="path5735"
   class="st3"
   d="M196.8,391.2l-6.6-0.9c0,0.3-0.1,0.7-0.1,1l6.6,0.9C196.7,391.9,196.7,391.5,196.8,391.2z" />
	<path
   id="path5737"
   class="st3"
   d="M225.8,395.3l-16.1-2.3c-0.1,0.3-0.1,0.7-0.1,1l16.1,2.3C225.8,396,225.8,395.6,225.8,395.3z" />
	<path
   id="path5739"
   class="st3"
   d="M188.1,391l0.1-1l-4.7-0.7c-0.1,0.3-0.1,0.7-0.1,1L188.1,391z" />
	<path
   id="path5741"
   class="st3"
   d="M181.4,390.1c0.1-0.3,0.1-0.7,0.1-1l-3-0.4c-0.1,0.3-0.1,0.7-0.1,1L181.4,390.1z" />
	<path
   id="path5743"
   class="st3"
   d="M170.9,388.6l5.5,0.8l0.1-1l-5.6-0.8l4.7-3.2l-0.8-1.1l-6.4,4.5l4.9,6.1l1-0.8L170.9,388.6z" />
	<circle
   id="circle5745"
   class="st3"
   cx="157.1"
   cy="385.4"
   r="5" />
	<path
   id="path5747"
   class="st3"
   d="M156.1,391.2c-3.3,16.1-11.9,30.6-24.4,41.2l0.6,0.8c12.7-10.8,21.5-25.6,24.8-41.9   C156.7,391.3,156.4,391.3,156.1,391.2L156.1,391.2z" />
	<path
   id="path5749"
   class="st3"
   d="M145.1,335.4c8.7,13,13.1,28.5,12.4,44.1c0.3,0,0.7,0.1,1,0.1c0.7-15.9-3.7-31.6-12.5-44.8   L145.1,335.4z" />
</g>
<g
   id="g12339">
	<path
   id="path5751"
   class="st3"
   d="M331.2,466.1l-89,40.9l0.4,0.9l89.1-40.9C331.5,466.7,331.4,466.4,331.2,466.1z" />
	<path
   id="path5753"
   class="st3"
   d="M223.8,515.5l-8.3,3.8c0.1,0.3,0.3,0.6,0.4,0.9l8.3-3.8L223.8,515.5z" />
	<path
   id="path5755"
   class="st3"
   d="M213.7,520.1l-6.1,2.8c0.1,0.3,0.3,0.6,0.4,0.9l6-2.8L213.7,520.1z" />
	<path
   id="path5757"
   class="st3"
   d="M240.4,507.9l-14.8,6.8c0.1,0.3,0.3,0.6,0.4,0.9l14.8-6.8L240.4,507.9z" />
	<path
   id="path5759"
   class="st3"
   d="M206.3,524.6c-0.1-0.3-0.3-0.6-0.4-0.9l-4.3,2l0.4,0.9L206.3,524.6z" />
	<path
   id="path5761"
   class="st3"
   d="M200.2,527.4l-0.4-0.9l-2.7,1.3c0.1,0.3,0.3,0.6,0.4,0.9L200.2,527.4z" />
	<path
   id="path5763"
   class="st3"
   d="M190.5,531.9l5.1-2.3l-0.4-0.9l-5.1,2.4l2.2-5.2l-1.2-0.5l-3,7.2l7.4,2.4l0.4-1.2L190.5,531.9z" />
	<circle
   id="circle5765"
   class="st3"
   cx="177.2"
   cy="536.6"
   r="5" />
	<path
   id="path5767"
   class="st3"
   d="M179.4,542.1c5.9,15.3,6.5,32.2,1.7,47.9l1,0.3c4.9-16,4.3-33.1-1.8-48.7   C180.1,541.8,179.8,542,179.4,542.1L179.4,542.1z" />
	<path
   id="path5769"
   class="st3"
   d="M140.1,501.1c14.4,6.2,26.4,16.9,34.3,30.4c0.3-0.2,0.6-0.3,0.9-0.4   c-8-13.8-20.2-24.6-34.8-30.9L140.1,501.1z" />
</g>
<g
   id="g12351">
	<path
   id="path5771"
   class="st3"
   d="M370.1,510l-52.9,82.6l0.9,0.5l52.9-82.6C370.6,510.4,370.3,510.2,370.1,510z" />
	<path
   id="path5773"
   class="st3"
   d="M306.3,609.6l-4.9,7.7l0.9,0.5l4.9-7.7L306.3,609.6z" />
	<path
   id="path5775"
   class="st3"
   d="M300.3,619l-3.6,5.6l0.8,0.5l3.6-5.6L300.3,619z" />
	<path
   id="path5777"
   class="st3"
   d="M316.1,594.3l-8.8,13.7l0.9,0.5l8.8-13.7L316.1,594.3z" />
	<path
   id="path5779"
   class="st3"
   d="M296.5,626.8l-0.9-0.5l-2.5,4l0.8,0.5L296.5,626.8z" />
	<path
   id="path5781"
   class="st3"
   d="M292.9,632.5l-0.8-0.5l-1.6,2.6l0.9,0.5L292.9,632.5z" />
	<path
   id="path5783"
   class="st3"
   d="M287.2,641.4l3-4.7l-0.9-0.5l-3,4.7l-1-5.6l-1.3,0.2l1.4,7.7l7.6-2l-0.3-1.3L287.2,641.4z" />
	<circle
   id="circle5785"
   class="st3"
   cx="278.5"
   cy="652.6"
   r="5" />
	<path
   id="path5787"
   class="st3"
   d="M283.4,656c13.3,9.7,22.9,23.6,27.3,39.4l1-0.3c-1.4-4.9-3.3-9.6-5.6-14.1   c-5.3-10.2-12.9-19.1-22.2-25.9C283.7,655.4,283.6,655.7,283.4,656z" />
	<path
   id="path5789"
   class="st3"
   d="M228.1,642.7c15.5-2.5,31.3,0,45.2,7.1c0.2-0.3,0.3-0.6,0.6-0.8c-14.2-7.3-30.3-9.8-46-7.2   L228.1,642.7z" />
</g>
<g
   id="g12363">
	<path
   id="path5791"
   class="st3"
   d="M424.8,526.5l0.1,98h1l-0.1-98C425.5,526.6,425.2,526.6,424.8,526.5z" />
	<path
   id="path5793"
   class="st3"
   d="M425,644.8v9.2h1v-9.2H425z" />
	<path
   id="path5795"
   class="st3"
   d="M425,655.9v6.7h1v-6.7H425z" />
	<path
   id="path5797"
   class="st3"
   d="M425,626.6v16.2h1v-16.2H425z" />
	<path
   id="path5799"
   class="st3"
   d="M426,664.5h-1v4.7h1V664.5z" />
	<path
   id="path5801"
   class="st3"
   d="M426,671.3h-1v3.1h1V671.3z" />
	<path
   id="path5803"
   class="st3"
   d="M426.1,681.9v-5.6h-1v5.6l-3.9-4.2l-1,0.9l5.3,5.7l5.3-5.7l-1-0.9L426.1,681.9z" />
	<circle
   id="circle5805"
   class="st3"
   cx="424.9"
   cy="696"
   r="5" />
	<path
   id="path5807"
   class="st3"
   d="M430.7,696.2c16.4,1,32,7.5,44.3,18.4l0.7-0.8c-12.5-11.1-28.3-17.6-45-18.6   C430.7,695.5,430.7,695.9,430.7,696.2z" />
	<path
   id="path5809"
   class="st3"
   d="M377.1,714.9c11.6-10.5,26.3-17,41.9-18.5c0-0.3,0-0.7,0-1c-15.8,1.5-30.8,8.1-42.6,18.8   L377.1,714.9z" />
</g>
<a
   id="a8215"
   xlink:href="#qeeri">
	<g
   id="g8213">
		<path
   id="path5325"
   class="st0"
   d="M664.7,237.5c-0.1,0.1-0.2,0.1-0.3,0l-1.5-1.6c-1,0.7-2.1,1.1-3.3,1.1    c-2.2,0.2-4.2-1.2-4.8-3.4c-0.6-2.9-0.6-5.8,0-8.7c1-2.7,3.9-4,6.6-3c1.4,0.5,2.5,1.6,3,3c0.6,2.9,0.6,5.8,0,8.7    c-0.2,0.5-0.4,1-0.7,1.4l1.5,1.6c0.1,0.1,0.1,0.2,0,0.3l0,0L664.7,237.5z M662,235l-1.8-1.9c-0.1-0.1-0.1-0.2,0-0.3l0,0l0.5-0.5    c0.1-0.1,0.2-0.1,0.3,0l0,0l1.7,1.8c0.1-0.3,0.3-0.5,0.4-0.8c0.3-1.3,0.5-2.7,0.4-4c0.1-1.3,0-2.7-0.4-4c-0.7-2-2.9-3-4.9-2.3    c-1.1,0.4-1.9,1.2-2.3,2.3c-0.3,1.3-0.5,2.7-0.4,4c-0.1,1.3,0,2.7,0.4,4c0.5,1.6,2,2.7,3.6,2.5C660.4,235.8,661.3,235.5,662,235z" />
		<path
   id="path5327"
   class="st0"
   d="M668.8,222c0-0.1,0.1-0.2,0.2-0.2l0,0h8.6c0.1,0,0.2,0.1,0.2,0.2l0,0v0.8    c0,0.1-0.1,0.2-0.2,0.2l0,0h-7.4c-0.1,0-0.1,0-0.1,0.1v5.3c0,0.1,0,0.1,0.1,0.1l0,0h6.3c0.1,0,0.2,0.1,0.2,0.2l0,0v0.8    c0,0.1-0.1,0.2-0.2,0.2l0,0h-6.3c-0.1,0-0.1,0-0.1,0.1v5.5c0,0.1,0,0.1,0.1,0.1l0,0h7.4c0.1,0,0.2,0.1,0.2,0.2l0,0v0.7    c0,0.1-0.1,0.2-0.2,0.2l0,0H669c-0.1,0-0.2-0.1-0.2-0.2l0,0V222z" />
		<path
   id="path5329"
   class="st0"
   d="M681.6,222c0-0.1,0.1-0.2,0.2-0.2l0,0h8.6c0.1,0,0.2,0.1,0.2,0.2l0,0v0.8    c0,0.1-0.1,0.2-0.2,0.2l0,0H683c-0.1,0-0.1,0-0.1,0.1v5.3c0,0.1,0,0.1,0.1,0.1l0,0h6.4c0.1,0,0.2,0.1,0.2,0.2l0,0v0.8    c0,0.1-0.1,0.2-0.2,0.2l0,0H683c-0.1,0-0.1,0-0.1,0.1v5.5c0,0.1,0,0.1,0.1,0.1l0,0h7.4c0.1,0,0.2,0.1,0.2,0.2l0,0v0.7    c0,0.1-0.1,0.2-0.2,0.2l0,0h-8.6c-0.1,0-0.2-0.1-0.2-0.2l0,0L681.6,222z" />
		<path
   id="path5331"
   class="st0"
   d="M703.3,236.8c-0.1,0-0.2-0.1-0.3-0.2l-3.2-6.5h-4.1c-0.1,0-0.1,0.1-0.1,0.1v6.3    c0,0.1-0.1,0.2-0.2,0.2l0,0h-0.8c-0.1,0-0.2-0.1-0.2-0.2l0,0V222c0-0.1,0.1-0.2,0.2-0.2l0,0h5c2.8,0,4.6,1.6,4.6,4.1    c0.1,1.9-1.2,3.6-3.1,4l3.2,6.6c0.1,0.1,0,0.2-0.1,0.2L703.3,236.8z M703,225.9c0-1.9-1.2-3-3.3-3h-3.9c-0.1,0-0.1,0-0.1,0.1v5.6    c0,0.1,0,0.1,0.1,0.1h3.8C701.8,228.9,703,227.8,703,225.9L703,225.9z" />
		<path
   id="path5333"
   class="st0"
   d="M708.5,222c0-0.1,0.1-0.2,0.2-0.2l0,0h0.8c0.1,0,0.2,0.1,0.2,0.2l0,0v14.5    c0,0.1-0.1,0.2-0.2,0.2l0,0h-0.8c-0.1,0-0.2-0.1-0.2-0.2l0,0V222z" />
		<polygon
   id="polygon5335"
   class="st4"
   points="665.6,156.3 681.4,172.1 681.4,140.5   " />
		<polygon
   id="polygon5337"
   class="st5"
   points="649.8,172.1 665.6,156.3 649.8,140.5   " />
		<polygon
   id="polygon5339"
   class="st4"
   points="714.8,140.5 683.2,140.5 699,156.3   " />
		<polygon
   id="polygon5341"
   class="st5"
   points="683.2,172.1 699,156.3 683.2,140.5   " />
		<polygon
   id="polygon5343"
   class="st5"
   points="699,189.7 714.8,205.5 714.8,173.9   " />
		<polygon
   id="polygon5345"
   class="st4"
   points="683.2,205.5 714.8,205.5 699,189.7   " />
		<polygon
   id="polygon5347"
   class="st5"
   points="683.2,205.5 699,189.7 683.2,173.9   " />
		<polygon
   id="polygon5349"
   class="st5"
   points="681.4,173.9 649.8,173.9 665.6,189.7   " />
		<polygon
   id="polygon5351"
   class="st4"
   points="649.8,205.5 665.6,189.7 649.8,173.9   " />
		<polygon
   id="polygon5353"
   class="st6"
   points="699,156.3 696.6,158.7 706.7,168.7 686.6,168.7 683.2,172.1 714.8,172.1   " />
		<polygon
   id="polygon5355"
   class="st6"
   points="665.6,156.3 663.2,158.7 673.3,168.7 653.2,168.7 649.8,172.1 681.4,172.1   " />
		<polygon
   id="polygon5357"
   class="st6"
   points="665.6,189.7 663.2,192.1 673.3,202.1 653.2,202.1 649.8,205.5 681.4,205.5   " />
		<polygon
   id="polygon5359"
   class="st6"
   points="711.5,202.1 686.6,202.1 683.2,205.5 714.8,205.5   " />
		
			<rect
   id="rect5361"
   x="697.3"
   y="208"
   transform="matrix(0.7071 -0.7071 0.7071 0.7071 56.4547 555.7071)"
   class="st6"
   width="3.4"
   height="3.4" />
		
			<rect
   id="rect5363"
   x="674.4"
   y="188"
   transform="matrix(0.7071 -0.7071 0.7071 0.7071 63.8762 533.6592)"
   class="st6"
   width="3.4"
   height="3.4" />
		
			<rect
   id="rect5365"
   x="697.3"
   y="174.6"
   transform="matrix(0.7071 -0.7071 0.7071 0.7071 80.0637 545.9191)"
   class="st6"
   width="3.4"
   height="3.4" />
		<rect
   id="rect8189"
   x="649.8"
   y="140.5"
   class="st7"
   width="68.5"
   height="100.8" />
	</g>
</a>
<a
   id="a8460"
   xlink:href="#qstp">
	<g
   id="g8458">
		<g
   id="g8294">
			<path
   id="path5367"
   class="st0"
   d="M746.4,422.5c-0.1,0.1-0.2,0.1-0.3,0l-1.5-1.6c-0.9,0.7-2.1,1.1-3.3,1.1     c-2.2,0.2-4.2-1.2-4.8-3.4c-0.6-2.9-0.6-5.8,0-8.7c1-2.7,3.9-4,6.6-3c1.4,0.5,2.5,1.6,3,3c0.6,2.9,0.6,5.8,0,8.7     c-0.2,0.5-0.4,1-0.7,1.4l1.5,1.6c0.1,0.1,0.1,0.2,0,0.3l0,0L746.4,422.5z M743.8,420l-1.8-1.9c-0.1-0.1-0.1-0.2,0-0.3l0,0     l0.5-0.5c0.1-0.1,0.2-0.1,0.3,0l0,0l1.7,1.8c0.1-0.3,0.3-0.5,0.4-0.8c0.3-1.3,0.5-2.7,0.4-4c0.1-1.3,0-2.7-0.4-4     c-0.7-2-2.9-3-4.9-2.3c-1.1,0.4-1.9,1.2-2.3,2.3c-0.3,1.3-0.5,2.7-0.4,4c-0.1,1.3,0,2.7,0.4,4c0.5,1.6,2,2.7,3.6,2.5     C742.2,420.8,743.1,420.5,743.8,420L743.8,420z" />
			<path
   id="path5369"
   class="st0"
   d="M750,420.2c-0.1-0.1-0.1-0.2,0-0.3l0,0l0.5-0.7c0.1-0.1,0.2-0.1,0.3,0l0,0     c1.2,1,2.7,1.5,4.3,1.5c2.4,0,3.9-1.2,3.9-3.1c0-1.5-0.8-2.6-3.6-2.9l-0.7-0.1c-2.9-0.4-4.3-1.8-4.3-4c0-2.6,1.8-4.2,4.7-4.2     c1.5,0,3,0.4,4.3,1.3c0.1,0.1,0.1,0.2,0,0.3l0,0l-0.4,0.7c-0.1,0.1-0.2,0.1-0.3,0l0,0c-1.1-0.7-2.3-1.1-3.6-1.1     c-2.1,0-3.4,1.2-3.4,2.9c0,1.5,1,2.5,3.5,2.8l0.7,0.1c3,0.4,4.4,1.8,4.4,4c0,2.5-1.8,4.3-5.3,4.3     C753.2,421.9,751.4,421.3,750,420.2z" />
			<path
   id="path5371"
   class="st0"
   d="M767.3,421.8c-0.1,0-0.2-0.1-0.2-0.2l0,0v-13.4c0-0.1,0-0.1-0.1-0.1h-4.3     c-0.1,0-0.2-0.1-0.2-0.2l0,0V407c0-0.1,0.1-0.2,0.2-0.2l0,0h10.2c0.1,0,0.2,0.1,0.2,0.2l0,0v0.8c0,0.1-0.1,0.2-0.2,0.2l0,0h-4.3     c-0.1,0-0.1,0-0.1,0.1v13.4c0,0.1-0.1,0.2-0.2,0.2l0,0L767.3,421.8z" />
			<path
   id="path5373"
   class="st0"
   d="M776.3,421.8c-0.1,0-0.2-0.1-0.2-0.2l0,0V407c0-0.1,0.1-0.2,0.2-0.2l0,0h5     c2.9,0,4.6,1.6,4.6,4.2s-1.7,4.2-4.6,4.2h-3.8c-0.1,0-0.1,0-0.1,0.1l0,0v6.1c0,0.1-0.1,0.2-0.2,0.2l0,0L776.3,421.8z M784.7,411     c0-1.9-1.2-3.1-3.4-3.1h-3.8c-0.1,0-0.1,0-0.1,0.1v5.8c0,0.1,0,0.1,0.1,0.1h3.8C783.5,414.1,784.7,413,784.7,411z" />
			<path
   id="path5375"
   class="st8"
   d="M744.1,338.2c0,4.4-3.5,7.9-7.9,7.9s-7.9-3.5-8-7.9c0-4.4,3.5-7.9,7.9-7.9l0,0     C740.6,330.3,744.1,333.8,744.1,338.2" />
			<path
   id="path5377"
   class="st9"
   d="M741.4,338.2c0,2.9-2.3,5.2-5.2,5.2s-5.2-2.3-5.2-5.2c0-2.9,2.3-5.2,5.2-5.2l0,0     C739.1,333,741.4,335.3,741.4,338.2" />
			<path
   id="path5379"
   class="st10"
   d="M739,338.2c0,1.5-1.2,2.8-2.8,2.8c-1.5,0-2.8-1.2-2.8-2.8s1.2-2.8,2.8-2.8     C737.8,335.4,739,336.7,739,338.2" />
			<path
   id="path5381"
   class="st9"
   d="M744.1,354.6c0,4.4-3.5,7.9-7.9,7.9s-7.9-3.5-8-7.9c0-4.4,3.5-7.9,7.9-7.9l0,0     C740.6,346.7,744.1,350.3,744.1,354.6" />
			<path
   id="path5383"
   class="st8"
   d="M741.4,354.6c0,2.9-2.3,5.2-5.2,5.2s-5.2-2.3-5.2-5.2c0-2.9,2.3-5.2,5.2-5.2l0,0     C739.1,349.4,741.4,351.7,741.4,354.6" />
			<path
   id="path5385"
   class="st10"
   d="M739,354.6c0,1.5-1.2,2.8-2.8,2.8c-1.5,0-2.8-1.2-2.8-2.8c0-1.5,1.2-2.8,2.8-2.8l0,0     C737.7,351.9,739,353.1,739,354.6" />
			<path
   id="path5387"
   class="st9"
   d="M744.1,371.6c0,4.4-3.5,7.9-7.9,7.9s-7.9-3.5-8-7.9c0-4.4,3.5-7.9,7.9-7.9l0,0     C740.6,363.7,744.1,367.2,744.1,371.6" />
			<path
   id="path5389"
   class="st8"
   d="M741.4,371.6c0,2.9-2.3,5.2-5.2,5.2s-5.2-2.3-5.2-5.2c0-2.9,2.3-5.2,5.2-5.2l0,0     C739.1,366.4,741.4,368.7,741.4,371.6" />
			<path
   id="path5391"
   class="st10"
   d="M739,371.6c0,1.5-1.2,2.8-2.8,2.8c-1.5,0-2.8-1.2-2.8-2.8s1.2-2.8,2.8-2.8     C737.8,368.8,739,370.1,739,371.6" />
			<path
   id="path5393"
   class="st9"
   d="M744.1,388.4c0,4.4-3.5,7.9-7.9,7.9s-7.9-3.5-8-7.9c0-4.4,3.5-7.9,7.9-7.9l0,0     C740.6,380.4,744.1,384,744.1,388.4" />
			<path
   id="path5395"
   class="st8"
   d="M741.4,388.4c0,2.9-2.3,5.2-5.2,5.2s-5.2-2.3-5.2-5.2c0-2.9,2.3-5.2,5.2-5.2l0,0     C739.1,383.1,741.4,385.5,741.4,388.4" />
			<path
   id="path5397"
   class="st10"
   d="M739,388.4c0,1.5-1.2,2.8-2.8,2.8c-1.5,0-2.8-1.2-2.8-2.8s1.2-2.8,2.8-2.8     S739,386.8,739,388.4L739,388.4" />
			<path
   id="path5399"
   class="st8"
   d="M760.4,338.2c0,4.4-3.6,7.9-7.9,7.9s-7.9-3.6-7.9-7.9c0-4.4,3.5-7.9,7.9-7.9     C756.8,330.3,760.4,333.8,760.4,338.2" />
			<path
   id="path5401"
   class="st10"
   d="M757.7,338.2c0,2.9-2.3,5.2-5.2,5.2s-5.2-2.3-5.2-5.2c0-2.9,2.3-5.2,5.2-5.2l0,0     C755.4,333,757.7,335.3,757.7,338.2" />
			<path
   id="path5403"
   class="st9"
   d="M755.2,338.2c0,1.5-1.2,2.8-2.8,2.8c-1.5,0-2.8-1.2-2.8-2.8s1.2-2.8,2.8-2.8     S755.2,336.7,755.2,338.2L755.2,338.2" />
			<path
   id="path5405"
   class="st8"
   d="M760.4,354.6c0,4.4-3.6,7.9-7.9,7.9s-7.9-3.6-7.9-7.9c0-4.4,3.5-7.9,7.9-7.9     C756.8,346.7,760.4,350.2,760.4,354.6L760.4,354.6" />
			<path
   id="path5407"
   class="st9"
   d="M757.7,354.6c0,2.9-2.3,5.2-5.2,5.2s-5.2-2.3-5.2-5.2c0-2.9,2.3-5.2,5.2-5.2l0,0     C755.4,349.4,757.7,351.7,757.7,354.6" />
			<path
   id="path5409"
   class="st10"
   d="M755.2,354.6c0,1.5-1.2,2.8-2.8,2.8c-1.5,0-2.8-1.2-2.8-2.8c0-1.5,1.2-2.8,2.8-2.8l0,0     C754,351.9,755.2,353.1,755.2,354.6" />
			<path
   id="path5411"
   class="st9"
   d="M760.4,371.6c0,4.4-3.6,7.9-7.9,7.9s-7.9-3.6-7.9-7.9c0-4.4,3.5-7.9,7.9-7.9     C756.8,363.7,760.4,367.2,760.4,371.6L760.4,371.6" />
			<path
   id="path5413"
   class="st8"
   d="M757.7,371.6c0,2.9-2.3,5.2-5.2,5.2s-5.2-2.3-5.2-5.2c0-2.9,2.3-5.2,5.2-5.2l0,0     C755.4,366.4,757.7,368.7,757.7,371.6" />
			<path
   id="path5415"
   class="st10"
   d="M755.2,371.6c0,1.5-1.2,2.8-2.8,2.8c-1.5,0-2.8-1.2-2.8-2.8s1.2-2.8,2.8-2.8     S755.2,370.1,755.2,371.6L755.2,371.6" />
			<path
   id="path5417"
   class="st9"
   d="M760.4,388.4c0,4.4-3.6,7.9-7.9,7.9s-7.9-3.6-7.9-7.9c0-4.4,3.5-7.9,7.9-7.9     C756.8,380.4,760.4,384,760.4,388.4L760.4,388.4" />
			<path
   id="path5419"
   class="st8"
   d="M757.7,388.4c0,2.9-2.3,5.2-5.2,5.2s-5.2-2.3-5.2-5.2c0-2.9,2.3-5.2,5.2-5.2l0,0     C755.4,383.1,757.7,385.5,757.7,388.4" />
			<path
   id="path5421"
   class="st10"
   d="M755.2,388.4c0,1.5-1.2,2.8-2.8,2.8c-1.5,0-2.8-1.2-2.8-2.8s1.2-2.8,2.8-2.8     S755.2,386.8,755.2,388.4C755.2,388.3,755.2,388.4,755.2,388.4" />
			<path
   id="path5423"
   class="st10"
   d="M776.8,338.2c0,4.4-3.5,7.9-7.9,7.9s-7.9-3.5-8-7.9c0-4.4,3.5-7.9,7.9-7.9l0,0     C773.3,330.3,776.8,333.8,776.8,338.2" />
			<path
   id="path5425"
   class="st8"
   d="M774.1,338.2c0,2.9-2.3,5.3-5.2,5.3s-5.3-2.3-5.3-5.2c0-2.9,2.3-5.3,5.2-5.3l0,0     C771.8,333,774.1,335.3,774.1,338.2" />
			<path
   id="path5427"
   class="st9"
   d="M771.7,338.2c0,1.5-1.2,2.8-2.8,2.8c-1.5,0-2.8-1.2-2.8-2.8s1.2-2.8,2.8-2.8     S771.7,336.7,771.7,338.2L771.7,338.2" />
			<path
   id="path5429"
   class="st8"
   d="M776.8,354.6c0,4.4-3.5,7.9-7.9,7.9s-7.9-3.5-8-7.9c0-4.4,3.5-7.9,7.9-7.9l0,0     C773.3,346.7,776.8,350.3,776.8,354.6" />
			<path
   id="path5431"
   class="st10"
   d="M774.1,354.6c0,2.9-2.3,5.2-5.2,5.2s-5.2-2.3-5.2-5.2s2.3-5.2,5.2-5.2l0,0     C771.8,349.4,774.1,351.7,774.1,354.6" />
			<path
   id="path5433"
   class="st9"
   d="M771.7,354.6c0,1.5-1.2,2.8-2.8,2.8c-1.5,0-2.8-1.2-2.8-2.8c0-1.5,1.2-2.8,2.8-2.8l0,0     C770.4,351.9,771.7,353.1,771.7,354.6" />
			<path
   id="path5435"
   class="st8"
   d="M776.8,371.6c0,4.4-3.5,7.9-7.9,7.9s-7.9-3.5-8-7.9c0-4.4,3.5-7.9,7.9-7.9l0,0     C773.3,363.7,776.8,367.2,776.8,371.6" />
			<path
   id="path5437"
   class="st9"
   d="M774.1,371.6c0,2.9-2.3,5.2-5.2,5.2s-5.2-2.3-5.2-5.2s2.3-5.2,5.2-5.2l0,0     C771.8,366.4,774.1,368.7,774.1,371.6" />
			<path
   id="path5439"
   class="st10"
   d="M771.7,371.6c0,1.5-1.2,2.8-2.8,2.8c-1.5,0-2.8-1.2-2.8-2.8s1.2-2.8,2.8-2.8     S771.7,370.1,771.7,371.6L771.7,371.6" />
			<path
   id="path5441"
   class="st9"
   d="M776.8,388.4c0,4.4-3.5,7.9-7.9,7.9s-7.9-3.5-8-7.9c0-4.4,3.5-7.9,7.9-7.9l0,0     C773.3,380.4,776.8,384,776.8,388.4" />
			<path
   id="path5443"
   class="st8"
   d="M774.1,388.4c0,2.9-2.3,5.2-5.2,5.2s-5.2-2.3-5.2-5.2s2.3-5.2,5.2-5.2l0,0     C771.8,383.1,774.1,385.5,774.1,388.4" />
			<path
   id="path5445"
   class="st10"
   d="M771.7,388.4c0,1.5-1.2,2.8-2.8,2.8c-1.5,0-2.8-1.2-2.8-2.8s1.2-2.8,2.8-2.8     C770.4,385.6,771.7,386.8,771.7,388.4C771.7,388.3,771.7,388.4,771.7,388.4" />
			<path
   id="path5447"
   class="st10"
   d="M793.2,338.2c0,4.4-3.6,7.9-7.9,7.9c-4.4,0-7.9-3.6-7.9-7.9c0-4.4,3.6-7.9,7.9-7.9l0,0     C789.7,330.3,793.2,333.8,793.2,338.2" />
			<path
   id="path5449"
   class="st8"
   d="M790.6,338.2c0,2.9-2.3,5.2-5.2,5.2s-5.2-2.3-5.2-5.2s2.3-5.2,5.2-5.2l0,0     C788.2,333,790.6,335.3,790.6,338.2" />
			<path
   id="path5451"
   class="st9"
   d="M788.1,338.2c0,1.5-1.2,2.8-2.8,2.8c-1.5,0-2.8-1.2-2.8-2.8s1.2-2.8,2.8-2.8l0,0     C786.9,335.4,788.1,336.7,788.1,338.2" />
			<path
   id="path5453"
   class="st10"
   d="M793.2,354.6c0,4.4-3.6,7.9-7.9,7.9c-4.4,0-7.9-3.6-7.9-7.9c0-4.4,3.6-7.9,7.9-7.9l0,0     C789.7,346.7,793.2,350.3,793.2,354.6" />
			<path
   id="path5455"
   class="st8"
   d="M790.6,354.6c0,2.9-2.3,5.2-5.2,5.2s-5.2-2.3-5.2-5.2s2.3-5.2,5.2-5.2l0,0     C788.2,349.4,790.6,351.7,790.6,354.6" />
			<path
   id="path5457"
   class="st9"
   d="M788.1,354.6c0,1.5-1.2,2.8-2.8,2.8c-1.5,0-2.8-1.2-2.8-2.8c0-1.5,1.2-2.8,2.8-2.8l0,0     C786.9,351.9,788.1,353.1,788.1,354.6" />
			<path
   id="path5459"
   class="st8"
   d="M793.2,371.6c0,4.4-3.6,7.9-7.9,7.9c-4.4,0-7.9-3.6-7.9-7.9c0-4.4,3.6-7.9,7.9-7.9l0,0     C789.7,363.7,793.2,367.2,793.2,371.6" />
			<path
   id="path5461"
   class="st10"
   d="M790.6,371.6c0,2.9-2.3,5.2-5.2,5.2s-5.2-2.3-5.2-5.2s2.3-5.2,5.2-5.2l0,0     C788.2,366.4,790.6,368.7,790.6,371.6" />
			<path
   id="path5463"
   class="st9"
   d="M788.1,371.6c0,1.5-1.2,2.8-2.8,2.8c-1.5,0-2.8-1.2-2.8-2.8s1.2-2.8,2.8-2.8l0,0     C786.9,368.8,788.1,370.1,788.1,371.6" />
			<path
   id="path5465"
   class="st8"
   d="M793.2,388.4c0,4.4-3.6,7.9-7.9,7.9c-4.4,0-7.9-3.6-7.9-7.9c0-4.4,3.6-7.9,7.9-7.9l0,0     C789.7,380.4,793.2,384,793.2,388.4" />
			<path
   id="path5467"
   class="st9"
   d="M790.6,388.4c0,2.9-2.3,5.2-5.2,5.2s-5.2-2.3-5.2-5.2s2.3-5.2,5.2-5.2l0,0     C788.2,383.1,790.6,385.5,790.6,388.4" />
			<path
   id="path5469"
   class="st10"
   d="M788.1,388.4c0,1.5-1.2,2.8-2.8,2.8c-1.5,0-2.8-1.2-2.8-2.8s1.2-2.8,2.8-2.8l0,0     C786.9,385.6,788.1,386.8,788.1,388.4L788.1,388.4" />
		</g>
		<rect
   id="rect8240"
   x="725.5"
   y="327.5"
   class="st7"
   width="71.4"
   height="97.1" />
	</g>
</a>
<a
   id="a8546"
   xlink:href="#tamu-q">
	<g
   id="g8530">
		<path
   id="path5471"
   class="st0"
   d="M706.3,606.8c-0.1,0-0.2-0.1-0.2-0.2l0,0v-13.4c0-0.1,0-0.1-0.1-0.1h-4.3    c-0.1,0-0.2-0.1-0.2-0.2l0,0V592c0-0.1,0.1-0.2,0.2-0.2l0,0h10.2c0.1,0,0.2,0.1,0.2,0.2l0,0v0.8c0,0.1-0.1,0.2-0.2,0.2l0,0h-4.3    c-0.1,0-0.1,0-0.1,0.1v13.4c0,0.1-0.1,0.2-0.2,0.2l0,0L706.3,606.8z" />
		<path
   id="path5473"
   class="st0"
   d="M717.3,592c0-0.1,0.1-0.2,0.3-0.2h0.8c0.1,0,0.2,0.1,0.3,0.2l5.2,14.5c0,0.1,0,0.2-0.2,0.2    h-0.9c-0.1,0-0.3-0.1-0.3-0.2l0,0l-1.3-3.7h-6.5l-1.3,3.7c-0.1,0.2-0.2,0.2-0.3,0.2h-0.9c-0.1,0-0.2-0.1-0.2-0.2L717.3,592z     M720.8,601.6l-2.8-7.8l0,0l-2.8,7.8H720.8z" />
		<path
   id="path5475"
   class="st0"
   d="M727.1,592c0-0.1,0.1-0.2,0.2-0.2l0,0h0.8c0.1,0,0.3,0.1,0.3,0.2l4.9,10.7h0.1l4.7-10.7    c0-0.1,0.2-0.2,0.3-0.2h0.9c0.1,0,0.2,0.1,0.2,0.2l0,0v14.5c0,0.1-0.1,0.2-0.2,0.2l0,0h-0.8c-0.1,0-0.2-0.1-0.2-0.2l0,0v-11.7    h-0.1l-4.3,9.5c-0.1,0.2-0.2,0.3-0.4,0.2h-0.4c-0.2,0-0.3-0.1-0.4-0.2l-4.3-9.5h-0.1v11.7c0,0.1-0.1,0.2-0.2,0.2l0,0h-0.8    c-0.1,0-0.2-0.1-0.2-0.2l0,0V592z" />
		<path
   id="path5477"
   class="st0"
   d="M745.4,601.6c0,2.8,1.4,4.2,3.8,4.2s3.8-1.4,3.8-4.2V592c0-0.1,0.1-0.2,0.2-0.2l0,0h0.8    c0.1,0,0.2,0.1,0.2,0.2l0,0v9.6c0,3.7-2,5.4-5.1,5.4s-5.1-1.7-5.1-5.4V592c0-0.1,0.1-0.2,0.2-0.2l0,0h0.8c0.1,0,0.2,0.1,0.2,0.2    l0,0L745.4,601.6z" />
		<path
   id="path5479"
   class="st0"
   d="M757.8,601.2v-0.7c0-0.1,0.1-0.2,0.2-0.2l0,0h5.6c0.1,0,0.2,0.1,0.2,0.2l0,0v0.7    c0,0.1-0.1,0.2-0.2,0.2l0,0H758C757.9,601.5,757.8,601.4,757.8,601.2L757.8,601.2z" />
		<path
   id="path5481"
   class="st0"
   d="M777.3,607.5c-0.1,0.1-0.2,0.1-0.3,0l-1.5-1.6c-0.9,0.7-2.1,1.1-3.3,1.1    c-2.2,0.2-4.2-1.2-4.8-3.4c-0.6-2.9-0.6-5.8,0-8.7c1-2.7,3.9-4,6.6-3c1.4,0.5,2.5,1.6,3,3c0.6,2.9,0.6,5.8,0,8.7    c-0.2,0.5-0.4,1-0.7,1.4l1.5,1.6c0.1,0.1,0.1,0.2,0,0.3l0,0L777.3,607.5z M774.7,605l-1.8-1.9c-0.1-0.1-0.1-0.2,0-0.3l0.5-0.5    c0.1-0.1,0.2-0.1,0.3,0l0,0l1.7,1.8c0.1-0.3,0.3-0.5,0.4-0.8c0.3-1.3,0.5-2.7,0.4-4c0.1-1.3,0-2.7-0.4-4c-0.7-2-2.9-3-4.9-2.3    c-1.1,0.4-1.9,1.2-2.3,2.3c-0.3,1.3-0.5,2.7-0.4,4c-0.1,1.3,0,2.7,0.4,4c0.5,1.6,2,2.7,3.6,2.5C773.1,605.8,774,605.5,774.7,605z" />
		<polygon
   id="polygon5483"
   class="st11"
   points="760.2,555.7 755.5,546 755.3,545.6 754.9,545.6 748.7,545.6 748.1,545.6     748.1,546.2 748.1,549.6 748.1,550.2 748.7,550.2 749.8,550.2 749.8,564.1 748.6,564.1 748,564.1 748,564.7 748,568 748,568.6     748.6,568.6 755.6,568.6 756.2,568.6 756.2,568 756.2,564.7 756.2,564.1 755.6,564.1 754.4,564.1 754.4,554.2 759.6,565     760.2,566.1 760.7,565 766,554.2 766,564.1 764.8,564.1 764.2,564.1 764.2,564.7 764.2,568 764.2,568.6 764.8,568.6 771.8,568.6     772.4,568.6 772.4,568 772.4,564.7 772.4,564.1 771.8,564.1 770.6,564.1 770.6,550.2 771.8,550.2 772.4,550.2 772.4,549.6     772.4,546.2 772.4,545.6 771.8,545.6 765.4,545.6 765,545.6 764.8,546   " />
		<path
   id="path5485"
   class="st11"
   d="M731.2,564.1h-1.9l-6.1-14h1.2v-4.5h-9.7v4.5h1.3l-6.1,14h-2.5v4.5h8.8v-4.5H715l1-2.3h7.3    l1,2.3h-1.4v4.5h8.8v-4.5H731.2z M721.3,557.2h-3.4l1.7-3.9L721.3,557.2z" />
		<path
   id="path5487"
   class="st11"
   d="M764.5,528.2l-49.8-0.2l-0.1,14.5h9.8v-5.6L735,537l-0.1,34.6h-5.5v9.8l21,0.1v-9.8h-5.5    l0.1-34.6h10.4v5.5h9.9l0.1-14.4L764.5,528.2z M746.1,575.8l2.1-2.1v5.9l-2.1-2V575.8z M742.6,573.8l-2.1,2l0.2-42.8l2.1,2.1    L742.6,573.8z M718.8,532.1l-2.1-2.1l45.5,0.2l-2.7,2.1L718.8,532.1z M763.2,540.8l-2.1-2v-5.3l2.1-2.1V540.8z" />
		<path
   id="path5489"
   class="st11"
   d="M752.6,579.5c0-1.1,0.9-2,2-2s2,0.9,2,2s-0.9,2-2,2l0,0C753.5,581.5,752.6,580.6,752.6,579.5z     M756.2,579.5c0-0.8-0.8-1.5-1.6-1.4c-0.8,0-1.5,0.8-1.4,1.6c0,0.8,0.7,1.4,1.5,1.4S756.2,580.4,756.2,579.5L756.2,579.5z     M753.9,578.3h0.8c0.5,0,0.8,0.2,0.8,0.7c0,0.3-0.2,0.6-0.5,0.6l0,0l0.6,1h-0.4l-0.6-1h-0.3v1h-0.4L753.9,578.3z M754.3,579.3h0.4    c0.2,0,0.5,0,0.5-0.3s-0.2-0.3-0.5-0.3h-0.4V579.3L754.3,579.3z" />
		<rect
   id="rect8517"
   x="698.8"
   y="526.5"
   class="st7"
   width="79.1"
   height="80.5" />
	</g>
</a>
<a
   id="a8582"
   xlink:href="#vcu-q">
	<g
   id="g8580">
		<path
   id="path5491"
   class="st0"
   d="M588.6,737c-0.1,0-0.2-0.1-0.2-0.2l-5-14.4c-0.1-0.2,0-0.3,0.2-0.3h0.8c0.2,0,0.3,0,0.3,0.2    l4.4,12.7l0,0l4.2-12.7c0.1-0.2,0.1-0.2,0.3-0.2h0.8c0.2,0,0.2,0.1,0.2,0.3l-4.9,14.4c0,0.1-0.1,0.2-0.3,0.2H588.6z" />
		<path
   id="path5493"
   class="st0"
   d="M597,729.5c-0.1-1.5,0-2.9,0.4-4.4c0.6-2.1,2.6-3.5,4.7-3.3c1.9-0.1,3.7,1,4.5,2.8    c0.1,0.1,0,0.2-0.1,0.3l-0.7,0.3c-0.1,0.1-0.2,0-0.3-0.1l0,0c-0.6-1.3-2-2.2-3.4-2.1c-1.6-0.1-3.1,0.9-3.5,2.5    c-0.4,2.6-0.4,5.4,0,8c0.4,1.6,1.9,2.6,3.5,2.5c1.5,0,2.8-0.8,3.4-2.1c0.1-0.1,0.2-0.2,0.3-0.1l0.7,0.3c0.1,0.1,0.1,0.2,0.1,0.3    c-0.8,1.8-2.6,2.9-4.5,2.8c-2.2,0.2-4.2-1.2-4.7-3.3C597,732.4,596.9,731,597,729.5L597,729.5z" />
		<path
   id="path5495"
   class="st0"
   d="M611.5,731.9c0,2.8,1.4,4.2,3.8,4.2s3.8-1.4,3.8-4.2v-9.6c0-0.1,0.1-0.2,0.2-0.2l0,0h0.8    c0.1,0,0.2,0.1,0.2,0.2l0,0v9.6c0,3.7-2,5.4-5.1,5.4s-5.1-1.7-5.1-5.4v-9.6c0-0.1,0.1-0.2,0.2-0.2l0,0h0.8c0.1,0,0.2,0.1,0.2,0.2    l0,0L611.5,731.9z" />
		<path
   id="path5497"
   class="st0"
   d="M623.9,731.5v-0.7c0-0.1,0.1-0.2,0.2-0.2l0,0h5.6c0.1,0,0.2,0.1,0.2,0.2l0,0v0.7    c0,0.1-0.1,0.2-0.2,0.2l0,0h-5.6C624,731.7,623.9,731.6,623.9,731.5L623.9,731.5z" />
		<path
   id="path5499"
   class="st0"
   d="M643.4,737.7c-0.1,0.1-0.2,0.1-0.3,0l0,0l-1.5-1.6c-0.9,0.7-2.1,1.1-3.3,1.1    c-2.2,0.2-4.2-1.2-4.8-3.4c-0.6-2.9-0.6-5.8,0-8.7c1-2.7,3.9-4,6.6-3c1.4,0.5,2.5,1.6,3,3c0.6,2.9,0.6,5.8,0,8.7    c-0.2,0.5-0.4,1-0.7,1.4l1.5,1.6c0.1,0.1,0.1,0.2,0,0.3l0,0L643.4,737.7z M640.8,735.3l-1.8-1.9c-0.1-0.1-0.1-0.2,0-0.3l0.5-0.5    c0.1-0.1,0.2-0.1,0.3,0l0,0l1.7,1.8c0.2-0.3,0.3-0.5,0.4-0.8c0.3-1.3,0.5-2.7,0.4-4c0.1-1.3,0-2.7-0.4-4c-0.7-2-2.9-3-4.9-2.3    c-1.1,0.4-1.9,1.2-2.3,2.3c-0.3,1.3-0.5,2.7-0.4,4c-0.1,1.3,0,2.7,0.4,4c0.5,1.6,2,2.7,3.6,2.5    C639.2,736.1,640.1,735.8,640.8,735.3z" />
		<path
   id="path5501"
   class="st0"
   d="M624.7,706.2c-0.1-2.8-2.5-5.1-5.3-5s-5.1,2.5-5,5.3s2.4,5,5.2,5c0.6,0,1.1-0.1,1.7-0.3    l1.1,1.7l1-0.6l-1-1.6C623.9,709.8,624.8,708,624.7,706.2z M621.6,709.8l-1-1.6l-1,0.7l1,1.5c-0.3,0.1-0.7,0.1-1,0.2    c-2.2,0-3.6-1.7-3.6-4.2s1.5-4.2,3.6-4.2s3.6,1.7,3.6,4.2C623.3,707.6,622.7,708.9,621.6,709.8L621.6,709.8z" />
		<path
   id="path5503"
   class="st0"
   d="M629.5,701.1l-4,10.2h1.5l1.2-3.1h3.8l1.1,3.1h1.5l-3.7-10.2H629.5z M628.7,707l1.5-4.2    l1.4,4.2H628.7z" />
		<polygon
   id="polygon5505"
   class="st0"
   points="639.4,702.3 642.5,702.3 642.5,701.1 634.8,701.1 634.8,702.3 638,702.3 638,711.3     639.4,711.3   " />
		<path
   id="path5507"
   class="st0"
   d="M646.7,701.1l-4,10.2h1.5l1.2-3.1h3.8l1.1,3.1h1.5l-3.7-10.2H646.7z M645.8,707l1.5-4.2    l1.4,4.2H645.8z" />
		<path
   id="path5509"
   class="st0"
   d="M659.5,706.9c0.5,0,0.9-0.2,1.3-0.5c0.8-0.5,1.2-1.4,1.1-2.4c0-1.9-1.3-2.9-3.5-2.9h-4.5v10.2    h1.4V707h2.7l2.8,4.3h1.6L659.5,706.9z M655.3,705.8v-3.5h3.2c1-0.1,1.8,0.5,2,1.5c0,0.1,0,0.2,0,0.4c0,1.2-0.6,1.7-2,1.7h-3.2    V705.8z" />
		<polygon
   id="polygon5511"
   class="st12"
   points="564.7,679.2 570.3,695.4 575.6,695.4 581.4,679.2 576.9,679.2 573.2,690.9     573.2,690.9 569.6,679.2   " />
		<path
   id="path5513"
   class="st12"
   d="M607.8,679.2v9.9c-0.1,2.1-0.9,3.4-3,3.4s-3-1.3-3-3.4v-9.9h-4.5v10.3c0,4.5,3.4,6.3,7.5,6.3    s7.5-1.8,7.5-6.3v-10.3H607.8z" />
		<path
   id="path5515"
   class="st12"
   d="M588.5,692.6c-2.5,0-3.1-2.8-3.1-5.2s0.5-5.5,3-5.5c1.8,0,2.5,0.8,2.6,2.3h4.7    c0.1-4-3.6-5.4-7.4-5.5c-5,0.1-7.7,3-7.7,8.5s2.7,8.5,7.8,8.5h0.4c3.8-0.1,7-1.6,7-5.5h-4.7C591,691.8,590.4,692.6,588.5,692.6    L588.5,692.6z" />
		<path
   id="path5517"
   class="st13"
   d="M645.9,690.5v-7.7h2.4v-3.7h-2.4v-4.4l-4.6,1.2v14.7v0.1c0,3.2,0.8,5,4.3,5    c0.9,0,1.9-0.1,2.8-0.3V692h-1.1C646.3,692,645.9,691.4,645.9,690.5L645.9,690.5z" />
		<path
   id="path5519"
   class="st13"
   d="M634.5,682.1L634.5,682.1l-0.2-2.9h-4v16.2h4.6v-7.9l0,0l0,0l0,0c0-2.9,1.2-4.6,4.7-4.6h0.4    V679C637.6,678.9,635.5,679.6,634.5,682.1z" />
		<path
   id="path5521"
   class="st13"
   d="M623.5,679L623.5,679h-0.3l0,0h-0.3h-0.1h-0.2h-0.9c-1.6,0-3.2,0.4-4.5,1.2    c-1.4,0.8-2.2,2.3-2.1,3.8h4.3c-0.1-1.2,0.8-2.2,2-2.3h0.1h0.3c1.1,0,2,0.9,2,2v0.7l0,0v1h-1c-1.6,0-3.2,0.2-4.7,0.6l-0.7,0.2l0,0    c-0.3,0.1-0.7,0.3-1,0.5c-0.8,0.5-1.4,1.2-1.8,2c-0.1,0.2-0.2,0.5-0.3,0.7c-0.1,0.3-0.2,0.7-0.2,1s-0.1,0.5-0.1,0.8    c0,1.3,0.6,2.6,1.5,3.5l0,0c0.1,0.1,0.2,0.2,0.3,0.3l0,0l0.4,0.2h0.1l0.3,0.2h0.1l0.3,0.1h0.2c0.1,0,0.2,0.1,0.3,0.1h0.2h0.3    c0.1,0,0.2,0,0.3,0h0.2h0.5h0.2c1.8,0.1,3.5-0.7,4.5-2.1l0.4,1.7h4v-10.6C628.5,680.9,626.1,679.4,623.5,679L623.5,679z     M621.1,692.6L621.1,692.6c-1.3,0.1-2.4-0.9-2.4-2.1c0-2.4,3-2.5,4.7-2.5h0.5C623.9,690.5,624.2,692.6,621.1,692.6L621.1,692.6z" />
		<path
   id="path5523"
   class="st13"
   d="M658,685.6L658,685.6c-1.2-0.2-2.3-0.5-3.3-1c-0.4-0.2-0.6-0.6-0.6-1c0-0.8,0.8-1.5,2-1.5    c1-0.2,1.9,0.4,2.3,1.3c0.1,0.2,0.1,0.4,0.2,0.7h4.1V684c-0.3-3.2-2.4-4.9-5.9-5.1H656c-3.9,0.1-6.4,2.1-6.3,5.3    c0,3.3,2.8,4,4.7,4.5l0,0c1.1,0.2,2.2,0.6,3.3,0.9c0.8,0.3,1,0.6,1.1,1.1c0,0.9-0.9,1.5-2.3,1.6h-0.2c-1.9,0-2.7-0.6-2.9-2.3h-4.2    v0.2c0,0.3,0,0.7,0.1,1l0.1,0.3l0,0c0,0.1,0,0.2,0.1,0.3l0,0l0.1,0.3l0,0l0.1,0.3l0,0l0.1,0.3l0,0l0.1,0.2c0,0.1,0,0.1,0.1,0.2    l0,0l0,0c0.4,0.7,0.9,1.3,1.6,1.7l0,0c0.4,0.3,0.8,0.5,1.3,0.7l0,0l0.2,0.1h0.1l0.2,0.1h0.1c0.2,0.1,0.4,0.1,0.6,0.2h0.1h0.1h0.2    h0.1h0.2h0.1h0.2h0.1h0.3c0.2,0,0.5,0,0.8,0l0,0h0.4h0.1h0.3h0.1h0.2h0.1h0.2h0.1h0.2h0.1h0.2h0.1l0.2-0.1h0.1l0.2-0.1h0.1    l0.2-0.1h0.1l0.2-0.1l0,0l0.3-0.1l0,0c0.5-0.2,0.9-0.5,1.3-0.8c1.1-1,1.7-2.3,1.6-3.8l0,0C663.1,687,660.2,686.1,658,685.6    L658,685.6z" />
		<rect
   id="rect8560"
   x="564.7"
   y="675.2"
   class="st7"
   width="101.8"
   height="64.4" />
	</g>
</a>
<a
   id="a8614"
   xlink:href="#wcm-q">
	<g
   id="g8612">
		<path
   id="path5525"
   class="st0"
   d="M221.3,764.8c-0.1,0-0.2-0.1-0.2-0.2l-3.5-12.2l0,0l-3.6,12.2c0,0.2-0.1,0.2-0.2,0.2H213    c-0.1,0-0.2-0.1-0.3-0.2l-3.5-14.5c0-0.2,0-0.2,0.2-0.2h0.8c0.2,0,0.3,0.1,0.3,0.2l3,12.3l0,0L217,750c0.1-0.2,0.1-0.2,0.3-0.2    h0.7c0.1,0,0.2,0.1,0.3,0.2l3.5,12.3h0.1l2.9-12.3c0-0.1,0.1-0.2,0.3-0.2l0,0h0.8c0.1,0,0.2,0.1,0.2,0.2l-3.5,14.5    c0,0.1-0.1,0.2-0.2,0.2l0,0L221.3,764.8z" />
		<path
   id="path5527"
   class="st0"
   d="M228.4,757.3c-0.1-1.5,0-2.9,0.4-4.3c0.6-2.1,2.6-3.5,4.7-3.3c1.9-0.1,3.7,1,4.5,2.8    c0.1,0.1,0,0.2-0.1,0.3l-0.7,0.3c-0.1,0.1-0.2,0-0.3-0.1l0,0c-0.6-1.3-2-2.2-3.4-2.1c-1.6-0.1-3.1,0.9-3.5,2.5    c-0.4,2.6-0.4,5.4,0,8c0.4,1.6,1.9,2.6,3.5,2.5c1.5,0,2.8-0.8,3.4-2.1c0-0.1,0.2-0.1,0.3-0.1l0,0l0.7,0.4c0.1,0.1,0.1,0.2,0.1,0.3    c-0.8,1.8-2.6,2.9-4.5,2.8c-2.2,0.2-4.2-1.2-4.7-3.3C228.4,760.2,228.3,758.7,228.4,757.3L228.4,757.3z" />
		<path
   id="path5529"
   class="st0"
   d="M241.8,750c0-0.1,0.1-0.2,0.2-0.2l0,0h0.8c0.1,0,0.3,0.1,0.3,0.2l4.9,10.7h0.1l4.8-10.7    c0-0.1,0.2-0.2,0.3-0.2h0.9c0.1,0,0.2,0.1,0.2,0.2l0,0v14.5c0,0.1-0.1,0.2-0.2,0.2l0,0h-0.8c-0.1,0-0.2-0.1-0.2-0.2l0,0v-11.7l0,0    l-4.3,9.5c-0.1,0.2-0.2,0.3-0.4,0.2H248c-0.2,0-0.3-0.1-0.4-0.2l-4.3-9.5h-0.1v11.7c0,0.1-0.1,0.2-0.2,0.2l0,0h-1    c-0.1,0-0.2-0.1-0.2-0.2l0,0V750z" />
		<path
   id="path5531"
   class="st0"
   d="M258,759.2v-0.7c0-0.1,0.1-0.2,0.2-0.2l0,0h5.6c0.1,0,0.2,0.1,0.2,0.2l0,0v0.7    c0,0.1-0.1,0.2-0.2,0.2l0,0h-5.6C258.1,759.5,258,759.4,258,759.2L258,759.2z" />
		<path
   id="path5533"
   class="st0"
   d="M277.5,765.5c-0.1,0.1-0.2,0.1-0.3,0l0,0l-1.5-1.6c-0.9,0.7-2.1,1.1-3.3,1.1    c-2.2,0.2-4.2-1.2-4.8-3.4c-0.6-2.9-0.6-5.8,0-8.7c1-2.7,3.9-4,6.6-3c1.4,0.5,2.5,1.6,3,3c0.6,2.9,0.6,5.8,0,8.7    c-0.2,0.5-0.4,1-0.7,1.4l1.5,1.6c0.1,0.1,0.1,0.2,0,0.3l0,0L277.5,765.5z M274.9,763l-1.8-1.9c-0.1-0.1-0.1-0.2,0-0.3l0,0l0.5-0.5    c0.1-0.1,0.2-0.1,0.3,0l0,0l1.7,1.8c0.2-0.3,0.3-0.5,0.4-0.8c0.3-1.3,0.5-2.7,0.4-4c0.1-1.3,0-2.7-0.4-4c-0.7-2-2.9-3-4.9-2.3    c-1.1,0.4-1.9,1.2-2.3,2.3c-0.3,1.3-0.5,2.7-0.4,4c-0.1,1.3,0,2.7,0.4,4c0.5,1.6,2,2.7,3.6,2.5C273.3,763.8,274.2,763.5,274.9,763    z" />
		<path
   id="path5535"
   class="st14"
   d="M243.8,676.2c-17.1,0-31,13.9-31,31s13.9,31,31,31s31-13.9,31-31S261,676.2,243.8,676.2     M243.8,739.8c-17.9,0-32.5-14.5-32.5-32.5s14.5-32.5,32.5-32.5s32.5,14.5,32.5,32.5l0,0C276.3,725.2,261.8,739.7,243.8,739.8     M268.8,712.5l-0.6,2.4l0.6,0.2l0.4-1.6l1.1,0.3l-0.4,1.4l0.6,0.2l0.4-1.4l1,0.2l-0.4,1.5l0.6,0.2l0.6-2.3L268.8,712.5z M273,712    c0.2-0.4,0.3-0.8,0.3-1.2c0.3-1.1-0.4-2.2-1.5-2.4c-0.2,0-0.3-0.1-0.5-0.1c-1.4-0.2-2.1,0.7-2.3,2c0,0.4,0,0.9,0.1,1.3l2.2,0.2    l0.2-1.7l-0.6-0.1l-0.1,0.9l-1.1-0.1c0-0.2,0-0.4,0-0.5c0.1-0.7,0.7-1.3,1.4-1.3c0.1,0,0.1,0,0.2,0c0.8,0,1.4,0.7,1.3,1.5    c0,0.1,0,0.1,0,0.2c0,0.4-0.2,0.7-0.3,1L273,712z M269.2,705.1l0.1,2.4h0.6l-0.1-1.6h1.1v1.5h0.7l-0.1-1.5h1l0.1,1.6h0.6l-0.1-2.4    H269.2z M268.8,702.2l0.4,2.4l0.6-0.1l-0.2-1.6l3.4-0.6l-0.1-0.8L268.8,702.2z M268.1,699.4l0.7,2.3l0.6-0.2L269,700l3.3-1    l-0.2-0.8L268.1,699.4z M267.6,696.6c-0.3-0.8,0.2-1.4,0.9-1.7c0.7-0.3,1.5-0.3,1.8,0.5s-0.2,1.3-0.9,1.7    C268.8,697.4,267.9,697.4,267.6,696.6 M270.9,695.1c-0.4-1.1-1.7-1.6-2.8-1.2c-1.1,0.4-1.6,1.7-1.2,2.8s1.7,1.6,2.8,1.2    c0,0,0.1,0,0.1-0.1c1-0.3,1.6-1.4,1.2-2.4C271,695.3,270.9,695.2,270.9,695.1 M266.6,694.3c-0.3-0.2-0.5-0.4-0.6-0.7    c-0.4-0.6-0.3-1.4,0.3-1.9c0.1,0,0.1-0.1,0.2-0.1c0.6-0.5,1.5-0.4,1.9,0.2l0.1,0.1c0.2,0.2,0.3,0.5,0.3,0.8l0.6-0.3    c-0.1-0.3-0.2-0.6-0.4-0.9c-0.5-1-1.7-1.4-2.7-0.9c-0.1,0.1-0.3,0.2-0.4,0.3c-0.9,0.6-1.2,1.8-0.7,2.8c0.1,0.1,0.1,0.2,0.2,0.2    c0.2,0.3,0.4,0.5,0.6,0.7L266.6,694.3z M261.4,688.8l1.7,1.7l0.5-0.5l-1.1-1.1l2.5-2.4l-0.6-0.6L261.4,688.8z M260.9,686.3l-1-0.7    l1.5-1l0,0L260.9,686.3z M257.8,685.9l0.7,0.5l0.9-0.5l1.3,1l-0.3,1l0.7,0.5l1.2-4.2l-0.7-0.6L257.8,685.9z M258,685.2    c-0.3,0-0.6-0.1-0.9-0.3c-0.7-0.3-0.9-1.1-0.6-1.8c0-0.1,0.1-0.1,0.1-0.2c0.3-0.7,1.1-1,1.8-0.7c0,0,0.1,0,0.1,0.1    c0.3,0.1,0.5,0.4,0.7,0.6l0.4-0.6c-0.2-0.2-0.5-0.4-0.7-0.6c-0.9-0.6-2.1-0.4-2.8,0.5c-0.1,0.1-0.2,0.2-0.2,0.4    c-0.6,0.9-0.3,2.2,0.7,2.7c0.1,0.1,0.2,0.1,0.3,0.1c0.3,0.1,0.6,0.3,0.9,0.3L258,685.2z M253.5,683.7l0.8,0.3l1.6-3.8l-0.8-0.3    L253.5,683.7z M251.3,679.4l0.4,0.1c0.7,0.3,1.1,1.1,0.9,1.8c-0.2,0.7-1,1.1-1.7,0.9l-0.4-0.1L251.3,679.4z M249.6,682.4l1.1,0.3    c1.2,0.4,2.4,0.3,2.9-1.3s-0.5-2.3-1.7-2.6l-1.1-0.3L249.6,682.4z M246.3,681.9l2.4,0.3l0.1-0.6l-1.6-0.2l0.2-1.1l1.5,0.2l0.1-0.6    l-1.4-0.2l0.1-1l1.6,0.2l0.1-0.6L247,678L246.3,681.9z M240.8,681.9h0.8l-0.1-3.4l0,0l1.2,3.4h0.8l1-3.4l0,0l0.1,3.4h0.8l-0.1-4.1    H244l-0.9,3.1l0,0l-1-3.1h-1.3V681.9z M236.4,682.9l2.3-0.6l-0.2-0.6l-1.5,0.4l-0.9-3.3l-0.8,0.2L236.4,682.9z M233.7,683.9    l2.2-0.9l-0.2-0.6l-1.5,0.6l-1.2-3.2l-0.8,0.3L233.7,683.9z M230.8,685.4l2.1-1.1l-0.3-0.6l-1.4,0.8l-0.6-1l1.3-0.7l-0.3-0.6    l-1.3,0.7l-0.5-0.9l1.4-0.8l-0.3-0.6l-2.1,1.1L230.8,685.4z M227.3,687.9l0.6-0.5l-1.8-2.5l0,0l3.1,1.5l0.8-0.6l-2.4-3.3L227,683    l1.8,2.5l0,0l-3.1-1.5l-0.8,0.6L227.3,687.9z M222.9,687.4l0.2-0.2c0.3-0.3,0.6-0.6,1-0.2c0.4,0.3,0.1,0.7-0.2,1l-0.2,0.2    L222.9,687.4z M224.8,690.4l0.6-0.6l-1.2-1.2l0.2-0.2c0.2-0.2,0.5-0.3,0.7-0.1l1.3,0.5l0.6-0.7l-1.6-0.7c-0.2-0.1-0.4-0.1-0.6,0    l0,0c0.3-0.4,0.3-0.9-0.1-1.3c-0.8-0.8-1.5,0-2.1,0.6l-0.6,0.6L224.8,690.4z M222.6,692.1c-0.5,0.7-1.3,0.5-1.9,0.1    s-1-1.1-0.5-1.8c0.5-0.5,1.3-0.6,1.8-0.1c0,0,0,0,0.1,0.1C222.7,690.8,223.1,691.5,222.6,692.1 M219.7,690.1    c-0.7,0.8-0.5,2,0.3,2.7c0.1,0.1,0.2,0.1,0.3,0.2c0.9,0.6,2.2,0.3,2.8-0.6c0.6-0.9,0.3-2.2-0.6-2.8    C221.5,689,220.3,689.2,219.7,690.1 M221.1,694.2c0,0.3-0.1,0.6-0.2,0.9c-0.3,0.7-1.1,1-1.8,0.7c0,0-0.1,0-0.1-0.1    c-0.7-0.3-1-1.1-0.8-1.8c0,0,0-0.1,0.1-0.1c0.1-0.3,0.3-0.5,0.6-0.7l-0.6-0.4c-0.2,0.2-0.4,0.5-0.6,0.8c-0.6,0.9-0.4,2.2,0.5,2.8    c0.1,0.1,0.3,0.2,0.5,0.2c1,0.5,2.2,0.2,2.7-0.8c0.1-0.1,0.1-0.2,0.1-0.3c0.1-0.3,0.2-0.6,0.3-0.9L221.1,694.2z M219,701.4    l0.6-2.3l-0.6-0.2l-0.4,1.5l-3.3-0.9l-0.2,0.8L219,701.4z M218.5,704.3l0.4-2.4l-0.6-0.1l-0.3,1.6l-3.4-0.5l-0.1,0.8L218.5,704.3z     M214.3,705.7l4.1,0.3l0.1-0.8l-4.1-0.3L214.3,705.7z M218.4,709.1l-0.1-2.4h-0.6v1.6h-1.1v-1.5H216v1.5h-1v-1.6h-0.6l0.1,2.4    H218.4z M219.2,714.2l-0.2-1l-3.4-0.1l0,0l3.1-1.4l-0.2-1l-4.2-0.2l0.2,0.8l3.4,0.1l0,0l-3.1,1.4l0.2,1.1h3.4l0,0l-3.1,1.4    l0.2,0.8L219.2,714.2z M269.9,721.2l0.4-0.7l-1.4-0.7l-1.5-2.3l-0.4,0.8l1.1,1.6l-1.9,0.1l-0.4,0.8l2.8-0.2L269.9,721.2z     M267.7,724.7l0.5-0.7l-2.8-1.9l0.7-0.9l-0.5-0.3l-1.7,2.5l0.5,0.4l0.6-0.9L267.7,724.7z M266,726.9l0.5-0.6l-3-2.6l-0.5,0.6    L266,726.9z M262.4,725.2c-0.3,0.1-0.5,0.3-0.8,0.6c-0.5,0.4-0.7,1.1-0.3,1.7c0,0.1,0.1,0.1,0.1,0.1c0.9,0.9,1.9-0.5,2.5,0.1    c0.2,0.2,0.1,0.7-0.1,0.8c-0.2,0.2-0.5,0.4-0.8,0.5l0.4,0.6c0.3-0.2,0.6-0.4,0.8-0.6c0.6-0.5,0.8-1.3,0.2-1.9c-0.9-1-2,0.5-2.5,0    c-0.2-0.2-0.2-0.6,0-0.8c0,0,0,0,0.1-0.1c0.2-0.2,0.4-0.4,0.7-0.4L262.4,725.2z M258.9,728.9l0.2-0.2c0.3-0.2,0.7-0.5,1-0.1    s0,0.7-0.4,0.9l-0.2,0.2L258.9,728.9z M260.2,732l0.6-0.5l-1-1.3l0.2-0.2c0.3-0.2,0.4-0.2,0.7,0l1.1,0.7l0.7-0.5l-1.4-0.9    c-0.2-0.1-0.4-0.2-0.6-0.1l0,0c0.4-0.3,0.4-0.8,0.1-1.2c-0.6-0.9-1.5-0.3-2.1,0.2l-0.7,0.5L260.2,732z M257,733.9l2.1-1.1    l-0.3-0.5l-1.4,0.7l-0.5-1l1.2-0.7l-0.3-0.5l-1.2,0.7l-0.5-0.9l1.4-0.7l-0.3-0.5l-2.1,1.1L257,733.9z M253.7,735.3l0.9-0.3    l-0.1-4.2l-0.8,0.3l0.1,3.3l0,0l-2-2.6l-0.8,0.3L253.7,735.3z M250.7,736.2l0.8-0.2l-1-3.8l-0.8,0.2L250.7,736.2z M246.2,736.9    l0.8-0.1l-0.4-2.9l0,0l1.9,2.7l1-0.1l-0.5-3.9l-0.8,0.1l0.4,2.9l0,0l-1.9-2.7l-1,0.1L246.2,736.9z M241.4,735.4    c0,1.1,0.5,1.5,1.6,1.5s1.6-0.4,1.7-1.4l0.1-2.5H244l-0.1,2.3c0,0.7-0.2,1.1-0.9,1.1c-0.6,0-0.8-0.5-0.8-1.2l0.1-2.3h-0.8    L241.4,735.4z M236,735.8l2.3,0.6l0.1-0.6l-1.5-0.4l0.8-3.2L237,732L236,735.8z M232.8,734.7l2.2,0.8l0.2-0.6l-1.4-0.5l1.2-3.1    l-0.7-0.3L232.8,734.7z M229.4,733l2.1,1.1l0.3-0.6l-1.4-0.7l0.5-1l1.2,0.7l0.3-0.6l-1.3-0.7l0.5-0.9l1.4,0.7l0.3-0.6l-2.1-1.1    L229.4,733z M225.4,730.2l0.6,0.5l1.8-2.4l0,0l-0.5,3.3l0.8,0.6l2.3-3.2l-0.6-0.5L228,731l0,0l0.6-3.3l-0.8-0.6L225.4,730.2z     M225.3,725.5l0.2,0.2c0.3,0.3,0.6,0.6,0.2,1s-0.7,0.1-1-0.2l-0.2-0.2L225.3,725.5z M222.3,727.3l0.6,0.6l1.2-1.2l0.2,0.2    c0.2,0.2,0.2,0.4,0.1,0.7l-0.5,1.2l0.6,0.6l0.6-1.5c0.1-0.2,0.1-0.4,0-0.6l0,0c0.4,0.3,0.9,0.3,1.2-0.1c0.8-0.8,0-1.5-0.6-2.1    l-0.6-0.6L222.3,727.3z M220.7,724.3c-0.5-0.7-0.1-1.3,0.5-1.7c0.5-0.5,1.2-0.5,1.7,0l0.1,0.1c0.5,0.6,0.1,1.3-0.5,1.7    S221.2,725,220.7,724.3 M223.5,722.3c-0.7-0.9-1.9-1.1-2.9-0.5c-0.9,0.7-1.1,1.9-0.5,2.9s1.9,1.1,2.9,0.5    C224,724.5,224.2,723.2,223.5,722.3L223.5,722.3 M218.6,722c-0.2-0.2-0.4-0.5-0.5-0.8c-0.6-0.9-0.4-2.1,0.5-2.7    c0.1-0.1,0.2-0.1,0.3-0.2c1-0.6,2.2-0.2,2.7,0.7c0,0.1,0.1,0.2,0.1,0.3c0.1,0.3,0.2,0.6,0.2,0.9l-0.6,0.2c0-0.3-0.1-0.6-0.2-0.9    c-0.3-0.7-1.1-0.9-1.8-0.6c0,0-0.1,0-0.1,0.1c-0.7,0.3-1,1-0.7,1.7c0,0.1,0,0.1,0.1,0.2c0.1,0.3,0.3,0.5,0.5,0.7L218.6,722z     M243.8,684.5c-12.6,0-22.7,10.2-22.7,22.7c0,12.6,10.2,22.7,22.7,22.7c12.6,0,22.7-10.2,22.7-22.7l0,0    C266.6,694.7,256.4,684.5,243.8,684.5 M243.8,731.5c-13.4,0-24.2-10.9-24.2-24.2c0-13.4,10.9-24.2,24.2-24.2    c13.4,0,24.2,10.9,24.2,24.2C268.1,720.6,257.2,731.5,243.8,731.5 M244.4,728v-6.9c0.1-0.1,0.1-0.1,0.2-0.2    c0.1-0.2,0.4-0.4,0.7-0.3c0.9,0,1.5,0,2.2,0.1s1.4,0.1,2.5,0.2c1.1,0,1.9,0,1.9,0h0.6v-2.6h1.4V717h-1.5v-2.7h1.5v-1.2h-1.5v-2.8    h1.5v-1.2h-1.5V707h-0.6h-1c-0.4,0-0.9,0-1.5,0s-1.1-0.1-1.8-0.1l0,0l-1.2-0.1c-0.2,0-0.4,0-0.7,0c-0.4,0-0.8,0-1.2,0.1l0,0h-0.1    V705h13.3v6.6C257.7,720.1,247.6,726.4,244.4,728 M229.9,711.2V705h13.3v1.7h-0.1c-0.4-0.1-0.8-0.1-1.2-0.1c-0.2,0-0.4,0-0.6,0    l-1.3,0.1h-0.1c-0.7,0.1-1.3,0.1-1.8,0.1h-1.3h-1.2H235v2.2h-1.5v1.2h1.5v2.8h-1.5v1.2h1.5v2.8h-1.5v1.2h1.5v2.6h0.6    c0.1,0,0.9,0,2,0s1.9-0.1,2.5-0.2c0.7-0.1,1.4-0.1,2.1-0.1c0.3,0,0.5,0.1,0.6,0.3c0.1,0.1,0.1,0.2,0.2,0.2v6.9    C240.1,726.3,230,720.2,229.9,711.2 M244.5,708c0.1-0.1,0.2-0.1,0.4-0.1c0.3-0.1,0.7-0.1,1-0.1c0.2,0,0.4,0,0.5,0l1.2,0.1h0.1    c0.7,0.1,1.3,0.2,1.9,0.2h1.7h0.1v11.5h-1.3c-1,0-1.8-0.1-2.4-0.2c-0.8-0.1-1.5-0.1-2.3-0.1l0,0c-0.3,0-0.6,0.1-0.8,0.2h-0.1    L244.5,708z M242.9,707.9c0.1,0,0.2,0.1,0.4,0.1v11.5h-0.1c-0.3-0.1-0.5-0.2-0.8-0.2c-0.9,0-1.6,0.1-2.2,0.1s-1.4,0.1-2.4,0.2    h-1.3v-11.5h1.8c0.6,0,1.2-0.1,1.9-0.2l1.3-0.1c0.2,0,0.3,0,0.5,0C242.2,707.8,242.6,707.9,242.9,707.9L242.9,707.9L242.9,707.9z     M230,692h27.8v11.5H230L230,692z M259.3,690.5h-30.8v20.7c0,11.5,14.5,18.4,15.1,18.6l0.3,0.1l0.3-0.1    c0.6-0.3,15.1-7.2,15.1-18.3V690.5z M240,699.2c0,0.2-0.2,0.5-0.7,0.8c-0.7,0.5-1.7,1-2.4,1.4h-0.1h-0.1c-0.3-0.2-1.5-0.9-2.3-1.4    c-0.5-0.3-0.8-0.7-0.8-0.9s0-0.7,0-1.5v-0.3h6.3l0,0C240,697.9,240,699,240,699.2 M240,694.5v1.6h-6.3v-1.6H240z M241.2,693.9    v-0.6h-8.7v0.6c0,1.5,0,5.1,0,5.3c0.1,0.8,0.6,1.5,1.3,1.8c1,0.7,2.6,1.6,2.7,1.7l0.3,0.2l0.3-0.2c0,0,1.8-1,2.8-1.7    c0.7-0.4,1.2-1,1.3-1.8C241.2,699,241.2,697.1,241.2,693.9 M254.1,699.1c0,0.2-0.2,0.5-0.7,0.8c-0.7,0.5-1.7,1-2.4,1.4h-0.1h-0.1    c-0.3-0.2-1.4-0.9-2.3-1.4c-0.5-0.3-0.8-0.6-0.8-0.8l0,0v-0.5l3.1-2.3l3.2,2.3L254.1,699.1L254.1,699.1z M247.8,694.5h6.3v2.7    l-3.2-2.3l0,0l-3.1,2.3V694.5L247.8,694.5z M255.3,693.9v-0.6h-8.7v0.6c0,1.5,0,5.1,0,5.3c0.1,0.8,0.6,1.5,1.4,1.8    c1,0.7,2.6,1.6,2.7,1.7l0.3,0.2l0.3-0.2c0,0,1.8-1,2.8-1.7c0.7-0.4,1.2-1,1.3-1.8C255.3,699,255.3,697.1,255.3,693.9 M249.7,710.6    v-0.8h-1.9c-0.3,0-0.6,0-1-0.1l-0.6-0.1c-0.1,0-0.3,0-0.4,0v0.8h0.3l0.6,0.1c0.4,0,0.8,0.1,1.1,0.1H249.7z M249.7,713v-0.8h-1    h-0.9c-0.3,0-0.6,0-1-0.1l-0.6-0.1h-0.4v0.8h0.3l0.6,0.1c0.4,0,0.8,0.1,1.1,0.1h0.9H249.7 M249.7,715.4v-0.8h-1.6h-0.3    c-0.3,0-0.7,0-1-0.1l-0.7-0.1c-0.1,0-0.3,0-0.4,0v0.8h0.3l0.7,0.1c0.4,0,0.7,0.1,1,0.1h0.3H249.7 M249.6,717.8V717H248h-0.3    c-0.3,0-0.6,0-1-0.1l-0.6-0.1c-0.1,0-0.3,0-0.4,0v0.8h0.3l0.6,0.1c0.4,0,0.8,0.1,1.1,0.1h0.3H249.6 M239.6,710.5    c0.3,0,0.7,0,1.1-0.1l0.6-0.1h0.3v-0.8c-0.1,0-0.3,0-0.4,0l-0.6,0.1c-0.4,0-0.7,0.1-1,0.1h-1.9v0.8H239.6z M237.7,713h1h0.9    c0.3,0,0.7,0,1.1-0.1l0.6-0.1h0.3V712h-0.4l-0.6,0.1c-0.4,0-0.7,0.1-1,0.1h-0.9h-1L237.7,713z M237.7,715.4h1.6h0.3    c0.3,0,0.6,0,1-0.1l0.7-0.1h0.3v-0.8c-0.1,0-0.3,0-0.4,0l-0.7,0.1c-0.3,0-0.7,0.1-1,0.1h-0.3h-1.6L237.7,715.4z M237.7,717.8V717    h1.6h0.3c0.3,0,0.6,0,1-0.1l0.6-0.1c0.1,0,0.3,0,0.4,0v0.8h-0.3l-0.6,0.1c-0.4,0-0.8,0.1-1.1,0.1h-0.3H237.7" />
		<rect
   id="rect8603"
   x="208.5"
   y="673.1"
   class="st7"
   width="69"
   height="92.3" />
	</g>
</a>
<a
   id="a8640"
   xlink:href="#qgp">
	<g
   id="g8638">
		<path
   id="path5223"
   class="st0"
   d="M107,612.5c-0.1,0.1-0.2,0.1-0.3,0l-1.4-1.6c-0.9,0.7-2.1,1.1-3.3,1.1    c-2.2,0.2-4.3-1.2-4.9-3.4c-0.6-2.9-0.6-5.8,0-8.7c1-2.7,3.9-4,6.6-3c1.4,0.5,2.5,1.6,3,3c0.6,2.9,0.6,5.8,0,8.7    c-0.2,0.5-0.4,1-0.7,1.4l1.5,1.6c0.1,0.1,0.1,0.2,0,0.3l0,0L107,612.5z M104.4,610l-1.8-1.9c-0.1-0.1-0.1-0.2,0-0.3l0,0l0.6-0.5    c0.1-0.1,0.2-0.1,0.3,0l0,0l1.7,1.8c0.2-0.3,0.3-0.5,0.4-0.8c0.3-1.3,0.5-2.7,0.4-4c0.1-1.3,0-2.7-0.4-4c-0.7-2-2.9-3-4.9-2.3    c-1.1,0.4-1.9,1.2-2.3,2.3c-0.3,1.3-0.5,2.7-0.4,4c-0.1,1.3,0,2.7,0.4,4c0.5,1.6,2,2.7,3.6,2.5C102.8,610.8,103.6,610.5,104.4,610    z" />
		<path
   id="path5225"
   class="st0"
   d="M110.5,604.3c-0.1-1.5,0-2.9,0.4-4.3c0.6-2.1,2.7-3.5,4.9-3.4c2-0.1,3.8,1,4.7,2.8    c0.1,0.1,0,0.2-0.1,0.3l0,0l-0.7,0.3c-0.1,0.1-0.2,0-0.3-0.1l0,0c-0.7-1.4-2.1-2.2-3.6-2.1c-1.7-0.1-3.2,0.9-3.7,2.5    c-0.5,2.6-0.5,5.4,0,8c0.8,2,3.1,3,5.1,2.2c1-0.4,1.8-1.2,2.2-2.2c0.3-0.9,0.4-1.9,0.3-2.9c0-0.1,0-0.1-0.1-0.1h-3.4    c-0.1,0-0.2-0.1-0.2-0.2l0,0v-0.7c0-0.1,0.1-0.2,0.2-0.2l0,0h4.6c0.1,0,0.2,0.1,0.2,0.2l0,0v0.9c0,1.1-0.1,2.2-0.4,3.3    c-1,2.7-4,4-6.7,3c-1.4-0.5-2.5-1.6-3-3C110.6,607.2,110.5,605.7,110.5,604.3L110.5,604.3z" />
		<path
   id="path5227"
   class="st0"
   d="M125.3,611.8c-0.1,0-0.2-0.1-0.2-0.2l0,0V597c0-0.1,0.1-0.2,0.2-0.2l0,0h5    c2.9,0,4.6,1.6,4.6,4.2s-1.7,4.2-4.6,4.2h-3.8c-0.1,0-0.1,0-0.1,0.1l0,0v6.1c0,0.1-0.1,0.2-0.2,0.2l0,0L125.3,611.8z M133.7,601    c0-1.9-1.2-3.1-3.4-3.1h-3.8c-0.1,0-0.1,0-0.1,0.1v5.8c0,0.1,0,0.1,0.1,0.1h3.8C132.5,604.1,133.7,603,133.7,601z" />
		<path
   id="path5229"
   class="st15"
   d="M115.5,540.9c-5.2,0-9.4-4.2-9.4-9.5c0-1,0.1-1.9,0.4-2.8c0.2-0.6,0.4-1.2,0.7-1.7    c0.4-0.8,1-1.5,1.6-2.2l-2.9-2.9c-2.6,2.5-4,6-4,9.5l0,0c0,7.5,6,13.5,13.5,13.5c5.2,0.2,9.3,4.5,9.1,9.8c-0.2,5-4.2,9-9.1,9.1    c-7.5,0-13.5,6-13.5,13.5l0,0c0,3.6,1.4,7,4,9.5l2.9-2.9c-0.6-0.6-1.2-1.4-1.6-2.2c-0.3-0.5-0.5-1.1-0.7-1.7    c-0.3-0.9-0.4-1.9-0.4-2.8c0-5.2,4.2-9.4,9.4-9.5c7.5-0.3,13.3-6.6,13-14C128.2,546.9,122.6,541.2,115.5,540.9L115.5,540.9z" />
		<g
   id="g5241">
			
				<linearGradient
   id="path5231_1_"
   gradientUnits="userSpaceOnUse"
   x1="1723.7601"
   y1="1444.55"
   x2="1723.7601"
   y2="1458.05"
   gradientTransform="matrix(6.123234e-17 1 -1 6.123234e-17 1573.59 -1169.3101)">
				<stop
   offset="0"
   style="stop-color:#FFFFFF"
   id="stop1135" />
				<stop
   offset="1"
   style="stop-color:#000000"
   id="stop1137" />
			</linearGradient>
			<path
   id="path5231"
   class="st16"
   d="M115.5,567.9v-4c5.2-0.2,9.3-4.5,9.1-9.8c-0.2-5-4.2-9-9.1-9.1v-4c7.5,0.3,13.3,6.6,13,14     C128.2,562,122.6,567.7,115.5,567.9L115.5,567.9z" />
			
				<linearGradient
   id="path5233_1_"
   gradientUnits="userSpaceOnUse"
   x1="1746.3271"
   y1="1471.9229"
   x2="1732.8322"
   y2="1458.4178"
   gradientTransform="matrix(6.123234e-17 1 -1 6.123234e-17 1573.59 -1169.3101)">
				<stop
   offset="0"
   style="stop-color:#FFFFFF"
   id="stop1141" />
				<stop
   offset="1"
   style="stop-color:#000000"
   id="stop1143" />
			</linearGradient>
			<path
   id="path5233"
   class="st17"
   d="M106.1,577.4h-4c0-7.5,6-13.5,13.5-13.5v4C110.4,567.9,106.1,572.1,106.1,577.4     C106.1,577.3,106.1,577.4,106.1,577.4z" />
			
				<linearGradient
   id="path5235_1_"
   gradientUnits="userSpaceOnUse"
   x1="1700.78"
   y1="1464.84"
   x2="1714.28"
   y2="1464.84"
   gradientTransform="matrix(6.123234e-17 1 -1 6.123234e-17 1573.59 -1169.3101)">
				<stop
   offset="0"
   style="stop-color:#FFFFFF"
   id="stop1147" />
				<stop
   offset="1"
   style="stop-color:#000000"
   id="stop1149" />
			</linearGradient>
			<path
   id="path5235"
   class="st18"
   d="M115.5,545c-7.5,0-13.5-6-13.5-13.5h4c0,5.2,4.2,9.4,9.4,9.5L115.5,545z" />
			
				<linearGradient
   id="path5237_1_"
   gradientUnits="userSpaceOnUse"
   x1="1746.6899"
   y1="1468.04"
   x2="1760.2"
   y2="1468.04"
   gradientTransform="matrix(6.123234e-17 1 -1 6.123234e-17 1573.59 -1169.3101)">
				<stop
   offset="0"
   style="stop-color:#FFFFFF"
   id="stop1153" />
				<stop
   offset="1"
   style="stop-color:#000000"
   id="stop1155" />
			</linearGradient>
			<path
   id="path5237"
   class="st19"
   d="M106.5,580.2c-0.3-0.9-0.4-1.9-0.4-2.8h-4c0,3.6,1.4,7,4,9.5l2.9-2.9     c-0.6-0.6-1.2-1.4-1.6-2.2C107,581.3,106.7,580.8,106.5,580.2z" />
			
				<linearGradient
   id="path5239_1_"
   gradientUnits="userSpaceOnUse"
   x1="1247.0701"
   y1="1468.04"
   x2="1260.5701"
   y2="1468.04"
   gradientTransform="matrix(0 -1 -1 0 1573.59 1778.54)">
				<stop
   offset="0"
   style="stop-color:#FFFFFF"
   id="stop1159" />
				<stop
   offset="1"
   style="stop-color:#000000"
   id="stop1161" />
			</linearGradient>
			<path
   id="path5239"
   class="st20"
   d="M106.5,528.7c-0.3,0.9-0.4,1.9-0.4,2.8h-4c0-3.6,1.4-7,4-9.5l2.9,2.9     c-0.6,0.6-1.2,1.4-1.6,2.2C107,527.5,106.7,528.1,106.5,528.7z" />
		</g>
		<path
   id="path5243"
   class="st21"
   d="M115.5,563.9c-5.2-0.2-9.3-4.5-9.1-9.8c0.2-5,4.2-9,9.1-9.1c7.5,0,13.5-6.1,13.5-13.5    c0-3.6-1.4-7-3.9-9.5l-2.9,2.9c3.7,3.7,3.7,9.7,0,13.4c-1.8,1.8-4.2,2.8-6.7,2.8c-7.5,0.3-13.3,6.6-13,14c0.3,7.1,5.9,12.7,13,13    c5.2,0,9.5,4.2,9.5,9.4c0,2.5-1,4.9-2.8,6.7l2.9,2.9c5.2-5.3,5.2-13.8-0.1-19.1C122.5,565.4,119.1,564,115.5,563.9L115.5,563.9z" />
		<rect
   id="rect8624"
   x="96.2"
   y="518.9"
   class="st7"
   width="40.9"
   height="97.1" />
	</g>
</a>
<a
   id="a8688"
   xlink:href="#qbb">
	<g
   id="g8686">
		<path
   id="path5079"
   class="st22"
   d="M108.4,350.4l0.6-0.4c0.4-0.3,0.8-0.7,1.1-1c0.1-0.1,0.2-0.2,0.3-0.3l-0.2-0.2    c-3.5-3-7.7-5.1-12.3-6c-1.6-0.3-3.2-0.4-4.8-0.4h-0.2c-1.3,0-2.7-0.2-3.9-0.6h0.2c6.2,2.1,12.1,6.3,14.8,12    c1.2-0.6,2.4-1.4,3.5-2.2C107.8,351,108.1,350.7,108.4,350.4L108.4,350.4z" />
		<path
   id="path5081"
   class="st23"
   d="M98.4,357.4c0.7,0.2,1.4,0.3,2.2,0.4l0,0l0.7,0.1h0.4h0.5h0.6h0.4c0.2,0,0.5,0,0.7,0h0.3h0.8    h0.3l0.8-0.1h0.3l0.8-0.1h0.3c0.3,0,0.5-0.1,0.8-0.1l0.4-0.1l0.7-0.1l0.4-0.1l0.7-0.2l0.5-0.1l0.6-0.2l0.5-0.2l0.5-0.2l0.6-0.2    l0.4-0.2l0.6-0.3l0.4-0.2c0.2-0.1,0.4-0.2,0.6-0.3l0.3-0.2l-0.1-0.3c-1.4-2.3-3.1-4.4-5.1-6.2l0,0c-0.1,0.1-0.2,0.2-0.3,0.3    c-0.3,0.4-0.7,0.7-1.1,1l-0.6,0.4c-0.3,0.3-0.7,0.6-1,0.8c-1.1,0.8-2.3,1.6-3.5,2.2l0,0c-2.8,1.5-5.8,2.4-8.9,2.8l0,0h-0.2    C96.1,356.4,97.3,356.8,98.4,357.4L98.4,357.4L98.4,357.4z" />
		<path
   id="path5083"
   class="st24"
   d="M115.7,355.1L115.7,355.1l-0.4,0.1c-0.2,0.1-0.4,0.2-0.6,0.3l-0.4,0.2l-0.6,0.3l-0.4,0.2    l-0.6,0.2l-0.5,0.2l-0.5,0.2l-0.6,0.2l-0.5,0.1l-0.7,0.2l-0.4,0.1l-0.7,0.1l-0.4,0.1c-0.2,0-0.5,0.1-0.8,0.1h-0.3l-0.8,0.1h-0.3    l-0.8,0.1h-0.3h-0.8H104c-0.2,0-0.5,0-0.7,0h-0.4h-0.6h-0.5h-0.4l-0.7-0.1l0,0c-0.7-0.1-1.4-0.2-2.2-0.4l0,0    c1.2,0.6,2.3,1.4,3.3,2.4c5.2,2.8,11.2,3.8,17,2.9C118.1,359.9,117.1,357.4,115.7,355.1L115.7,355.1z" />
		<path
   id="path5085"
   class="st25"
   d="M118.7,362.6c-5.8,1-11.8-0.1-17-2.9l-0.2-0.2l0,0c0.9,0.9,1.7,2,2.3,3.1    c0.2,0.2,0.4,0.4,0.6,0.6c0.3,0.4,0.7,0.7,1,1l0.5,0.4c0.4,0.4,0.8,0.7,1.3,1l0.4,0.3c0.5,0.3,1,0.7,1.5,1    c0.1,0.1,0.2,0.1,0.4,0.2c0.5,0.3,1,0.6,1.6,0.9l0.4,0.2c0.5,0.3,1.1,0.5,1.6,0.7c0.2,0.1,0.3,0.1,0.5,0.2c0.5,0.2,1,0.4,1.6,0.6    c0.3,0.1,0.5,0.1,0.8,0.2c0.4,0.1,0.8,0.3,1.3,0.4c0.7,0.2,1.3,0.3,2,0.4c0.1-0.8,0.1-1.5,0.1-2.3    C119.2,366.4,119,364.5,118.7,362.6L118.7,362.6z" />
		<path
   id="path5087"
   class="st26"
   d="M115.9,369.9c-0.3-0.1-0.5-0.1-0.8-0.2c-0.5-0.2-1-0.4-1.6-0.6c-0.2-0.1-0.3-0.1-0.5-0.2    c-0.5-0.2-1.1-0.5-1.6-0.7L111,368c-0.5-0.3-1.1-0.6-1.6-0.9c-0.1-0.1-0.2-0.1-0.4-0.2c-0.5-0.3-1-0.6-1.5-1l-0.4-0.3    c-0.4-0.3-0.9-0.7-1.3-1l-0.5-0.4c-0.3-0.3-0.7-0.7-1-1c-0.2-0.2-0.4-0.4-0.6-0.5l0,0c0.6,1.1,1,2.3,1.2,3.5    c2.4,5.5,6.8,9.8,12.2,12.4c1.1-2.5,1.7-5.2,1.9-7.9c-0.7-0.1-1.3-0.2-2-0.4C116.7,370.2,116.3,370.1,115.9,369.9L115.9,369.9z" />
		<path
   id="path5089"
   class="st27"
   d="M117.2,378.6c-5.4-2.5-9.8-6.9-12.2-12.4l0,0c0.3,1.4,0.3,2.9,0,4.4l0,0l0,0    c0.8,5.8,3.5,11.2,7.6,15.3l0,0C114.5,383.7,116.1,381.2,117.2,378.6L117.2,378.6z" />
		<path
   id="path5091"
   class="st28"
   d="M105,370.6L105,370.6L105,370.6c-0.2,1.3-0.7,2.5-1.3,3.6c0,0.1,0,0.2-0.1,0.4    s-0.1,0.5-0.1,0.7c0,0.1,0,0.2,0,0.3c0,0.3-0.1,0.5-0.1,0.8v0.3c0,0.3,0,0.5-0.1,0.8c0,0.1,0,0.2,0,0.3c0,0.3,0,0.5,0,0.8    s0,0.2,0,0.4c0,0.1,0,0.5,0,0.8s0,0.3,0,0.5s0,0.4,0,0.6s0,0.4,0,0.6s0,0.3,0,0.5s0,0.4,0.1,0.6l0.1,0.5c0,0.2,0.1,0.4,0.1,0.6    l0.1,0.5l0.1,0.6c0,0.2,0.1,0.3,0.1,0.5s0.1,0.4,0.2,0.6c0,0.2,0.1,0.3,0.1,0.5c0,0.1,0.1,0.3,0.1,0.4c0.2,0.6,0.3,1.1,0.5,1.6    l0,0c0.4,1,0.8,1.9,1.3,2.8l0,0c2.4-1.4,4.6-3.2,6.4-5.3l0,0C108.4,381.7,105.8,376.4,105,370.6z" />
		<path
   id="path5093"
   class="st29"
   d="M104.9,388.3c-0.2-0.5-0.4-1.1-0.5-1.6c0-0.1-0.1-0.3-0.1-0.4c0-0.2-0.1-0.3-0.1-0.5    c-0.1-0.2-0.1-0.4-0.2-0.6s-0.1-0.3-0.1-0.5l-0.1-0.6l-0.1-0.5c0-0.2-0.1-0.4-0.1-0.6l-0.1-0.5c0-0.2-0.1-0.4-0.1-0.6s0-0.3,0-0.5    s0-0.4,0-0.6s0-0.4,0-0.6s0-0.3,0-0.5s0-0.5,0-0.8s0-0.2,0-0.4s0-0.5,0-0.8c0-0.1,0-0.2,0-0.3c0-0.2,0-0.5,0.1-0.8v-0.3    c0-0.3,0.1-0.5,0.1-0.8c0-0.1,0-0.2,0-0.3c0-0.2,0.1-0.5,0.1-0.7l0.1-0.3l0,0c-0.6,1.1-1.3,2.1-2.2,3l0,0c-2.8,5.2-3.9,11.2-3,17    l0,0c2.7-0.6,5.3-1.6,7.7-3C105.7,390.3,105.3,389.3,104.9,388.3C104.9,388.4,104.9,388.3,104.9,388.3L104.9,388.3z" />
		<path
   id="path5095"
   class="st30"
   d="M101.5,377.2L101.5,377.2c-0.9,0.9-2,1.7-3.2,2.2c-4.2,4.1-7,9.4-7.8,15.2    c0.8,0.1,1.6,0.1,2.3,0.1c1.9,0,3.8-0.2,5.7-0.6l0,0C97.7,388.3,98.7,382.4,101.5,377.2L101.5,377.2z" />
		<path
   id="path5097"
   class="st31"
   d="M95,380.5L95,380.5h-0.2c-3.3,1.5-6.2,3.8-8.5,6.5c-0.1,0.1-0.2,0.2-0.2,0.3    c-0.1,0.1-0.1,0.1-0.2,0.2c-1.3,1.6-2.4,3.3-3.3,5.2c2.5,1.1,5.2,1.8,7.9,2c0.8-5.8,3.6-11.2,7.8-15.2l0.1-0.1    C97.3,379.9,96.2,380.3,95,380.5z" />
		<path
   id="path5099"
   class="st32"
   d="M86.4,387.1c2.3-2.8,5.3-5,8.5-6.5h0.2l0,0c-0.7,0.1-1.4,0.2-2.2,0.2c-0.7,0-1.5-0.1-2.2-0.2    c-5.8,0.8-11.1,3.5-15.3,7.7c2.1,1.9,4.6,3.4,7.2,4.5c0.9-1.9,2-3.6,3.3-5.2c0.1-0.1,0.1-0.1,0.2-0.2    C86.2,387.2,86.3,387.2,86.4,387.1L86.4,387.1z" />
		<path
   id="path5101"
   class="st33"
   d="M86.8,379.1L86.8,379.1l-0.4-0.1c-2.3-0.4-4.7-0.4-7.1-0.1l-0.6,0.1l-0.4,0.1    c-2.7,0.5-5.4,1.4-7.9,2.7h-0.1l0,0c0.2,0.4,0.4,0.7,0.6,1c1.3,2,2.9,3.8,4.6,5.3c4.1-4.2,9.5-6.8,15.3-7.6l0,0    C89.3,380.2,88,379.8,86.8,379.1z" />
		<path
   id="path5103"
   class="st34"
   d="M78.2,379.1l0.4-0.1l0.6-0.1c2.4-0.3,4.7-0.3,7.1,0.1l0.4,0.1l0,0c-1.1-0.6-2.1-1.5-3-2.4    c-4.7-2.6-10.2-3.4-15.4-2.4c0.2,2.6,0.9,5.2,1.9,7.6l0,0h0.1C72.8,380.5,75.4,379.6,78.2,379.1L78.2,379.1z" />
		<path
   id="path5105"
   class="st35"
   d="M83.7,376.7c-0.9-0.9-1.6-2-2.1-3.2l0,0l0,0c-3.6-3.9-8.4-6.4-13.7-7.1    c-0.1,0.6-0.2,1.3-0.3,1.9s-0.1,1.3-0.1,1.9l0,0c0,0.6,0,1.2,0,1.8v0.1c0,0.6,0.1,1.2,0.1,1.8v0.1c0.1,0.6,0.2,1.1,0.2,1.7v0.1    c0.1,0.5,0.2,1,0.3,1.5l0.1,0.3c0.1,0.4,0.3,0.9,0.4,1.3c0.1,0.1,0.1,0.3,0.2,0.4c0.2,0.4,0.3,0.8,0.5,1.2    c0.1,0.2,0.2,0.4,0.2,0.6s0.3,0.5,0.4,0.7l0,0c-1-2.4-1.7-5-1.9-7.6C73.5,373.2,79,374.1,83.7,376.7L83.7,376.7z" />
		<path
   id="path5107"
   class="st36"
   d="M68.8,379c-0.2-0.4-0.3-0.9-0.4-1.3l-0.1-0.3c-0.1-0.5-0.3-1-0.3-1.5v-0.1    c-0.1-0.6-0.2-1.1-0.2-1.7l0,0c-0.1-0.6-0.1-1.2-0.1-1.8c0,0,0,0,0-0.1c0-0.6,0-1.2,0-1.8l0,0c0-0.6,0.1-1.2,0.1-1.9    s0.2-1.3,0.3-1.9c5.2,0.7,10.1,3.2,13.7,7.1l0,0l0,0c-0.6-1.3-0.9-2.6-1.1-4c-2.1-4.7-5.7-8.5-10.3-10.7c-2.8,4.3-4,9.4-3.3,14.4    c0.5,2.8,1.5,5.4,2.8,7.9c-0.1-0.2-0.2-0.4-0.2-0.5c-0.2-0.4-0.4-0.8-0.5-1.2C68.9,379.3,68.9,379.1,68.8,379L68.8,379z" />
		<path
   id="path5109"
   class="st37"
   d="M70.3,358.8c4.6,2.2,8.3,6,10.3,10.7l0,0c0-0.3,0-0.7,0-1l0,0v-4.2c-1-4.8-3.4-9.2-7-12.6    c-3.7,3.5-6.2,8.2-7.1,13.2v3.6l0,0c0,1.6,0.2,3.1,0.4,4.7C66.3,368.2,67.5,363.1,70.3,358.8z" />
		<path
   id="path5111"
   class="st38"
   d="M67.8,347.1l0.2-0.3c0.1-0.2,0.2-0.5,0.4-0.7s0.1-0.2,0.2-0.4s0.2-0.4,0.3-0.6    s0.2-0.3,0.3-0.4s0.2-0.4,0.3-0.5l0.3-0.4l0.4-0.5c-0.9-1.5-1.6-3.1-2.1-4.8c-0.6,1.4-1,2.9-1.2,4.3c0,0.1,0,0.2-0.1,0.3    c-0.1,0.5-0.2,1.1-0.2,1.6v7c0.2-1.2,0.4-2.4,0.9-3.5c0-0.1,0-0.1,0.1-0.2C67.5,347.7,67.6,347.4,67.8,347.1z" />
		<path
   id="path5113"
   class="st39"
   d="M66.8,342.7c0.3-1.5,0.7-2.9,1.2-4.3c-0.9-2.7-1.4-5.6-1.5-8.5l0,0l0,0l0,0v14.9    c0-0.6,0.1-1.1,0.2-1.6C66.7,342.9,66.7,342.8,66.8,342.7L66.8,342.7z" />
		<path
   id="path5115"
   class="st40"
   d="M70.9,344.3c-0.3-0.4-0.5-0.8-0.8-1.2l-0.4,0.5l-0.3,0.4c-0.1,0.2-0.2,0.4-0.3,0.5    c-0.1,0.2-0.2,0.3-0.3,0.4s-0.2,0.4-0.3,0.6s-0.2,0.2-0.2,0.4s-0.2,0.5-0.4,0.7l-0.2,0.3c-0.1,0.3-0.2,0.6-0.4,0.9    c0,0.1-0.1,0.1-0.1,0.2c-0.4,1.1-0.7,2.3-0.9,3.5v8c0.6-4.8,2.8-9.2,6.3-12.5l0.4,0l-0.1-0.2C72.2,346,71.5,345.2,70.9,344.3z" />
		<path
   id="path5117"
   class="st41"
   d="M78.7,351.9l-0.4-0.3c-0.5-0.4-1-0.7-1.6-1.1l-0.3-0.3c-0.6-0.5-1.2-0.9-1.7-1.5l0,0    c-0.6-0.5-1.2-1.1-1.7-1.7l0,0l0,0l-0.1,0.1c-3.5,3.3-5.8,7.7-6.3,12.5v5.3c0.9-5.1,3.4-9.7,7.1-13.2c3.6,3.4,6,7.8,7,12.6V353    l0,0l-1-0.6C79.2,352.2,79,352,78.7,351.9z" />
		<path
   id="path5119"
   class="st42"
   d="M83.8,338c-0.9-1-1.7-2.2-2.2-3.5l0,0c0,0,0,0.1,0.1,0.1c1.7,6,0.9,12.4-2.1,17.8l0,0l1,0.6    l0,0c2,1,4.1,1.8,6.3,2.4H87h0.1l0,0C88.2,349.4,87,343.2,83.8,338z" />
		<path
   id="path5121"
   class="st43"
   d="M103.9,353.5c-2.6-5.8-8.6-10-14.8-12.1c-1-0.3-2-0.8-2.8-1.4c3.7,2.9,6.4,6.9,7.8,11.4    c0,0.1,0.1,0.2,0.1,0.2c0.1,0.3,0.2,0.6,0.2,0.9c0.1,0.3,0.1,0.4,0.1,0.6s0.1,0.4,0.1,0.6s0.1,0.6,0.2,0.9c0,0.1,0,0.2,0,0.3    c0.1,0.4,0.1,0.8,0.1,1.2l0,0C98.1,355.8,101.1,354.9,103.9,353.5L103.9,353.5z" />
		<path
   id="path5123"
   class="st44"
   d="M94.8,354.6c0-0.3-0.1-0.6-0.2-0.9s-0.1-0.4-0.1-0.6s-0.1-0.4-0.1-0.6    c-0.1-0.2-0.2-0.6-0.2-0.9c0-0.1,0-0.2-0.1-0.2c-1.4-4.5-4.1-8.5-7.8-11.5l0,0l-2.5-2c3.3,5.2,4.4,11.4,3.3,17.4    c1.9,0.4,3.9,0.6,5.8,0.6H93c0.6,0,1.3,0.1,1.9,0.2H95c0-0.4-0.1-0.8-0.1-1.2C94.8,354.9,94.8,354.7,94.8,354.6z" />
		<path
   id="path5125"
   class="st45"
   d="M81.6,334.6c0,0,0-0.1-0.1-0.1L81.6,334.6c-0.7-1.6-1.1-3.2-1.1-4.8l0,0    c0,6.5-2.7,12.8-7.5,17.2l0,0l0,0c0.5,0.6,1.1,1.2,1.7,1.7l0,0c0.5,0.5,1.1,1,1.7,1.5l0.3,0.3c0.5,0.4,1,0.8,1.6,1.1l0.4,0.3    c0.3,0.2,0.6,0.4,0.8,0.5l0,0C82.5,346.9,83.2,340.5,81.6,334.6z" />
		<path
   id="path5127"
   class="st46"
   d="M73,347c4.8-4.4,7.5-10.7,7.5-17.2h-14v0.1c0.1,2.9,0.6,5.7,1.5,8.5l0,0    c0.6,1.7,1.3,3.3,2.2,4.8l0,0c0.2,0.4,0.5,0.8,0.8,1.2C71.6,345.3,72.2,346.1,73,347L73,347z" />
		<path
   id="path5129"
   class="st0"
   d="M84.2,420.5c-0.1,0.1-0.2,0.1-0.3,0l-1.4-1.6c-0.9,0.7-2.1,1.1-3.3,1.1    c-2.2,0.2-4.2-1.2-4.8-3.4c-0.6-2.9-0.6-5.8,0-8.7c1-2.7,3.9-4,6.6-3c1.4,0.5,2.5,1.6,3,3c0.6,2.9,0.6,5.8,0,8.7    c-0.2,0.5-0.4,1-0.7,1.4l1.5,1.6c0.1,0.1,0.1,0.2,0,0.3l0,0L84.2,420.5z M81.6,418l-1.8-1.9c-0.1-0.1-0.1-0.2,0-0.3l0,0l0.6-0.5    c0.1-0.1,0.2-0.1,0.3,0l0,0l1.7,1.8c0.1-0.3,0.3-0.5,0.4-0.8c0.3-1.3,0.5-2.7,0.4-4c0.1-1.3,0-2.7-0.4-4c-0.7-2-2.9-3-4.9-2.3    c-1.1,0.4-1.9,1.2-2.3,2.3c-0.3,1.3-0.5,2.7-0.4,4c-0.1,1.3,0,2.7,0.4,4c0.5,1.6,2,2.7,3.6,2.5C80,418.8,80.9,418.5,81.6,418    L81.6,418z" />
		<path
   id="path5131"
   class="st0"
   d="M88.4,405c0-0.1,0.1-0.2,0.2-0.2l0,0h5c2.8,0,4.3,1.5,4.3,3.9c0.1,1.5-0.8,2.9-2.3,3.4l0,0    c1.6,0.4,2.7,1.9,2.6,3.6c0,2.6-1.7,4.1-4.6,4.1h-5c-0.1,0-0.2-0.1-0.2-0.2l0,0V405z M93.6,411.5c2,0,3.1-1.1,3.1-2.8    s-1.1-2.8-3.1-2.8h-3.8c-0.1,0-0.1,0-0.1,0.1l0,0v5.3c0,0.1,0,0.1,0.1,0.1l0,0L93.6,411.5z M89.8,418.5h3.9c2.1,0,3.3-1.1,3.3-2.9    s-1.1-2.9-3.3-2.9h-3.9c-0.1,0-0.1,0-0.1,0.1l0,0L89.8,418.5C89.7,418.5,89.7,418.5,89.8,418.5C89.8,418.6,89.8,418.6,89.8,418.5    L89.8,418.5z" />
		<path
   id="path5133"
   class="st0"
   d="M102.2,405c0-0.1,0.1-0.2,0.2-0.2l0,0h5c2.8,0,4.3,1.5,4.3,3.9c0.1,1.5-0.8,2.9-2.3,3.4l0,0    c1.6,0.4,2.7,1.9,2.6,3.6c0,2.6-1.7,4.1-4.6,4.1h-5c-0.1,0-0.2-0.1-0.2-0.2l0,0V405z M107.4,411.5c2,0,3.1-1.1,3.1-2.8    s-1.1-2.8-3.1-2.8h-3.8c-0.1,0-0.1,0-0.1,0.1v5.3c0,0.1,0,0.1,0.1,0.1L107.4,411.5L107.4,411.5z M103.6,418.5h3.9    c2.1,0,3.2-1.1,3.2-2.9s-1.1-2.9-3.2-2.9h-3.9c-0.1,0-0.1,0-0.1,0.1L103.6,418.5C103.5,418.5,103.5,418.6,103.6,418.5L103.6,418.5    z" />
		<rect
   id="rect8655"
   x="66.5"
   y="329.8"
   class="st7"
   width="53.5"
   height="92.9" />
	</g>
</a>
<a
   id="a8745"
   xlink:href="#qbri">
	<g
   id="g8743">
		<path
   id="path5245"
   class="st0"
   d="M154.5,237.5c-0.1,0.1-0.2,0.1-0.3,0l-1.4-1.6c-0.9,0.7-2.1,1.1-3.3,1.1    c-2.2,0.2-4.2-1.2-4.8-3.4c-0.6-2.9-0.6-5.8,0-8.7c1-2.7,3.9-4,6.6-3c1.4,0.5,2.5,1.6,3,3c0.6,2.9,0.6,5.8,0,8.7    c-0.2,0.5-0.4,1-0.7,1.4l1.5,1.6c0.1,0.1,0.1,0.2,0,0.3l0,0L154.5,237.5z M151.9,235l-1.8-1.9c-0.1-0.1-0.1-0.2,0-0.3l0,0l0.6-0.5    c0.1-0.1,0.2-0.1,0.3,0l0,0l1.7,1.8c0.2-0.3,0.3-0.5,0.4-0.8c0.3-1.3,0.5-2.7,0.4-4c0.1-1.3,0-2.7-0.4-4c-0.7-2-2.9-3-4.9-2.3    c-1.1,0.4-1.9,1.2-2.3,2.3c-0.3,1.3-0.5,2.7-0.4,4c-0.1,1.3,0,2.7,0.4,4c0.5,1.6,2,2.7,3.6,2.5C150.3,235.8,151.2,235.5,151.9,235    L151.9,235z" />
		<path
   id="path5247"
   class="st0"
   d="M158.7,222c0-0.1,0.1-0.2,0.2-0.2l0,0h5c2.8,0,4.4,1.5,4.4,3.9c0.1,1.5-0.9,2.9-2.3,3.4l0,0    c1.6,0.4,2.7,1.9,2.6,3.6c0,2.6-1.6,4.1-4.6,4.1h-5c-0.1,0-0.2-0.1-0.2-0.2l0,0L158.7,222z M164,228.5c2,0,3.1-1.1,3.1-2.8    S166,223,164,223h-3.8c-0.1,0-0.1,0-0.1,0.1v5.3c0,0.1,0,0.1,0.1,0.1L164,228.5z M160.1,235.5h3.9c2.1,0,3.3-1.1,3.3-2.9    c0-1.8-1.1-2.9-3.3-2.9h-3.9c-0.1,0-0.1,0.1-0.1,0.1v5.6C160,235.5,160,235.6,160.1,235.5L160.1,235.5z" />
		<path
   id="path5249"
   class="st0"
   d="M181.4,236.8c-0.1,0-0.2,0-0.3-0.2l-3.1-6.5h-4.1c-0.1,0-0.1,0-0.1,0.1l0,0v6.3    c0,0.1-0.1,0.2-0.2,0.2l0,0h-0.8c-0.1,0-0.2-0.1-0.2-0.2l0,0V222c0-0.1,0.1-0.2,0.2-0.2l0,0h5c2.8,0,4.6,1.6,4.6,4.1    c0.1,1.9-1.2,3.6-3.1,4l3.3,6.6c0.1,0.1,0,0.2-0.1,0.2L181.4,236.8z M181.1,225.9c0-1.9-1.2-3-3.3-3H174c-0.1,0-0.1,0-0.1,0.1l0,0    v5.6c0,0.1,0,0.1,0.1,0.1l0,0h3.8C179.9,228.9,181.1,227.8,181.1,225.9L181.1,225.9z" />
		<path
   id="path5251"
   class="st0"
   d="M186.6,222c0-0.1,0.1-0.2,0.2-0.2l0,0h0.8c0.1,0,0.2,0.1,0.2,0.2l0,0v14.5    c0,0.1-0.1,0.2-0.2,0.2l0,0h-0.8c-0.1,0-0.2-0.1-0.2-0.2l0,0V222z" />
		<polygon
   id="polygon5253"
   class="st4"
   points="149.6,156.3 165.4,172.1 165.4,140.5   " />
		<polygon
   id="polygon5255"
   class="st5"
   points="133.8,172.1 149.6,156.3 133.8,140.5   " />
		<polygon
   id="polygon5257"
   class="st4"
   points="198.8,140.5 167.2,140.5 183,156.3   " />
		<polygon
   id="polygon5259"
   class="st5"
   points="167.2,172.1 183,156.3 167.2,140.5   " />
		<polygon
   id="polygon5261"
   class="st5"
   points="183,189.7 198.8,205.5 198.8,173.9   " />
		<polygon
   id="polygon5263"
   class="st4"
   points="167.2,205.5 198.8,205.5 183,189.7   " />
		<polygon
   id="polygon5265"
   class="st5"
   points="167.2,205.5 183,189.7 167.2,173.9   " />
		<polygon
   id="polygon5267"
   class="st5"
   points="165.4,173.9 133.8,173.9 149.6,189.7   " />
		<polygon
   id="polygon5269"
   class="st4"
   points="133.8,205.5 149.6,189.7 133.8,173.9   " />
		<polygon
   id="polygon5271"
   class="st6"
   points="183,156.3 180.6,158.7 190.7,168.7 170.6,168.7 167.2,172.1 198.8,172.1   " />
		<polygon
   id="polygon5273"
   class="st6"
   points="149.6,156.3 147.2,158.7 157.3,168.7 137.2,168.7 133.8,172.1 165.4,172.1   " />
		<polygon
   id="polygon5275"
   class="st6"
   points="149.6,189.7 147.2,192.1 157.3,202.1 137.2,202.1 133.8,205.5 165.4,205.5   " />
		<polygon
   id="polygon5277"
   class="st6"
   points="195.4,202.1 170.6,202.1 167.2,205.5 198.8,205.5   " />
		
			<rect
   id="rect5279"
   x="181.3"
   y="208"
   transform="matrix(0.7071 -0.7071 0.7071 0.7071 -94.6729 190.8456)"
   class="st6"
   width="3.4"
   height="3.4" />
		
			<rect
   id="rect5281"
   x="158.5"
   y="188"
   transform="matrix(0.7071 -0.7071 0.7071 0.7071 -87.1849 168.8228)"
   class="st6"
   width="3.4"
   height="3.4" />
		
			<rect
   id="rect5283"
   x="181.3"
   y="174.6"
   transform="matrix(0.7071 -0.7071 0.7071 0.7071 -71.0681 181.0535)"
   class="st6"
   width="3.4"
   height="3.4" />
		<rect
   id="rect8720"
   x="133.8"
   y="140.5"
   class="st7"
   width="65.2"
   height="96.6" />
	</g>
</a>
<a
   id="a8794"
   xlink:href="#hbku">
	<g
   id="g8792">
		<path
   id="path5183"
   class="st0"
   d="M307,125c0-0.1,0.1-0.2,0.2-0.2l0,0h0.8c0.1,0,0.2,0.1,0.2,0.2l0,0v6.4c0,0.1,0,0.1,0.1,0.1    l0,0h7.4c0.1,0,0.1,0,0.1-0.1l0,0V125c0-0.1,0.1-0.2,0.2-0.2l0,0h0.9c0.1,0,0.2,0.1,0.2,0.2l0,0v14.5c0,0.1-0.1,0.2-0.2,0.2l0,0    h-0.8c-0.1,0-0.2-0.1-0.2-0.2l0,0v-6.6c0-0.1,0-0.1-0.1-0.1h-7.4c-0.1,0-0.1,0-0.1,0.1v6.6c0,0.1-0.1,0.2-0.2,0.2l0,0h-0.8    c-0.1,0-0.2-0.1-0.2-0.2l0,0L307,125z" />
		<path
   id="path5185"
   class="st0"
   d="M321.9,125c0-0.1,0.1-0.2,0.2-0.2l0,0h5c2.8,0,4.4,1.5,4.4,3.9c0.1,1.5-0.8,2.9-2.3,3.4l0,0    c1.6,0.4,2.7,1.9,2.5,3.6c0,2.6-1.6,4.1-4.6,4.1h-5c-0.1,0-0.2-0.1-0.2-0.2l0,0V125z M327.1,131.5c2,0,3.1-1.1,3.1-2.8    c0-1.6-1.1-2.8-3.1-2.8h-3.8c-0.1,0-0.1,0-0.1,0.1v5.3c0,0.1,0,0.1,0.1,0.1h3.8V131.5z M323.2,138.5h3.9c2.1,0,3.3-1.1,3.3-2.9    c0-1.8-1.1-2.9-3.3-2.9h-3.9c-0.1,0-0.1,0.1-0.1,0.1v5.6C323.1,138.5,323.2,138.6,323.2,138.5L323.2,138.5z" />
		<path
   id="path5187"
   class="st0"
   d="M335.6,125c0-0.1,0.1-0.2,0.2-0.2l0,0h0.8c0.1,0,0.2,0.1,0.2,0.2l0,0v8.6l7.1-8.6    c0.1-0.1,0.2-0.2,0.4-0.2h1c0.1,0,0.1,0,0.2,0.1c0,0.1,0,0.1-0.1,0.1l-4.7,5.7l5.1,8.8c0.1,0.1,0,0.2-0.1,0.2h-1    c-0.1,0-0.3-0.1-0.3-0.2l-4.4-7.9l-3.1,3.6v4.2c0,0.1-0.1,0.2-0.2,0.2l0,0h-0.8c-0.1,0-0.2-0.1-0.2-0.2l0,0L335.6,125z" />
		<path
   id="path5189"
   class="st0"
   d="M350.4,134.6c0,2.8,1.4,4.2,3.8,4.2s3.8-1.4,3.8-4.2V125c0-0.1,0.1-0.2,0.2-0.2l0,0h0.8    c0.1,0,0.2,0.1,0.2,0.2l0,0v9.6c0,3.7-2,5.4-5.1,5.4s-5.1-1.7-5.1-5.4V125c0-0.1,0.1-0.2,0.2-0.2l0,0h0.8c0.1,0,0.2,0.1,0.2,0.2    l0,0L350.4,134.6z" />
		<polygon
   id="polygon5191"
   class="st4"
   points="332.2,75.1 332.2,43.5 316.4,59.3   " />
		<polygon
   id="polygon5193"
   class="st47"
   points="300.6,75.1 316.4,59.3 300.6,43.5   " />
		<polygon
   id="polygon5195"
   class="st4"
   points="334,43.5 349.8,59.3 365.6,43.5   " />
		<polygon
   id="polygon5197"
   class="st47"
   points="334,75.1 349.8,59.3 334,43.5   " />
		<polygon
   id="polygon5199"
   class="st47"
   points="365.6,108.5 365.6,76.9 349.8,92.7   " />
		<polygon
   id="polygon5201"
   class="st4"
   points="334,108.5 365.6,108.5 349.8,92.7   " />
		<polygon
   id="polygon5203"
   class="st47"
   points="334,108.5 349.8,92.7 334,76.9   " />
		<polygon
   id="polygon5205"
   class="st47"
   points="300.6,76.9 316.4,92.7 332.2,76.9   " />
		<polygon
   id="polygon5207"
   class="st4"
   points="300.6,108.5 316.4,92.7 300.6,76.9   " />
		<polygon
   id="polygon5209"
   class="st6"
   points="349.8,59.3 347.4,61.7 357.4,71.7 337.4,71.7 334,75.1 365.6,75.1   " />
		<polygon
   id="polygon5211"
   class="st6"
   points="316.4,59.3 314,61.7 324,71.7 304,71.7 300.6,75.1 332.2,75.1   " />
		<polygon
   id="polygon5213"
   class="st6"
   points="316.4,92.7 314,95.1 324,105.1 304,105.1 300.6,108.5 332.2,108.5   " />
		<polygon
   id="polygon5215"
   class="st6"
   points="362.2,105.1 337.3,105.1 334,108.5 365.6,108.5   " />
		
			<rect
   id="rect5217"
   x="348.1"
   y="111"
   transform="matrix(0.7071 -0.7071 0.7071 0.7071 22.7879 280.3613)"
   class="st6"
   width="3.4"
   height="3.4" />
		
			<rect
   id="rect5219"
   x="325.2"
   y="91"
   transform="matrix(0.7071 -0.7071 0.7071 0.7071 30.2046 258.3038)"
   class="st6"
   width="3.4"
   height="3.4" />
		
			<rect
   id="rect5221"
   x="348.1"
   y="77.6"
   transform="matrix(0.7071 -0.7071 0.7071 0.7071 46.3937 270.5623)"
   class="st6"
   width="3.4"
   height="3.4" />
		<rect
   id="rect8769"
   x="300.6"
   y="43.5"
   class="st7"
   width="64.1"
   height="97.4" />
	</g>
</a>
<a
   id="a8843"
   xlink:href="#qcri">
	<g
   id="g8841">
		<path
   id="path5285"
   class="st0"
   d="M505.5,140.5c-0.1,0.1-0.2,0.1-0.3,0l-1.5-1.6c-0.9,0.7-2.1,1.1-3.3,1.1    c-2.2,0.2-4.2-1.2-4.9-3.4c-0.4-1.4-0.5-2.9-0.4-4.3c-0.1-1.5,0.1-2.9,0.4-4.3c1-2.7,3.9-4,6.6-3c1.4,0.5,2.5,1.6,3,3    c0.4,1.4,0.5,2.9,0.4,4.3c0.1,1.5,0,2.9-0.4,4.3c-0.2,0.5-0.4,1-0.7,1.4l1.5,1.6c0.1,0.1,0.1,0.2,0,0.3l0,0L505.5,140.5z     M502.9,138l-1.8-1.9c-0.1-0.1-0.1-0.2,0-0.3l0,0l0.5-0.5c0.1-0.1,0.2-0.1,0.3,0l0,0l1.7,1.8c0.1-0.3,0.3-0.5,0.4-0.8    c0.3-1.3,0.5-2.7,0.4-4c0.1-1.3,0-2.7-0.4-4c-0.7-2-2.9-3-4.9-2.3c-1.1,0.4-1.9,1.2-2.3,2.3c-0.3,1.3-0.5,2.7-0.4,4    c-0.1,1.3,0,2.7,0.4,4c0.5,1.6,2,2.7,3.6,2.5C501.3,138.8,502.2,138.5,502.9,138L502.9,138z" />
		<path
   id="path5287"
   class="st0"
   d="M509.1,132.3c-0.1-1.5,0-2.9,0.4-4.3c0.6-2.1,2.6-3.5,4.7-3.3c1.9-0.1,3.7,1,4.5,2.8    c0.1,0.1,0,0.2-0.1,0.3L518,128c-0.1,0.1-0.2,0-0.3-0.1l0,0c-0.6-1.3-2-2.2-3.4-2.1c-1.6-0.1-3.1,0.9-3.5,2.5    c-0.3,1.3-0.4,2.7-0.3,4c-0.1,1.3,0,2.7,0.3,4c0.4,1.6,1.9,2.6,3.5,2.5c1.5,0,2.8-0.8,3.4-2.1c0.1-0.1,0.2-0.1,0.3-0.1l0,0    l0.7,0.4c0.1,0.1,0.1,0.2,0.1,0.3c-0.8,1.8-2.6,2.9-4.5,2.8c-2.2,0.2-4.1-1.2-4.7-3.3C509.2,135.2,509,133.7,509.1,132.3    L509.1,132.3z" />
		<path
   id="path5289"
   class="st0"
   d="M531.4,139.8c-0.1,0-0.2-0.1-0.3-0.2l-3.2-6.5h-4.1c-0.1,0-0.1,0.1-0.1,0.1v6.3    c0,0.1-0.1,0.2-0.2,0.2l0,0h-0.8c-0.1,0-0.2-0.1-0.2-0.2l0,0V125c0-0.1,0.1-0.2,0.2-0.2l0,0h5c2.8,0,4.5,1.6,4.5,4.1    c0.1,1.9-1.1,3.6-3,4l3.2,6.6c0.1,0.1,0,0.2-0.1,0.2L531.4,139.8z M531.1,128.9c0-1.9-1.2-3-3.3-3H524c-0.1,0-0.1,0-0.1,0.1v5.6    c0,0.1,0,0.1,0.1,0.1h3.8C529.9,131.9,531.1,130.8,531.1,128.9z" />
		<path
   id="path5291"
   class="st0"
   d="M536.6,125c0-0.1,0.1-0.2,0.2-0.2l0,0h0.8c0.1,0,0.2,0.1,0.2,0.2l0,0v14.5    c0,0.1-0.1,0.2-0.2,0.2l0,0h-0.8c-0.1,0-0.2-0.1-0.2-0.2l0,0V125z" />
		<polygon
   id="polygon5293"
   class="st4"
   points="500.1,59.3 515.9,75.1 515.9,43.5   " />
		<polygon
   id="polygon5295"
   class="st5"
   points="484.3,75.1 500.1,59.3 484.3,43.5   " />
		<polygon
   id="polygon5297"
   class="st4"
   points="549.3,43.5 517.7,43.5 533.5,59.3   " />
		<polygon
   id="polygon5299"
   class="st5"
   points="517.7,75.1 533.5,59.3 517.7,43.5   " />
		<polygon
   id="polygon5301"
   class="st5"
   points="533.5,92.7 549.3,108.5 549.3,76.9   " />
		<polygon
   id="polygon5303"
   class="st4"
   points="517.7,108.5 549.3,108.5 533.5,92.7   " />
		<polygon
   id="polygon5305"
   class="st5"
   points="517.7,108.5 533.5,92.7 517.7,76.9   " />
		<polygon
   id="polygon5307"
   class="st5"
   points="515.9,76.9 484.3,76.9 500.1,92.7   " />
		<polygon
   id="polygon5309"
   class="st4"
   points="484.3,108.5 500.1,92.7 484.3,76.9   " />
		<polygon
   id="polygon5311"
   class="st6"
   points="533.5,59.3 531.1,61.7 541.2,71.7 521.1,71.7 517.7,75.1 549.3,75.1   " />
		<polygon
   id="polygon5313"
   class="st6"
   points="500.1,59.3 497.7,61.7 507.8,71.7 487.7,71.7 484.3,75.1 515.9,75.1   " />
		<polygon
   id="polygon5315"
   class="st6"
   points="500.1,92.7 497.7,95.1 507.8,105.1 487.7,105.1 484.3,108.5 515.9,108.5   " />
		<polygon
   id="polygon5317"
   class="st6"
   points="546,105.1 521.1,105.1 517.7,108.5 549.3,108.5   " />
		
			<rect
   id="rect5319"
   x="531.8"
   y="111"
   transform="matrix(0.7071 -0.7071 0.7071 0.7071 76.5721 410.275)"
   class="st6"
   width="3.4"
   height="3.4" />
		
			<rect
   id="rect5321"
   x="509"
   y="91"
   transform="matrix(0.7071 -0.7071 0.7071 0.7071 84.0601 388.2523)"
   class="st6"
   width="3.4"
   height="3.4" />
		
			<rect
   id="rect5323"
   x="531.8"
   y="77.6"
   transform="matrix(0.7071 -0.7071 0.7071 0.7071 100.1769 400.4829)"
   class="st6"
   width="3.4"
   height="3.4" />
		<rect
   id="rect8818"
   x="484.3"
   y="43.5"
   class="st7"
   width="66"
   height="97.4" />
	</g>
</a>
<a
   id="a1271"
   target="/education/higher-education"
   xlink:href="#other"
   xlink:title="Other Partner Universities"
   style="opacity:0"><rect
     style="opacity:0.742765;fill:#262a2d"
     id="rect1269"
     width="103.50027"
     height="83.147537"
     x="375.06"
     y="714.90002" /></a></svg>
