<?xml version="1.0" encoding="UTF-8" standalone="no"?>
<svg
   xmlns:dc="http://purl.org/dc/elements/1.1/"
   xmlns:cc="http://creativecommons.org/ns#"
   xmlns:rdf="http://www.w3.org/1999/02/22-rdf-syntax-ns#"
   xmlns:svg="http://www.w3.org/2000/svg"
   xmlns="http://www.w3.org/2000/svg"
   xmlns:xlink="http://www.w3.org/1999/xlink"
   xmlns:sodipodi="http://sodipodi.sourceforge.net/DTD/sodipodi-0.dtd"
   xmlns:inkscape="http://www.inkscape.org/namespaces/inkscape"
   version="1.1"
   id="Layer_1"
   inkscape:version="1.0.1 (c497b03c, 2020-09-10)"
   sodipodi:docname="researchers-flowchart.inline.svg"
   x="0px"
   y="0px"
   viewBox="0 0 761 921"
   style="enable-background:new 0 0 761 921;"
   xml:space="preserve"><metadata
   id="metadata3281"><rdf:RDF><cc:Work
       rdf:about=""><dc:format>image/svg+xml</dc:format><dc:type
         rdf:resource="http://purl.org/dc/dcmitype/StillImage" /></cc:Work></rdf:RDF></metadata><defs
   id="defs3279" />
<style
   type="text/css"
   id="style3033">
	.st0{enable-background:new    ;}
	.st1{fill:none;stroke:#124537;stroke-width:1.26;stroke-miterlimit:10;}
	.st2{fill:none;stroke:#124537;stroke-width:1.26;stroke-miterlimit:10;stroke-dasharray:10.05,5.02;}
	.st3{fill:none;stroke:#124537;stroke-width:2.53;stroke-miterlimit:10;}
	.st4{fill:#124537;}
	.st5{fill:none;stroke:#124537;stroke-width:1.2599;stroke-miterlimit:9.9995;}
	.st6{opacity:0.3119;fill:#0E0E0E;enable-background:new    ;}
	.st7{opacity:0.3119;fill:#0E0E0E;stroke:#124537;stroke-miterlimit:10;enable-background:new    ;}
</style>
<sodipodi:namedview
   bordercolor="#666666"
   borderopacity="1"
   gridtolerance="10"
   guidetolerance="10"
   id="namedview1080"
   inkscape:current-layer="Layer_1"
   inkscape:cx="58.267519"
   inkscape:cy="246.82029"
   inkscape:document-rotation="0"
   inkscape:pageopacity="0"
   inkscape:pageshadow="2"
   inkscape:window-height="775"
   inkscape:window-maximized="0"
   inkscape:window-width="1440"
   inkscape:window-x="0"
   inkscape:window-y="23"
   inkscape:zoom="0.63446243"
   objecttolerance="10"
   pagecolor="#ffffff"
   showgrid="false">
	</sodipodi:namedview>
<g
   id="g1134"
   class="st0">
	<path
   id="path1132"
   d="M174.8,140.4h-2.2c-0.1,0-0.2-0.1-0.3-0.2l-2.6-5.3h-2.4c-0.1,0-0.1,0-0.1,0.1v5.2c0,0.1-0.1,0.2-0.2,0.2h-2   c-0.1,0-0.2-0.1-0.2-0.2v-13.3c0-0.1,0.1-0.2,0.2-0.2h5.3c1.3,0,2.3,0.4,3.1,1.1c0.8,0.8,1.2,1.7,1.2,2.9c0,0.9-0.2,1.7-0.7,2.3   c-0.5,0.7-1.1,1.1-1.9,1.4l2.9,5.6c0,0.1,0,0.1,0,0.2C174.9,140.3,174.8,140.4,174.8,140.4z M170.2,132.7c0.6,0,1.1-0.2,1.5-0.5   c0.4-0.4,0.6-0.8,0.6-1.4c0-0.6-0.2-1.1-0.6-1.4c-0.4-0.4-0.9-0.5-1.5-0.5h-2.9c-0.1,0-0.1,0-0.1,0.1v3.6c0,0.1,0,0.1,0.1,0.1   L170.2,132.7L170.2,132.7z" />
</g>
<g
   id="g1144"
   class="st0">
	<path
   id="path1136"
   d="M180.8,140.6c-1,0-1.9-0.2-2.6-0.7s-1.2-1.1-1.5-2c-0.2-0.7-0.3-1.5-0.3-2.4s0.1-1.7,0.3-2.4   c0.3-0.8,0.8-1.5,1.5-2s1.5-0.7,2.5-0.7s1.8,0.2,2.5,0.7s1.2,1.1,1.4,2c0.2,0.7,0.3,1.6,0.3,2.9c0,0.1-0.1,0.2-0.2,0.2h-6   c-0.1,0-0.1,0-0.1,0.1c0,0.2,0,0.5,0.1,0.7c0.3,1,1.1,1.5,2.2,1.5c1,0,1.7-0.3,2.3-0.9c0.1-0.1,0.2-0.1,0.3,0l1.2,1   c0.1,0.1,0.1,0.2,0,0.3C183.8,140,182.5,140.6,180.8,140.6z M182.7,134.4c0-0.3,0-0.6-0.1-0.8c-0.1-0.4-0.4-0.7-0.7-0.9   s-0.7-0.3-1.2-0.3c-1,0-1.6,0.4-1.9,1.2c-0.1,0.2-0.1,0.5-0.1,0.8c0,0.1,0,0.1,0.1,0.1h3.8C182.7,134.6,182.7,134.5,182.7,134.4z" />
	<path
   id="path1138"
   d="M191,140.6c-1.7,0-3.1-0.5-4.2-1.5c-0.1-0.1-0.1-0.2,0-0.3l1.1-1.2c0.1-0.1,0.2-0.1,0.3,0   c0.4,0.3,0.8,0.6,1.3,0.8s1,0.3,1.5,0.3c0.6,0,1-0.1,1.3-0.3s0.5-0.5,0.5-0.8s-0.1-0.5-0.4-0.7s-0.7-0.3-1.3-0.3l-1-0.1   c-2-0.2-3-1.2-3-2.9c0-1,0.3-1.7,1-2.2s1.6-0.8,2.8-0.8c1.4,0,2.6,0.4,3.6,1.2c0.1,0.1,0.1,0.2,0,0.3l-1,1.2   c-0.1,0.1-0.2,0.1-0.3,0c-0.8-0.5-1.6-0.8-2.5-0.8c-0.5,0-0.8,0.1-1.1,0.3s-0.4,0.4-0.4,0.7s0.1,0.5,0.4,0.7   c0.2,0.2,0.6,0.3,1.2,0.3l1,0.1c1,0.1,1.7,0.4,2.2,0.9s0.8,1.1,0.8,1.9c0,1-0.4,1.8-1.1,2.4C193.3,140.3,192.3,140.6,191,140.6z" />
	<path
   id="path1140"
   d="M201.3,140.6c-1,0-1.9-0.2-2.6-0.7s-1.2-1.1-1.5-2c-0.2-0.7-0.3-1.5-0.3-2.4s0.1-1.7,0.3-2.4   c0.3-0.8,0.8-1.5,1.5-2s1.5-0.7,2.5-0.7s1.8,0.2,2.5,0.7s1.2,1.1,1.4,2c0.2,0.7,0.3,1.6,0.3,2.9c0,0.1-0.1,0.2-0.2,0.2h-6   c-0.1,0-0.1,0-0.1,0.1c0,0.2,0,0.5,0.1,0.7c0.3,1,1.1,1.5,2.2,1.5c1,0,1.7-0.3,2.3-0.9c0.1-0.1,0.2-0.1,0.3,0l1.2,1   c0.1,0.1,0.1,0.2,0,0.3C204.3,140,203,140.6,201.3,140.6z M203.2,134.4c0-0.3,0-0.6-0.1-0.8c-0.1-0.4-0.4-0.7-0.7-0.9   s-0.7-0.3-1.2-0.3c-1,0-1.6,0.4-1.9,1.2c-0.1,0.2-0.1,0.5-0.1,0.8c0,0.1,0,0.1,0.1,0.1h3.8C203.2,134.6,203.2,134.5,203.2,134.4z" />
	<path
   id="path1142"
   d="M215.3,140.4h-1.7c-0.1,0-0.2-0.1-0.2-0.2v-0.7l0,0c-0.5,0.8-1.4,1.1-2.7,1.1c-0.9,0-1.7-0.3-2.3-0.8   s-0.9-1.2-0.9-2.2s0.3-1.8,1-2.3s1.6-0.8,2.9-0.8h2c0.1,0,0.1,0,0.1-0.1V134c0-0.6-0.2-1-0.5-1.2c-0.3-0.3-0.9-0.4-1.7-0.4   c-0.9,0-1.6,0.2-2.2,0.7c-0.1,0.1-0.2,0.1-0.3,0l-0.7-1.3c-0.1-0.1-0.1-0.2,0-0.3c0.9-0.6,2-0.9,3.4-0.9c1.5,0,2.5,0.3,3.1,0.8   s0.9,1.4,0.9,2.6v6.3C215.5,140.3,215.5,140.4,215.3,140.4z M211.3,138.8c1.4,0,2.2-0.5,2.2-1.6v-0.7c0-0.1,0-0.1-0.1-0.1h-1.6   c-1.4,0-2.1,0.4-2.1,1.3C209.6,138.4,210.1,138.8,211.3,138.8z" />
</g>
<g
   id="g1148"
   class="st0">
	<path
   id="path1146"
   d="M220.4,140.4h-1.8c-0.1,0-0.2-0.1-0.2-0.2v-9.3c0-0.1,0.1-0.2,0.2-0.2h1.8c0.1,0,0.2,0.1,0.2,0.2v0.8l0,0   c0.5-0.8,1.4-1.2,2.5-1.2c0.8,0,1.5,0.3,2,0.8c0.1,0.1,0.1,0.2,0,0.3l-1.1,1.3c-0.1,0.1-0.2,0.1-0.3,0c-0.5-0.3-1-0.5-1.4-0.5   c-1.2,0-1.8,0.8-1.8,2.5v5.2C220.6,140.3,220.6,140.4,220.4,140.4z" />
</g>
<g
   id="g1154"
   class="st0">
	<path
   id="path1150"
   d="M230.5,140.6c-1,0-1.8-0.2-2.5-0.7s-1.2-1.1-1.5-2c-0.2-0.6-0.3-1.4-0.3-2.4s0.1-1.8,0.3-2.4   c0.3-0.9,0.8-1.5,1.5-2s1.5-0.7,2.5-0.7c1.4,0,2.5,0.5,3.4,1.5c0.1,0.1,0.1,0.2,0,0.3l-1.3,1.1c-0.1,0.1-0.2,0.1-0.3,0   c-0.5-0.6-1.1-0.8-1.8-0.8c-0.9,0-1.5,0.4-1.8,1.3c-0.1,0.4-0.2,1-0.2,1.8s0.1,1.4,0.2,1.8c0.3,0.8,0.9,1.2,1.8,1.2   c0.7,0,1.3-0.3,1.8-0.8c0.1-0.1,0.2-0.1,0.3,0l1.3,1.1c0.1,0.1,0.1,0.2,0,0.3C233,140.1,231.9,140.6,230.5,140.6z" />
	<path
   id="path1152"
   d="M244.2,140.4h-1.8c-0.1,0-0.2-0.1-0.2-0.2v-5.6c0-0.6-0.2-1.2-0.5-1.5s-0.8-0.6-1.4-0.6   c-0.6,0-1,0.2-1.4,0.6c-0.3,0.4-0.5,0.9-0.5,1.5v5.6c0,0.1-0.1,0.2-0.2,0.2h-1.8c-0.1,0-0.2-0.1-0.2-0.2v-13.3   c0-0.1,0.1-0.2,0.2-0.2h1.8c0.1,0,0.2,0.1,0.2,0.2v4.7l0,0c0.5-0.8,1.4-1.1,2.6-1.1c1,0,1.8,0.3,2.4,1s0.9,1.5,0.9,2.6v6.1   C244.4,140.3,244.4,140.4,244.2,140.4z" />
</g>
<circle
   id="circle847"
   class="st1"
   cx="204.3"
   cy="71.6"
   r="46.2" />
<g
   id="g1159"
   class="st0">
	<path
   id="path1157"
   d="M581,140.4h-2.2c-0.1,0-0.2-0.1-0.3-0.2l-2.6-5.3h-2.4c-0.1,0-0.1,0-0.1,0.1v5.2c0,0.1-0.1,0.2-0.2,0.2h-2   c-0.1,0-0.2-0.1-0.2-0.2v-13.3c0-0.1,0.1-0.2,0.2-0.2h5.3c1.3,0,2.3,0.4,3.1,1.1c0.8,0.8,1.2,1.7,1.2,2.9c0,0.9-0.2,1.7-0.7,2.3   c-0.5,0.7-1.1,1.1-1.9,1.4l2.9,5.6c0,0.1,0,0.1,0,0.2C581.1,140.3,581.1,140.4,581,140.4z M576.4,132.7c0.6,0,1.1-0.2,1.5-0.5   c0.4-0.4,0.6-0.8,0.6-1.4c0-0.6-0.2-1.1-0.6-1.4c-0.4-0.4-0.9-0.5-1.5-0.5h-2.9c-0.1,0-0.1,0-0.1,0.1v3.6c0,0.1,0,0.1,0.1,0.1   L576.4,132.7L576.4,132.7z" />
</g>
<g
   id="g1173"
   class="st0">
	<path
   id="path1161"
   d="M587,140.6c-1,0-1.9-0.2-2.6-0.7c-0.7-0.5-1.2-1.1-1.5-2c-0.2-0.7-0.3-1.5-0.3-2.4s0.1-1.7,0.3-2.4   c0.3-0.8,0.8-1.5,1.5-2s1.5-0.7,2.5-0.7s1.8,0.2,2.5,0.7s1.2,1.1,1.4,2c0.2,0.7,0.3,1.6,0.3,2.9c0,0.1-0.1,0.2-0.2,0.2h-6   c-0.1,0-0.1,0-0.1,0.1c0,0.2,0,0.5,0.1,0.7c0.3,1,1.1,1.5,2.2,1.5c1,0,1.7-0.3,2.3-0.9c0.1-0.1,0.2-0.1,0.3,0l1.2,1   c0.1,0.1,0.1,0.2,0,0.3C590,140,588.7,140.6,587,140.6z M588.9,134.4c0-0.3,0-0.6-0.1-0.8c-0.1-0.4-0.4-0.7-0.7-0.9   s-0.7-0.3-1.2-0.3c-1,0-1.6,0.4-1.9,1.2c-0.1,0.2-0.1,0.5-0.1,0.8c0,0.1,0,0.1,0.1,0.1h3.8C588.9,134.6,588.9,134.5,588.9,134.4z" />
	<path
   id="path1163"
   d="M595.7,144h-1.8c-0.1,0-0.2-0.1-0.2-0.2v-12.9c0-0.1,0.1-0.2,0.2-0.2h1.8c0.1,0,0.2,0.1,0.2,0.2v0.7l0,0   c0.5-0.8,1.4-1.1,2.6-1.1c1.7,0,2.8,0.8,3.4,2.3c0.2,0.7,0.3,1.6,0.3,2.7c0,1.1-0.1,2-0.3,2.7c-0.5,1.6-1.6,2.3-3.4,2.3   c-1.2,0-2-0.4-2.6-1.1l0,0v4.3C595.9,143.9,595.8,144,595.7,144z M597.9,138.6c0.9,0,1.5-0.4,1.8-1.2c0.1-0.4,0.2-1,0.2-1.8   s-0.1-1.4-0.2-1.8c-0.3-0.8-0.9-1.2-1.8-1.2c-0.9,0-1.5,0.4-1.8,1.2c-0.1,0.4-0.2,1-0.2,1.8s0.1,1.4,0.2,1.8   C596.3,138.2,596.9,138.6,597.9,138.6z" />
	<path
   id="path1165"
   d="M608.4,140.6c-1,0-1.8-0.2-2.5-0.7s-1.2-1.1-1.5-2c-0.2-0.7-0.3-1.5-0.3-2.4s0.1-1.7,0.3-2.4   c0.3-0.8,0.8-1.5,1.5-2s1.6-0.7,2.5-0.7c1,0,1.8,0.2,2.5,0.7s1.2,1.1,1.5,2c0.2,0.7,0.3,1.5,0.3,2.4s-0.1,1.7-0.3,2.4   c-0.3,0.8-0.8,1.5-1.5,2C610.2,140.4,609.4,140.6,608.4,140.6z M608.4,138.6c0.9,0,1.5-0.4,1.8-1.3c0.1-0.4,0.2-1,0.2-1.8   s-0.1-1.4-0.2-1.8c-0.3-0.8-0.9-1.3-1.8-1.3c-0.9,0-1.5,0.4-1.8,1.3c-0.1,0.4-0.2,1-0.2,1.8s0.1,1.4,0.2,1.8   C606.8,138.2,607.4,138.6,608.4,138.6z" />
	<path
   id="path1167"
   d="M617.1,140.4h-1.8c-0.1,0-0.2-0.1-0.2-0.2v-9.3c0-0.1,0.1-0.2,0.2-0.2h1.8c0.1,0,0.2,0.1,0.2,0.2v0.8l0,0   c0.5-0.8,1.4-1.2,2.5-1.2c0.8,0,1.5,0.3,2,0.8c0.1,0.1,0.1,0.2,0,0.3l-1.1,1.3c-0.1,0.1-0.2,0.1-0.3,0c-0.5-0.3-1-0.5-1.4-0.5   c-1.2,0-1.8,0.8-1.8,2.5v5.2C617.3,140.3,617.3,140.4,617.1,140.4z" />
	<path
   id="path1169"
   d="M627.4,140.5h-1c-1,0-1.6-0.2-2.1-0.7c-0.4-0.5-0.6-1.2-0.6-2.1v-5.1c0-0.1,0-0.1-0.1-0.1H623   c-0.1,0-0.2-0.1-0.2-0.2V131c0-0.1,0.1-0.2,0.2-0.2h0.6c0.1,0,0.1,0,0.1-0.1V128c0-0.1,0.1-0.2,0.2-0.2h1.8c0.1,0,0.2,0.1,0.2,0.2   v2.7c0,0.1,0,0.1,0.1,0.1h1.3c0.1,0,0.2,0.1,0.2,0.2v1.3c0,0.1-0.1,0.2-0.2,0.2H626c-0.1,0-0.1,0-0.1,0.1v5c0,0.3,0.1,0.6,0.2,0.7   c0.1,0.1,0.4,0.2,0.7,0.2h0.5c0.1,0,0.2,0.1,0.2,0.2v1.6C627.6,140.4,627.5,140.5,627.4,140.5z" />
	<path
   id="path1171"
   d="M634.8,140.2v-13.3c0-0.1,0.1-0.2,0.2-0.2h2c0.1,0,0.2,0.1,0.2,0.2v13.3c0,0.1-0.1,0.2-0.2,0.2h-2   C634.9,140.4,634.8,140.3,634.8,140.2z" />
</g>
<g
   id="g1179"
   class="st0">
	<path
   id="path1175"
   d="M648.1,140.4h-1.8c-0.1,0-0.2-0.1-0.2-0.2v-5.6c0-0.6-0.2-1.2-0.5-1.5c-0.3-0.4-0.8-0.6-1.4-0.6   c-0.6,0-1,0.2-1.4,0.6c-0.3,0.4-0.5,0.9-0.5,1.5v5.6c0,0.1-0.1,0.2-0.2,0.2h-1.8c-0.1,0-0.2-0.1-0.2-0.2v-9.3   c0-0.1,0.1-0.2,0.2-0.2h1.8c0.1,0,0.2,0.1,0.2,0.2v0.7l0,0c0.5-0.8,1.4-1.1,2.6-1.1c1,0,1.8,0.3,2.4,1c0.6,0.7,0.9,1.5,0.9,2.6v6.1   C648.3,140.3,648.3,140.4,648.1,140.4z" />
	<path
   id="path1177"
   d="M655.1,140.4h-1.6c-0.1,0-0.2-0.1-0.3-0.2l-3.4-9.3c0-0.1,0-0.2,0.2-0.2h2c0.1,0,0.2,0.1,0.2,0.2l2.1,6.3   l0,0l2.1-6.3c0-0.1,0.1-0.2,0.2-0.2h1.9c0.1,0,0.2,0.1,0.2,0.2l-3.4,9.3C655.3,140.3,655.2,140.4,655.1,140.4z" />
</g>
<g
   id="g1193"
   class="st0">
	<path
   id="path1181"
   d="M664.6,140.6c-1,0-1.9-0.2-2.6-0.7c-0.7-0.5-1.2-1.1-1.5-2c-0.2-0.7-0.3-1.5-0.3-2.4s0.1-1.7,0.3-2.4   c0.3-0.8,0.8-1.5,1.5-2s1.5-0.7,2.5-0.7s1.8,0.2,2.5,0.7s1.2,1.1,1.4,2c0.2,0.7,0.3,1.6,0.3,2.9c0,0.1-0.1,0.2-0.2,0.2h-6   c-0.1,0-0.1,0-0.1,0.1c0,0.2,0,0.5,0.1,0.7c0.3,1,1.1,1.5,2.2,1.5c1,0,1.7-0.3,2.3-0.9c0.1-0.1,0.2-0.1,0.3,0l1.2,1   c0.1,0.1,0.1,0.2,0,0.3C667.6,140,666.3,140.6,664.6,140.6z M666.5,134.4c0-0.3,0-0.6-0.1-0.8c-0.1-0.4-0.4-0.7-0.7-0.9   s-0.7-0.3-1.2-0.3c-1,0-1.6,0.4-1.9,1.2c-0.1,0.2-0.1,0.5-0.1,0.8c0,0.1,0,0.1,0.1,0.1h3.8C666.5,134.6,666.5,134.5,666.5,134.4z" />
	<path
   id="path1183"
   d="M679.2,140.4h-1.8c-0.1,0-0.2-0.1-0.2-0.2v-5.6c0-0.6-0.2-1.2-0.5-1.5c-0.3-0.4-0.8-0.6-1.4-0.6   c-0.6,0-1,0.2-1.4,0.6s-0.5,0.9-0.5,1.5v5.6c0,0.1-0.1,0.2-0.2,0.2h-1.8c-0.1,0-0.2-0.1-0.2-0.2v-9.3c0-0.1,0.1-0.2,0.2-0.2h1.8   c0.1,0,0.2,0.1,0.2,0.2v0.7l0,0c0.5-0.8,1.4-1.1,2.6-1.1c1,0,1.8,0.3,2.4,1c0.6,0.7,0.9,1.5,0.9,2.6v6.1   C679.4,140.3,679.3,140.4,679.2,140.4z" />
	<path
   id="path1185"
   d="M686,140.5h-1c-1,0-1.6-0.2-2.1-0.7c-0.4-0.5-0.6-1.2-0.6-2.1v-5.1c0-0.1,0-0.1-0.1-0.1h-0.6   c-0.1,0-0.2-0.1-0.2-0.2V131c0-0.1,0.1-0.2,0.2-0.2h0.6c0.1,0,0.1,0,0.1-0.1V128c0-0.1,0.1-0.2,0.2-0.2h1.8c0.1,0,0.2,0.1,0.2,0.2   v2.7c0,0.1,0,0.1,0.1,0.1h1.3c0.1,0,0.2,0.1,0.2,0.2v1.3c0,0.1-0.1,0.2-0.2,0.2h-1.3c-0.1,0-0.1,0-0.1,0.1v5c0,0.3,0.1,0.6,0.2,0.7   c0.1,0.1,0.4,0.2,0.7,0.2h0.5c0.1,0,0.2,0.1,0.2,0.2v1.6C686.2,140.4,686.1,140.5,686,140.5z" />
	<path
   id="path1187"
   d="M690.7,128.9h-1.8c-0.1,0-0.2-0.1-0.2-0.2V127c0-0.1,0.1-0.2,0.2-0.2h1.8c0.1,0,0.2,0.1,0.2,0.2v1.7   C690.9,128.8,690.8,128.9,690.7,128.9z M690.7,140.4h-1.8c-0.1,0-0.2-0.1-0.2-0.2v-9.3c0-0.1,0.1-0.2,0.2-0.2h1.8   c0.1,0,0.2,0.1,0.2,0.2v9.3C690.9,140.3,690.8,140.4,690.7,140.4z" />
	<path
   id="path1189"
   d="M697.6,140.6c-1,0-1.8-0.2-2.5-0.7s-1.2-1.1-1.5-2c-0.2-0.7-0.3-1.5-0.3-2.4s0.1-1.7,0.3-2.4   c0.3-0.8,0.8-1.5,1.5-2s1.6-0.7,2.5-0.7c1,0,1.8,0.2,2.5,0.7s1.2,1.1,1.5,2c0.2,0.7,0.3,1.5,0.3,2.4s-0.1,1.7-0.3,2.4   c-0.3,0.8-0.8,1.5-1.5,2S698.6,140.6,697.6,140.6z M697.6,138.6c0.9,0,1.5-0.4,1.8-1.3c0.1-0.4,0.2-1,0.2-1.8s-0.1-1.4-0.2-1.8   c-0.3-0.8-0.9-1.3-1.8-1.3c-0.9,0-1.5,0.4-1.8,1.3c-0.1,0.4-0.2,1-0.2,1.8s0.1,1.4,0.2,1.8C696.1,138.2,696.7,138.6,697.6,138.6z" />
	<path
   id="path1191"
   d="M712.3,140.4h-1.8c-0.1,0-0.2-0.1-0.2-0.2v-5.6c0-0.6-0.2-1.2-0.5-1.5c-0.3-0.4-0.8-0.6-1.4-0.6   c-0.6,0-1,0.2-1.4,0.6c-0.3,0.4-0.5,0.9-0.5,1.5v5.6c0,0.1-0.1,0.2-0.2,0.2h-1.8c-0.1,0-0.2-0.1-0.2-0.2v-9.3   c0-0.1,0.1-0.2,0.2-0.2h1.8c0.1,0,0.2,0.1,0.2,0.2v0.7l0,0c0.5-0.8,1.4-1.1,2.6-1.1c1,0,1.8,0.3,2.4,1c0.6,0.7,0.9,1.5,0.9,2.6v6.1   C712.5,140.3,712.5,140.4,712.3,140.4z" />
</g>
<circle
   id="circle859"
   class="st1"
   cx="641.5"
   cy="71.6"
   r="46.2" />
<line
   id="line861"
   class="st2"
   x1="256.1"
   y1="72.6"
   x2="421.3"
   y2="72.6" />
<line
   id="line863"
   class="st2"
   x1="429.5"
   y1="72.6"
   x2="594.7"
   y2="72.6" />
<polyline
   id="polyline865"
   class="st3"
   points="411.8,60.4 423.8,72.4 412.4,83.8 " />
<g
   id="g1203"
   class="st0">
	<path
   id="path1199"
   d="M113.1,365.8c-1,0-1.9-0.2-2.8-0.5s-1.6-0.8-2.2-1.3c-0.1-0.1-0.1-0.2,0-0.3l1.2-1.4c0.1-0.1,0.2-0.1,0.3,0   c1.2,1,2.5,1.4,3.7,1.4c0.8,0,1.4-0.2,1.9-0.5c0.5-0.4,0.7-0.8,0.7-1.4c0-0.5-0.2-0.9-0.6-1.2c-0.4-0.3-1-0.5-1.9-0.6l-0.7-0.1   c-2.7-0.4-4.1-1.7-4.1-3.9c0-1.2,0.4-2.2,1.3-3c0.8-0.8,2-1.1,3.4-1.1c1.7,0,3.2,0.5,4.4,1.4c0.1,0.1,0.1,0.2,0,0.3l-1,1.5   c-0.1,0.1-0.2,0.1-0.3,0.1c-1.1-0.7-2.2-1.1-3.3-1.1c-0.7,0-1.2,0.2-1.6,0.5s-0.6,0.8-0.6,1.3c0,1,0.8,1.6,2.5,1.8l0.7,0.1   c2.7,0.4,4.1,1.7,4.1,4c0,1.3-0.4,2.3-1.3,3.1C116,365.4,114.8,365.8,113.1,365.8z" />
	<path
   id="path1201"
   d="M124.4,365.7h-1c-1,0-1.6-0.2-2.1-0.7c-0.4-0.5-0.6-1.2-0.6-2.1v-5.1c0-0.1,0-0.1-0.1-0.1H120   c-0.1,0-0.2-0.1-0.2-0.2v-1.3c0-0.1,0.1-0.2,0.2-0.2h0.6c0.1,0,0.1,0,0.1-0.1v-2.7c0-0.1,0.1-0.2,0.2-0.2h1.8   c0.1,0,0.2,0.1,0.2,0.2v2.7c0,0.1,0,0.1,0.1,0.1h1.3c0.1,0,0.2,0.1,0.2,0.2v1.3c0,0.1-0.1,0.2-0.2,0.2H123c-0.1,0-0.1,0-0.1,0.1v5   c0,0.3,0.1,0.6,0.2,0.7s0.4,0.2,0.7,0.2h0.5c0.1,0,0.2,0.1,0.2,0.2v1.6C124.6,365.6,124.5,365.7,124.4,365.7z" />
</g>
<g
   id="g1207"
   class="st0">
	<path
   id="path1205"
   d="M129.1,365.6h-1.8c-0.1,0-0.2-0.1-0.2-0.2v-9.3c0-0.1,0.1-0.2,0.2-0.2h1.8c0.1,0,0.2,0.1,0.2,0.2v0.8l0,0   c0.5-0.8,1.4-1.2,2.5-1.2c0.8,0,1.5,0.3,2,0.8c0.1,0.1,0.1,0.2,0,0.3l-1.1,1.3c-0.1,0.1-0.2,0.1-0.3,0c-0.5-0.3-1-0.5-1.4-0.5   c-1.2,0-1.8,0.8-1.8,2.5v5.2C129.3,365.5,129.2,365.6,129.1,365.6z" />
</g>
<g
   id="g1223"
   class="st0">
	<path
   id="path1209"
   d="M142.6,365.6h-1.7c-0.1,0-0.2-0.1-0.2-0.2v-0.7l0,0c-0.5,0.8-1.4,1.1-2.7,1.1c-0.9,0-1.7-0.3-2.3-0.8   s-0.9-1.2-0.9-2.2s0.3-1.8,1-2.3s1.6-0.8,2.9-0.8h2c0.1,0,0.1,0,0.1-0.1v-0.5c0-0.6-0.2-1-0.5-1.2c-0.3-0.3-0.9-0.4-1.7-0.4   c-0.9,0-1.6,0.2-2.2,0.7c-0.1,0.1-0.2,0.1-0.3,0l-0.7-1.3c-0.1-0.1-0.1-0.2,0-0.3c0.9-0.6,2-0.9,3.4-0.9c1.5,0,2.5,0.3,3.1,0.8   s0.9,1.4,0.9,2.6v6.3C142.8,365.5,142.8,365.6,142.6,365.6z M138.5,364c1.4,0,2.2-0.5,2.2-1.6v-0.7c0-0.1,0-0.1-0.1-0.1H139   c-1.4,0-2.1,0.4-2.1,1.3C136.9,363.6,137.4,364,138.5,364z" />
	<path
   id="path1211"
   d="M149.5,365.7h-1c-1,0-1.6-0.2-2.1-0.7c-0.4-0.5-0.6-1.2-0.6-2.1v-5.1c0-0.1,0-0.1-0.1-0.1h-0.6   c-0.1,0-0.2-0.1-0.2-0.2v-1.3c0-0.1,0.1-0.2,0.2-0.2h0.6c0.1,0,0.1,0,0.1-0.1v-2.7c0-0.1,0.1-0.2,0.2-0.2h1.8   c0.1,0,0.2,0.1,0.2,0.2v2.7c0,0.1,0,0.1,0.1,0.1h1.3c0.1,0,0.2,0.1,0.2,0.2v1.3c0,0.1-0.1,0.2-0.2,0.2h-1.3c-0.1,0-0.1,0-0.1,0.1v5   c0,0.3,0.1,0.6,0.2,0.7c0.1,0.1,0.4,0.2,0.7,0.2h0.5c0.1,0,0.2,0.1,0.2,0.2v1.6C149.7,365.6,149.6,365.7,149.5,365.7z" />
	<path
   id="path1213"
   d="M156,365.8c-1,0-1.9-0.2-2.6-0.7s-1.2-1.1-1.5-2c-0.2-0.7-0.3-1.5-0.3-2.4s0.1-1.7,0.3-2.4   c0.3-0.8,0.8-1.5,1.5-2s1.5-0.7,2.5-0.7s1.8,0.2,2.5,0.7s1.2,1.1,1.4,2c0.2,0.7,0.3,1.6,0.3,2.9c0,0.1-0.1,0.2-0.2,0.2h-6   c-0.1,0-0.1,0-0.1,0.1c0,0.2,0,0.5,0.1,0.7c0.3,1,1.1,1.5,2.2,1.5c1,0,1.7-0.3,2.3-0.9c0.1-0.1,0.2-0.1,0.3,0l1.2,1   c0.1,0.1,0.1,0.2,0,0.3C159,365.3,157.7,365.8,156,365.8z M157.9,359.7c0-0.3,0-0.6-0.1-0.8c-0.1-0.4-0.4-0.7-0.7-0.9   c-0.3-0.2-0.7-0.3-1.2-0.3c-1,0-1.6,0.4-1.9,1.2c-0.1,0.2-0.1,0.5-0.1,0.8c0,0.1,0,0.1,0.1,0.1h3.8   C157.9,359.8,157.9,359.7,157.9,359.7z" />
	<path
   id="path1215"
   d="M165.9,369.4c-0.7,0-1.4-0.1-2-0.4s-1.2-0.6-1.5-1.1c-0.1-0.1-0.1-0.2,0-0.3l1.2-1.2c0.1-0.1,0.2-0.1,0.3,0   c0.6,0.6,1.3,0.9,2.1,0.9c1.4,0,2.2-0.8,2.2-2.3v-0.9l0,0c-0.5,0.8-1.3,1.1-2.5,1.1c-0.8,0-1.5-0.2-2.1-0.6s-1-1-1.2-1.7   s-0.3-1.5-0.3-2.5s0.1-1.8,0.3-2.5c0.5-1.6,1.6-2.4,3.3-2.4c1.2,0,2,0.4,2.5,1.1l0,0v-0.7c0-0.1,0.1-0.2,0.2-0.2h1.8   c0.1,0,0.2,0.1,0.2,0.2v8.9c0,1.4-0.4,2.5-1.2,3.3S167.4,369.4,165.9,369.4z M166.2,363.3c0.9,0,1.5-0.4,1.7-1.2   c0.1-0.4,0.2-0.9,0.2-1.6c0-0.6-0.1-1.2-0.2-1.6c-0.3-0.8-0.8-1.2-1.7-1.2s-1.4,0.4-1.7,1.2c-0.1,0.4-0.2,1-0.2,1.6   c0,0.7,0.1,1.2,0.2,1.6C164.8,362.9,165.4,363.3,166.2,363.3z" />
	<path
   id="path1217"
   d="M174.3,369.2h-0.6c-0.1,0-0.2-0.1-0.2-0.2v-1.6c0-0.1,0.1-0.2,0.2-0.2h0.4c0.4,0,0.7-0.1,0.9-0.3   c0.2-0.2,0.4-0.5,0.6-0.9l0.3-0.8l-3.5-9.1c0-0.1,0-0.2,0.2-0.2h2c0.1,0,0.2,0.1,0.2,0.2l2.2,6.3l0,0l2.1-6.3   c0-0.1,0.1-0.2,0.2-0.2h1.9c0.1,0,0.2,0.1,0.2,0.2l-3.7,10.1c-0.4,1.1-0.9,1.9-1.3,2.4S175.1,369.2,174.3,369.2z" />
	<path
   id="path1219"
   d="M187.9,365.4v-13.3c0-0.1,0.1-0.2,0.2-0.2h4.9c2.4,0,3.9,1,4.6,3c0.2,0.7,0.3,2,0.3,3.8s-0.1,3.1-0.3,3.8   c-0.7,2-2.2,3-4.6,3h-4.9C188,365.6,187.9,365.5,187.9,365.4z M190.3,363.3c0,0.1,0,0.1,0.1,0.1h2c1.5,0,2.5-0.6,2.8-1.7   c0.2-0.4,0.2-1.4,0.2-3s-0.1-2.5-0.2-3c-0.4-1.2-1.3-1.7-2.8-1.7h-2c-0.1,0-0.1,0-0.1,0.1V363.3z" />
	<path
   id="path1221"
   d="M204.3,365.8c-1,0-1.9-0.2-2.6-0.7s-1.2-1.1-1.5-2c-0.2-0.7-0.3-1.5-0.3-2.4s0.1-1.7,0.3-2.4   c0.3-0.8,0.8-1.5,1.5-2s1.5-0.7,2.5-0.7s1.8,0.2,2.5,0.7s1.2,1.1,1.4,2c0.2,0.7,0.3,1.6,0.3,2.9c0,0.1-0.1,0.2-0.2,0.2h-6   c-0.1,0-0.1,0-0.1,0.1c0,0.2,0,0.5,0.1,0.7c0.3,1,1.1,1.5,2.2,1.5c1,0,1.7-0.3,2.3-0.9c0.1-0.1,0.2-0.1,0.3,0l1.2,1   c0.1,0.1,0.1,0.2,0,0.3C207.3,365.3,206,365.8,204.3,365.8z M206.2,359.7c0-0.3,0-0.6-0.1-0.8c-0.1-0.4-0.4-0.7-0.7-0.9   c-0.3-0.2-0.7-0.3-1.2-0.3c-1,0-1.6,0.4-1.9,1.2c-0.1,0.2-0.1,0.5-0.1,0.8c0,0.1,0,0.1,0.1,0.1h3.8   C206.2,359.8,206.2,359.7,206.2,359.7z" />
</g>
<g
   id="g1227"
   class="st0">
	<path
   id="path1225"
   d="M215.1,365.6h-1.6c-0.1,0-0.2-0.1-0.3-0.2l-3.4-9.3c0-0.1,0-0.2,0.2-0.2h2c0.1,0,0.2,0.1,0.2,0.2l2.1,6.3   l0,0l2.1-6.3c0-0.1,0.1-0.2,0.2-0.2h1.9c0.1,0,0.2,0.1,0.2,0.2l-3.4,9.3C215.3,365.5,215.3,365.6,215.1,365.6z" />
</g>
<g
   id="g1245"
   class="st0">
	<path
   id="path1229"
   d="M224.4,365.8c-1,0-1.9-0.2-2.6-0.7s-1.2-1.1-1.5-2c-0.2-0.7-0.3-1.5-0.3-2.4s0.1-1.7,0.3-2.4   c0.3-0.8,0.8-1.5,1.5-2s1.5-0.7,2.5-0.7s1.8,0.2,2.5,0.7s1.2,1.1,1.4,2c0.2,0.7,0.3,1.6,0.3,2.9c0,0.1-0.1,0.2-0.2,0.2h-6   c-0.1,0-0.1,0-0.1,0.1c0,0.2,0,0.5,0.1,0.7c0.3,1,1.1,1.5,2.2,1.5c1,0,1.7-0.3,2.3-0.9c0.1-0.1,0.2-0.1,0.3,0l1.2,1   c0.1,0.1,0.1,0.2,0,0.3C227.4,365.3,226.1,365.8,224.4,365.8z M226.3,359.7c0-0.3,0-0.6-0.1-0.8c-0.1-0.4-0.4-0.7-0.7-0.9   c-0.3-0.2-0.7-0.3-1.2-0.3c-1,0-1.6,0.4-1.9,1.2c-0.1,0.2-0.1,0.5-0.1,0.8c0,0.1,0,0.1,0.1,0.1h3.8   C226.3,359.8,226.3,359.7,226.3,359.7z" />
	<path
   id="path1231"
   d="M234.5,365.7h-0.9c-0.9,0-1.6-0.2-2-0.7c-0.4-0.4-0.6-1.1-0.6-2.1v-10.8c0-0.1,0.1-0.2,0.2-0.2h1.8   c0.1,0,0.2,0.1,0.2,0.2v10.7c0,0.3,0.1,0.5,0.2,0.7c0.1,0.1,0.3,0.2,0.6,0.2h0.4c0.1,0,0.2,0.1,0.2,0.2v1.6   C234.7,365.6,234.7,365.7,234.5,365.7z" />
	<path
   id="path1233"
   d="M240.7,365.8c-1,0-1.8-0.2-2.5-0.7s-1.2-1.1-1.5-2c-0.2-0.7-0.3-1.5-0.3-2.4s0.1-1.7,0.3-2.4   c0.3-0.8,0.8-1.5,1.5-2s1.6-0.7,2.5-0.7c1,0,1.8,0.2,2.5,0.7s1.2,1.1,1.5,2c0.2,0.7,0.3,1.5,0.3,2.4s-0.1,1.7-0.3,2.4   c-0.3,0.8-0.8,1.5-1.5,2C242.5,365.6,241.6,365.8,240.7,365.8z M240.7,363.8c0.9,0,1.5-0.4,1.8-1.3c0.1-0.4,0.2-1,0.2-1.8   s-0.1-1.4-0.2-1.8c-0.3-0.8-0.9-1.3-1.8-1.3c-0.9,0-1.5,0.4-1.8,1.3c-0.1,0.4-0.2,1-0.2,1.8s0.1,1.4,0.2,1.8   C239.1,363.4,239.7,363.8,240.7,363.8z" />
	<path
   id="path1235"
   d="M249.4,369.2h-1.8c-0.1,0-0.2-0.1-0.2-0.2v-12.9c0-0.1,0.1-0.2,0.2-0.2h1.8c0.1,0,0.2,0.1,0.2,0.2v0.7l0,0   c0.5-0.8,1.4-1.1,2.6-1.1c1.7,0,2.8,0.8,3.4,2.3c0.2,0.7,0.3,1.6,0.3,2.7s-0.1,2-0.3,2.7c-0.5,1.6-1.6,2.3-3.4,2.3   c-1.2,0-2-0.4-2.6-1.1l0,0v4.3C249.6,369.1,249.6,369.2,249.4,369.2z M251.6,363.8c0.9,0,1.5-0.4,1.8-1.2c0.1-0.4,0.2-1,0.2-1.8   s-0.1-1.4-0.2-1.8c-0.3-0.8-0.9-1.2-1.8-1.2c-0.9,0-1.5,0.4-1.8,1.2c-0.1,0.4-0.2,1-0.2,1.8s0.1,1.4,0.2,1.8   C250.1,363.4,250.7,363.8,251.6,363.8z" />
	<path
   id="path1237"
   d="M272.2,365.6h-1.8c-0.1,0-0.2-0.1-0.2-0.2v-5.6c0-0.6-0.2-1.2-0.5-1.5c-0.3-0.4-0.8-0.6-1.4-0.6   s-1,0.2-1.4,0.6c-0.3,0.4-0.5,0.9-0.5,1.5v5.6c0,0.1-0.1,0.2-0.2,0.2h-1.8c-0.1,0-0.2-0.1-0.2-0.2v-5.6c0-0.6-0.2-1.2-0.5-1.5   s-0.8-0.6-1.4-0.6s-1,0.2-1.4,0.6c-0.3,0.4-0.5,0.9-0.5,1.5v5.6c0,0.1-0.1,0.2-0.2,0.2h-1.8c-0.1,0-0.2-0.1-0.2-0.2v-9.3   c0-0.1,0.1-0.2,0.2-0.2h1.8c0.1,0,0.2,0.1,0.2,0.2v0.7l0,0c0.5-0.8,1.4-1.1,2.6-1.1s2,0.4,2.7,1.3l0,0c0.8-0.9,1.8-1.3,3.1-1.3   c1.1,0,2,0.3,2.6,1s0.9,1.5,0.9,2.6v6.1C272.4,365.5,272.4,365.6,272.2,365.6z" />
	<path
   id="path1239"
   d="M279.1,365.8c-1,0-1.9-0.2-2.6-0.7s-1.2-1.1-1.5-2c-0.2-0.7-0.3-1.5-0.3-2.4s0.1-1.7,0.3-2.4   c0.3-0.8,0.8-1.5,1.5-2s1.5-0.7,2.5-0.7s1.8,0.2,2.5,0.7s1.2,1.1,1.4,2c0.2,0.7,0.3,1.6,0.3,2.9c0,0.1-0.1,0.2-0.2,0.2h-6   c-0.1,0-0.1,0-0.1,0.1c0,0.2,0,0.5,0.1,0.7c0.3,1,1.1,1.5,2.2,1.5c1,0,1.7-0.3,2.3-0.9c0.1-0.1,0.2-0.1,0.3,0l1.2,1   c0.1,0.1,0.1,0.2,0,0.3C282.2,365.3,280.9,365.8,279.1,365.8z M281.1,359.7c0-0.3,0-0.6-0.1-0.8c-0.1-0.4-0.4-0.7-0.7-0.9   c-0.3-0.2-0.7-0.3-1.2-0.3c-1,0-1.6,0.4-1.9,1.2c-0.1,0.2-0.1,0.5-0.1,0.8c0,0.1,0,0.1,0.1,0.1h3.8   C281,359.8,281.1,359.7,281.1,359.7z" />
	<path
   id="path1241"
   d="M293.7,365.6h-1.8c-0.1,0-0.2-0.1-0.2-0.2v-5.6c0-0.6-0.2-1.2-0.5-1.5s-0.8-0.6-1.4-0.6s-1,0.2-1.4,0.6   c-0.3,0.4-0.5,0.9-0.5,1.5v5.6c0,0.1-0.1,0.2-0.2,0.2H286c-0.1,0-0.2-0.1-0.2-0.2v-9.3c0-0.1,0.1-0.2,0.2-0.2h1.8   c0.1,0,0.2,0.1,0.2,0.2v0.7l0,0c0.5-0.8,1.4-1.1,2.6-1.1c1,0,1.8,0.3,2.4,1s0.9,1.5,0.9,2.6v6.1   C293.9,365.5,293.9,365.6,293.7,365.6z" />
	<path
   id="path1243"
   d="M300.6,365.7h-1c-1,0-1.6-0.2-2.1-0.7c-0.4-0.5-0.6-1.2-0.6-2.1v-5.1c0-0.1,0-0.1-0.1-0.1h-0.6   c-0.1,0-0.2-0.1-0.2-0.2v-1.3c0-0.1,0.1-0.2,0.2-0.2h0.6c0.1,0,0.1,0,0.1-0.1v-2.7c0-0.1,0.1-0.2,0.2-0.2h1.8   c0.1,0,0.2,0.1,0.2,0.2v2.7c0,0.1,0,0.1,0.1,0.1h1.3c0.1,0,0.2,0.1,0.2,0.2v1.3c0,0.1-0.1,0.2-0.2,0.2h-1.3c-0.1,0-0.1,0-0.1,0.1v5   c0,0.3,0.1,0.6,0.2,0.7s0.4,0.2,0.7,0.2h0.5c0.1,0,0.2,0.1,0.2,0.2v1.6C300.8,365.6,300.7,365.7,300.6,365.7z" />
</g>
<circle
   id="circle879"
   class="st1"
   cx="204.3"
   cy="296.9"
   r="46.2" />
<line
   id="line881"
   class="st2"
   x1="256.1"
   y1="297.8"
   x2="421.3"
   y2="297.8" />
<line
   id="line883"
   class="st2"
   x1="429.5"
   y1="297.8"
   x2="594.7"
   y2="297.8" />
<polyline
   id="polyline885"
   class="st3"
   points="434.5,309 422.5,297 433.9,285.6 " />
<line
   id="line887"
   class="st2"
   x1="641.6"
   y1="151.2"
   x2="641.6"
   y2="195.8" />
<line
   id="line889"
   class="st2"
   x1="641.6"
   y1="205.3"
   x2="641.6"
   y2="249.9" />
<polyline
   id="polyline891"
   class="st3"
   points="653.8,187.6 641.8,199.6 630.4,188.2 " />
<g
   id="g1274"
   class="st0">
	<path
   id="path1254"
   d="M557.7,366.6l4.7-13.3c0-0.1,0.1-0.2,0.3-0.2h1.8c0.1,0,0.2,0.1,0.3,0.2l4.6,13.3c0,0.1,0,0.2-0.1,0.2h-2   c-0.1,0-0.2-0.1-0.3-0.2l-0.9-2.7H561l-0.9,2.7c0,0.1-0.1,0.2-0.3,0.2h-1.9C557.7,366.8,557.7,366.8,557.7,366.6z M561.7,361.9h3.7   l-1.8-5.3h-0.1L561.7,361.9z" />
	<path
   id="path1256"
   d="M574.8,367.1c-1.7,0-3.1-0.5-4.2-1.5c-0.1-0.1-0.1-0.2,0-0.3l1.1-1.2c0.1-0.1,0.2-0.1,0.3,0   c0.4,0.3,0.8,0.6,1.3,0.8s1,0.3,1.5,0.3c0.6,0,1-0.1,1.3-0.3c0.3-0.2,0.5-0.5,0.5-0.8s-0.1-0.5-0.4-0.7s-0.7-0.3-1.3-0.3l-1-0.1   c-2-0.2-3-1.2-3-2.9c0-1,0.3-1.7,1-2.2s1.6-0.8,2.8-0.8c1.4,0,2.6,0.4,3.6,1.2c0.1,0.1,0.1,0.2,0,0.3l-1,1.2   c-0.1,0.1-0.2,0.1-0.3,0c-0.8-0.5-1.6-0.8-2.5-0.8c-0.5,0-0.8,0.1-1.1,0.3s-0.4,0.4-0.4,0.7s0.1,0.5,0.4,0.7s0.6,0.3,1.2,0.3l1,0.1   c1,0.1,1.7,0.4,2.2,0.9s0.8,1.1,0.8,1.9c0,1-0.4,1.8-1.1,2.4C577.1,366.8,576.1,367.1,574.8,367.1z" />
	<path
   id="path1258"
   d="M584.8,367.1c-1.7,0-3.1-0.5-4.2-1.5c-0.1-0.1-0.1-0.2,0-0.3l1.1-1.2c0.1-0.1,0.2-0.1,0.3,0   c0.4,0.3,0.8,0.6,1.3,0.8s1,0.3,1.5,0.3c0.6,0,1-0.1,1.3-0.3c0.3-0.2,0.5-0.5,0.5-0.8s-0.1-0.5-0.4-0.7s-0.7-0.3-1.3-0.3l-1-0.1   c-2-0.2-3-1.2-3-2.9c0-1,0.3-1.7,1-2.2s1.6-0.8,2.8-0.8c1.4,0,2.6,0.4,3.6,1.2c0.1,0.1,0.1,0.2,0,0.3l-1,1.2   c-0.1,0.1-0.2,0.1-0.3,0c-0.8-0.5-1.6-0.8-2.5-0.8c-0.5,0-0.8,0.1-1.1,0.3s-0.4,0.4-0.4,0.7s0.1,0.5,0.4,0.7s0.6,0.3,1.2,0.3l1,0.1   c1,0.1,1.7,0.4,2.2,0.9s0.8,1.1,0.8,1.9c0,1-0.4,1.8-1.1,2.4C587.1,366.8,586.1,367.1,584.8,367.1z" />
	<path
   id="path1260"
   d="M595.1,367.1c-1,0-1.9-0.2-2.6-0.7c-0.7-0.5-1.2-1.1-1.5-2c-0.2-0.7-0.3-1.5-0.3-2.4s0.1-1.7,0.3-2.4   c0.3-0.8,0.8-1.5,1.5-2s1.5-0.7,2.5-0.7s1.8,0.2,2.5,0.7s1.2,1.1,1.4,2c0.2,0.7,0.3,1.6,0.3,2.9c0,0.1-0.1,0.2-0.2,0.2h-6   c-0.1,0-0.1,0-0.1,0.1c0,0.2,0,0.5,0.1,0.7c0.3,1,1.1,1.5,2.2,1.5c1,0,1.7-0.3,2.3-0.9c0.1-0.1,0.2-0.1,0.3,0l1.2,1   c0.1,0.1,0.1,0.2,0,0.3C598.2,366.5,596.8,367.1,595.1,367.1z M597.1,360.9c0-0.3,0-0.6-0.1-0.8c-0.1-0.4-0.4-0.7-0.7-0.9   c-0.3-0.2-0.7-0.3-1.2-0.3c-1,0-1.6,0.4-1.9,1.2c-0.1,0.2-0.1,0.5-0.1,0.8c0,0.1,0,0.1,0.1,0.1h3.8C597,361,597.1,361,597.1,360.9z   " />
	<path
   id="path1262"
   d="M605.3,367.1c-1.7,0-3.1-0.5-4.2-1.5c-0.1-0.1-0.1-0.2,0-0.3l1.1-1.2c0.1-0.1,0.2-0.1,0.3,0   c0.4,0.3,0.8,0.6,1.3,0.8s1,0.3,1.5,0.3c0.6,0,1-0.1,1.3-0.3c0.3-0.2,0.5-0.5,0.5-0.8s-0.1-0.5-0.4-0.7s-0.7-0.3-1.3-0.3l-1-0.1   c-2-0.2-3-1.2-3-2.9c0-1,0.3-1.7,1-2.2s1.6-0.8,2.8-0.8c1.4,0,2.6,0.4,3.6,1.2c0.1,0.1,0.1,0.2,0,0.3l-1,1.2   c-0.1,0.1-0.2,0.1-0.3,0c-0.8-0.5-1.6-0.8-2.5-0.8c-0.5,0-0.8,0.1-1.1,0.3s-0.4,0.4-0.4,0.7s0.1,0.5,0.4,0.7s0.6,0.3,1.2,0.3l1,0.1   c1,0.1,1.7,0.4,2.2,0.9s0.8,1.1,0.8,1.9c0,1-0.4,1.8-1.1,2.4C607.6,366.8,606.6,367.1,605.3,367.1z" />
	<path
   id="path1264"
   d="M615.3,367.1c-1.7,0-3.1-0.5-4.2-1.5c-0.1-0.1-0.1-0.2,0-0.3l1.1-1.2c0.1-0.1,0.2-0.1,0.3,0   c0.4,0.3,0.8,0.6,1.3,0.8c0.5,0.2,1,0.3,1.5,0.3c0.6,0,1-0.1,1.3-0.3s0.5-0.5,0.5-0.8s-0.1-0.5-0.4-0.7s-0.7-0.3-1.3-0.3l-1-0.1   c-2-0.2-3-1.2-3-2.9c0-1,0.3-1.7,1-2.2s1.6-0.8,2.8-0.8c1.4,0,2.6,0.4,3.6,1.2c0.1,0.1,0.1,0.2,0,0.3l-1,1.2   c-0.1,0.1-0.2,0.1-0.3,0c-0.8-0.5-1.6-0.8-2.5-0.8c-0.5,0-0.8,0.1-1.1,0.3c-0.3,0.2-0.4,0.4-0.4,0.7s0.1,0.5,0.4,0.7   c0.2,0.2,0.6,0.3,1.2,0.3l1,0.1c1,0.1,1.7,0.4,2.2,0.9s0.8,1.1,0.8,1.9c0,1-0.4,1.8-1.1,2.4C617.6,366.8,616.6,367.1,615.3,367.1z" />
	<path
   id="path1266"
   d="M634,366.8h-1.7c-0.1,0-0.2-0.1-0.2-0.2v-0.7l0,0c-0.5,0.8-1.4,1.1-2.7,1.1c-0.9,0-1.7-0.3-2.3-0.8   s-0.9-1.2-0.9-2.2s0.3-1.8,1-2.3s1.6-0.8,2.9-0.8h2c0.1,0,0.1,0,0.1-0.1v-0.5c0-0.6-0.2-1-0.5-1.2c-0.3-0.3-0.9-0.4-1.7-0.4   c-0.9,0-1.6,0.2-2.2,0.7c-0.1,0.1-0.2,0.1-0.3,0l-0.7-1.3c-0.1-0.1-0.1-0.2,0-0.3c0.9-0.6,2-0.9,3.4-0.9c1.5,0,2.5,0.3,3.1,0.8   s0.9,1.4,0.9,2.6v6.3C634.2,366.8,634.1,366.8,634,366.8z M629.9,365.2c1.4,0,2.2-0.5,2.2-1.6v-0.7c0-0.1,0-0.1-0.1-0.1h-1.6   c-1.4,0-2.1,0.4-2.1,1.3C628.2,364.8,628.8,365.2,629.9,365.2z" />
	<path
   id="path1268"
   d="M645,366.8h-1.8c-0.1,0-0.2-0.1-0.2-0.2V361c0-0.6-0.2-1.2-0.5-1.5c-0.3-0.4-0.8-0.6-1.4-0.6   c-0.6,0-1,0.2-1.4,0.6s-0.5,0.9-0.5,1.5v5.6c0,0.1-0.1,0.2-0.2,0.2h-1.8c-0.1,0-0.2-0.1-0.2-0.2v-9.3c0-0.1,0.1-0.2,0.2-0.2h1.8   c0.1,0,0.2,0.1,0.2,0.2v0.7l0,0c0.5-0.8,1.4-1.1,2.6-1.1c1,0,1.8,0.3,2.4,1c0.6,0.7,0.9,1.5,0.9,2.6v6.1   C645.2,366.8,645.1,366.8,645,366.8z" />
	<path
   id="path1270"
   d="M655.8,366.8H654c-0.1,0-0.2-0.1-0.2-0.2v-0.7l0,0c-0.5,0.8-1.4,1.1-2.6,1.1c-1.7,0-2.8-0.8-3.4-2.3   c-0.2-0.7-0.3-1.6-0.3-2.7s0.1-2,0.3-2.7c0.5-1.6,1.6-2.3,3.4-2.3c1.2,0,2,0.4,2.6,1.1l0,0v-4.7c0-0.1,0.1-0.2,0.2-0.2h1.8   c0.1,0,0.2,0.1,0.2,0.2v13.3C656,366.8,656,366.8,655.8,366.8z M651.8,365.1c0.9,0,1.5-0.4,1.8-1.2c0.1-0.4,0.2-1,0.2-1.8   s-0.1-1.4-0.2-1.8c-0.3-0.8-0.9-1.2-1.8-1.2c-0.9,0-1.5,0.4-1.8,1.2c-0.1,0.4-0.2,1-0.2,1.8s0.1,1.4,0.2,1.8   C650.3,364.6,650.9,365.1,651.8,365.1z" />
	<path
   id="path1272"
   d="M665.9,366.8h-2c-0.1,0-0.2-0.1-0.2-0.2v-13.3c0-0.1,0.1-0.2,0.2-0.2h5.1c1.3,0,2.4,0.4,3.2,1.2   c0.8,0.8,1.3,1.8,1.3,3.1c0,1.3-0.4,2.3-1.3,3.1c-0.8,0.8-1.9,1.2-3.2,1.2h-2.8c-0.1,0-0.1,0-0.1,0.1v4.8   C666.1,366.8,666.1,366.8,665.9,366.8z M669,359.5c0.7,0,1.2-0.2,1.7-0.6c0.4-0.4,0.6-0.9,0.6-1.5s-0.2-1.1-0.6-1.5   c-0.4-0.4-1-0.6-1.7-0.6h-2.7c-0.1,0-0.1,0-0.1,0.1v4c0,0.1,0,0.1,0.1,0.1H669z" />
</g>
<g
   id="g1278"
   class="st0">
	<path
   id="path1276"
   d="M677.8,366.8H676c-0.1,0-0.2-0.1-0.2-0.2v-9.3c0-0.1,0.1-0.2,0.2-0.2h1.8c0.1,0,0.2,0.1,0.2,0.2v0.8l0,0   c0.5-0.8,1.4-1.2,2.5-1.2c0.8,0,1.5,0.3,2,0.8c0.1,0.1,0.1,0.2,0,0.3l-1.1,1.3c-0.1,0.1-0.2,0.1-0.3,0c-0.5-0.3-1-0.5-1.4-0.5   c-1.2,0-1.8,0.8-1.8,2.5v5.2C678,366.8,677.9,366.8,677.8,366.8z" />
</g>
<g
   id="g1290"
   class="st0">
	<path
   id="path1280"
   d="M687.8,367.1c-1,0-1.8-0.2-2.5-0.7s-1.2-1.1-1.5-2c-0.2-0.7-0.3-1.5-0.3-2.4s0.1-1.7,0.3-2.4   c0.3-0.8,0.8-1.5,1.5-2s1.6-0.7,2.5-0.7c1,0,1.8,0.2,2.5,0.7s1.2,1.1,1.5,2c0.2,0.7,0.3,1.5,0.3,2.4s-0.1,1.7-0.3,2.4   c-0.3,0.8-0.8,1.5-1.5,2C689.7,366.8,688.8,367.1,687.8,367.1z M687.8,365.1c0.9,0,1.5-0.4,1.8-1.3c0.1-0.4,0.2-1,0.2-1.8   s-0.1-1.4-0.2-1.8c-0.3-0.8-0.9-1.3-1.8-1.3c-0.9,0-1.5,0.4-1.8,1.3c-0.1,0.4-0.2,1-0.2,1.8s0.1,1.4,0.2,1.8   C686.3,364.6,686.9,365.1,687.8,365.1z" />
	<path
   id="path1282"
   d="M698.4,367h-1c-1,0-1.6-0.2-2.1-0.7c-0.4-0.5-0.6-1.2-0.6-2.1V359c0-0.1,0-0.1-0.1-0.1H694   c-0.1,0-0.2-0.1-0.2-0.2v-1.3c0-0.1,0.1-0.2,0.2-0.2h0.6c0.1,0,0.1,0,0.1-0.1v-2.7c0-0.1,0.1-0.2,0.2-0.2h1.8   c0.1,0,0.2,0.1,0.2,0.2v2.7c0,0.1,0,0.1,0.1,0.1h1.3c0.1,0,0.2,0.1,0.2,0.2v1.3c0,0.1-0.1,0.2-0.2,0.2H697c-0.1,0-0.1,0-0.1,0.1v5   c0,0.3,0.1,0.6,0.2,0.7c0.1,0.1,0.4,0.2,0.7,0.2h0.5c0.1,0,0.2,0.1,0.2,0.2v1.6C698.6,366.9,698.5,367,698.4,367z" />
	<path
   id="path1284"
   d="M704.9,367.1c-1,0-1.9-0.2-2.6-0.7c-0.7-0.5-1.2-1.1-1.5-2c-0.2-0.7-0.3-1.5-0.3-2.4s0.1-1.7,0.3-2.4   c0.3-0.8,0.8-1.5,1.5-2s1.5-0.7,2.5-0.7s1.8,0.2,2.5,0.7s1.2,1.1,1.4,2c0.2,0.7,0.3,1.6,0.3,2.9c0,0.1-0.1,0.2-0.2,0.2h-6   c-0.1,0-0.1,0-0.1,0.1c0,0.2,0,0.5,0.1,0.7c0.3,1,1.1,1.5,2.2,1.5c1,0,1.7-0.3,2.3-0.9c0.1-0.1,0.2-0.1,0.3,0l1.2,1   c0.1,0.1,0.1,0.2,0,0.3C707.9,366.5,706.6,367.1,704.9,367.1z M706.8,360.9c0-0.3,0-0.6-0.1-0.8c-0.1-0.4-0.4-0.7-0.7-0.9   c-0.3-0.2-0.7-0.3-1.2-0.3c-1,0-1.6,0.4-1.9,1.2c-0.1,0.2-0.1,0.5-0.1,0.8c0,0.1,0,0.1,0.1,0.1h3.8   C706.8,361,706.8,361,706.8,360.9z" />
	<path
   id="path1286"
   d="M715.3,367.1c-1,0-1.8-0.2-2.5-0.7s-1.2-1.1-1.5-2c-0.2-0.6-0.3-1.4-0.3-2.4s0.1-1.8,0.3-2.4   c0.3-0.9,0.8-1.5,1.5-2s1.5-0.7,2.5-0.7c1.4,0,2.5,0.5,3.4,1.5c0.1,0.1,0.1,0.2,0,0.3l-1.3,1.1c-0.1,0.1-0.2,0.1-0.3,0   c-0.5-0.6-1.1-0.8-1.8-0.8c-0.9,0-1.5,0.4-1.8,1.3c-0.1,0.4-0.2,1-0.2,1.8s0.1,1.4,0.2,1.8c0.3,0.8,0.9,1.2,1.8,1.2   c0.7,0,1.3-0.3,1.8-0.8c0.1-0.1,0.2-0.1,0.3,0l1.3,1.1c0.1,0.1,0.1,0.2,0,0.3C717.8,366.6,716.7,367.1,715.3,367.1z" />
	<path
   id="path1288"
   d="M724.8,367h-1c-1,0-1.6-0.2-2.1-0.7c-0.4-0.5-0.6-1.2-0.6-2.1V359c0-0.1,0-0.1-0.1-0.1h-0.6   c-0.1,0-0.2-0.1-0.2-0.2v-1.3c0-0.1,0.1-0.2,0.2-0.2h0.6c0.1,0,0.1,0,0.1-0.1v-2.7c0-0.1,0.1-0.2,0.2-0.2h1.8   c0.1,0,0.2,0.1,0.2,0.2v2.7c0,0.1,0,0.1,0.1,0.1h1.3c0.1,0,0.2,0.1,0.2,0.2v1.3c0,0.1-0.1,0.2-0.2,0.2h-1.3c-0.1,0-0.1,0-0.1,0.1v5   c0,0.3,0.1,0.6,0.2,0.7c0.1,0.1,0.4,0.2,0.7,0.2h0.5c0.1,0,0.2,0.1,0.2,0.2v1.6C725,366.9,725,367,724.8,367z" />
</g>
<circle
   id="circle899"
   class="st1"
   cx="641.5"
   cy="298.1"
   r="46.2" />
<line
   id="line901"
   class="st2"
   x1="641.6"
   y1="674.1"
   x2="641.6"
   y2="718.7" />
<line
   id="line903"
   class="st2"
   x1="641.6"
   y1="726.8"
   x2="641.6"
   y2="771.4" />
<polyline
   id="polyline905"
   class="st3"
   points="653.8,709.1 641.8,721.1 630.4,709.8 " />
<g
   id="g1306"
   class="st0">
	<path
   id="path1296"
   d="M560.9,884c-0.2-0.7-0.4-2-0.4-3.7s0.1-3,0.4-3.7c0.3-1.1,0.9-1.9,1.7-2.5s1.8-0.9,3-0.9   c1.1,0,2,0.3,2.8,0.8s1.4,1.2,1.8,2.2c0,0.1,0,0.2-0.1,0.2l-1.7,0.8c-0.1,0.1-0.2,0-0.3-0.1c-0.5-1.2-1.4-1.8-2.6-1.8   c-1.2,0-2,0.6-2.5,1.8c-0.2,0.5-0.2,1.5-0.2,3.1s0.1,2.6,0.2,3.1c0.4,1.2,1.2,1.8,2.5,1.8c1.2,0,2-0.6,2.6-1.8   c0.1-0.1,0.1-0.2,0.3-0.1l1.7,0.8c0.1,0,0.1,0.1,0.1,0.2c-0.4,0.9-1,1.6-1.8,2.2c-0.8,0.5-1.7,0.8-2.8,0.8c-1.2,0-2.2-0.3-3-0.9   C561.9,886,561.3,885.1,560.9,884z" />
	<path
   id="path1298"
   d="M576.3,887.4c-1,0-1.8-0.2-2.5-0.7s-1.2-1.1-1.5-2c-0.2-0.7-0.3-1.5-0.3-2.4s0.1-1.7,0.3-2.4   c0.3-0.8,0.8-1.5,1.5-2s1.6-0.7,2.5-0.7c1,0,1.8,0.2,2.5,0.7s1.2,1.1,1.5,2c0.2,0.7,0.3,1.5,0.3,2.4s-0.1,1.7-0.3,2.4   c-0.3,0.8-0.8,1.5-1.5,2S577.3,887.4,576.3,887.4z M576.3,885.4c0.9,0,1.5-0.4,1.8-1.3c0.1-0.4,0.2-1,0.2-1.8s-0.1-1.4-0.2-1.8   c-0.3-0.8-0.9-1.3-1.8-1.3c-0.9,0-1.5,0.4-1.8,1.3c-0.1,0.4-0.2,1-0.2,1.8s0.1,1.4,0.2,1.8C574.8,885,575.4,885.4,576.3,885.4z" />
	<path
   id="path1300"
   d="M596.9,887.2h-1.8c-0.1,0-0.2-0.1-0.2-0.2v-5.6c0-0.6-0.2-1.2-0.5-1.5c-0.3-0.4-0.8-0.6-1.4-0.6   c-0.6,0-1,0.2-1.4,0.6c-0.3,0.4-0.5,0.9-0.5,1.5v5.6c0,0.1-0.1,0.2-0.2,0.2h-1.8c-0.1,0-0.2-0.1-0.2-0.2v-5.6   c0-0.6-0.2-1.2-0.5-1.5c-0.3-0.4-0.8-0.6-1.4-0.6c-0.6,0-1,0.2-1.4,0.6c-0.3,0.4-0.5,0.9-0.5,1.5v5.6c0,0.1-0.1,0.2-0.2,0.2h-1.8   c-0.1,0-0.2-0.1-0.2-0.2v-9.3c0-0.1,0.1-0.2,0.2-0.2h1.8c0.1,0,0.2,0.1,0.2,0.2v0.7l0,0c0.5-0.8,1.4-1.1,2.6-1.1   c1.2,0,2,0.4,2.7,1.3l0,0c0.8-0.9,1.8-1.3,3.1-1.3c1.1,0,2,0.3,2.6,1s0.9,1.5,0.9,2.6v6.1C597.1,887.1,597.1,887.2,596.9,887.2z" />
	<path
   id="path1302"
   d="M613.9,887.2H612c-0.1,0-0.2-0.1-0.2-0.2v-5.6c0-0.6-0.2-1.2-0.5-1.5s-0.8-0.6-1.4-0.6c-0.6,0-1,0.2-1.4,0.6   c-0.3,0.4-0.5,0.9-0.5,1.5v5.6c0,0.1-0.1,0.2-0.2,0.2H606c-0.1,0-0.2-0.1-0.2-0.2v-5.6c0-0.6-0.2-1.2-0.5-1.5s-0.8-0.6-1.4-0.6   c-0.6,0-1,0.2-1.4,0.6c-0.3,0.4-0.5,0.9-0.5,1.5v5.6c0,0.1-0.1,0.2-0.2,0.2H600c-0.1,0-0.2-0.1-0.2-0.2v-9.3c0-0.1,0.1-0.2,0.2-0.2   h1.8c0.1,0,0.2,0.1,0.2,0.2v0.7l0,0c0.5-0.8,1.4-1.1,2.6-1.1c1.2,0,2,0.4,2.7,1.3l0,0c0.8-0.9,1.8-1.3,3.1-1.3c1.1,0,2,0.3,2.6,1   s0.9,1.5,0.9,2.6v6.1C614.1,887.1,614,887.2,613.9,887.2z" />
	<path
   id="path1304"
   d="M620.8,887.4c-1,0-1.9-0.2-2.6-0.7c-0.7-0.5-1.2-1.1-1.5-2c-0.2-0.7-0.3-1.5-0.3-2.4s0.1-1.7,0.3-2.4   c0.3-0.8,0.8-1.5,1.5-2s1.5-0.7,2.5-0.7s1.8,0.2,2.5,0.7s1.2,1.1,1.4,2c0.2,0.7,0.3,1.6,0.3,2.9c0,0.1-0.1,0.2-0.2,0.2h-6   c-0.1,0-0.1,0-0.1,0.1c0,0.2,0,0.5,0.1,0.7c0.3,1,1.1,1.5,2.2,1.5c1,0,1.7-0.3,2.3-0.9c0.1-0.1,0.2-0.1,0.3,0l1.2,1   c0.1,0.1,0.1,0.2,0,0.3C623.8,886.8,622.5,887.4,620.8,887.4z M622.7,881.2c0-0.3,0-0.6-0.1-0.8c-0.1-0.4-0.4-0.7-0.7-0.9   s-0.7-0.3-1.2-0.3c-1,0-1.6,0.4-1.9,1.2c-0.1,0.2-0.1,0.5-0.1,0.8c0,0.1,0,0.1,0.1,0.1h3.8C622.7,881.4,622.7,881.3,622.7,881.2z" />
</g>
<g
   id="g1310"
   class="st0">
	<path
   id="path1308"
   d="M629.4,887.2h-1.8c-0.1,0-0.2-0.1-0.2-0.2v-9.3c0-0.1,0.1-0.2,0.2-0.2h1.8c0.1,0,0.2,0.1,0.2,0.2v0.8l0,0   c0.5-0.8,1.4-1.2,2.5-1.2c0.8,0,1.5,0.3,2,0.8c0.1,0.1,0.1,0.2,0,0.3l-1.1,1.3c-0.1,0.1-0.2,0.1-0.3,0c-0.5-0.3-1-0.5-1.4-0.5   c-1.2,0-1.8,0.8-1.8,2.5v5.2C629.6,887.1,629.6,887.2,629.4,887.2z" />
</g>
<g
   id="g1334"
   class="st0">
	<path
   id="path1312"
   d="M639.5,887.4c-1,0-1.8-0.2-2.5-0.7s-1.2-1.1-1.5-2c-0.2-0.6-0.3-1.4-0.3-2.4s0.1-1.8,0.3-2.4   c0.3-0.9,0.8-1.5,1.5-2s1.5-0.7,2.5-0.7c1.4,0,2.5,0.5,3.4,1.5c0.1,0.1,0.1,0.2,0,0.3l-1.3,1.1c-0.1,0.1-0.2,0.1-0.3,0   c-0.5-0.6-1.1-0.8-1.8-0.8c-0.9,0-1.5,0.4-1.8,1.3c-0.1,0.4-0.2,1-0.2,1.8s0.1,1.4,0.2,1.8c0.3,0.8,0.9,1.2,1.8,1.2   c0.7,0,1.3-0.3,1.8-0.8c0.1-0.1,0.2-0.1,0.3,0l1.3,1.1c0.1,0.1,0.1,0.2,0,0.3C642,886.9,640.9,887.4,639.5,887.4z" />
	<path
   id="path1314"
   d="M647.3,875.7h-1.8c-0.1,0-0.2-0.1-0.2-0.2v-1.7c0-0.1,0.1-0.2,0.2-0.2h1.8c0.1,0,0.2,0.1,0.2,0.2v1.7   C647.5,875.6,647.4,875.7,647.3,875.7z M647.3,887.2h-1.8c-0.1,0-0.2-0.1-0.2-0.2v-9.3c0-0.1,0.1-0.2,0.2-0.2h1.8   c0.1,0,0.2,0.1,0.2,0.2v9.3C647.5,887.1,647.4,887.2,647.3,887.2z" />
	<path
   id="path1316"
   d="M657.9,887.2h-1.7c-0.1,0-0.2-0.1-0.2-0.2v-0.7l0,0c-0.5,0.8-1.4,1.1-2.7,1.1c-0.9,0-1.7-0.3-2.3-0.8   s-0.9-1.2-0.9-2.2s0.3-1.8,1-2.3s1.6-0.8,2.9-0.8h2c0.1,0,0.1,0,0.1-0.1v-0.5c0-0.6-0.2-1-0.5-1.2c-0.3-0.3-0.9-0.4-1.7-0.4   c-0.9,0-1.6,0.2-2.2,0.7c-0.1,0.1-0.2,0.1-0.3,0l-0.7-1.3c-0.1-0.1-0.1-0.2,0-0.3c0.9-0.6,2-0.9,3.4-0.9c1.5,0,2.5,0.3,3.1,0.8   s0.9,1.4,0.9,2.6v6.3C658.1,887.1,658,887.2,657.9,887.2z M653.8,885.6c1.4,0,2.2-0.5,2.2-1.6v-0.7c0-0.1,0-0.1-0.1-0.1h-1.6   c-1.4,0-2.1,0.4-2.1,1.3C652.1,885.2,652.7,885.6,653.8,885.6z" />
	<path
   id="path1318"
   d="M664.4,887.3h-0.9c-0.9,0-1.6-0.2-2-0.7c-0.4-0.4-0.6-1.1-0.6-2.1v-10.8c0-0.1,0.1-0.2,0.2-0.2h1.8   c0.1,0,0.2,0.1,0.2,0.2v10.7c0,0.3,0.1,0.5,0.2,0.7c0.1,0.1,0.3,0.2,0.6,0.2h0.4c0.1,0,0.2,0.1,0.2,0.2v1.6   C664.6,887.2,664.6,887.3,664.4,887.3z" />
	<path
   id="path1320"
   d="M668.8,875.7H667c-0.1,0-0.2-0.1-0.2-0.2v-1.7c0-0.1,0.1-0.2,0.2-0.2h1.8c0.1,0,0.2,0.1,0.2,0.2v1.7   C669,875.6,669,875.7,668.8,875.7z M668.8,887.2H667c-0.1,0-0.2-0.1-0.2-0.2v-9.3c0-0.1,0.1-0.2,0.2-0.2h1.8c0.1,0,0.2,0.1,0.2,0.2   v9.3C669,887.1,669,887.2,668.8,887.2z" />
	<path
   id="path1322"
   d="M679,887.2h-7.3c-0.1,0-0.2-0.1-0.2-0.2v-1.5c0-0.1,0-0.1,0.1-0.2l4.9-5.8l0,0H672c-0.1,0-0.2-0.1-0.2-0.2   v-1.6c0-0.1,0.1-0.2,0.2-0.2h7c0.1,0,0.2,0.1,0.2,0.2v1.6c0,0.1,0,0.1-0.1,0.2l-4.9,5.7l0,0h4.7c0.1,0,0.2,0.1,0.2,0.2v1.6   C679.2,887.1,679.1,887.2,679,887.2z" />
	<path
   id="path1324"
   d="M689.2,887.2h-1.7c-0.1,0-0.2-0.1-0.2-0.2v-0.7l0,0c-0.5,0.8-1.4,1.1-2.7,1.1c-0.9,0-1.7-0.3-2.3-0.8   s-0.9-1.2-0.9-2.2s0.3-1.8,1-2.3s1.6-0.8,2.9-0.8h2c0.1,0,0.1,0,0.1-0.1v-0.5c0-0.6-0.2-1-0.5-1.2c-0.3-0.3-0.9-0.4-1.7-0.4   c-0.9,0-1.6,0.2-2.2,0.7c-0.1,0.1-0.2,0.1-0.3,0l-0.7-1.3c-0.1-0.1-0.1-0.2,0-0.3c0.9-0.6,2-0.9,3.4-0.9c1.5,0,2.5,0.3,3.1,0.8   s0.9,1.4,0.9,2.6v6.3C689.4,887.1,689.3,887.2,689.2,887.2z M685.1,885.6c1.4,0,2.2-0.5,2.2-1.6v-0.7c0-0.1,0-0.1-0.1-0.1h-1.6   c-1.4,0-2.1,0.4-2.1,1.3C683.4,885.2,684,885.6,685.1,885.6z" />
	<path
   id="path1326"
   d="M696,887.3h-1c-1,0-1.6-0.2-2.1-0.7c-0.4-0.5-0.6-1.2-0.6-2.1v-5.1c0-0.1,0-0.1-0.1-0.1h-0.6   c-0.1,0-0.2-0.1-0.2-0.2v-1.3c0-0.1,0.1-0.2,0.2-0.2h0.6c0.1,0,0.1,0,0.1-0.1v-2.7c0-0.1,0.1-0.2,0.2-0.2h1.8   c0.1,0,0.2,0.1,0.2,0.2v2.7c0,0.1,0,0.1,0.1,0.1h1.3c0.1,0,0.2,0.1,0.2,0.2v1.3c0,0.1-0.1,0.2-0.2,0.2h-1.3c-0.1,0-0.1,0-0.1,0.1v5   c0,0.3,0.1,0.6,0.2,0.7c0.1,0.1,0.4,0.2,0.7,0.2h0.5c0.1,0,0.2,0.1,0.2,0.2v1.6C696.2,887.2,696.2,887.3,696,887.3z" />
	<path
   id="path1328"
   d="M700.7,875.7h-1.8c-0.1,0-0.2-0.1-0.2-0.2v-1.7c0-0.1,0.1-0.2,0.2-0.2h1.8c0.1,0,0.2,0.1,0.2,0.2v1.7   C700.9,875.6,700.9,875.7,700.7,875.7z M700.7,887.2h-1.8c-0.1,0-0.2-0.1-0.2-0.2v-9.3c0-0.1,0.1-0.2,0.2-0.2h1.8   c0.1,0,0.2,0.1,0.2,0.2v9.3C700.9,887.1,700.9,887.2,700.7,887.2z" />
	<path
   id="path1330"
   d="M707.7,887.4c-1,0-1.8-0.2-2.5-0.7s-1.2-1.1-1.5-2c-0.2-0.7-0.3-1.5-0.3-2.4s0.1-1.7,0.3-2.4   c0.3-0.8,0.8-1.5,1.5-2s1.6-0.7,2.5-0.7c1,0,1.8,0.2,2.5,0.7s1.2,1.1,1.5,2c0.2,0.7,0.3,1.5,0.3,2.4s-0.1,1.7-0.3,2.4   c-0.3,0.8-0.8,1.5-1.5,2S708.6,887.4,707.7,887.4z M707.7,885.4c0.9,0,1.5-0.4,1.8-1.3c0.1-0.4,0.2-1,0.2-1.8s-0.1-1.4-0.2-1.8   c-0.3-0.8-0.9-1.3-1.8-1.3c-0.9,0-1.5,0.4-1.8,1.3c-0.1,0.4-0.2,1-0.2,1.8s0.1,1.4,0.2,1.8C706.1,885,706.7,885.4,707.7,885.4z" />
	<path
   id="path1332"
   d="M722.3,887.2h-1.8c-0.1,0-0.2-0.1-0.2-0.2v-5.6c0-0.6-0.2-1.2-0.5-1.5s-0.8-0.6-1.4-0.6   c-0.6,0-1,0.2-1.4,0.6c-0.3,0.4-0.5,0.9-0.5,1.5v5.6c0,0.1-0.1,0.2-0.2,0.2h-1.8c-0.1,0-0.2-0.1-0.2-0.2v-9.3   c0-0.1,0.1-0.2,0.2-0.2h1.8c0.1,0,0.2,0.1,0.2,0.2v0.7l0,0c0.5-0.8,1.4-1.1,2.6-1.1c1,0,1.8,0.3,2.4,1c0.6,0.7,0.9,1.5,0.9,2.6v6.1   C722.5,887.1,722.5,887.2,722.3,887.2z" />
</g>
<circle
   id="circle913"
   class="st1"
   cx="641.5"
   cy="818.4"
   r="46.2" />
<line
   id="line915"
   class="st2"
   x1="203.2"
   y1="376.4"
   x2="203.2"
   y2="421" />
<line
   id="line917"
   class="st2"
   x1="203.2"
   y1="430.4"
   x2="203.2"
   y2="475" />
<polyline
   id="polyline919"
   class="st3"
   points="215.4,412.4 203.4,424.4 192,413 " />
<polyline
   id="polyline921"
   class="st2"
   points="64.2,417 64.2,297 152,297 " />
<line
   id="line923"
   class="st2"
   x1="64.2"
   y1="430.4"
   x2="64.2"
   y2="475" />
<polyline
   id="polyline925"
   class="st3"
   points="76.4,412.4 64.4,424.4 53,413 " />
<polyline
   id="polyline927"
   class="st2"
   points="417.4,623.2 64.4,623.2 64.4,602 " />
<line
   id="line929"
   class="st2"
   x1="430.8"
   y1="623.2"
   x2="592.5"
   y2="623.2" />
<polyline
   id="polyline931"
   class="st3"
   points="412.9,611 424.9,623 413.5,634.4 " />
<g
   id="g1352"
   class="st0">
	<path
   id="path1346"
   d="M160.6,590.5v-13.3c0-0.1,0.1-0.2,0.2-0.2h1.8c0.2,0,0.3,0.1,0.3,0.2l3.8,8.4h0.1l3.7-8.4   c0.1-0.1,0.2-0.2,0.3-0.2h1.8c0.1,0,0.2,0.1,0.2,0.2v13.3c0,0.1-0.1,0.2-0.2,0.2h-1.7c-0.1,0-0.2-0.1-0.2-0.2v-8.4h-0.1l-2.9,6.4   c-0.1,0.2-0.2,0.3-0.4,0.3h-1.2c-0.2,0-0.3-0.1-0.4-0.3l-2.9-6.4h-0.1v8.4c0,0.1-0.1,0.2-0.2,0.2h-1.7   C160.7,590.7,160.6,590.6,160.6,590.5z" />
	<path
   id="path1348"
   d="M183.2,590.7h-1.7c-0.1,0-0.2-0.1-0.2-0.2v-0.7l0,0c-0.5,0.8-1.4,1.1-2.7,1.1c-0.9,0-1.7-0.3-2.3-0.8   s-0.9-1.2-0.9-2.2s0.3-1.8,1-2.3s1.6-0.8,2.9-0.8h2c0.1,0,0.1,0,0.1-0.1v-0.5c0-0.6-0.2-1-0.5-1.2c-0.3-0.3-0.9-0.4-1.7-0.4   c-0.9,0-1.6,0.2-2.2,0.7c-0.1,0.1-0.2,0.1-0.3,0L176,582c-0.1-0.1-0.1-0.2,0-0.3c0.9-0.6,2-0.9,3.4-0.9c1.5,0,2.5,0.3,3.1,0.8   s0.9,1.4,0.9,2.6v6.3C183.5,590.6,183.4,590.7,183.2,590.7z M179.2,589.1c1.4,0,2.2-0.5,2.2-1.6v-0.7c0-0.1,0-0.1-0.1-0.1h-1.6   c-1.4,0-2.1,0.4-2.1,1.3C177.5,588.7,178.1,589.1,179.2,589.1z" />
	<path
   id="path1350"
   d="M188.4,590.7h-1.8c-0.1,0-0.2-0.1-0.2-0.2v-9.3c0-0.1,0.1-0.2,0.2-0.2h1.8c0.1,0,0.2,0.1,0.2,0.2v0.8l0,0   c0.5-0.8,1.4-1.2,2.5-1.2c0.8,0,1.5,0.3,2,0.8c0.1,0.1,0.1,0.2,0,0.3l-1.1,1.3c-0.1,0.1-0.2,0.1-0.3,0c-0.5-0.3-1-0.5-1.4-0.5   c-1.2,0-1.8,0.8-1.8,2.5v5.2C188.6,590.6,188.5,590.7,188.4,590.7z" />
</g>
<g
   id="g1356"
   class="st0">
	<path
   id="path1354"
   d="M203.2,590.7h-2.1c-0.1,0-0.2-0.1-0.3-0.2l-2.5-4.1l-1.3,1.5v2.6c0,0.1-0.1,0.2-0.2,0.2H195   c-0.1,0-0.2-0.1-0.2-0.2v-13.3c0-0.1,0.1-0.2,0.2-0.2h1.8c0.1,0,0.2,0.1,0.2,0.2v7.9l3.3-3.9c0.1-0.1,0.2-0.2,0.4-0.2h2.1   c0.1,0,0.1,0,0.1,0.1v0.1l-3.1,3.5l3.5,5.7v0.1C203.3,590.5,203.4,590.6,203.2,590.7C203.3,590.7,203.3,590.7,203.2,590.7z" />
</g>
<g
   id="g1368"
   class="st0">
	<path
   id="path1358"
   d="M208.9,590.9c-1,0-1.9-0.2-2.6-0.7s-1.2-1.1-1.5-2c-0.2-0.7-0.3-1.5-0.3-2.4s0.1-1.7,0.3-2.4   c0.3-0.8,0.8-1.5,1.5-2s1.5-0.7,2.5-0.7s1.8,0.2,2.5,0.7s1.2,1.1,1.4,2c0.2,0.7,0.3,1.6,0.3,2.9c0,0.1-0.1,0.2-0.2,0.2h-6   c-0.1,0-0.1,0-0.1,0.1c0,0.2,0,0.5,0.1,0.7c0.3,1,1.1,1.5,2.2,1.5c1,0,1.7-0.3,2.3-0.9c0.1-0.1,0.2-0.1,0.3,0l1.2,1   c0.1,0.1,0.1,0.2,0,0.3C211.9,590.4,210.6,590.9,208.9,590.9z M210.8,584.8c0-0.3,0-0.6-0.1-0.8c-0.1-0.4-0.4-0.7-0.7-0.9   s-0.7-0.3-1.2-0.3c-1,0-1.6,0.4-1.9,1.2c-0.1,0.2-0.1,0.5-0.1,0.8c0,0.1,0,0.1,0.1,0.1L210.8,584.8   C210.7,584.9,210.8,584.8,210.8,584.8z" />
	<path
   id="path1360"
   d="M219.3,590.8h-1c-1,0-1.6-0.2-2.1-0.7c-0.4-0.5-0.6-1.2-0.6-2.1v-5.1c0-0.1,0-0.1-0.1-0.1h-0.6   c-0.1,0-0.2-0.1-0.2-0.2v-1.3c0-0.1,0.1-0.2,0.2-0.2h0.6c0.1,0,0.1,0,0.1-0.1v-2.7c0-0.1,0.1-0.2,0.2-0.2h1.8   c0.1,0,0.2,0.1,0.2,0.2v2.7c0,0.1,0,0.1,0.1,0.1h1.3c0.1,0,0.2,0.1,0.2,0.2v1.3c0,0.1-0.1,0.2-0.2,0.2H218c-0.1,0-0.1,0-0.1,0.1v5   c0,0.3,0.1,0.6,0.2,0.7c0.1,0.1,0.4,0.2,0.7,0.2h0.5c0.1,0,0.2,0.1,0.2,0.2v1.6C219.5,590.7,219.4,590.8,219.3,590.8z" />
	<path
   id="path1362"
   d="M224,579.2h-1.8c-0.1,0-0.2-0.1-0.2-0.2v-1.7c0-0.1,0.1-0.2,0.2-0.2h1.8c0.1,0,0.2,0.1,0.2,0.2v1.7   C224.2,579.1,224.1,579.2,224,579.2z M224,590.7h-1.8c-0.1,0-0.2-0.1-0.2-0.2v-9.3c0-0.1,0.1-0.2,0.2-0.2h1.8   c0.1,0,0.2,0.1,0.2,0.2v9.3C224.2,590.6,224.1,590.7,224,590.7z" />
	<path
   id="path1364"
   d="M235.1,590.7h-1.8c-0.1,0-0.2-0.1-0.2-0.2v-5.6c0-0.6-0.2-1.2-0.5-1.5s-0.8-0.6-1.4-0.6   c-0.6,0-1,0.2-1.4,0.6c-0.3,0.4-0.5,0.9-0.5,1.5v5.6c0,0.1-0.1,0.2-0.2,0.2h-1.8c-0.1,0-0.2-0.1-0.2-0.2v-9.3   c0-0.1,0.1-0.2,0.2-0.2h1.8c0.1,0,0.2,0.1,0.2,0.2v0.7l0,0c0.5-0.8,1.4-1.1,2.6-1.1c1,0,1.8,0.3,2.4,1s0.9,1.5,0.9,2.6v6.1   C235.3,590.6,235.2,590.7,235.1,590.7z" />
	<path
   id="path1366"
   d="M241.4,594.5c-0.7,0-1.4-0.1-2-0.4c-0.6-0.3-1.2-0.6-1.5-1.1c-0.1-0.1-0.1-0.2,0-0.3l1.2-1.2   c0.1-0.1,0.2-0.1,0.3,0c0.6,0.6,1.3,0.9,2.1,0.9c1.4,0,2.2-0.8,2.2-2.3v-0.9l0,0c-0.5,0.8-1.3,1.1-2.5,1.1c-0.8,0-1.5-0.2-2.1-0.6   s-1-1-1.2-1.7s-0.3-1.5-0.3-2.5s0.1-1.8,0.3-2.5c0.5-1.6,1.6-2.4,3.3-2.4c1.2,0,2,0.4,2.5,1.1l0,0V581c0-0.1,0.1-0.2,0.2-0.2h1.8   c0.1,0,0.2,0.1,0.2,0.2v8.9c0,1.4-0.4,2.5-1.2,3.3S242.9,594.5,241.4,594.5z M241.8,588.4c0.9,0,1.5-0.4,1.7-1.2   c0.1-0.4,0.2-0.9,0.2-1.6c0-0.6-0.1-1.2-0.2-1.6c-0.3-0.8-0.8-1.2-1.7-1.2s-1.4,0.4-1.7,1.2c-0.1,0.4-0.2,1-0.2,1.6   c0,0.7,0.1,1.2,0.2,1.6C240.3,588,240.9,588.4,241.8,588.4z" />
</g>
<circle
   id="circle939"
   class="st1"
   cx="203.1"
   cy="522"
   r="46.2" />
<g
   id="g1373"
   class="st0">
	<path
   id="path1371"
   d="M178.4,885.6h-2.2c-0.1,0-0.2-0.1-0.3-0.2l-2.6-5.3h-2.4c-0.1,0-0.1,0-0.1,0.1v5.2c0,0.1-0.1,0.2-0.2,0.2h-2   c-0.1,0-0.2-0.1-0.2-0.2v-13.3c0-0.1,0.1-0.2,0.2-0.2h5.3c1.3,0,2.3,0.4,3.1,1.1c0.8,0.8,1.2,1.7,1.2,2.9c0,0.9-0.2,1.7-0.7,2.3   c-0.5,0.7-1.1,1.1-1.9,1.4l2.9,5.6c0,0.1,0,0.1,0,0.2C178.6,885.6,178.5,885.6,178.4,885.6z M173.9,877.9c0.6,0,1.1-0.2,1.5-0.5   c0.4-0.4,0.6-0.8,0.6-1.4c0-0.6-0.2-1.1-0.6-1.4c-0.4-0.4-0.9-0.5-1.5-0.5H171c-0.1,0-0.1,0-0.1,0.1v3.6c0,0.1,0,0.1,0.1,0.1   L173.9,877.9L173.9,877.9z" />
</g>
<g
   id="g1377"
   class="st0">
	<path
   id="path1375"
   d="M184.4,885.8c-1,0-1.9-0.2-2.6-0.7s-1.2-1.1-1.5-2c-0.2-0.7-0.3-1.5-0.3-2.4s0.1-1.7,0.3-2.4   c0.3-0.8,0.8-1.5,1.5-2s1.5-0.7,2.5-0.7s1.8,0.2,2.5,0.7s1.2,1.1,1.4,2c0.2,0.7,0.3,1.6,0.3,2.9c0,0.1-0.1,0.2-0.2,0.2h-6   c-0.1,0-0.1,0-0.1,0.1c0,0.2,0,0.5,0.1,0.7c0.3,1,1.1,1.5,2.2,1.5c1,0,1.7-0.3,2.3-0.9c0.1-0.1,0.2-0.1,0.3,0l1.2,1   c0.1,0.1,0.1,0.2,0,0.3C187.5,885.3,186.2,885.8,184.4,885.8z M186.4,879.7c0-0.3,0-0.6-0.1-0.8c-0.1-0.4-0.4-0.7-0.7-0.9   s-0.7-0.3-1.2-0.3c-1,0-1.6,0.4-1.9,1.2c-0.1,0.2-0.1,0.5-0.1,0.8c0,0.1,0,0.1,0.1,0.1L186.4,879.7L186.4,879.7z" />
</g>
<g
   id="g1381"
   class="st0">
	<path
   id="path1379"
   d="M195.3,885.6h-1.6c-0.1,0-0.2-0.1-0.3-0.2l-3.4-9.3c0-0.1,0-0.2,0.2-0.2h2c0.1,0,0.2,0.1,0.2,0.2l2.1,6.3   l0,0l2.1-6.3c0-0.1,0.1-0.2,0.2-0.2h1.9c0.1,0,0.2,0.1,0.2,0.2l-3.4,9.3C195.5,885.5,195.4,885.6,195.3,885.6z" />
</g>
<g
   id="g1391"
   class="st0">
	<path
   id="path1383"
   d="M204.6,885.8c-1,0-1.9-0.2-2.6-0.7s-1.2-1.1-1.5-2c-0.2-0.7-0.3-1.5-0.3-2.4s0.1-1.7,0.3-2.4   c0.3-0.8,0.8-1.5,1.5-2s1.5-0.7,2.5-0.7s1.8,0.2,2.5,0.7s1.2,1.1,1.4,2c0.2,0.7,0.3,1.6,0.3,2.9c0,0.1-0.1,0.2-0.2,0.2h-6   c-0.1,0-0.1,0-0.1,0.1c0,0.2,0,0.5,0.1,0.7c0.3,1,1.1,1.5,2.2,1.5c1,0,1.7-0.3,2.3-0.9c0.1-0.1,0.2-0.1,0.3,0l1.2,1   c0.1,0.1,0.1,0.2,0,0.3C207.6,885.3,206.3,885.8,204.6,885.8z M206.5,879.7c0-0.3,0-0.6-0.1-0.8c-0.1-0.4-0.4-0.7-0.7-0.9   s-0.7-0.3-1.2-0.3c-1,0-1.6,0.4-1.9,1.2c-0.1,0.2-0.1,0.5-0.1,0.8c0,0.1,0,0.1,0.1,0.1L206.5,879.7   C206.5,879.8,206.5,879.7,206.5,879.7z" />
	<path
   id="path1385"
   d="M219.2,885.6h-1.8c-0.1,0-0.2-0.1-0.2-0.2v-5.6c0-0.6-0.2-1.2-0.5-1.5s-0.8-0.6-1.4-0.6   c-0.6,0-1,0.2-1.4,0.6c-0.3,0.4-0.5,0.9-0.5,1.5v5.6c0,0.1-0.1,0.2-0.2,0.2h-1.8c-0.1,0-0.2-0.1-0.2-0.2v-9.3   c0-0.1,0.1-0.2,0.2-0.2h1.8c0.1,0,0.2,0.1,0.2,0.2v0.7l0,0c0.5-0.8,1.4-1.1,2.6-1.1c1,0,1.8,0.3,2.4,1s0.9,1.5,0.9,2.6v6.1   C219.4,885.5,219.3,885.6,219.2,885.6z" />
	<path
   id="path1387"
   d="M230,885.6h-1.8c-0.1,0-0.2-0.1-0.2-0.2v-0.7l0,0c-0.6,0.8-1.4,1.1-2.5,1.1c-1,0-1.8-0.3-2.4-1   c-0.6-0.7-0.9-1.5-0.9-2.6v-6.1c0-0.1,0.1-0.2,0.2-0.2h1.8c0.1,0,0.2,0.1,0.2,0.2v5.6c0,0.6,0.2,1.2,0.5,1.5s0.8,0.6,1.3,0.6   c0.6,0,1-0.2,1.3-0.6c0.3-0.4,0.5-0.9,0.5-1.5v-5.6c0-0.1,0.1-0.2,0.2-0.2h1.8c0.1,0,0.2,0.1,0.2,0.2v9.3   C230.2,885.5,230.1,885.6,230,885.6z" />
	<path
   id="path1389"
   d="M237,885.8c-1,0-1.9-0.2-2.6-0.7s-1.2-1.1-1.5-2c-0.2-0.7-0.3-1.5-0.3-2.4s0.1-1.7,0.3-2.4   c0.3-0.8,0.8-1.5,1.5-2s1.5-0.7,2.5-0.7s1.8,0.2,2.5,0.7s1.2,1.1,1.4,2c0.2,0.7,0.3,1.6,0.3,2.9c0,0.1-0.1,0.2-0.2,0.2h-6   c-0.1,0-0.1,0-0.1,0.1c0,0.2,0,0.5,0.1,0.7c0.3,1,1.1,1.5,2.2,1.5c1,0,1.7-0.3,2.3-0.9c0.1-0.1,0.2-0.1,0.3,0l1.2,1   c0.1,0.1,0.1,0.2,0,0.3C240,885.3,238.7,885.8,237,885.8z M238.9,879.7c0-0.3,0-0.6-0.1-0.8c-0.1-0.4-0.4-0.7-0.7-0.9   s-0.7-0.3-1.2-0.3c-1,0-1.6,0.4-1.9,1.2c-0.1,0.2-0.1,0.5-0.1,0.8c0,0.1,0,0.1,0.1,0.1L238.9,879.7   C238.9,879.8,238.9,879.7,238.9,879.7z" />
</g>
<circle
   id="circle951"
   class="st1"
   cx="204.3"
   cy="816.8"
   r="46.2" />
<line
   id="line953"
   class="st2"
   x1="256.1"
   y1="817.8"
   x2="421.3"
   y2="817.8" />
<line
   id="line955"
   class="st2"
   x1="429.5"
   y1="817.8"
   x2="594.7"
   y2="817.8" />
<polyline
   id="polyline957"
   class="st3"
   points="434.5,829 422.5,817 433.9,805.6 " />
<path
   id="path959"
   class="st1"
   d="M619.8,613.3c1.8-1,3.6-2.1,5.3-3.3c2.3-1.7,3.5-5,1.8-5.4c-2.4-0.6-3.1,7.5-0.8,8.6  c2.8,1.3,9.9-7.2,9.9-7.2l-2.3,7.4c2.2-1.6,4.8-2.5,7.5-2.5" />
<path
   id="path961"
   class="st1"
   d="M663.5,563c3.4,0.5-2.3,11.9-8.3,25.1s-13.4,21.9-13.6,22.6c-0.5,1.5,2.3-11.9,8.3-25.1  S660.5,562.6,663.5,563z" />
<line
   id="line963"
   class="st1"
   x1="653.2"
   y1="578.5"
   x2="658.3"
   y2="580.9" />
<polygon
   id="polygon965"
   class="st4"
   points="628,284.4 619.8,284.4 619.8,276.2 627.4,276.2 626.1,277.4 621.1,277.4 621.1,283.1   626.7,283.1 626.7,282.2 628,280.9 " />
<rect
   id="rect967"
   x="620.4"
   y="288.3"
   class="st1"
   width="6.9"
   height="6.9" />
<rect
   id="rect969"
   x="620.4"
   y="299.9"
   class="st1"
   width="6.9"
   height="6.9" />
<rect
   id="rect971"
   x="620.4"
   y="311.4"
   class="st1"
   width="6.9"
   height="6.9" />
<line
   id="line973"
   class="st1"
   x1="634.3"
   y1="280.3"
   x2="663.2"
   y2="280.3" />
<line
   id="line975"
   class="st1"
   x1="634.3"
   y1="291.8"
   x2="663.2"
   y2="291.8" />
<line
   id="line977"
   class="st1"
   x1="634.3"
   y1="303.4"
   x2="663.2"
   y2="303.4" />
<line
   id="line979"
   class="st1"
   x1="634.3"
   y1="314.9"
   x2="663.2"
   y2="314.9" />
<polyline
   id="polyline981"
   class="st1"
   points="622.3,278.7 624.8,281.2 630.5,275.6 " />
<g
   id="g1427"
   class="st0">
	<path
   id="path1409"
   d="M601.1,658v-13.3c0-0.1,0.1-0.2,0.2-0.2h2c0.1,0,0.2,0.1,0.2,0.2v11.2c0,0.1,0,0.1,0.1,0.1h6.3   c0.1,0,0.2,0.1,0.2,0.2v1.7c0,0.1-0.1,0.2-0.2,0.2h-8.6C601.2,658.2,601.1,658.1,601.1,658z" />
	<path
   id="path1411"
   d="M614.1,646.7h-1.8c-0.1,0-0.2-0.1-0.2-0.2v-1.7c0-0.1,0.1-0.2,0.2-0.2h1.8c0.1,0,0.2,0.1,0.2,0.2v1.7   C614.3,646.6,614.2,646.7,614.1,646.7z M614.1,658.2h-1.8c-0.1,0-0.2-0.1-0.2-0.2v-9.3c0-0.1,0.1-0.2,0.2-0.2h1.8   c0.1,0,0.2,0.1,0.2,0.2v9.3C614.3,658.1,614.2,658.2,614.1,658.2z" />
	<path
   id="path1413"
   d="M621,658.4c-1,0-1.8-0.2-2.5-0.7s-1.2-1.1-1.5-2c-0.2-0.6-0.3-1.4-0.3-2.4s0.1-1.8,0.3-2.4   c0.3-0.9,0.8-1.5,1.5-2s1.5-0.7,2.5-0.7c1.4,0,2.5,0.5,3.4,1.5c0.1,0.1,0.1,0.2,0,0.3l-1.3,1.1c-0.1,0.1-0.2,0.1-0.3,0   c-0.5-0.6-1.1-0.8-1.8-0.8c-0.9,0-1.5,0.4-1.8,1.3c-0.1,0.4-0.2,1-0.2,1.8s0.1,1.4,0.2,1.8c0.3,0.8,0.9,1.2,1.8,1.2   c0.7,0,1.3-0.3,1.8-0.8c0.1-0.1,0.2-0.1,0.3,0l1.3,1.1c0.1,0.1,0.1,0.2,0,0.3C623.5,657.9,622.4,658.4,621,658.4z" />
	<path
   id="path1415"
   d="M630.6,658.4c-1,0-1.9-0.2-2.6-0.7c-0.7-0.5-1.2-1.1-1.5-2c-0.2-0.7-0.3-1.5-0.3-2.4s0.1-1.7,0.3-2.4   c0.3-0.8,0.8-1.5,1.5-2s1.5-0.7,2.5-0.7s1.8,0.2,2.5,0.7s1.2,1.1,1.4,2c0.2,0.7,0.3,1.6,0.3,2.9c0,0.1-0.1,0.2-0.2,0.2h-6   c-0.1,0-0.1,0-0.1,0.1c0,0.2,0,0.5,0.1,0.7c0.3,1,1.1,1.5,2.2,1.5c1,0,1.7-0.3,2.3-0.9c0.1-0.1,0.2-0.1,0.3,0l1.2,1   c0.1,0.1,0.1,0.2,0,0.3C633.7,657.9,632.3,658.4,630.6,658.4z M632.6,652.2c0-0.3,0-0.6-0.1-0.8c-0.1-0.4-0.4-0.7-0.7-0.9   s-0.7-0.3-1.2-0.3c-1,0-1.6,0.4-1.9,1.2c-0.1,0.2-0.1,0.5-0.1,0.8c0,0.1,0,0.1,0.1,0.1h3.8C632.5,652.4,632.6,652.3,632.6,652.2z" />
	<path
   id="path1417"
   d="M645.2,658.2h-1.8c-0.1,0-0.2-0.1-0.2-0.2v-5.6c0-0.6-0.2-1.2-0.5-1.5c-0.3-0.4-0.8-0.6-1.4-0.6   c-0.6,0-1,0.2-1.4,0.6s-0.5,0.9-0.5,1.5v5.6c0,0.1-0.1,0.2-0.2,0.2h-1.8c-0.1,0-0.2-0.1-0.2-0.2v-9.3c0-0.1,0.1-0.2,0.2-0.2h1.8   c0.1,0,0.2,0.1,0.2,0.2v0.7l0,0c0.5-0.8,1.4-1.1,2.6-1.1c1,0,1.8,0.3,2.4,1c0.6,0.7,0.9,1.5,0.9,2.6v6.1   C645.4,658.1,645.4,658.2,645.2,658.2z" />
	<path
   id="path1419"
   d="M651.8,658.4c-1.7,0-3.1-0.5-4.2-1.5c-0.1-0.1-0.1-0.2,0-0.3l1.1-1.2c0.1-0.1,0.2-0.1,0.3,0   c0.4,0.3,0.8,0.6,1.3,0.8s1,0.3,1.5,0.3c0.6,0,1-0.1,1.3-0.3s0.5-0.5,0.5-0.8s-0.1-0.5-0.4-0.7s-0.7-0.3-1.3-0.3l-1-0.1   c-2-0.2-3-1.2-3-2.9c0-1,0.3-1.7,1-2.2s1.6-0.8,2.8-0.8c1.4,0,2.6,0.4,3.6,1.2c0.1,0.1,0.1,0.2,0,0.3l-1,1.2   c-0.1,0.1-0.2,0.1-0.3,0c-0.8-0.5-1.6-0.8-2.5-0.8c-0.5,0-0.8,0.1-1.1,0.3s-0.4,0.4-0.4,0.7s0.1,0.5,0.4,0.7   c0.2,0.2,0.6,0.3,1.2,0.3l1,0.1c1,0.1,1.7,0.4,2.2,0.9s0.8,1.1,0.8,1.9c0,1-0.4,1.8-1.1,2.4C654.1,658.1,653.1,658.4,651.8,658.4z" />
	<path
   id="path1421"
   d="M660.3,646.7h-1.8c-0.1,0-0.2-0.1-0.2-0.2v-1.7c0-0.1,0.1-0.2,0.2-0.2h1.8c0.1,0,0.2,0.1,0.2,0.2v1.7   C660.5,646.6,660.5,646.7,660.3,646.7z M660.3,658.2h-1.8c-0.1,0-0.2-0.1-0.2-0.2v-9.3c0-0.1,0.1-0.2,0.2-0.2h1.8   c0.1,0,0.2,0.1,0.2,0.2v9.3C660.5,658.1,660.5,658.2,660.3,658.2z" />
	<path
   id="path1423"
   d="M671.4,658.2h-1.8c-0.1,0-0.2-0.1-0.2-0.2v-5.6c0-0.6-0.2-1.2-0.5-1.5c-0.3-0.4-0.8-0.6-1.4-0.6   c-0.6,0-1,0.2-1.4,0.6c-0.3,0.4-0.5,0.9-0.5,1.5v5.6c0,0.1-0.1,0.2-0.2,0.2h-1.8c-0.1,0-0.2-0.1-0.2-0.2v-9.3   c0-0.1,0.1-0.2,0.2-0.2h1.8c0.1,0,0.2,0.1,0.2,0.2v0.7l0,0c0.5-0.8,1.4-1.1,2.6-1.1c1,0,1.8,0.3,2.4,1c0.6,0.7,0.9,1.5,0.9,2.6v6.1   C671.6,658.1,671.6,658.2,671.4,658.2z" />
	<path
   id="path1425"
   d="M677.8,662c-0.7,0-1.3-0.1-2-0.4c-0.6-0.3-1.2-0.6-1.5-1.1c-0.1-0.1-0.1-0.2,0-0.3l1.2-1.2   c0.1-0.1,0.2-0.1,0.3,0c0.6,0.6,1.3,0.9,2.1,0.9c1.4,0,2.2-0.8,2.2-2.3v-0.9l0,0c-0.5,0.8-1.3,1.1-2.5,1.1c-0.8,0-1.5-0.2-2.1-0.6   c-0.6-0.4-1-1-1.2-1.7S674,654,674,653s0.1-1.8,0.3-2.5c0.5-1.6,1.6-2.4,3.3-2.4c1.2,0,2,0.4,2.5,1.1l0,0v-0.7   c0-0.1,0.1-0.2,0.2-0.2h1.8c0.1,0,0.2,0.1,0.2,0.2v8.9c0,1.4-0.4,2.5-1.2,3.3S679.3,662,677.8,662z M678.1,655.9   c0.9,0,1.5-0.4,1.7-1.2c0.1-0.4,0.2-0.9,0.2-1.6c0-0.6-0.1-1.2-0.2-1.6c-0.3-0.8-0.8-1.2-1.7-1.2s-1.4,0.4-1.7,1.2   c-0.1,0.4-0.2,1-0.2,1.6c0,0.7,0.1,1.2,0.2,1.6C676.7,655.5,677.2,655.9,678.1,655.9z" />
</g>
<circle
   id="circle985"
   class="st1"
   cx="641.5"
   cy="589.5"
   r="46.2" />
<line
   id="line987"
   class="st2"
   x1="256.1"
   y1="550.4"
   x2="421.3"
   y2="550.4" />
<line
   id="line989"
   class="st2"
   x1="429.5"
   y1="550.4"
   x2="594.7"
   y2="550.4" />
<polyline
   id="polyline991"
   class="st3"
   points="411.8,538.2 423.8,550.2 412.4,561.6 " />
<g
   id="g1447"
   class="st0">
	<path
   id="path1433"
   d="M37.7,588.4c-1,0-1.9-0.2-2.8-0.5c-0.9-0.3-1.6-0.8-2.2-1.3c-0.1-0.1-0.1-0.2,0-0.3l1.2-1.4   c0.1-0.1,0.2-0.1,0.3,0c1.2,1,2.5,1.4,3.7,1.4c0.8,0,1.4-0.2,1.9-0.5c0.5-0.4,0.7-0.8,0.7-1.4c0-0.5-0.2-0.9-0.6-1.2   c-0.4-0.3-1-0.5-1.9-0.6l-0.7-0.1c-2.7-0.4-4.1-1.7-4.1-3.9c0-1.2,0.4-2.2,1.3-3c0.8-0.8,2-1.1,3.4-1.1c1.7,0,3.2,0.5,4.4,1.4   c0.1,0.1,0.1,0.2,0,0.3l-1,1.5c-0.1,0.1-0.2,0.1-0.3,0.1c-1.1-0.7-2.2-1.1-3.3-1.1c-0.7,0-1.2,0.2-1.6,0.5s-0.6,0.8-0.6,1.3   c0,1,0.8,1.6,2.5,1.8l0.7,0.1c2.7,0.4,4.1,1.7,4.1,4c0,1.3-0.4,2.3-1.3,3.1C40.6,588,39.4,588.4,37.7,588.4z" />
	<path
   id="path1435"
   d="M49,588.3h-1c-1,0-1.6-0.2-2.1-0.7c-0.4-0.5-0.6-1.2-0.6-2.1v-5.1c0-0.1,0-0.1-0.1-0.1h-0.6   c-0.1,0-0.2-0.1-0.2-0.2v-1.3c0-0.1,0.1-0.2,0.2-0.2h0.6c0.1,0,0.1,0,0.1-0.1v-2.7c0-0.1,0.1-0.2,0.2-0.2h1.8   c0.1,0,0.2,0.1,0.2,0.2v2.7c0,0.1,0,0.1,0.1,0.1H49c0.1,0,0.2,0.1,0.2,0.2v1.3c0,0.1-0.1,0.2-0.2,0.2h-1.3c-0.1,0-0.1,0-0.1,0.1v5   c0,0.3,0.1,0.6,0.2,0.7c0.1,0.1,0.4,0.2,0.7,0.2H49c0.1,0,0.2,0.1,0.2,0.2v1.6C49.2,588.2,49.1,588.3,49,588.3z" />
	<path
   id="path1437"
   d="M59.1,588.2h-1.7c-0.1,0-0.2-0.1-0.2-0.2v-0.7l0,0c-0.5,0.8-1.4,1.1-2.7,1.1c-0.9,0-1.7-0.3-2.3-0.8   s-0.9-1.2-0.9-2.2s0.3-1.8,1-2.3s1.6-0.8,2.9-0.8h2c0.1,0,0.1,0,0.1-0.1v-0.5c0-0.6-0.2-1-0.5-1.2c-0.3-0.3-0.9-0.4-1.7-0.4   c-0.9,0-1.6,0.2-2.2,0.7c-0.1,0.1-0.2,0.1-0.3,0l-0.7-1.3c-0.1-0.1-0.1-0.2,0-0.3c0.9-0.6,2-0.9,3.4-0.9c1.5,0,2.5,0.3,3.1,0.8   s0.9,1.4,0.9,2.6v6.3C59.3,588.1,59.2,588.2,59.1,588.2z M55,586.6c1.4,0,2.2-0.5,2.2-1.6v-0.7c0-0.1,0-0.1-0.1-0.1h-1.6   c-1.4,0-2.1,0.4-2.1,1.3C53.3,586.2,53.9,586.6,55,586.6z" />
	<path
   id="path1439"
   d="M64.2,588.2h-1.8c-0.1,0-0.2-0.1-0.2-0.2v-9.3c0-0.1,0.1-0.2,0.2-0.2h1.8c0.1,0,0.2,0.1,0.2,0.2v0.8l0,0   c0.5-0.8,1.4-1.2,2.5-1.2c0.8,0,1.5,0.3,2,0.8c0.1,0.1,0.1,0.2,0,0.3l-1.1,1.3c-0.1,0.1-0.2,0.1-0.3,0c-0.5-0.3-1-0.5-1.4-0.5   c-1.2,0-1.8,0.8-1.8,2.5v5.2C64.4,588.1,64.3,588.2,64.2,588.2z" />
	<path
   id="path1441"
   d="M74.4,588.3h-1c-1,0-1.6-0.2-2.1-0.7c-0.4-0.5-0.6-1.2-0.6-2.1v-5.1c0-0.1,0-0.1-0.1-0.1H70   c-0.1,0-0.2-0.1-0.2-0.2v-1.3c0-0.1,0.1-0.2,0.2-0.2h0.6c0.1,0,0.1,0,0.1-0.1v-2.7c0-0.1,0.1-0.2,0.2-0.2h1.8   c0.1,0,0.2,0.1,0.2,0.2v2.7c0,0.1,0,0.1,0.1,0.1h1.3c0.1,0,0.2,0.1,0.2,0.2v1.3c0,0.1-0.1,0.2-0.2,0.2H73c-0.1,0-0.1,0-0.1,0.1v5   c0,0.3,0.1,0.6,0.2,0.7c0.1,0.1,0.4,0.2,0.7,0.2h0.5c0.1,0,0.2,0.1,0.2,0.2v1.6C74.6,588.2,74.6,588.3,74.4,588.3z" />
	<path
   id="path1443"
   d="M84.9,588.2H83c-0.1,0-0.2-0.1-0.2-0.2v-0.7l0,0c-0.6,0.8-1.4,1.1-2.5,1.1c-1,0-1.8-0.3-2.4-1   s-0.9-1.5-0.9-2.6v-6.1c0-0.1,0.1-0.2,0.2-0.2H79c0.1,0,0.2,0.1,0.2,0.2v5.6c0,0.6,0.2,1.2,0.5,1.5s0.8,0.6,1.3,0.6   c0.6,0,1-0.2,1.3-0.6c0.3-0.4,0.5-0.9,0.5-1.5v-5.6c0-0.1,0.1-0.2,0.2-0.2h1.8c0.1,0,0.2,0.1,0.2,0.2v9.3   C85.1,588.1,85,588.2,84.9,588.2z" />
	<path
   id="path1445"
   d="M90.1,591.8h-1.8c-0.1,0-0.2-0.1-0.2-0.2v-12.9c0-0.1,0.1-0.2,0.2-0.2h1.8c0.1,0,0.2,0.1,0.2,0.2v0.7l0,0   c0.5-0.8,1.4-1.1,2.6-1.1c1.7,0,2.8,0.8,3.4,2.3c0.2,0.7,0.3,1.6,0.3,2.7c0,1.1-0.1,2-0.3,2.7c-0.5,1.6-1.6,2.3-3.4,2.3   c-1.2,0-2-0.4-2.6-1.1l0,0v4.3C90.3,591.7,90.2,591.8,90.1,591.8z M92.3,586.4c0.9,0,1.5-0.4,1.8-1.2c0.1-0.4,0.2-1,0.2-1.8   s-0.1-1.4-0.2-1.8c-0.3-0.8-0.9-1.2-1.8-1.2s-1.5,0.4-1.8,1.2c-0.1,0.4-0.2,1-0.2,1.8s0.1,1.4,0.2,1.8   C90.7,586,91.3,586.4,92.3,586.4z" />
</g>
<ellipse
   id="circle995"
   transform="matrix(6.652054e-02 -0.9978 0.9978 6.652054e-02 -458.1653 549.2786)"
   class="st5"
   cx="64.5"
   cy="519.5"
   rx="46.2"
   ry="46.2" />
<line
   id="line997"
   class="st1"
   x1="650.5"
   y1="803"
   x2="657.9"
   y2="808.1" />
<circle
   id="circle999"
   class="st1"
   cx="649.7"
   cy="812.1"
   r="3.5" />
<line
   id="line1001"
   class="st1"
   x1="643.3"
   y1="821.3"
   x2="634.4"
   y2="834.3" />
<path
   id="path1003"
   class="st1"
   d="M640.2,811.8c-5,7.2-7.9,17.8-7.9,17.8l7.2,5c0,0,8.8-6.5,13.8-13.8c6.3-9.1,4.9-21,4.9-21  S646.5,802.7,640.2,811.8z" />
<path
   id="path1005"
   class="st1"
   d="M637,817.5l-6.7,1.2l-5.9,8.6c2.6-2.3,6.2-3.3,9.6-2.6" />
<path
   id="path1007"
   class="st1"
   d="M643.5,831.3c1.8,3,2.2,6.6,1,9.9l5.9-8.6l-1.2-6.7" />
<line
   id="line1009"
   class="st1"
   x1="631.5"
   y1="832.3"
   x2="627.1"
   y2="838.8" />
<line
   id="line1011"
   class="st1"
   x1="630.9"
   y1="839.3"
   x2="626.5"
   y2="845.8" />
<line
   id="line1013"
   class="st1"
   x1="635.8"
   y1="838.4"
   x2="632.8"
   y2="842.7" />
<path
   id="path1015"
   class="st1"
   d="M200.7,91.9c-1.1,0-1.9-0.8-1.9-1.9v-5.2c0-1.6-0.6-3.1-1.6-4.3l-2.4-2.8l-0.1-0.1  c-4.2-5.4-3.3-13.3,2.2-17.5c5.4-4.2,13.3-3.3,17.5,2.2c3.5,4.5,3.5,10.8,0,15.3l-0.1,0.1l-2.4,2.8c-1,1.2-1.6,2.7-1.6,4.3V90  c0,1.1-0.9,1.9-1.9,1.9H200.7z" />
<path
   id="path1017"
   class="st1"
   d="M207.4,91.9c0,1.6-1.3,2.9-2.9,2.9c-1.6,0-2.9-1.3-2.9-2.9" />
<line
   id="line1019"
   class="st1"
   x1="210.2"
   y1="85.2"
   x2="198.8"
   y2="85.2" />
<line
   id="line1021"
   class="st1"
   x1="182.5"
   y1="70.8"
   x2="186.3"
   y2="70.8" />
<line
   id="line1023"
   class="st1"
   x1="222.7"
   y1="70.8"
   x2="226.5"
   y2="70.8" />
<line
   id="line1025"
   class="st1"
   x1="204.5"
   y1="48.8"
   x2="204.5"
   y2="52.6" />
<line
   id="line1027"
   class="st1"
   x1="185.4"
   y1="81.8"
   x2="188.7"
   y2="79.9" />
<line
   id="line1029"
   class="st1"
   x1="220.3"
   y1="61.7"
   x2="223.6"
   y2="59.8" />
<line
   id="line1031"
   class="st1"
   x1="193.5"
   y1="51.7"
   x2="195.4"
   y2="55" />
<line
   id="line1033"
   class="st1"
   x1="213.6"
   y1="55"
   x2="215.5"
   y2="51.7" />
<line
   id="line1035"
   class="st1"
   x1="185.4"
   y1="59.8"
   x2="188.7"
   y2="61.7" />
<line
   id="line1037"
   class="st1"
   x1="220.3"
   y1="79.9"
   x2="223.6"
   y2="81.8" />
<path
   id="path1039"
   class="st1"
   d="M186,303.1h4.5c0.6,0,1.3-0.3,1.6-0.9s0.3-1.3-0.1-1.8c-0.5-0.6-0.7-1.5-0.6-2.2  c0.2-1,1-1.9,2-2.1c1.5-0.3,2.9,0.6,3.2,2.1c0,0.2,0.1,0.4,0.1,0.6c0,0.6-0.2,1.2-0.6,1.8c-0.4,0.5-0.4,1.2-0.1,1.8  c0.3,0.6,0.9,0.9,1.6,0.9h4.5" />
<path
   id="path1041"
   class="st1"
   d="M202.1,303.1v4.5c0,0.6-0.3,1.3-0.9,1.6c-0.6,0.3-1.3,0.3-1.8-0.1c-0.6-0.5-1.5-0.7-2.2-0.6  c-1.1,0.2-1.9,1-2.1,2.1c-0.3,1.5,0.6,2.9,2,3.2c0.2,0,0.4,0.1,0.6,0.1c0.6,0,1.2-0.2,1.8-0.6c0.6-0.3,1.2-0.4,1.8-0.1  s0.9,0.9,0.9,1.6v4.5" />
<path
   id="path1043"
   class="st1"
   d="M206.6,303.1c0.7,0,1.3,0.3,1.6,0.9s0.3,1.3-0.1,1.8c-0.5,0.6-0.7,1.4-0.6,2.2  c0.2,1.1,1,1.9,2.1,2.1c1.5,0.3,2.9-0.6,3.2-2c0-0.2,0.1-0.4,0.1-0.6c0-0.6-0.2-1.2-0.6-1.8c-0.3-0.6-0.4-1.2-0.1-1.8  c0.3-0.6,0.9-0.9,1.6-0.9h4.5v14.3c0,1-0.8,1.8-1.8,1.8l0,0h-28.7c-1,0-1.8-0.8-1.8-1.8l0,0v-28.7c0-1,0.8-1.8,1.8-1.8l0,0h14.3v4.5  c0,1,0.7,1.8,1.7,1.8c0.4,0,0.7-0.1,1-0.3c0.6-0.5,1.5-0.7,2.2-0.6c1.1,0.2,1.9,1,2.1,2.1c0.3,1.5-0.6,2.9-2.1,3.2  c-0.2,0-0.4,0.1-0.6,0.1c-0.6,0-1.2-0.2-1.8-0.6c-0.8-0.5-1.9-0.3-2.4,0.5c-0.2,0.3-0.3,0.6-0.3,1v4.5L206.6,303.1z" />
<path
   id="path1045"
   class="st1"
   d="M229,292.4h-4.5c-0.6,0-1.3,0.3-1.6,0.9s-0.3,1.3,0.1,1.8c0.4,0.5,0.6,1.1,0.6,1.8  c0,1.5-1.2,2.7-2.7,2.7c-0.2,0-0.4,0-0.6-0.1c-1-0.2-1.9-1.1-2.1-2.1c-0.1-0.8,0.1-1.6,0.6-2.2c0.4-0.5,0.4-1.2,0.1-1.8  c-0.3-0.6-0.9-0.9-1.6-0.9h-4.5V288c0-0.6,0.3-1.3,0.9-1.6c0.6-0.3,1.3-0.3,1.8,0.1s1.1,0.6,1.8,0.6c1.5,0,2.7-1.2,2.7-2.7  c0-0.2,0-0.4-0.1-0.6c-0.2-1-1.1-1.9-2.1-2.1c-0.8-0.1-1.6,0.1-2.2,0.6c-0.5,0.4-1.2,0.4-1.8,0.1s-0.9-0.9-0.9-1.6v-4.5h14.3  c1,0,1.8,0.8,1.8,1.8l0,0V292.4z" />
<path
   id="rect1047"
   class="st1"
   d="M621.5,53.3h42c1.1,0,2,0.9,2,2v29.6c0,1.1-0.9,2-2,2h-42c-1.1,0-2-0.9-2-2V55.3  C619.5,54.2,620.3,53.3,621.5,53.3z" />
<line
   id="line1049"
   class="st1"
   x1="619.5"
   y1="83.4"
   x2="665.5"
   y2="83.4" />
<line
   id="line1051"
   class="st1"
   x1="632.7"
   y1="92.2"
   x2="652.2"
   y2="92.2" />
<line
   id="line1053"
   class="st1"
   x1="639.8"
   y1="92.2"
   x2="639.8"
   y2="86.9" />
<line
   id="line1055"
   class="st1"
   x1="645.1"
   y1="92.2"
   x2="645.1"
   y2="86.9" />
<path
   id="path1057"
   class="st1"
   d="M78.4,509c-4.3,0.8-18.6,10.6-18.6,23.2" />
<path
   id="path1059"
   class="st1"
   d="M64.4,519.5c-2.1-2.5-2.3-7.2,1.2-10.5c4.3-4.1,15.7-5.6,20.9-5.8c0,6.6-2,19.8-18.6,19.8" />
<path
   id="path1061"
   class="st1"
   d="M58.6,518.2c-1.1-9.5-11.6-10.4-15.1-10.4c0,5.1,0.9,16.3,14.1,16.3c-0.7-4.5-5-7.2-7.9-9.8" />
<polyline
   id="polyline1063"
   class="st1"
   points="43.5,540.4 45.8,536.9 50.5,535.7 56.3,535.7 59.8,532.2 62.1,534.6 64.4,534.6   66.7,535.7 69.1,535.7 71.4,538 73.7,538 76,539.2 " />
<path
   id="path1065"
   class="st1"
   d="M190.7,514.2h2.8l0,0v13.2l0,0h-2.8c-3.6,0-6.6-2.9-6.6-6.6l0,0l0,0  C184.1,517.1,187,514.2,190.7,514.2z" />
<path
   id="path1067"
   class="st1"
   d="M219.6,515.4v10.7c3,0,5.4-2.4,5.4-5.3C225,517.8,222.6,515.4,219.6,515.4L219.6,515.4z" />
<path
   id="path1069"
   class="st1"
   d="M193.5,514.2v13.2c0,0,18.5,1.6,26.1,7.9v-29C212,512.6,193.5,514.2,193.5,514.2z" />
<polyline
   id="polyline1071"
   class="st1"
   points="188.6,527.4 192.7,541.3 198.7,541.3 196.3,527.7 " />
<path
   id="path1073"
   class="st1"
   d="M221.1,832.9c-16.8-4.7-26.3,6.9-41,0v-22.1c9.4,6.3,33.1-6.5,41,0V832.9z" />
<path
   id="path1075"
   class="st1"
   d="M221.1,825.4c1.7,0.2,3.4,0.5,5,1v-22.1c-7.9-6.5-31.6,6.3-41,0v8.2" />
<circle
   id="circle1077"
   class="st1"
   cx="200.4"
   cy="822.2"
   r="6" />
<a
   id="a1102"
   xlink:href="#research"
   style="opacity:0"
   xlink:title="Research">
	<rect
   id="rect1084"
   x="156"
   y="24"
   class="st6"
   width="97.3"
   height="116.4" />
</a>
<a
   id="a1105"
   xlink:href="#report"
   style="opacity:0"
   xlink:title="Report Invention">
	<rect
   id="rect1086"
   x="570.5"
   y="24"
   class="st7"
   width="143.1"
   height="116.4" />
</a>
<a
   id="a1108"
   xlink:href="#development"
   style="opacity:0"
   xlink:title="Strategy Development">
	<rect
   id="rect1088"
   x="109.3"
   y="248.8"
   class="st6"
   width="192.8"
   height="118.2" />
</a>
<a
   id="a1111"
   xlink:href="#assess"
   style="opacity:0"
   xlink:title="Assess and Protect">
	<rect
   id="rect1090"
   x="557.2"
   y="250.6"
   class="st6"
   width="169.7"
   height="118.2" />
</a>
<a
   id="a1114"
   xlink:href="#startup"
   style="opacity:0"
   xlink:title="Startup">
	<rect
   id="rect1092"
   x="16.9"
   y="471.8"
   class="st6"
   width="95.1"
   height="118.2" />
</a>
<a
   id="a1117"
   xlink:href="#marketing"
   style="opacity:0"
   xlink:title="Marketing">
	<rect
   id="rect1094"
   x="154.6"
   y="474.5"
   class="st6"
   width="96.9"
   height="118.2" />
</a>
<a
   id="a1120"
   xlink:href="#license"
   style="opacity:0"
   xlink:title="Licensing">
	<rect
   id="rect1096"
   x="593.6"
   y="540.3"
   class="st6"
   width="96"
   height="120" />
</a>
<a
   id="a1126"
   xlink:href="#revenue"
   style="opacity:0"
   xlink:title="Revenue">
	<rect
   id="rect1098"
   x="156.4"
   y="769.5"
   class="st6"
   width="95.1"
   height="119.1" />
</a>
<a
   id="a1123"
   xlink:href="#commercialization"
   style="opacity:0"
   xlink:title="Commercialization">
	<rect
   id="rect1100"
   x="559.8"
   y="771.3"
   class="st6"
   width="162.6"
   height="116.4" />
</a>
</svg>
