<?xml version="1.0" encoding="UTF-8" standalone="no"?>
<svg
   xmlns:dc="http://purl.org/dc/elements/1.1/"
   xmlns:cc="http://creativecommons.org/ns#"
   xmlns:rdf="http://www.w3.org/1999/02/22-rdf-syntax-ns#"
   xmlns:svg="http://www.w3.org/2000/svg"
   xmlns="http://www.w3.org/2000/svg"
   xmlns:xlink="http://www.w3.org/1999/xlink"
   xmlns:sodipodi="http://sodipodi.sourceforge.net/DTD/sodipodi-0.dtd"
   xmlns:inkscape="http://www.inkscape.org/namespaces/inkscape"
   version="1.1"
   id="Layer_1"
   inkscape:version="1.0.1 (c497b03c, 2020-09-10)"
   sodipodi:docname="researchers-flowchart-mobile-darkMode.inline.svg"
   x="0px"
   y="0px"
   viewBox="0 0 590.5 921"
   style="enable-background:new 0 0 590.5 921;"
   xml:space="preserve"><metadata
   id="metadata6853"><rdf:RDF><cc:Work
       rdf:about=""><dc:format>image/svg+xml</dc:format><dc:type
         rdf:resource="http://purl.org/dc/dcmitype/StillImage" /></cc:Work></rdf:RDF></metadata><defs
   id="defs6851" />
<style
   type="text/css"
   id="style6603">
	.st0{enable-background:new    ;}
	.st1{fill:#E7E8EB;}
	.st2{fill:none;stroke:#6BCDB2;stroke-width:1.26;stroke-miterlimit:10;}
	.st3{fill:none;stroke:#6BCDB2;stroke-width:1.26;stroke-miterlimit:10;stroke-dasharray:10.05,5.02;}
	.st4{fill:none;stroke:#6BCDB2;stroke-width:2.53;stroke-miterlimit:10;}
	.st5{fill:#6BCDB2;}
	.st6{fill:none;stroke:#6BCDB2;stroke-width:1.2599;stroke-miterlimit:9.9995;}
	.st7{opacity:0.3119;fill:#0E0E0E;enable-background:new    ;}
</style>
<sodipodi:namedview
   bordercolor="#666666"
   borderopacity="1"
   gridtolerance="10"
   guidetolerance="10"
   id="namedview1080"
   inkscape:current-layer="Layer_1"
   inkscape:cx="354.58137"
   inkscape:cy="470.63181"
   inkscape:document-rotation="0"
   inkscape:pageopacity="0"
   inkscape:pageshadow="2"
   inkscape:window-height="775"
   inkscape:window-maximized="0"
   inkscape:window-width="1440"
   inkscape:window-x="0"
   inkscape:window-y="23"
   inkscape:zoom="0.63446243"
   objecttolerance="10"
   pagecolor="#ffffff"
   showgrid="false">
	</sodipodi:namedview>
<g
   id="g1134"
   class="st0">
	<path
   id="path1132"
   class="st1"
   d="M174.8,140.4h-2.2c-0.1,0-0.2-0.1-0.3-0.2l-2.6-5.3h-2.4c-0.1,0-0.1,0-0.1,0.1v5.2   c0,0.1-0.1,0.2-0.2,0.2h-2c-0.1,0-0.2-0.1-0.2-0.2v-13.3c0-0.1,0.1-0.2,0.2-0.2h5.3c1.3,0,2.3,0.4,3.1,1.1c0.8,0.8,1.2,1.7,1.2,2.9   c0,0.9-0.2,1.7-0.7,2.3c-0.5,0.7-1.1,1.1-1.9,1.4l2.9,5.6c0,0.1,0,0.1,0,0.2C174.9,140.3,174.8,140.4,174.8,140.4z M170.2,132.7   c0.6,0,1.1-0.2,1.5-0.5c0.4-0.4,0.6-0.8,0.6-1.4c0-0.6-0.2-1.1-0.6-1.4c-0.4-0.4-0.9-0.5-1.5-0.5h-2.9c-0.1,0-0.1,0-0.1,0.1v3.6   c0,0.1,0,0.1,0.1,0.1L170.2,132.7L170.2,132.7z" />
</g>
<g
   id="g1144"
   class="st0">
	<path
   id="path1136"
   class="st1"
   d="M180.8,140.6c-1,0-1.9-0.2-2.6-0.7s-1.2-1.1-1.5-2c-0.2-0.7-0.3-1.5-0.3-2.4s0.1-1.7,0.3-2.4   c0.3-0.8,0.8-1.5,1.5-2s1.5-0.7,2.5-0.7s1.8,0.2,2.5,0.7s1.2,1.1,1.4,2c0.2,0.7,0.3,1.6,0.3,2.9c0,0.1-0.1,0.2-0.2,0.2h-6   c-0.1,0-0.1,0-0.1,0.1c0,0.2,0,0.5,0.1,0.7c0.3,1,1.1,1.5,2.2,1.5c1,0,1.7-0.3,2.3-0.9c0.1-0.1,0.2-0.1,0.3,0l1.2,1   c0.1,0.1,0.1,0.2,0,0.3C183.8,140,182.5,140.6,180.8,140.6z M182.7,134.4c0-0.3,0-0.6-0.1-0.8c-0.1-0.4-0.4-0.7-0.7-0.9   s-0.7-0.3-1.2-0.3c-1,0-1.6,0.4-1.9,1.2c-0.1,0.2-0.1,0.5-0.1,0.8c0,0.1,0,0.1,0.1,0.1h3.8C182.7,134.6,182.7,134.5,182.7,134.4z" />
	<path
   id="path1138"
   class="st1"
   d="M191,140.6c-1.7,0-3.1-0.5-4.2-1.5c-0.1-0.1-0.1-0.2,0-0.3l1.1-1.2c0.1-0.1,0.2-0.1,0.3,0   c0.4,0.3,0.8,0.6,1.3,0.8s1,0.3,1.5,0.3c0.6,0,1-0.1,1.3-0.3s0.5-0.5,0.5-0.8s-0.1-0.5-0.4-0.7s-0.7-0.3-1.3-0.3l-1-0.1   c-2-0.2-3-1.2-3-2.9c0-1,0.3-1.7,1-2.2s1.6-0.8,2.8-0.8c1.4,0,2.6,0.4,3.6,1.2c0.1,0.1,0.1,0.2,0,0.3l-1,1.2   c-0.1,0.1-0.2,0.1-0.3,0c-0.8-0.5-1.6-0.8-2.5-0.8c-0.5,0-0.8,0.1-1.1,0.3s-0.4,0.4-0.4,0.7s0.1,0.5,0.4,0.7   c0.2,0.2,0.6,0.3,1.2,0.3l1,0.1c1,0.1,1.7,0.4,2.2,0.9s0.8,1.1,0.8,1.9c0,1-0.4,1.8-1.1,2.4C193.3,140.3,192.3,140.6,191,140.6z" />
	<path
   id="path1140"
   class="st1"
   d="M201.3,140.6c-1,0-1.9-0.2-2.6-0.7s-1.2-1.1-1.5-2c-0.2-0.7-0.3-1.5-0.3-2.4s0.1-1.7,0.3-2.4   c0.3-0.8,0.8-1.5,1.5-2s1.5-0.7,2.5-0.7s1.8,0.2,2.5,0.7s1.2,1.1,1.4,2c0.2,0.7,0.3,1.6,0.3,2.9c0,0.1-0.1,0.2-0.2,0.2h-6   c-0.1,0-0.1,0-0.1,0.1c0,0.2,0,0.5,0.1,0.7c0.3,1,1.1,1.5,2.2,1.5c1,0,1.7-0.3,2.3-0.9c0.1-0.1,0.2-0.1,0.3,0l1.2,1   c0.1,0.1,0.1,0.2,0,0.3C204.3,140,203,140.6,201.3,140.6z M203.2,134.4c0-0.3,0-0.6-0.1-0.8c-0.1-0.4-0.4-0.7-0.7-0.9   s-0.7-0.3-1.2-0.3c-1,0-1.6,0.4-1.9,1.2c-0.1,0.2-0.1,0.5-0.1,0.8c0,0.1,0,0.1,0.1,0.1h3.8C203.2,134.6,203.2,134.5,203.2,134.4z" />
	<path
   id="path1142"
   class="st1"
   d="M215.3,140.4h-1.7c-0.1,0-0.2-0.1-0.2-0.2v-0.7l0,0c-0.5,0.8-1.4,1.1-2.7,1.1   c-0.9,0-1.7-0.3-2.3-0.8s-0.9-1.2-0.9-2.2s0.3-1.8,1-2.3s1.6-0.8,2.9-0.8h2c0.1,0,0.1,0,0.1-0.1V134c0-0.6-0.2-1-0.5-1.2   c-0.3-0.3-0.9-0.4-1.7-0.4c-0.9,0-1.6,0.2-2.2,0.7c-0.1,0.1-0.2,0.1-0.3,0l-0.7-1.3c-0.1-0.1-0.1-0.2,0-0.3c0.9-0.6,2-0.9,3.4-0.9   c1.5,0,2.5,0.3,3.1,0.8s0.9,1.4,0.9,2.6v6.3C215.5,140.3,215.5,140.4,215.3,140.4z M211.3,138.8c1.4,0,2.2-0.5,2.2-1.6v-0.7   c0-0.1,0-0.1-0.1-0.1h-1.6c-1.4,0-2.1,0.4-2.1,1.3C209.6,138.4,210.1,138.8,211.3,138.8z" />
</g>
<g
   id="g1148"
   class="st0">
	<path
   id="path1146"
   class="st1"
   d="M220.4,140.4h-1.8c-0.1,0-0.2-0.1-0.2-0.2v-9.3c0-0.1,0.1-0.2,0.2-0.2h1.8   c0.1,0,0.2,0.1,0.2,0.2v0.8l0,0c0.5-0.8,1.4-1.2,2.5-1.2c0.8,0,1.5,0.3,2,0.8c0.1,0.1,0.1,0.2,0,0.3l-1.1,1.3   c-0.1,0.1-0.2,0.1-0.3,0c-0.5-0.3-1-0.5-1.4-0.5c-1.2,0-1.8,0.8-1.8,2.5v5.2C220.6,140.3,220.6,140.4,220.4,140.4z" />
</g>
<g
   id="g1154"
   class="st0">
	<path
   id="path1150"
   class="st1"
   d="M230.5,140.6c-1,0-1.8-0.2-2.5-0.7s-1.2-1.1-1.5-2c-0.2-0.6-0.3-1.4-0.3-2.4s0.1-1.8,0.3-2.4   c0.3-0.9,0.8-1.5,1.5-2s1.5-0.7,2.5-0.7c1.4,0,2.5,0.5,3.4,1.5c0.1,0.1,0.1,0.2,0,0.3l-1.3,1.1c-0.1,0.1-0.2,0.1-0.3,0   c-0.5-0.6-1.1-0.8-1.8-0.8c-0.9,0-1.5,0.4-1.8,1.3c-0.1,0.4-0.2,1-0.2,1.8s0.1,1.4,0.2,1.8c0.3,0.8,0.9,1.2,1.8,1.2   c0.7,0,1.3-0.3,1.8-0.8c0.1-0.1,0.2-0.1,0.3,0l1.3,1.1c0.1,0.1,0.1,0.2,0,0.3C233,140.1,231.9,140.6,230.5,140.6z" />
	<path
   id="path1152"
   class="st1"
   d="M244.2,140.4h-1.8c-0.1,0-0.2-0.1-0.2-0.2v-5.6c0-0.6-0.2-1.2-0.5-1.5s-0.8-0.6-1.4-0.6   c-0.6,0-1,0.2-1.4,0.6c-0.3,0.4-0.5,0.9-0.5,1.5v5.6c0,0.1-0.1,0.2-0.2,0.2h-1.8c-0.1,0-0.2-0.1-0.2-0.2v-13.3   c0-0.1,0.1-0.2,0.2-0.2h1.8c0.1,0,0.2,0.1,0.2,0.2v4.7l0,0c0.5-0.8,1.4-1.1,2.6-1.1c1,0,1.8,0.3,2.4,1s0.9,1.5,0.9,2.6v6.1   C244.4,140.3,244.4,140.4,244.2,140.4z" />
</g>
<circle
   id="circle847"
   class="st2"
   cx="204.3"
   cy="71.6"
   r="46.2" />
<g
   id="g1159"
   class="st0">
	<path
   id="path1157"
   class="st1"
   d="M429,140.4h-2.2c-0.1,0-0.2-0.1-0.3-0.2l-2.6-5.3h-2.4c-0.1,0-0.1,0-0.1,0.1v5.2   c0,0.1-0.1,0.2-0.2,0.2h-2c-0.1,0-0.2-0.1-0.2-0.2v-13.3c0-0.1,0.1-0.2,0.2-0.2h5.3c1.3,0,2.3,0.4,3.1,1.1c0.8,0.8,1.2,1.7,1.2,2.9   c0,0.9-0.2,1.7-0.7,2.3c-0.5,0.7-1.1,1.1-1.9,1.4l2.9,5.6c0,0.1,0,0.1,0,0.2C429.1,140.3,429.1,140.4,429,140.4z M424.4,132.7   c0.6,0,1.1-0.2,1.5-0.5c0.4-0.4,0.6-0.8,0.6-1.4c0-0.6-0.2-1.1-0.6-1.4c-0.4-0.4-0.9-0.5-1.5-0.5h-2.9c-0.1,0-0.1,0-0.1,0.1v3.6   c0,0.1,0,0.1,0.1,0.1L424.4,132.7L424.4,132.7z" />
</g>
<g
   id="g1173"
   class="st0">
	<path
   id="path1161"
   class="st1"
   d="M435,140.6c-1,0-1.9-0.2-2.6-0.7s-1.2-1.1-1.5-2c-0.2-0.7-0.3-1.5-0.3-2.4s0.1-1.7,0.3-2.4   c0.3-0.8,0.8-1.5,1.5-2s1.5-0.7,2.5-0.7s1.8,0.2,2.5,0.7s1.2,1.1,1.4,2c0.2,0.7,0.3,1.6,0.3,2.9c0,0.1-0.1,0.2-0.2,0.2h-6   c-0.1,0-0.1,0-0.1,0.1c0,0.2,0,0.5,0.1,0.7c0.3,1,1.1,1.5,2.2,1.5c1,0,1.7-0.3,2.3-0.9c0.1-0.1,0.2-0.1,0.3,0l1.2,1   c0.1,0.1,0.1,0.2,0,0.3C438,140,436.7,140.6,435,140.6z M436.9,134.4c0-0.3,0-0.6-0.1-0.8c-0.1-0.4-0.4-0.7-0.7-0.9   s-0.7-0.3-1.2-0.3c-1,0-1.6,0.4-1.9,1.2c-0.1,0.2-0.1,0.5-0.1,0.8c0,0.1,0,0.1,0.1,0.1h3.8C436.9,134.6,436.9,134.5,436.9,134.4z" />
	<path
   id="path1163"
   class="st1"
   d="M443.7,144h-1.8c-0.1,0-0.2-0.1-0.2-0.2v-12.9c0-0.1,0.1-0.2,0.2-0.2h1.8c0.1,0,0.2,0.1,0.2,0.2   v0.7l0,0c0.5-0.8,1.4-1.1,2.6-1.1c1.7,0,2.8,0.8,3.4,2.3c0.2,0.7,0.3,1.6,0.3,2.7c0,1.1-0.1,2-0.3,2.7c-0.5,1.6-1.6,2.3-3.4,2.3   c-1.2,0-2-0.4-2.6-1.1l0,0v4.3C443.9,143.9,443.8,144,443.7,144z M445.9,138.6c0.9,0,1.5-0.4,1.8-1.2c0.1-0.4,0.2-1,0.2-1.8   s-0.1-1.4-0.2-1.8c-0.3-0.8-0.9-1.2-1.8-1.2s-1.5,0.4-1.8,1.2c-0.1,0.4-0.2,1-0.2,1.8s0.1,1.4,0.2,1.8   C444.3,138.2,444.9,138.6,445.9,138.6z" />
	<path
   id="path1165"
   class="st1"
   d="M456.4,140.6c-1,0-1.8-0.2-2.5-0.7s-1.2-1.1-1.5-2c-0.2-0.7-0.3-1.5-0.3-2.4s0.1-1.7,0.3-2.4   c0.3-0.8,0.8-1.5,1.5-2s1.6-0.7,2.5-0.7c1,0,1.8,0.2,2.5,0.7s1.2,1.1,1.5,2c0.2,0.7,0.3,1.5,0.3,2.4s-0.1,1.7-0.3,2.4   c-0.3,0.8-0.8,1.5-1.5,2C458.2,140.4,457.4,140.6,456.4,140.6z M456.4,138.6c0.9,0,1.5-0.4,1.8-1.3c0.1-0.4,0.2-1,0.2-1.8   s-0.1-1.4-0.2-1.8c-0.3-0.8-0.9-1.3-1.8-1.3s-1.5,0.4-1.8,1.3c-0.1,0.4-0.2,1-0.2,1.8s0.1,1.4,0.2,1.8   C454.8,138.2,455.4,138.6,456.4,138.6z" />
	<path
   id="path1167"
   class="st1"
   d="M465.1,140.4h-1.8c-0.1,0-0.2-0.1-0.2-0.2v-9.3c0-0.1,0.1-0.2,0.2-0.2h1.8   c0.1,0,0.2,0.1,0.2,0.2v0.8l0,0c0.5-0.8,1.4-1.2,2.5-1.2c0.8,0,1.5,0.3,2,0.8c0.1,0.1,0.1,0.2,0,0.3l-1.1,1.3   c-0.1,0.1-0.2,0.1-0.3,0c-0.5-0.3-1-0.5-1.4-0.5c-1.2,0-1.8,0.8-1.8,2.5v5.2C465.3,140.3,465.3,140.4,465.1,140.4z" />
	<path
   id="path1169"
   class="st1"
   d="M475.4,140.5h-1c-1,0-1.6-0.2-2.1-0.7c-0.4-0.5-0.6-1.2-0.6-2.1v-5.1c0-0.1,0-0.1-0.1-0.1H471   c-0.1,0-0.2-0.1-0.2-0.2V131c0-0.1,0.1-0.2,0.2-0.2h0.6c0.1,0,0.1,0,0.1-0.1V128c0-0.1,0.1-0.2,0.2-0.2h1.8c0.1,0,0.2,0.1,0.2,0.2   v2.7c0,0.1,0,0.1,0.1,0.1h1.3c0.1,0,0.2,0.1,0.2,0.2v1.3c0,0.1-0.1,0.2-0.2,0.2H474c-0.1,0-0.1,0-0.1,0.1v5c0,0.3,0.1,0.6,0.2,0.7   c0.1,0.1,0.4,0.2,0.7,0.2h0.5c0.1,0,0.2,0.1,0.2,0.2v1.6C475.6,140.4,475.5,140.5,475.4,140.5z" />
	<path
   id="path1171"
   class="st1"
   d="M482.8,140.2v-13.3c0-0.1,0.1-0.2,0.2-0.2h2c0.1,0,0.2,0.1,0.2,0.2v13.3c0,0.1-0.1,0.2-0.2,0.2   h-2C482.9,140.4,482.8,140.3,482.8,140.2z" />
</g>
<g
   id="g1179"
   class="st0">
	<path
   id="path1175"
   class="st1"
   d="M496.1,140.4h-1.8c-0.1,0-0.2-0.1-0.2-0.2v-5.6c0-0.6-0.2-1.2-0.5-1.5c-0.3-0.4-0.8-0.6-1.4-0.6   s-1,0.2-1.4,0.6c-0.3,0.4-0.5,0.9-0.5,1.5v5.6c0,0.1-0.1,0.2-0.2,0.2h-1.8c-0.1,0-0.2-0.1-0.2-0.2v-9.3c0-0.1,0.1-0.2,0.2-0.2h1.8   c0.1,0,0.2,0.1,0.2,0.2v0.7l0,0c0.5-0.8,1.4-1.1,2.6-1.1c1,0,1.8,0.3,2.4,1s0.9,1.5,0.9,2.6v6.1   C496.3,140.3,496.3,140.4,496.1,140.4z" />
	<path
   id="path1177"
   class="st1"
   d="M503.1,140.4h-1.6c-0.1,0-0.2-0.1-0.3-0.2l-3.4-9.3c0-0.1,0-0.2,0.2-0.2h2   c0.1,0,0.2,0.1,0.2,0.2l2.1,6.3l0,0l2.1-6.3c0-0.1,0.1-0.2,0.2-0.2h1.9c0.1,0,0.2,0.1,0.2,0.2l-3.4,9.3   C503.3,140.3,503.2,140.4,503.1,140.4z" />
</g>
<g
   id="g1193"
   class="st0">
	<path
   id="path1181"
   class="st1"
   d="M512.6,140.6c-1,0-1.9-0.2-2.6-0.7s-1.2-1.1-1.5-2c-0.2-0.7-0.3-1.5-0.3-2.4s0.1-1.7,0.3-2.4   c0.3-0.8,0.8-1.5,1.5-2s1.5-0.7,2.5-0.7c1,0,1.8,0.2,2.5,0.7s1.2,1.1,1.4,2c0.2,0.7,0.3,1.6,0.3,2.9c0,0.1-0.1,0.2-0.2,0.2h-6   c-0.1,0-0.1,0-0.1,0.1c0,0.2,0,0.5,0.1,0.7c0.3,1,1.1,1.5,2.2,1.5c1,0,1.7-0.3,2.3-0.9c0.1-0.1,0.2-0.1,0.3,0l1.2,1   c0.1,0.1,0.1,0.2,0,0.3C515.6,140,514.3,140.6,512.6,140.6z M514.5,134.4c0-0.3,0-0.6-0.1-0.8c-0.1-0.4-0.4-0.7-0.7-0.9   s-0.7-0.3-1.2-0.3c-1,0-1.6,0.4-1.9,1.2c-0.1,0.2-0.1,0.5-0.1,0.8c0,0.1,0,0.1,0.1,0.1h3.8C514.5,134.6,514.5,134.5,514.5,134.4z" />
	<path
   id="path1183"
   class="st1"
   d="M527.2,140.4h-1.8c-0.1,0-0.2-0.1-0.2-0.2v-5.6c0-0.6-0.2-1.2-0.5-1.5c-0.3-0.4-0.8-0.6-1.4-0.6   c-0.6,0-1,0.2-1.4,0.6s-0.5,0.9-0.5,1.5v5.6c0,0.1-0.1,0.2-0.2,0.2h-1.8c-0.1,0-0.2-0.1-0.2-0.2v-9.3c0-0.1,0.1-0.2,0.2-0.2h1.8   c0.1,0,0.2,0.1,0.2,0.2v0.7l0,0c0.5-0.8,1.4-1.1,2.6-1.1c1,0,1.8,0.3,2.4,1c0.6,0.7,0.9,1.5,0.9,2.6v6.1   C527.4,140.3,527.3,140.4,527.2,140.4z" />
	<path
   id="path1185"
   class="st1"
   d="M534,140.5h-1c-1,0-1.6-0.2-2.1-0.7c-0.4-0.5-0.6-1.2-0.6-2.1v-5.1c0-0.1,0-0.1-0.1-0.1h-0.6   c-0.1,0-0.2-0.1-0.2-0.2V131c0-0.1,0.1-0.2,0.2-0.2h0.6c0.1,0,0.1,0,0.1-0.1V128c0-0.1,0.1-0.2,0.2-0.2h1.8c0.1,0,0.2,0.1,0.2,0.2   v2.7c0,0.1,0,0.1,0.1,0.1h1.3c0.1,0,0.2,0.1,0.2,0.2v1.3c0,0.1-0.1,0.2-0.2,0.2h-1.3c-0.1,0-0.1,0-0.1,0.1v5c0,0.3,0.1,0.6,0.2,0.7   c0.1,0.1,0.4,0.2,0.7,0.2h0.5c0.1,0,0.2,0.1,0.2,0.2v1.6C534.2,140.4,534.1,140.5,534,140.5z" />
	<path
   id="path1187"
   class="st1"
   d="M538.7,128.9h-1.8c-0.1,0-0.2-0.1-0.2-0.2V127c0-0.1,0.1-0.2,0.2-0.2h1.8c0.1,0,0.2,0.1,0.2,0.2   v1.7C538.9,128.8,538.8,128.9,538.7,128.9z M538.7,140.4h-1.8c-0.1,0-0.2-0.1-0.2-0.2v-9.3c0-0.1,0.1-0.2,0.2-0.2h1.8   c0.1,0,0.2,0.1,0.2,0.2v9.3C538.9,140.3,538.8,140.4,538.7,140.4z" />
	<path
   id="path1189"
   class="st1"
   d="M545.6,140.6c-1,0-1.8-0.2-2.5-0.7s-1.2-1.1-1.5-2c-0.2-0.7-0.3-1.5-0.3-2.4s0.1-1.7,0.3-2.4   c0.3-0.8,0.8-1.5,1.5-2s1.6-0.7,2.5-0.7c1,0,1.8,0.2,2.5,0.7s1.2,1.1,1.5,2c0.2,0.7,0.3,1.5,0.3,2.4s-0.1,1.7-0.3,2.4   c-0.3,0.8-0.8,1.5-1.5,2S546.6,140.6,545.6,140.6z M545.6,138.6c0.9,0,1.5-0.4,1.8-1.3c0.1-0.4,0.2-1,0.2-1.8s-0.1-1.4-0.2-1.8   c-0.3-0.8-0.9-1.3-1.8-1.3c-0.9,0-1.5,0.4-1.8,1.3c-0.1,0.4-0.2,1-0.2,1.8s0.1,1.4,0.2,1.8C544.1,138.2,544.7,138.6,545.6,138.6z" />
	<path
   id="path1191"
   class="st1"
   d="M560.3,140.4h-1.8c-0.1,0-0.2-0.1-0.2-0.2v-5.6c0-0.6-0.2-1.2-0.5-1.5c-0.3-0.4-0.8-0.6-1.4-0.6   c-0.6,0-1,0.2-1.4,0.6c-0.3,0.4-0.5,0.9-0.5,1.5v5.6c0,0.1-0.1,0.2-0.2,0.2h-1.8c-0.1,0-0.2-0.1-0.2-0.2v-9.3   c0-0.1,0.1-0.2,0.2-0.2h1.8c0.1,0,0.2,0.1,0.2,0.2v0.7l0,0c0.5-0.8,1.4-1.1,2.6-1.1c1,0,1.8,0.3,2.4,1c0.6,0.7,0.9,1.5,0.9,2.6v6.1   C560.5,140.3,560.5,140.4,560.3,140.4z" />
</g>
<circle
   id="circle859"
   class="st2"
   cx="489.5"
   cy="71.6"
   r="46.2" />
<g
   id="g1203"
   class="st0">
	<path
   id="path1199"
   class="st1"
   d="M113.1,365.8c-1,0-1.9-0.2-2.8-0.5s-1.6-0.8-2.2-1.3c-0.1-0.1-0.1-0.2,0-0.3l1.2-1.4   c0.1-0.1,0.2-0.1,0.3,0c1.2,1,2.5,1.4,3.7,1.4c0.8,0,1.4-0.2,1.9-0.5c0.5-0.4,0.7-0.8,0.7-1.4c0-0.5-0.2-0.9-0.6-1.2   c-0.4-0.3-1-0.5-1.9-0.6l-0.7-0.1c-2.7-0.4-4.1-1.7-4.1-3.9c0-1.2,0.4-2.2,1.3-3c0.8-0.8,2-1.1,3.4-1.1c1.7,0,3.2,0.5,4.4,1.4   c0.1,0.1,0.1,0.2,0,0.3l-1,1.5c-0.1,0.1-0.2,0.1-0.3,0.1c-1.1-0.7-2.2-1.1-3.3-1.1c-0.7,0-1.2,0.2-1.6,0.5s-0.6,0.8-0.6,1.3   c0,1,0.8,1.6,2.5,1.8l0.7,0.1c2.7,0.4,4.1,1.7,4.1,4c0,1.3-0.4,2.3-1.3,3.1C116,365.4,114.8,365.8,113.1,365.8z" />
	<path
   id="path1201"
   class="st1"
   d="M124.4,365.7h-1c-1,0-1.6-0.2-2.1-0.7c-0.4-0.5-0.6-1.2-0.6-2.1v-5.1c0-0.1,0-0.1-0.1-0.1H120   c-0.1,0-0.2-0.1-0.2-0.2v-1.3c0-0.1,0.1-0.2,0.2-0.2h0.6c0.1,0,0.1,0,0.1-0.1v-2.7c0-0.1,0.1-0.2,0.2-0.2h1.8   c0.1,0,0.2,0.1,0.2,0.2v2.7c0,0.1,0,0.1,0.1,0.1h1.3c0.1,0,0.2,0.1,0.2,0.2v1.3c0,0.1-0.1,0.2-0.2,0.2H123c-0.1,0-0.1,0-0.1,0.1v5   c0,0.3,0.1,0.6,0.2,0.7s0.4,0.2,0.7,0.2h0.5c0.1,0,0.2,0.1,0.2,0.2v1.6C124.6,365.6,124.5,365.7,124.4,365.7z" />
</g>
<g
   id="g1207"
   class="st0">
	<path
   id="path1205"
   class="st1"
   d="M129.1,365.6h-1.8c-0.1,0-0.2-0.1-0.2-0.2v-9.3c0-0.1,0.1-0.2,0.2-0.2h1.8   c0.1,0,0.2,0.1,0.2,0.2v0.8l0,0c0.5-0.8,1.4-1.2,2.5-1.2c0.8,0,1.5,0.3,2,0.8c0.1,0.1,0.1,0.2,0,0.3l-1.1,1.3   c-0.1,0.1-0.2,0.1-0.3,0c-0.5-0.3-1-0.5-1.4-0.5c-1.2,0-1.8,0.8-1.8,2.5v5.2C129.3,365.5,129.2,365.6,129.1,365.6z" />
</g>
<g
   id="g1223"
   class="st0">
	<path
   id="path1209"
   class="st1"
   d="M142.6,365.6h-1.7c-0.1,0-0.2-0.1-0.2-0.2v-0.7l0,0c-0.5,0.8-1.4,1.1-2.7,1.1   c-0.9,0-1.7-0.3-2.3-0.8s-0.9-1.2-0.9-2.2s0.3-1.8,1-2.3s1.6-0.8,2.9-0.8h2c0.1,0,0.1,0,0.1-0.1v-0.5c0-0.6-0.2-1-0.5-1.2   c-0.3-0.3-0.9-0.4-1.7-0.4c-0.9,0-1.6,0.2-2.2,0.7c-0.1,0.1-0.2,0.1-0.3,0l-0.7-1.3c-0.1-0.1-0.1-0.2,0-0.3c0.9-0.6,2-0.9,3.4-0.9   c1.5,0,2.5,0.3,3.1,0.8s0.9,1.4,0.9,2.6v6.3C142.8,365.5,142.8,365.6,142.6,365.6z M138.5,364c1.4,0,2.2-0.5,2.2-1.6v-0.7   c0-0.1,0-0.1-0.1-0.1H139c-1.4,0-2.1,0.4-2.1,1.3C136.9,363.6,137.4,364,138.5,364z" />
	<path
   id="path1211"
   class="st1"
   d="M149.5,365.7h-1c-1,0-1.6-0.2-2.1-0.7c-0.4-0.5-0.6-1.2-0.6-2.1v-5.1c0-0.1,0-0.1-0.1-0.1h-0.6   c-0.1,0-0.2-0.1-0.2-0.2v-1.3c0-0.1,0.1-0.2,0.2-0.2h0.6c0.1,0,0.1,0,0.1-0.1v-2.7c0-0.1,0.1-0.2,0.2-0.2h1.8   c0.1,0,0.2,0.1,0.2,0.2v2.7c0,0.1,0,0.1,0.1,0.1h1.3c0.1,0,0.2,0.1,0.2,0.2v1.3c0,0.1-0.1,0.2-0.2,0.2h-1.3c-0.1,0-0.1,0-0.1,0.1v5   c0,0.3,0.1,0.6,0.2,0.7c0.1,0.1,0.4,0.2,0.7,0.2h0.5c0.1,0,0.2,0.1,0.2,0.2v1.6C149.7,365.6,149.6,365.7,149.5,365.7z" />
	<path
   id="path1213"
   class="st1"
   d="M156,365.8c-1,0-1.9-0.2-2.6-0.7s-1.2-1.1-1.5-2c-0.2-0.7-0.3-1.5-0.3-2.4s0.1-1.7,0.3-2.4   c0.3-0.8,0.8-1.5,1.5-2s1.5-0.7,2.5-0.7s1.8,0.2,2.5,0.7s1.2,1.1,1.4,2c0.2,0.7,0.3,1.6,0.3,2.9c0,0.1-0.1,0.2-0.2,0.2h-6   c-0.1,0-0.1,0-0.1,0.1c0,0.2,0,0.5,0.1,0.7c0.3,1,1.1,1.5,2.2,1.5c1,0,1.7-0.3,2.3-0.9c0.1-0.1,0.2-0.1,0.3,0l1.2,1   c0.1,0.1,0.1,0.2,0,0.3C159,365.3,157.7,365.8,156,365.8z M157.9,359.7c0-0.3,0-0.6-0.1-0.8c-0.1-0.4-0.4-0.7-0.7-0.9   c-0.3-0.2-0.7-0.3-1.2-0.3c-1,0-1.6,0.4-1.9,1.2c-0.1,0.2-0.1,0.5-0.1,0.8c0,0.1,0,0.1,0.1,0.1h3.8   C157.9,359.8,157.9,359.7,157.9,359.7z" />
	<path
   id="path1215"
   class="st1"
   d="M165.9,369.4c-0.7,0-1.4-0.1-2-0.4s-1.2-0.6-1.5-1.1c-0.1-0.1-0.1-0.2,0-0.3l1.2-1.2   c0.1-0.1,0.2-0.1,0.3,0c0.6,0.6,1.3,0.9,2.1,0.9c1.4,0,2.2-0.8,2.2-2.3v-0.9l0,0c-0.5,0.8-1.3,1.1-2.5,1.1c-0.8,0-1.5-0.2-2.1-0.6   s-1-1-1.2-1.7s-0.3-1.5-0.3-2.5s0.1-1.8,0.3-2.5c0.5-1.6,1.6-2.4,3.3-2.4c1.2,0,2,0.4,2.5,1.1l0,0v-0.7c0-0.1,0.1-0.2,0.2-0.2h1.8   c0.1,0,0.2,0.1,0.2,0.2v8.9c0,1.4-0.4,2.5-1.2,3.3S167.4,369.4,165.9,369.4z M166.2,363.3c0.9,0,1.5-0.4,1.7-1.2   c0.1-0.4,0.2-0.9,0.2-1.6c0-0.6-0.1-1.2-0.2-1.6c-0.3-0.8-0.8-1.2-1.7-1.2s-1.4,0.4-1.7,1.2c-0.1,0.4-0.2,1-0.2,1.6   c0,0.7,0.1,1.2,0.2,1.6C164.8,362.9,165.4,363.3,166.2,363.3z" />
	<path
   id="path1217"
   class="st1"
   d="M174.3,369.2h-0.6c-0.1,0-0.2-0.1-0.2-0.2v-1.6c0-0.1,0.1-0.2,0.2-0.2h0.4   c0.4,0,0.7-0.1,0.9-0.3c0.2-0.2,0.4-0.5,0.6-0.9l0.3-0.8l-3.5-9.1c0-0.1,0-0.2,0.2-0.2h2c0.1,0,0.2,0.1,0.2,0.2l2.2,6.3l0,0   l2.1-6.3c0-0.1,0.1-0.2,0.2-0.2h1.9c0.1,0,0.2,0.1,0.2,0.2l-3.7,10.1c-0.4,1.1-0.9,1.9-1.3,2.4S175.1,369.2,174.3,369.2z" />
	<path
   id="path1219"
   class="st1"
   d="M187.9,365.4v-13.3c0-0.1,0.1-0.2,0.2-0.2h4.9c2.4,0,3.9,1,4.6,3c0.2,0.7,0.3,2,0.3,3.8   s-0.1,3.1-0.3,3.8c-0.7,2-2.2,3-4.6,3h-4.9C188,365.6,187.9,365.5,187.9,365.4z M190.3,363.3c0,0.1,0,0.1,0.1,0.1h2   c1.5,0,2.5-0.6,2.8-1.7c0.2-0.4,0.2-1.4,0.2-3s-0.1-2.5-0.2-3c-0.4-1.2-1.3-1.7-2.8-1.7h-2c-0.1,0-0.1,0-0.1,0.1V363.3z" />
	<path
   id="path1221"
   class="st1"
   d="M204.3,365.8c-1,0-1.9-0.2-2.6-0.7s-1.2-1.1-1.5-2c-0.2-0.7-0.3-1.5-0.3-2.4s0.1-1.7,0.3-2.4   c0.3-0.8,0.8-1.5,1.5-2s1.5-0.7,2.5-0.7s1.8,0.2,2.5,0.7s1.2,1.1,1.4,2c0.2,0.7,0.3,1.6,0.3,2.9c0,0.1-0.1,0.2-0.2,0.2h-6   c-0.1,0-0.1,0-0.1,0.1c0,0.2,0,0.5,0.1,0.7c0.3,1,1.1,1.5,2.2,1.5c1,0,1.7-0.3,2.3-0.9c0.1-0.1,0.2-0.1,0.3,0l1.2,1   c0.1,0.1,0.1,0.2,0,0.3C207.3,365.3,206,365.8,204.3,365.8z M206.2,359.7c0-0.3,0-0.6-0.1-0.8c-0.1-0.4-0.4-0.7-0.7-0.9   c-0.3-0.2-0.7-0.3-1.2-0.3c-1,0-1.6,0.4-1.9,1.2c-0.1,0.2-0.1,0.5-0.1,0.8c0,0.1,0,0.1,0.1,0.1h3.8   C206.2,359.8,206.2,359.7,206.2,359.7z" />
</g>
<g
   id="g1227"
   class="st0">
	<path
   id="path1225"
   class="st1"
   d="M215.1,365.6h-1.6c-0.1,0-0.2-0.1-0.3-0.2l-3.4-9.3c0-0.1,0-0.2,0.2-0.2h2   c0.1,0,0.2,0.1,0.2,0.2l2.1,6.3l0,0l2.1-6.3c0-0.1,0.1-0.2,0.2-0.2h1.9c0.1,0,0.2,0.1,0.2,0.2l-3.4,9.3   C215.3,365.5,215.3,365.6,215.1,365.6z" />
</g>
<g
   id="g1245"
   class="st0">
	<path
   id="path1229"
   class="st1"
   d="M224.4,365.8c-1,0-1.9-0.2-2.6-0.7s-1.2-1.1-1.5-2c-0.2-0.7-0.3-1.5-0.3-2.4s0.1-1.7,0.3-2.4   c0.3-0.8,0.8-1.5,1.5-2s1.5-0.7,2.5-0.7s1.8,0.2,2.5,0.7s1.2,1.1,1.4,2c0.2,0.7,0.3,1.6,0.3,2.9c0,0.1-0.1,0.2-0.2,0.2h-6   c-0.1,0-0.1,0-0.1,0.1c0,0.2,0,0.5,0.1,0.7c0.3,1,1.1,1.5,2.2,1.5c1,0,1.7-0.3,2.3-0.9c0.1-0.1,0.2-0.1,0.3,0l1.2,1   c0.1,0.1,0.1,0.2,0,0.3C227.4,365.3,226.1,365.8,224.4,365.8z M226.3,359.7c0-0.3,0-0.6-0.1-0.8c-0.1-0.4-0.4-0.7-0.7-0.9   c-0.3-0.2-0.7-0.3-1.2-0.3c-1,0-1.6,0.4-1.9,1.2c-0.1,0.2-0.1,0.5-0.1,0.8c0,0.1,0,0.1,0.1,0.1h3.8   C226.3,359.8,226.3,359.7,226.3,359.7z" />
	<path
   id="path1231"
   class="st1"
   d="M234.5,365.7h-0.9c-0.9,0-1.6-0.2-2-0.7c-0.4-0.4-0.6-1.1-0.6-2.1v-10.8c0-0.1,0.1-0.2,0.2-0.2   h1.8c0.1,0,0.2,0.1,0.2,0.2v10.7c0,0.3,0.1,0.5,0.2,0.7c0.1,0.1,0.3,0.2,0.6,0.2h0.4c0.1,0,0.2,0.1,0.2,0.2v1.6   C234.7,365.6,234.7,365.7,234.5,365.7z" />
	<path
   id="path1233"
   class="st1"
   d="M240.7,365.8c-1,0-1.8-0.2-2.5-0.7s-1.2-1.1-1.5-2c-0.2-0.7-0.3-1.5-0.3-2.4s0.1-1.7,0.3-2.4   c0.3-0.8,0.8-1.5,1.5-2s1.6-0.7,2.5-0.7c1,0,1.8,0.2,2.5,0.7s1.2,1.1,1.5,2c0.2,0.7,0.3,1.5,0.3,2.4s-0.1,1.7-0.3,2.4   c-0.3,0.8-0.8,1.5-1.5,2C242.5,365.6,241.6,365.8,240.7,365.8z M240.7,363.8c0.9,0,1.5-0.4,1.8-1.3c0.1-0.4,0.2-1,0.2-1.8   s-0.1-1.4-0.2-1.8c-0.3-0.8-0.9-1.3-1.8-1.3c-0.9,0-1.5,0.4-1.8,1.3c-0.1,0.4-0.2,1-0.2,1.8s0.1,1.4,0.2,1.8   C239.1,363.4,239.7,363.8,240.7,363.8z" />
	<path
   id="path1235"
   class="st1"
   d="M249.4,369.2h-1.8c-0.1,0-0.2-0.1-0.2-0.2v-12.9c0-0.1,0.1-0.2,0.2-0.2h1.8   c0.1,0,0.2,0.1,0.2,0.2v0.7l0,0c0.5-0.8,1.4-1.1,2.6-1.1c1.7,0,2.8,0.8,3.4,2.3c0.2,0.7,0.3,1.6,0.3,2.7s-0.1,2-0.3,2.7   c-0.5,1.6-1.6,2.3-3.4,2.3c-1.2,0-2-0.4-2.6-1.1l0,0v4.3C249.6,369.1,249.6,369.2,249.4,369.2z M251.6,363.8c0.9,0,1.5-0.4,1.8-1.2   c0.1-0.4,0.2-1,0.2-1.8s-0.1-1.4-0.2-1.8c-0.3-0.8-0.9-1.2-1.8-1.2c-0.9,0-1.5,0.4-1.8,1.2c-0.1,0.4-0.2,1-0.2,1.8s0.1,1.4,0.2,1.8   C250.1,363.4,250.7,363.8,251.6,363.8z" />
	<path
   id="path1237"
   class="st1"
   d="M272.2,365.6h-1.8c-0.1,0-0.2-0.1-0.2-0.2v-5.6c0-0.6-0.2-1.2-0.5-1.5c-0.3-0.4-0.8-0.6-1.4-0.6   s-1,0.2-1.4,0.6c-0.3,0.4-0.5,0.9-0.5,1.5v5.6c0,0.1-0.1,0.2-0.2,0.2h-1.8c-0.1,0-0.2-0.1-0.2-0.2v-5.6c0-0.6-0.2-1.2-0.5-1.5   s-0.8-0.6-1.4-0.6s-1,0.2-1.4,0.6c-0.3,0.4-0.5,0.9-0.5,1.5v5.6c0,0.1-0.1,0.2-0.2,0.2h-1.8c-0.1,0-0.2-0.1-0.2-0.2v-9.3   c0-0.1,0.1-0.2,0.2-0.2h1.8c0.1,0,0.2,0.1,0.2,0.2v0.7l0,0c0.5-0.8,1.4-1.1,2.6-1.1s2,0.4,2.7,1.3l0,0c0.8-0.9,1.8-1.3,3.1-1.3   c1.1,0,2,0.3,2.6,1s0.9,1.5,0.9,2.6v6.1C272.4,365.5,272.4,365.6,272.2,365.6z" />
	<path
   id="path1239"
   class="st1"
   d="M279.1,365.8c-1,0-1.9-0.2-2.6-0.7s-1.2-1.1-1.5-2c-0.2-0.7-0.3-1.5-0.3-2.4s0.1-1.7,0.3-2.4   c0.3-0.8,0.8-1.5,1.5-2s1.5-0.7,2.5-0.7s1.8,0.2,2.5,0.7s1.2,1.1,1.4,2c0.2,0.7,0.3,1.6,0.3,2.9c0,0.1-0.1,0.2-0.2,0.2h-6   c-0.1,0-0.1,0-0.1,0.1c0,0.2,0,0.5,0.1,0.7c0.3,1,1.1,1.5,2.2,1.5c1,0,1.7-0.3,2.3-0.9c0.1-0.1,0.2-0.1,0.3,0l1.2,1   c0.1,0.1,0.1,0.2,0,0.3C282.2,365.3,280.9,365.8,279.1,365.8z M281.1,359.7c0-0.3,0-0.6-0.1-0.8c-0.1-0.4-0.4-0.7-0.7-0.9   c-0.3-0.2-0.7-0.3-1.2-0.3c-1,0-1.6,0.4-1.9,1.2c-0.1,0.2-0.1,0.5-0.1,0.8c0,0.1,0,0.1,0.1,0.1h3.8   C281,359.8,281.1,359.7,281.1,359.7z" />
	<path
   id="path1241"
   class="st1"
   d="M293.7,365.6h-1.8c-0.1,0-0.2-0.1-0.2-0.2v-5.6c0-0.6-0.2-1.2-0.5-1.5s-0.8-0.6-1.4-0.6   s-1,0.2-1.4,0.6c-0.3,0.4-0.5,0.9-0.5,1.5v5.6c0,0.1-0.1,0.2-0.2,0.2H286c-0.1,0-0.2-0.1-0.2-0.2v-9.3c0-0.1,0.1-0.2,0.2-0.2h1.8   c0.1,0,0.2,0.1,0.2,0.2v0.7l0,0c0.5-0.8,1.4-1.1,2.6-1.1c1,0,1.8,0.3,2.4,1s0.9,1.5,0.9,2.6v6.1   C293.9,365.5,293.9,365.6,293.7,365.6z" />
	<path
   id="path1243"
   class="st1"
   d="M300.6,365.7h-1c-1,0-1.6-0.2-2.1-0.7c-0.4-0.5-0.6-1.2-0.6-2.1v-5.1c0-0.1,0-0.1-0.1-0.1h-0.6   c-0.1,0-0.2-0.1-0.2-0.2v-1.3c0-0.1,0.1-0.2,0.2-0.2h0.6c0.1,0,0.1,0,0.1-0.1v-2.7c0-0.1,0.1-0.2,0.2-0.2h1.8   c0.1,0,0.2,0.1,0.2,0.2v2.7c0,0.1,0,0.1,0.1,0.1h1.3c0.1,0,0.2,0.1,0.2,0.2v1.3c0,0.1-0.1,0.2-0.2,0.2h-1.3c-0.1,0-0.1,0-0.1,0.1v5   c0,0.3,0.1,0.6,0.2,0.7s0.4,0.2,0.7,0.2h0.5c0.1,0,0.2,0.1,0.2,0.2v1.6C300.8,365.6,300.7,365.7,300.6,365.7z" />
</g>
<circle
   id="circle879"
   class="st2"
   cx="204.3"
   cy="296.9"
   r="46.2" />
<line
   id="line887"
   class="st3"
   x1="489.6"
   y1="151.2"
   x2="489.6"
   y2="195.8" />
<line
   id="line889"
   class="st3"
   x1="489.6"
   y1="205.3"
   x2="489.6"
   y2="249.9" />
<polyline
   id="polyline891"
   class="st4"
   points="501.8,187.6 489.8,199.6 478.4,188.2 " />
<g
   id="g1274"
   class="st0">
	<path
   id="path1254"
   class="st1"
   d="M405.7,366.6l4.7-13.3c0-0.1,0.1-0.2,0.3-0.2h1.8c0.1,0,0.2,0.1,0.3,0.2l4.6,13.3   c0,0.1,0,0.2-0.1,0.2h-2c-0.1,0-0.2-0.1-0.3-0.2l-0.9-2.7H409l-0.9,2.7c0,0.1-0.1,0.2-0.3,0.2h-1.9   C405.7,366.8,405.7,366.8,405.7,366.6z M409.7,361.9h3.7l-1.8-5.3h-0.1L409.7,361.9z" />
	<path
   id="path1256"
   class="st1"
   d="M422.8,367.1c-1.7,0-3.1-0.5-4.2-1.5c-0.1-0.1-0.1-0.2,0-0.3l1.1-1.2c0.1-0.1,0.2-0.1,0.3,0   c0.4,0.3,0.8,0.6,1.3,0.8s1,0.3,1.5,0.3c0.6,0,1-0.1,1.3-0.3c0.3-0.2,0.5-0.5,0.5-0.8s-0.1-0.5-0.4-0.7s-0.7-0.3-1.3-0.3l-1-0.1   c-2-0.2-3-1.2-3-2.9c0-1,0.3-1.7,1-2.2s1.6-0.8,2.8-0.8c1.4,0,2.6,0.4,3.6,1.2c0.1,0.1,0.1,0.2,0,0.3l-1,1.2   c-0.1,0.1-0.2,0.1-0.3,0c-0.8-0.5-1.6-0.8-2.5-0.8c-0.5,0-0.8,0.1-1.1,0.3s-0.4,0.4-0.4,0.7s0.1,0.5,0.4,0.7s0.6,0.3,1.2,0.3l1,0.1   c1,0.1,1.7,0.4,2.2,0.9s0.8,1.1,0.8,1.9c0,1-0.4,1.8-1.1,2.4C425.1,366.8,424.1,367.1,422.8,367.1z" />
	<path
   id="path1258"
   class="st1"
   d="M432.8,367.1c-1.7,0-3.1-0.5-4.2-1.5c-0.1-0.1-0.1-0.2,0-0.3l1.1-1.2c0.1-0.1,0.2-0.1,0.3,0   c0.4,0.3,0.8,0.6,1.3,0.8s1,0.3,1.5,0.3c0.6,0,1-0.1,1.3-0.3c0.3-0.2,0.5-0.5,0.5-0.8s-0.1-0.5-0.4-0.7s-0.7-0.3-1.3-0.3l-1-0.1   c-2-0.2-3-1.2-3-2.9c0-1,0.3-1.7,1-2.2s1.6-0.8,2.8-0.8c1.4,0,2.6,0.4,3.6,1.2c0.1,0.1,0.1,0.2,0,0.3l-1,1.2   c-0.1,0.1-0.2,0.1-0.3,0c-0.8-0.5-1.6-0.8-2.5-0.8c-0.5,0-0.8,0.1-1.1,0.3s-0.4,0.4-0.4,0.7s0.1,0.5,0.4,0.7s0.6,0.3,1.2,0.3l1,0.1   c1,0.1,1.7,0.4,2.2,0.9s0.8,1.1,0.8,1.9c0,1-0.4,1.8-1.1,2.4C435.1,366.8,434.1,367.1,432.8,367.1z" />
	<path
   id="path1260"
   class="st1"
   d="M443.1,367.1c-1,0-1.9-0.2-2.6-0.7s-1.2-1.1-1.5-2c-0.2-0.7-0.3-1.5-0.3-2.4s0.1-1.7,0.3-2.4   c0.3-0.8,0.8-1.5,1.5-2s1.5-0.7,2.5-0.7s1.8,0.2,2.5,0.7s1.2,1.1,1.4,2c0.2,0.7,0.3,1.6,0.3,2.9c0,0.1-0.1,0.2-0.2,0.2h-6   c-0.1,0-0.1,0-0.1,0.1c0,0.2,0,0.5,0.1,0.7c0.3,1,1.1,1.5,2.2,1.5c1,0,1.7-0.3,2.3-0.9c0.1-0.1,0.2-0.1,0.3,0l1.2,1   c0.1,0.1,0.1,0.2,0,0.3C446.2,366.5,444.8,367.1,443.1,367.1z M445.1,360.9c0-0.3,0-0.6-0.1-0.8c-0.1-0.4-0.4-0.7-0.7-0.9   c-0.3-0.2-0.7-0.3-1.2-0.3c-1,0-1.6,0.4-1.9,1.2c-0.1,0.2-0.1,0.5-0.1,0.8c0,0.1,0,0.1,0.1,0.1h3.8C445,361,445.1,361,445.1,360.9z   " />
	<path
   id="path1262"
   class="st1"
   d="M453.3,367.1c-1.7,0-3.1-0.5-4.2-1.5c-0.1-0.1-0.1-0.2,0-0.3l1.1-1.2c0.1-0.1,0.2-0.1,0.3,0   c0.4,0.3,0.8,0.6,1.3,0.8s1,0.3,1.5,0.3c0.6,0,1-0.1,1.3-0.3c0.3-0.2,0.5-0.5,0.5-0.8s-0.1-0.5-0.4-0.7s-0.7-0.3-1.3-0.3l-1-0.1   c-2-0.2-3-1.2-3-2.9c0-1,0.3-1.7,1-2.2s1.6-0.8,2.8-0.8c1.4,0,2.6,0.4,3.6,1.2c0.1,0.1,0.1,0.2,0,0.3l-1,1.2   c-0.1,0.1-0.2,0.1-0.3,0c-0.8-0.5-1.6-0.8-2.5-0.8c-0.5,0-0.8,0.1-1.1,0.3s-0.4,0.4-0.4,0.7s0.1,0.5,0.4,0.7s0.6,0.3,1.2,0.3l1,0.1   c1,0.1,1.7,0.4,2.2,0.9s0.8,1.1,0.8,1.9c0,1-0.4,1.8-1.1,2.4C455.6,366.8,454.6,367.1,453.3,367.1z" />
	<path
   id="path1264"
   class="st1"
   d="M463.3,367.1c-1.7,0-3.1-0.5-4.2-1.5c-0.1-0.1-0.1-0.2,0-0.3l1.1-1.2c0.1-0.1,0.2-0.1,0.3,0   c0.4,0.3,0.8,0.6,1.3,0.8c0.5,0.2,1,0.3,1.5,0.3c0.6,0,1-0.1,1.3-0.3s0.5-0.5,0.5-0.8s-0.1-0.5-0.4-0.7s-0.7-0.3-1.3-0.3l-1-0.1   c-2-0.2-3-1.2-3-2.9c0-1,0.3-1.7,1-2.2s1.6-0.8,2.8-0.8c1.4,0,2.6,0.4,3.6,1.2c0.1,0.1,0.1,0.2,0,0.3l-1,1.2   c-0.1,0.1-0.2,0.1-0.3,0c-0.8-0.5-1.6-0.8-2.5-0.8c-0.5,0-0.8,0.1-1.1,0.3c-0.3,0.2-0.4,0.4-0.4,0.7s0.1,0.5,0.4,0.7   c0.2,0.2,0.6,0.3,1.2,0.3l1,0.1c1,0.1,1.7,0.4,2.2,0.9s0.8,1.1,0.8,1.9c0,1-0.4,1.8-1.1,2.4C465.6,366.8,464.6,367.1,463.3,367.1z" />
	<path
   id="path1266"
   class="st1"
   d="M482,366.8h-1.7c-0.1,0-0.2-0.1-0.2-0.2v-0.7l0,0c-0.5,0.8-1.4,1.1-2.7,1.1   c-0.9,0-1.7-0.3-2.3-0.8s-0.9-1.2-0.9-2.2s0.3-1.8,1-2.3s1.6-0.8,2.9-0.8h2c0.1,0,0.1,0,0.1-0.1v-0.5c0-0.6-0.2-1-0.5-1.2   c-0.3-0.3-0.9-0.4-1.7-0.4c-0.9,0-1.6,0.2-2.2,0.7c-0.1,0.1-0.2,0.1-0.3,0l-0.7-1.3c-0.1-0.1-0.1-0.2,0-0.3c0.9-0.6,2-0.9,3.4-0.9   c1.5,0,2.5,0.3,3.1,0.8s0.9,1.4,0.9,2.6v6.3C482.2,366.8,482.1,366.8,482,366.8z M477.9,365.2c1.4,0,2.2-0.5,2.2-1.6v-0.7   c0-0.1,0-0.1-0.1-0.1h-1.6c-1.4,0-2.1,0.4-2.1,1.3C476.2,364.8,476.8,365.2,477.9,365.2z" />
	<path
   id="path1268"
   class="st1"
   d="M493,366.8h-1.8c-0.1,0-0.2-0.1-0.2-0.2V361c0-0.6-0.2-1.2-0.5-1.5c-0.3-0.4-0.8-0.6-1.4-0.6   s-1,0.2-1.4,0.6s-0.5,0.9-0.5,1.5v5.6c0,0.1-0.1,0.2-0.2,0.2h-1.8c-0.1,0-0.2-0.1-0.2-0.2v-9.3c0-0.1,0.1-0.2,0.2-0.2h1.8   c0.1,0,0.2,0.1,0.2,0.2v0.7l0,0c0.5-0.8,1.4-1.1,2.6-1.1c1,0,1.8,0.3,2.4,1s0.9,1.5,0.9,2.6v6.1C493.2,366.8,493.1,366.8,493,366.8   z" />
	<path
   id="path1270"
   class="st1"
   d="M503.8,366.8H502c-0.1,0-0.2-0.1-0.2-0.2v-0.7l0,0c-0.5,0.8-1.4,1.1-2.6,1.1   c-1.7,0-2.8-0.8-3.4-2.3c-0.2-0.7-0.3-1.6-0.3-2.7s0.1-2,0.3-2.7c0.5-1.6,1.6-2.3,3.4-2.3c1.2,0,2,0.4,2.6,1.1l0,0v-4.7   c0-0.1,0.1-0.2,0.2-0.2h1.8c0.1,0,0.2,0.1,0.2,0.2v13.3C504,366.8,504,366.8,503.8,366.8z M499.8,365.1c0.9,0,1.5-0.4,1.8-1.2   c0.1-0.4,0.2-1,0.2-1.8s-0.1-1.4-0.2-1.8c-0.3-0.8-0.9-1.2-1.8-1.2s-1.5,0.4-1.8,1.2c-0.1,0.4-0.2,1-0.2,1.8s0.1,1.4,0.2,1.8   C498.3,364.6,498.9,365.1,499.8,365.1z" />
	<path
   id="path1272"
   class="st1"
   d="M513.9,366.8h-2c-0.1,0-0.2-0.1-0.2-0.2v-13.3c0-0.1,0.1-0.2,0.2-0.2h5.1c1.3,0,2.4,0.4,3.2,1.2   c0.8,0.8,1.3,1.8,1.3,3.1c0,1.3-0.4,2.3-1.3,3.1c-0.8,0.8-1.9,1.2-3.2,1.2h-2.8c-0.1,0-0.1,0-0.1,0.1v4.8   C514.1,366.8,514.1,366.8,513.9,366.8z M517,359.5c0.7,0,1.2-0.2,1.7-0.6c0.4-0.4,0.6-0.9,0.6-1.5s-0.2-1.1-0.6-1.5   c-0.4-0.4-1-0.6-1.7-0.6h-2.7c-0.1,0-0.1,0-0.1,0.1v4c0,0.1,0,0.1,0.1,0.1H517z" />
</g>
<g
   id="g1278"
   class="st0">
	<path
   id="path1276"
   class="st1"
   d="M525.8,366.8H524c-0.1,0-0.2-0.1-0.2-0.2v-9.3c0-0.1,0.1-0.2,0.2-0.2h1.8c0.1,0,0.2,0.1,0.2,0.2   v0.8l0,0c0.5-0.8,1.4-1.2,2.5-1.2c0.8,0,1.5,0.3,2,0.8c0.1,0.1,0.1,0.2,0,0.3l-1.1,1.3c-0.1,0.1-0.2,0.1-0.3,0   c-0.5-0.3-1-0.5-1.4-0.5c-1.2,0-1.8,0.8-1.8,2.5v5.2C526,366.8,525.9,366.8,525.8,366.8z" />
</g>
<g
   id="g1290"
   class="st0">
	<path
   id="path1280"
   class="st1"
   d="M535.8,367.1c-1,0-1.8-0.2-2.5-0.7s-1.2-1.1-1.5-2c-0.2-0.7-0.3-1.5-0.3-2.4s0.1-1.7,0.3-2.4   c0.3-0.8,0.8-1.5,1.5-2s1.6-0.7,2.5-0.7c1,0,1.8,0.2,2.5,0.7s1.2,1.1,1.5,2c0.2,0.7,0.3,1.5,0.3,2.4s-0.1,1.7-0.3,2.4   c-0.3,0.8-0.8,1.5-1.5,2C537.7,366.8,536.8,367.1,535.8,367.1z M535.8,365.1c0.9,0,1.5-0.4,1.8-1.3c0.1-0.4,0.2-1,0.2-1.8   s-0.1-1.4-0.2-1.8c-0.3-0.8-0.9-1.3-1.8-1.3c-0.9,0-1.5,0.4-1.8,1.3c-0.1,0.4-0.2,1-0.2,1.8s0.1,1.4,0.2,1.8   C534.3,364.6,534.9,365.1,535.8,365.1z" />
	<path
   id="path1282"
   class="st1"
   d="M546.4,367h-1c-1,0-1.6-0.2-2.1-0.7c-0.4-0.5-0.6-1.2-0.6-2.1V359c0-0.1,0-0.1-0.1-0.1H542   c-0.1,0-0.2-0.1-0.2-0.2v-1.3c0-0.1,0.1-0.2,0.2-0.2h0.6c0.1,0,0.1,0,0.1-0.1v-2.7c0-0.1,0.1-0.2,0.2-0.2h1.8   c0.1,0,0.2,0.1,0.2,0.2v2.7c0,0.1,0,0.1,0.1,0.1h1.3c0.1,0,0.2,0.1,0.2,0.2v1.3c0,0.1-0.1,0.2-0.2,0.2H545c-0.1,0-0.1,0-0.1,0.1v5   c0,0.3,0.1,0.6,0.2,0.7c0.1,0.1,0.4,0.2,0.7,0.2h0.5c0.1,0,0.2,0.1,0.2,0.2v1.6C546.6,366.9,546.5,367,546.4,367z" />
	<path
   id="path1284"
   class="st1"
   d="M552.9,367.1c-1,0-1.9-0.2-2.6-0.7c-0.7-0.5-1.2-1.1-1.5-2c-0.2-0.7-0.3-1.5-0.3-2.4   s0.1-1.7,0.3-2.4c0.3-0.8,0.8-1.5,1.5-2s1.5-0.7,2.5-0.7s1.8,0.2,2.5,0.7s1.2,1.1,1.4,2c0.2,0.7,0.3,1.6,0.3,2.9   c0,0.1-0.1,0.2-0.2,0.2h-6c-0.1,0-0.1,0-0.1,0.1c0,0.2,0,0.5,0.1,0.7c0.3,1,1.1,1.5,2.2,1.5c1,0,1.7-0.3,2.3-0.9   c0.1-0.1,0.2-0.1,0.3,0l1.2,1c0.1,0.1,0.1,0.2,0,0.3C555.9,366.5,554.6,367.1,552.9,367.1z M554.8,360.9c0-0.3,0-0.6-0.1-0.8   c-0.1-0.4-0.4-0.7-0.7-0.9c-0.3-0.2-0.7-0.3-1.2-0.3c-1,0-1.6,0.4-1.9,1.2c-0.1,0.2-0.1,0.5-0.1,0.8c0,0.1,0,0.1,0.1,0.1h3.8   C554.8,361,554.8,361,554.8,360.9z" />
	<path
   id="path1286"
   class="st1"
   d="M563.3,367.1c-1,0-1.8-0.2-2.5-0.7s-1.2-1.1-1.5-2c-0.2-0.6-0.3-1.4-0.3-2.4s0.1-1.8,0.3-2.4   c0.3-0.9,0.8-1.5,1.5-2s1.5-0.7,2.5-0.7c1.4,0,2.5,0.5,3.4,1.5c0.1,0.1,0.1,0.2,0,0.3l-1.3,1.1c-0.1,0.1-0.2,0.1-0.3,0   c-0.5-0.6-1.1-0.8-1.8-0.8c-0.9,0-1.5,0.4-1.8,1.3c-0.1,0.4-0.2,1-0.2,1.8s0.1,1.4,0.2,1.8c0.3,0.8,0.9,1.2,1.8,1.2   c0.7,0,1.3-0.3,1.8-0.8c0.1-0.1,0.2-0.1,0.3,0l1.3,1.1c0.1,0.1,0.1,0.2,0,0.3C565.8,366.6,564.7,367.1,563.3,367.1z" />
	<path
   id="path1288"
   class="st1"
   d="M572.8,367h-1c-1,0-1.6-0.2-2.1-0.7c-0.4-0.5-0.6-1.2-0.6-2.1V359c0-0.1,0-0.1-0.1-0.1h-0.6   c-0.1,0-0.2-0.1-0.2-0.2v-1.3c0-0.1,0.1-0.2,0.2-0.2h0.6c0.1,0,0.1,0,0.1-0.1v-2.7c0-0.1,0.1-0.2,0.2-0.2h1.8   c0.1,0,0.2,0.1,0.2,0.2v2.7c0,0.1,0,0.1,0.1,0.1h1.3c0.1,0,0.2,0.1,0.2,0.2v1.3c0,0.1-0.1,0.2-0.2,0.2h-1.3c-0.1,0-0.1,0-0.1,0.1v5   c0,0.3,0.1,0.6,0.2,0.7c0.1,0.1,0.4,0.2,0.7,0.2h0.5c0.1,0,0.2,0.1,0.2,0.2v1.6C573,366.9,573,367,572.8,367z" />
</g>
<circle
   id="circle899"
   class="st2"
   cx="489.5"
   cy="298.1"
   r="46.2" />
<line
   id="line901"
   class="st3"
   x1="489.6"
   y1="674.1"
   x2="489.6"
   y2="718.7" />
<line
   id="line903"
   class="st3"
   x1="489.6"
   y1="726.8"
   x2="489.6"
   y2="771.4" />
<polyline
   id="polyline905"
   class="st4"
   points="501.8,709.1 489.8,721.1 478.4,709.8 " />
<g
   id="g1306"
   class="st0">
	<path
   id="path1296"
   class="st1"
   d="M408.9,884c-0.2-0.7-0.4-2-0.4-3.7s0.1-3,0.4-3.7c0.3-1.1,0.9-1.9,1.7-2.5s1.8-0.9,3-0.9   c1.1,0,2,0.3,2.8,0.8s1.4,1.2,1.8,2.2c0,0.1,0,0.2-0.1,0.2l-1.7,0.8c-0.1,0.1-0.2,0-0.3-0.1c-0.5-1.2-1.4-1.8-2.6-1.8   s-2,0.6-2.5,1.8c-0.2,0.5-0.2,1.5-0.2,3.1s0.1,2.6,0.2,3.1c0.4,1.2,1.2,1.8,2.5,1.8c1.2,0,2-0.6,2.6-1.8c0.1-0.1,0.1-0.2,0.3-0.1   l1.7,0.8c0.1,0,0.1,0.1,0.1,0.2c-0.4,0.9-1,1.6-1.8,2.2c-0.8,0.5-1.7,0.8-2.8,0.8c-1.2,0-2.2-0.3-3-0.9   C409.9,886,409.3,885.1,408.9,884z" />
	<path
   id="path1298"
   class="st1"
   d="M424.3,887.4c-1,0-1.8-0.2-2.5-0.7s-1.2-1.1-1.5-2c-0.2-0.7-0.3-1.5-0.3-2.4s0.1-1.7,0.3-2.4   c0.3-0.8,0.8-1.5,1.5-2s1.6-0.7,2.5-0.7c1,0,1.8,0.2,2.5,0.7s1.2,1.1,1.5,2c0.2,0.7,0.3,1.5,0.3,2.4s-0.1,1.7-0.3,2.4   c-0.3,0.8-0.8,1.5-1.5,2S425.3,887.4,424.3,887.4z M424.3,885.4c0.9,0,1.5-0.4,1.8-1.3c0.1-0.4,0.2-1,0.2-1.8s-0.1-1.4-0.2-1.8   c-0.3-0.8-0.9-1.3-1.8-1.3s-1.5,0.4-1.8,1.3c-0.1,0.4-0.2,1-0.2,1.8s0.1,1.4,0.2,1.8C422.8,885,423.4,885.4,424.3,885.4z" />
	<path
   id="path1300"
   class="st1"
   d="M444.9,887.2h-1.8c-0.1,0-0.2-0.1-0.2-0.2v-5.6c0-0.6-0.2-1.2-0.5-1.5c-0.3-0.4-0.8-0.6-1.4-0.6   s-1,0.2-1.4,0.6c-0.3,0.4-0.5,0.9-0.5,1.5v5.6c0,0.1-0.1,0.2-0.2,0.2h-1.8c-0.1,0-0.2-0.1-0.2-0.2v-5.6c0-0.6-0.2-1.2-0.5-1.5   c-0.3-0.4-0.8-0.6-1.4-0.6s-1,0.2-1.4,0.6c-0.3,0.4-0.5,0.9-0.5,1.5v5.6c0,0.1-0.1,0.2-0.2,0.2h-1.8c-0.1,0-0.2-0.1-0.2-0.2v-9.3   c0-0.1,0.1-0.2,0.2-0.2h1.8c0.1,0,0.2,0.1,0.2,0.2v0.7l0,0c0.5-0.8,1.4-1.1,2.6-1.1s2,0.4,2.7,1.3l0,0c0.8-0.9,1.8-1.3,3.1-1.3   c1.1,0,2,0.3,2.6,1s0.9,1.5,0.9,2.6v6.1C445.1,887.1,445.1,887.2,444.9,887.2z" />
	<path
   id="path1302"
   class="st1"
   d="M461.9,887.2H460c-0.1,0-0.2-0.1-0.2-0.2v-5.6c0-0.6-0.2-1.2-0.5-1.5s-0.8-0.6-1.4-0.6   s-1,0.2-1.4,0.6c-0.3,0.4-0.5,0.9-0.5,1.5v5.6c0,0.1-0.1,0.2-0.2,0.2H454c-0.1,0-0.2-0.1-0.2-0.2v-5.6c0-0.6-0.2-1.2-0.5-1.5   s-0.8-0.6-1.4-0.6s-1,0.2-1.4,0.6c-0.3,0.4-0.5,0.9-0.5,1.5v5.6c0,0.1-0.1,0.2-0.2,0.2H448c-0.1,0-0.2-0.1-0.2-0.2v-9.3   c0-0.1,0.1-0.2,0.2-0.2h1.8c0.1,0,0.2,0.1,0.2,0.2v0.7l0,0c0.5-0.8,1.4-1.1,2.6-1.1s2,0.4,2.7,1.3l0,0c0.8-0.9,1.8-1.3,3.1-1.3   c1.1,0,2,0.3,2.6,1s0.9,1.5,0.9,2.6v6.1C462.1,887.1,462,887.2,461.9,887.2z" />
	<path
   id="path1304"
   class="st1"
   d="M468.8,887.4c-1,0-1.9-0.2-2.6-0.7s-1.2-1.1-1.5-2c-0.2-0.7-0.3-1.5-0.3-2.4s0.1-1.7,0.3-2.4   c0.3-0.8,0.8-1.5,1.5-2s1.5-0.7,2.5-0.7s1.8,0.2,2.5,0.7s1.2,1.1,1.4,2c0.2,0.7,0.3,1.6,0.3,2.9c0,0.1-0.1,0.2-0.2,0.2h-6   c-0.1,0-0.1,0-0.1,0.1c0,0.2,0,0.5,0.1,0.7c0.3,1,1.1,1.5,2.2,1.5c1,0,1.7-0.3,2.3-0.9c0.1-0.1,0.2-0.1,0.3,0l1.2,1   c0.1,0.1,0.1,0.2,0,0.3C471.8,886.8,470.5,887.4,468.8,887.4z M470.7,881.2c0-0.3,0-0.6-0.1-0.8c-0.1-0.4-0.4-0.7-0.7-0.9   s-0.7-0.3-1.2-0.3c-1,0-1.6,0.4-1.9,1.2c-0.1,0.2-0.1,0.5-0.1,0.8c0,0.1,0,0.1,0.1,0.1h3.8C470.7,881.4,470.7,881.3,470.7,881.2z" />
</g>
<g
   id="g1310"
   class="st0">
	<path
   id="path1308"
   class="st1"
   d="M477.4,887.2h-1.8c-0.1,0-0.2-0.1-0.2-0.2v-9.3c0-0.1,0.1-0.2,0.2-0.2h1.8   c0.1,0,0.2,0.1,0.2,0.2v0.8l0,0c0.5-0.8,1.4-1.2,2.5-1.2c0.8,0,1.5,0.3,2,0.8c0.1,0.1,0.1,0.2,0,0.3l-1.1,1.3   c-0.1,0.1-0.2,0.1-0.3,0c-0.5-0.3-1-0.5-1.4-0.5c-1.2,0-1.8,0.8-1.8,2.5v5.2C477.6,887.1,477.6,887.2,477.4,887.2z" />
</g>
<g
   id="g1334"
   class="st0">
	<path
   id="path1312"
   class="st1"
   d="M487.5,887.4c-1,0-1.8-0.2-2.5-0.7s-1.2-1.1-1.5-2c-0.2-0.6-0.3-1.4-0.3-2.4s0.1-1.8,0.3-2.4   c0.3-0.9,0.8-1.5,1.5-2s1.5-0.7,2.5-0.7c1.4,0,2.5,0.5,3.4,1.5c0.1,0.1,0.1,0.2,0,0.3l-1.3,1.1c-0.1,0.1-0.2,0.1-0.3,0   c-0.5-0.6-1.1-0.8-1.8-0.8c-0.9,0-1.5,0.4-1.8,1.3c-0.1,0.4-0.2,1-0.2,1.8s0.1,1.4,0.2,1.8c0.3,0.8,0.9,1.2,1.8,1.2   c0.7,0,1.3-0.3,1.8-0.8c0.1-0.1,0.2-0.1,0.3,0l1.3,1.1c0.1,0.1,0.1,0.2,0,0.3C490,886.9,488.9,887.4,487.5,887.4z" />
	<path
   id="path1314"
   class="st1"
   d="M495.3,875.7h-1.8c-0.1,0-0.2-0.1-0.2-0.2v-1.7c0-0.1,0.1-0.2,0.2-0.2h1.8   c0.1,0,0.2,0.1,0.2,0.2v1.7C495.5,875.6,495.4,875.7,495.3,875.7z M495.3,887.2h-1.8c-0.1,0-0.2-0.1-0.2-0.2v-9.3   c0-0.1,0.1-0.2,0.2-0.2h1.8c0.1,0,0.2,0.1,0.2,0.2v9.3C495.5,887.1,495.4,887.2,495.3,887.2z" />
	<path
   id="path1316"
   class="st1"
   d="M505.9,887.2h-1.7c-0.1,0-0.2-0.1-0.2-0.2v-0.7l0,0c-0.5,0.8-1.4,1.1-2.7,1.1   c-0.9,0-1.7-0.3-2.3-0.8s-0.9-1.2-0.9-2.2s0.3-1.8,1-2.3s1.6-0.8,2.9-0.8h2c0.1,0,0.1,0,0.1-0.1v-0.5c0-0.6-0.2-1-0.5-1.2   c-0.3-0.3-0.9-0.4-1.7-0.4c-0.9,0-1.6,0.2-2.2,0.7c-0.1,0.1-0.2,0.1-0.3,0l-0.7-1.3c-0.1-0.1-0.1-0.2,0-0.3c0.9-0.6,2-0.9,3.4-0.9   c1.5,0,2.5,0.3,3.1,0.8s0.9,1.4,0.9,2.6v6.3C506.1,887.1,506,887.2,505.9,887.2z M501.8,885.6c1.4,0,2.2-0.5,2.2-1.6v-0.7   c0-0.1,0-0.1-0.1-0.1h-1.6c-1.4,0-2.1,0.4-2.1,1.3C500.1,885.2,500.7,885.6,501.8,885.6z" />
	<path
   id="path1318"
   class="st1"
   d="M512.4,887.3h-0.9c-0.9,0-1.6-0.2-2-0.7c-0.4-0.4-0.6-1.1-0.6-2.1v-10.8c0-0.1,0.1-0.2,0.2-0.2   h1.8c0.1,0,0.2,0.1,0.2,0.2v10.7c0,0.3,0.1,0.5,0.2,0.7c0.1,0.1,0.3,0.2,0.6,0.2h0.4c0.1,0,0.2,0.1,0.2,0.2v1.6   C512.6,887.2,512.6,887.3,512.4,887.3z" />
	<path
   id="path1320"
   class="st1"
   d="M516.8,875.7H515c-0.1,0-0.2-0.1-0.2-0.2v-1.7c0-0.1,0.1-0.2,0.2-0.2h1.8c0.1,0,0.2,0.1,0.2,0.2   v1.7C517,875.6,517,875.7,516.8,875.7z M516.8,887.2H515c-0.1,0-0.2-0.1-0.2-0.2v-9.3c0-0.1,0.1-0.2,0.2-0.2h1.8   c0.1,0,0.2,0.1,0.2,0.2v9.3C517,887.1,517,887.2,516.8,887.2z" />
	<path
   id="path1322"
   class="st1"
   d="M527,887.2h-7.3c-0.1,0-0.2-0.1-0.2-0.2v-1.5c0-0.1,0-0.1,0.1-0.2l4.9-5.8l0,0H520   c-0.1,0-0.2-0.1-0.2-0.2v-1.6c0-0.1,0.1-0.2,0.2-0.2h7c0.1,0,0.2,0.1,0.2,0.2v1.6c0,0.1,0,0.1-0.1,0.2l-4.9,5.7l0,0h4.7   c0.1,0,0.2,0.1,0.2,0.2v1.6C527.2,887.1,527.1,887.2,527,887.2z" />
	<path
   id="path1324"
   class="st1"
   d="M537.2,887.2h-1.7c-0.1,0-0.2-0.1-0.2-0.2v-0.7l0,0c-0.5,0.8-1.4,1.1-2.7,1.1   c-0.9,0-1.7-0.3-2.3-0.8s-0.9-1.2-0.9-2.2s0.3-1.8,1-2.3s1.6-0.8,2.9-0.8h2c0.1,0,0.1,0,0.1-0.1v-0.5c0-0.6-0.2-1-0.5-1.2   c-0.3-0.3-0.9-0.4-1.7-0.4c-0.9,0-1.6,0.2-2.2,0.7c-0.1,0.1-0.2,0.1-0.3,0l-0.7-1.3c-0.1-0.1-0.1-0.2,0-0.3c0.9-0.6,2-0.9,3.4-0.9   c1.5,0,2.5,0.3,3.1,0.8s0.9,1.4,0.9,2.6v6.3C537.4,887.1,537.3,887.2,537.2,887.2z M533.1,885.6c1.4,0,2.2-0.5,2.2-1.6v-0.7   c0-0.1,0-0.1-0.1-0.1h-1.6c-1.4,0-2.1,0.4-2.1,1.3C531.4,885.2,532,885.6,533.1,885.6z" />
	<path
   id="path1326"
   class="st1"
   d="M544,887.3h-1c-1,0-1.6-0.2-2.1-0.7c-0.4-0.5-0.6-1.2-0.6-2.1v-5.1c0-0.1,0-0.1-0.1-0.1h-0.6   c-0.1,0-0.2-0.1-0.2-0.2v-1.3c0-0.1,0.1-0.2,0.2-0.2h0.6c0.1,0,0.1,0,0.1-0.1v-2.7c0-0.1,0.1-0.2,0.2-0.2h1.8   c0.1,0,0.2,0.1,0.2,0.2v2.7c0,0.1,0,0.1,0.1,0.1h1.3c0.1,0,0.2,0.1,0.2,0.2v1.3c0,0.1-0.1,0.2-0.2,0.2h-1.3c-0.1,0-0.1,0-0.1,0.1v5   c0,0.3,0.1,0.6,0.2,0.7c0.1,0.1,0.4,0.2,0.7,0.2h0.5c0.1,0,0.2,0.1,0.2,0.2v1.6C544.2,887.2,544.2,887.3,544,887.3z" />
	<path
   id="path1328"
   class="st1"
   d="M548.7,875.7h-1.8c-0.1,0-0.2-0.1-0.2-0.2v-1.7c0-0.1,0.1-0.2,0.2-0.2h1.8   c0.1,0,0.2,0.1,0.2,0.2v1.7C548.9,875.6,548.9,875.7,548.7,875.7z M548.7,887.2h-1.8c-0.1,0-0.2-0.1-0.2-0.2v-9.3   c0-0.1,0.1-0.2,0.2-0.2h1.8c0.1,0,0.2,0.1,0.2,0.2v9.3C548.9,887.1,548.9,887.2,548.7,887.2z" />
	<path
   id="path1330"
   class="st1"
   d="M555.7,887.4c-1,0-1.8-0.2-2.5-0.7s-1.2-1.1-1.5-2c-0.2-0.7-0.3-1.5-0.3-2.4s0.1-1.7,0.3-2.4   c0.3-0.8,0.8-1.5,1.5-2s1.6-0.7,2.5-0.7c1,0,1.8,0.2,2.5,0.7s1.2,1.1,1.5,2c0.2,0.7,0.3,1.5,0.3,2.4s-0.1,1.7-0.3,2.4   c-0.3,0.8-0.8,1.5-1.5,2S556.6,887.4,555.7,887.4z M555.7,885.4c0.9,0,1.5-0.4,1.8-1.3c0.1-0.4,0.2-1,0.2-1.8s-0.1-1.4-0.2-1.8   c-0.3-0.8-0.9-1.3-1.8-1.3c-0.9,0-1.5,0.4-1.8,1.3c-0.1,0.4-0.2,1-0.2,1.8s0.1,1.4,0.2,1.8C554.1,885,554.7,885.4,555.7,885.4z" />
	<path
   id="path1332"
   class="st1"
   d="M570.3,887.2h-1.8c-0.1,0-0.2-0.1-0.2-0.2v-5.6c0-0.6-0.2-1.2-0.5-1.5s-0.8-0.6-1.4-0.6   c-0.6,0-1,0.2-1.4,0.6c-0.3,0.4-0.5,0.9-0.5,1.5v5.6c0,0.1-0.1,0.2-0.2,0.2h-1.8c-0.1,0-0.2-0.1-0.2-0.2v-9.3   c0-0.1,0.1-0.2,0.2-0.2h1.8c0.1,0,0.2,0.1,0.2,0.2v0.7l0,0c0.5-0.8,1.4-1.1,2.6-1.1c1,0,1.8,0.3,2.4,1c0.6,0.7,0.9,1.5,0.9,2.6v6.1   C570.5,887.1,570.5,887.2,570.3,887.2z" />
</g>
<circle
   id="circle913"
   class="st2"
   cx="489.5"
   cy="818.4"
   r="46.2" />
<line
   id="line915"
   class="st3"
   x1="203.2"
   y1="376.4"
   x2="203.2"
   y2="421" />
<line
   id="line917"
   class="st3"
   x1="203.2"
   y1="430.4"
   x2="203.2"
   y2="475" />
<polyline
   id="polyline919"
   class="st4"
   points="215.4,412.4 203.4,424.4 192,413 " />
<polyline
   id="polyline921"
   class="st3"
   points="64.2,417 64.2,297 152,297 " />
<line
   id="line923"
   class="st3"
   x1="64.2"
   y1="430.4"
   x2="64.2"
   y2="475" />
<polyline
   id="polyline925"
   class="st4"
   points="76.4,412.4 64.4,424.4 53,413 " />
<polyline
   id="polyline927"
   class="st3"
   points="343,623.2 64.4,623.2 64.4,602 " />
<line
   id="line929"
   class="st3"
   x1="359.8"
   y1="623.2"
   x2="445.4"
   y2="623.2" />
<polyline
   id="polyline931"
   class="st4"
   points="339.9,611 351.9,623 340.5,634.4 " />
<g
   id="g1352"
   class="st0">
	<path
   id="path1346"
   class="st1"
   d="M160.6,590.5v-13.3c0-0.1,0.1-0.2,0.2-0.2h1.8c0.2,0,0.3,0.1,0.3,0.2l3.8,8.4h0.1l3.7-8.4   c0.1-0.1,0.2-0.2,0.3-0.2h1.8c0.1,0,0.2,0.1,0.2,0.2v13.3c0,0.1-0.1,0.2-0.2,0.2h-1.7c-0.1,0-0.2-0.1-0.2-0.2v-8.4h-0.1l-2.9,6.4   c-0.1,0.2-0.2,0.3-0.4,0.3h-1.2c-0.2,0-0.3-0.1-0.4-0.3l-2.9-6.4h-0.1v8.4c0,0.1-0.1,0.2-0.2,0.2h-1.7   C160.7,590.7,160.6,590.6,160.6,590.5z" />
	<path
   id="path1348"
   class="st1"
   d="M183.2,590.7h-1.7c-0.1,0-0.2-0.1-0.2-0.2v-0.7l0,0c-0.5,0.8-1.4,1.1-2.7,1.1   c-0.9,0-1.7-0.3-2.3-0.8s-0.9-1.2-0.9-2.2s0.3-1.8,1-2.3s1.6-0.8,2.9-0.8h2c0.1,0,0.1,0,0.1-0.1v-0.5c0-0.6-0.2-1-0.5-1.2   c-0.3-0.3-0.9-0.4-1.7-0.4c-0.9,0-1.6,0.2-2.2,0.7c-0.1,0.1-0.2,0.1-0.3,0L176,582c-0.1-0.1-0.1-0.2,0-0.3c0.9-0.6,2-0.9,3.4-0.9   c1.5,0,2.5,0.3,3.1,0.8s0.9,1.4,0.9,2.6v6.3C183.5,590.6,183.4,590.7,183.2,590.7z M179.2,589.1c1.4,0,2.2-0.5,2.2-1.6v-0.7   c0-0.1,0-0.1-0.1-0.1h-1.6c-1.4,0-2.1,0.4-2.1,1.3C177.5,588.7,178.1,589.1,179.2,589.1z" />
	<path
   id="path1350"
   class="st1"
   d="M188.4,590.7h-1.8c-0.1,0-0.2-0.1-0.2-0.2v-9.3c0-0.1,0.1-0.2,0.2-0.2h1.8   c0.1,0,0.2,0.1,0.2,0.2v0.8l0,0c0.5-0.8,1.4-1.2,2.5-1.2c0.8,0,1.5,0.3,2,0.8c0.1,0.1,0.1,0.2,0,0.3l-1.1,1.3   c-0.1,0.1-0.2,0.1-0.3,0c-0.5-0.3-1-0.5-1.4-0.5c-1.2,0-1.8,0.8-1.8,2.5v5.2C188.6,590.6,188.5,590.7,188.4,590.7z" />
</g>
<g
   id="g1356"
   class="st0">
	<path
   id="path1354"
   class="st1"
   d="M203.2,590.7h-2.1c-0.1,0-0.2-0.1-0.3-0.2l-2.5-4.1l-1.3,1.5v2.6c0,0.1-0.1,0.2-0.2,0.2H195   c-0.1,0-0.2-0.1-0.2-0.2v-13.3c0-0.1,0.1-0.2,0.2-0.2h1.8c0.1,0,0.2,0.1,0.2,0.2v7.9l3.3-3.9c0.1-0.1,0.2-0.2,0.4-0.2h2.1   c0.1,0,0.1,0,0.1,0.1v0.1l-3.1,3.5l3.5,5.7v0.1C203.3,590.5,203.4,590.6,203.2,590.7C203.3,590.7,203.3,590.7,203.2,590.7z" />
</g>
<g
   id="g1368"
   class="st0">
	<path
   id="path1358"
   class="st1"
   d="M208.9,590.9c-1,0-1.9-0.2-2.6-0.7s-1.2-1.1-1.5-2c-0.2-0.7-0.3-1.5-0.3-2.4s0.1-1.7,0.3-2.4   c0.3-0.8,0.8-1.5,1.5-2s1.5-0.7,2.5-0.7s1.8,0.2,2.5,0.7s1.2,1.1,1.4,2c0.2,0.7,0.3,1.6,0.3,2.9c0,0.1-0.1,0.2-0.2,0.2h-6   c-0.1,0-0.1,0-0.1,0.1c0,0.2,0,0.5,0.1,0.7c0.3,1,1.1,1.5,2.2,1.5c1,0,1.7-0.3,2.3-0.9c0.1-0.1,0.2-0.1,0.3,0l1.2,1   c0.1,0.1,0.1,0.2,0,0.3C211.9,590.4,210.6,590.9,208.9,590.9z M210.8,584.8c0-0.3,0-0.6-0.1-0.8c-0.1-0.4-0.4-0.7-0.7-0.9   s-0.7-0.3-1.2-0.3c-1,0-1.6,0.4-1.9,1.2c-0.1,0.2-0.1,0.5-0.1,0.8c0,0.1,0,0.1,0.1,0.1L210.8,584.8   C210.7,584.9,210.8,584.8,210.8,584.8z" />
	<path
   id="path1360"
   class="st1"
   d="M219.3,590.8h-1c-1,0-1.6-0.2-2.1-0.7c-0.4-0.5-0.6-1.2-0.6-2.1v-5.1c0-0.1,0-0.1-0.1-0.1h-0.6   c-0.1,0-0.2-0.1-0.2-0.2v-1.3c0-0.1,0.1-0.2,0.2-0.2h0.6c0.1,0,0.1,0,0.1-0.1v-2.7c0-0.1,0.1-0.2,0.2-0.2h1.8   c0.1,0,0.2,0.1,0.2,0.2v2.7c0,0.1,0,0.1,0.1,0.1h1.3c0.1,0,0.2,0.1,0.2,0.2v1.3c0,0.1-0.1,0.2-0.2,0.2H218c-0.1,0-0.1,0-0.1,0.1v5   c0,0.3,0.1,0.6,0.2,0.7c0.1,0.1,0.4,0.2,0.7,0.2h0.5c0.1,0,0.2,0.1,0.2,0.2v1.6C219.5,590.7,219.4,590.8,219.3,590.8z" />
	<path
   id="path1362"
   class="st1"
   d="M224,579.2h-1.8c-0.1,0-0.2-0.1-0.2-0.2v-1.7c0-0.1,0.1-0.2,0.2-0.2h1.8c0.1,0,0.2,0.1,0.2,0.2   v1.7C224.2,579.1,224.1,579.2,224,579.2z M224,590.7h-1.8c-0.1,0-0.2-0.1-0.2-0.2v-9.3c0-0.1,0.1-0.2,0.2-0.2h1.8   c0.1,0,0.2,0.1,0.2,0.2v9.3C224.2,590.6,224.1,590.7,224,590.7z" />
	<path
   id="path1364"
   class="st1"
   d="M235.1,590.7h-1.8c-0.1,0-0.2-0.1-0.2-0.2v-5.6c0-0.6-0.2-1.2-0.5-1.5s-0.8-0.6-1.4-0.6   c-0.6,0-1,0.2-1.4,0.6c-0.3,0.4-0.5,0.9-0.5,1.5v5.6c0,0.1-0.1,0.2-0.2,0.2h-1.8c-0.1,0-0.2-0.1-0.2-0.2v-9.3   c0-0.1,0.1-0.2,0.2-0.2h1.8c0.1,0,0.2,0.1,0.2,0.2v0.7l0,0c0.5-0.8,1.4-1.1,2.6-1.1c1,0,1.8,0.3,2.4,1s0.9,1.5,0.9,2.6v6.1   C235.3,590.6,235.2,590.7,235.1,590.7z" />
	<path
   id="path1366"
   class="st1"
   d="M241.4,594.5c-0.7,0-1.4-0.1-2-0.4c-0.6-0.3-1.2-0.6-1.5-1.1c-0.1-0.1-0.1-0.2,0-0.3l1.2-1.2   c0.1-0.1,0.2-0.1,0.3,0c0.6,0.6,1.3,0.9,2.1,0.9c1.4,0,2.2-0.8,2.2-2.3v-0.9l0,0c-0.5,0.8-1.3,1.1-2.5,1.1c-0.8,0-1.5-0.2-2.1-0.6   s-1-1-1.2-1.7s-0.3-1.5-0.3-2.5s0.1-1.8,0.3-2.5c0.5-1.6,1.6-2.4,3.3-2.4c1.2,0,2,0.4,2.5,1.1l0,0V581c0-0.1,0.1-0.2,0.2-0.2h1.8   c0.1,0,0.2,0.1,0.2,0.2v8.9c0,1.4-0.4,2.5-1.2,3.3S242.9,594.5,241.4,594.5z M241.8,588.4c0.9,0,1.5-0.4,1.7-1.2   c0.1-0.4,0.2-0.9,0.2-1.6c0-0.6-0.1-1.2-0.2-1.6c-0.3-0.8-0.8-1.2-1.7-1.2s-1.4,0.4-1.7,1.2c-0.1,0.4-0.2,1-0.2,1.6   c0,0.7,0.1,1.2,0.2,1.6C240.3,588,240.9,588.4,241.8,588.4z" />
</g>
<circle
   id="circle939"
   class="st2"
   cx="203.1"
   cy="522"
   r="46.2" />
<g
   id="g1373"
   class="st0">
	<path
   id="path1371"
   class="st1"
   d="M178.4,885.6h-2.2c-0.1,0-0.2-0.1-0.3-0.2l-2.6-5.3h-2.4c-0.1,0-0.1,0-0.1,0.1v5.2   c0,0.1-0.1,0.2-0.2,0.2h-2c-0.1,0-0.2-0.1-0.2-0.2v-13.3c0-0.1,0.1-0.2,0.2-0.2h5.3c1.3,0,2.3,0.4,3.1,1.1c0.8,0.8,1.2,1.7,1.2,2.9   c0,0.9-0.2,1.7-0.7,2.3c-0.5,0.7-1.1,1.1-1.9,1.4l2.9,5.6c0,0.1,0,0.1,0,0.2C178.6,885.6,178.5,885.6,178.4,885.6z M173.9,877.9   c0.6,0,1.1-0.2,1.5-0.5c0.4-0.4,0.6-0.8,0.6-1.4c0-0.6-0.2-1.1-0.6-1.4c-0.4-0.4-0.9-0.5-1.5-0.5H171c-0.1,0-0.1,0-0.1,0.1v3.6   c0,0.1,0,0.1,0.1,0.1L173.9,877.9L173.9,877.9z" />
</g>
<g
   id="g1377"
   class="st0">
	<path
   id="path1375"
   class="st1"
   d="M184.4,885.8c-1,0-1.9-0.2-2.6-0.7s-1.2-1.1-1.5-2c-0.2-0.7-0.3-1.5-0.3-2.4s0.1-1.7,0.3-2.4   c0.3-0.8,0.8-1.5,1.5-2s1.5-0.7,2.5-0.7s1.8,0.2,2.5,0.7s1.2,1.1,1.4,2c0.2,0.7,0.3,1.6,0.3,2.9c0,0.1-0.1,0.2-0.2,0.2h-6   c-0.1,0-0.1,0-0.1,0.1c0,0.2,0,0.5,0.1,0.7c0.3,1,1.1,1.5,2.2,1.5c1,0,1.7-0.3,2.3-0.9c0.1-0.1,0.2-0.1,0.3,0l1.2,1   c0.1,0.1,0.1,0.2,0,0.3C187.5,885.3,186.2,885.8,184.4,885.8z M186.4,879.7c0-0.3,0-0.6-0.1-0.8c-0.1-0.4-0.4-0.7-0.7-0.9   s-0.7-0.3-1.2-0.3c-1,0-1.6,0.4-1.9,1.2c-0.1,0.2-0.1,0.5-0.1,0.8c0,0.1,0,0.1,0.1,0.1L186.4,879.7L186.4,879.7z" />
</g>
<g
   id="g1381"
   class="st0">
	<path
   id="path1379"
   class="st1"
   d="M195.3,885.6h-1.6c-0.1,0-0.2-0.1-0.3-0.2l-3.4-9.3c0-0.1,0-0.2,0.2-0.2h2   c0.1,0,0.2,0.1,0.2,0.2l2.1,6.3l0,0l2.1-6.3c0-0.1,0.1-0.2,0.2-0.2h1.9c0.1,0,0.2,0.1,0.2,0.2l-3.4,9.3   C195.5,885.5,195.4,885.6,195.3,885.6z" />
</g>
<g
   id="g1391"
   class="st0">
	<path
   id="path1383"
   class="st1"
   d="M204.6,885.8c-1,0-1.9-0.2-2.6-0.7s-1.2-1.1-1.5-2c-0.2-0.7-0.3-1.5-0.3-2.4s0.1-1.7,0.3-2.4   c0.3-0.8,0.8-1.5,1.5-2s1.5-0.7,2.5-0.7s1.8,0.2,2.5,0.7s1.2,1.1,1.4,2c0.2,0.7,0.3,1.6,0.3,2.9c0,0.1-0.1,0.2-0.2,0.2h-6   c-0.1,0-0.1,0-0.1,0.1c0,0.2,0,0.5,0.1,0.7c0.3,1,1.1,1.5,2.2,1.5c1,0,1.7-0.3,2.3-0.9c0.1-0.1,0.2-0.1,0.3,0l1.2,1   c0.1,0.1,0.1,0.2,0,0.3C207.6,885.3,206.3,885.8,204.6,885.8z M206.5,879.7c0-0.3,0-0.6-0.1-0.8c-0.1-0.4-0.4-0.7-0.7-0.9   s-0.7-0.3-1.2-0.3c-1,0-1.6,0.4-1.9,1.2c-0.1,0.2-0.1,0.5-0.1,0.8c0,0.1,0,0.1,0.1,0.1L206.5,879.7   C206.5,879.8,206.5,879.7,206.5,879.7z" />
	<path
   id="path1385"
   class="st1"
   d="M219.2,885.6h-1.8c-0.1,0-0.2-0.1-0.2-0.2v-5.6c0-0.6-0.2-1.2-0.5-1.5s-0.8-0.6-1.4-0.6   c-0.6,0-1,0.2-1.4,0.6c-0.3,0.4-0.5,0.9-0.5,1.5v5.6c0,0.1-0.1,0.2-0.2,0.2h-1.8c-0.1,0-0.2-0.1-0.2-0.2v-9.3   c0-0.1,0.1-0.2,0.2-0.2h1.8c0.1,0,0.2,0.1,0.2,0.2v0.7l0,0c0.5-0.8,1.4-1.1,2.6-1.1c1,0,1.8,0.3,2.4,1s0.9,1.5,0.9,2.6v6.1   C219.4,885.5,219.3,885.6,219.2,885.6z" />
	<path
   id="path1387"
   class="st1"
   d="M230,885.6h-1.8c-0.1,0-0.2-0.1-0.2-0.2v-0.7l0,0c-0.6,0.8-1.4,1.1-2.5,1.1c-1,0-1.8-0.3-2.4-1   c-0.6-0.7-0.9-1.5-0.9-2.6v-6.1c0-0.1,0.1-0.2,0.2-0.2h1.8c0.1,0,0.2,0.1,0.2,0.2v5.6c0,0.6,0.2,1.2,0.5,1.5s0.8,0.6,1.3,0.6   c0.6,0,1-0.2,1.3-0.6c0.3-0.4,0.5-0.9,0.5-1.5v-5.6c0-0.1,0.1-0.2,0.2-0.2h1.8c0.1,0,0.2,0.1,0.2,0.2v9.3   C230.2,885.5,230.1,885.6,230,885.6z" />
	<path
   id="path1389"
   class="st1"
   d="M237,885.8c-1,0-1.9-0.2-2.6-0.7s-1.2-1.1-1.5-2c-0.2-0.7-0.3-1.5-0.3-2.4s0.1-1.7,0.3-2.4   c0.3-0.8,0.8-1.5,1.5-2s1.5-0.7,2.5-0.7s1.8,0.2,2.5,0.7s1.2,1.1,1.4,2c0.2,0.7,0.3,1.6,0.3,2.9c0,0.1-0.1,0.2-0.2,0.2h-6   c-0.1,0-0.1,0-0.1,0.1c0,0.2,0,0.5,0.1,0.7c0.3,1,1.1,1.5,2.2,1.5c1,0,1.7-0.3,2.3-0.9c0.1-0.1,0.2-0.1,0.3,0l1.2,1   c0.1,0.1,0.1,0.2,0,0.3C240,885.3,238.7,885.8,237,885.8z M238.9,879.7c0-0.3,0-0.6-0.1-0.8c-0.1-0.4-0.4-0.7-0.7-0.9   s-0.7-0.3-1.2-0.3c-1,0-1.6,0.4-1.9,1.2c-0.1,0.2-0.1,0.5-0.1,0.8c0,0.1,0,0.1,0.1,0.1L238.9,879.7   C238.9,879.8,238.9,879.7,238.9,879.7z" />
</g>
<circle
   id="circle951"
   class="st2"
   cx="204.3"
   cy="816.8"
   r="46.2" />
<path
   id="path959"
   class="st2"
   d="M467.8,613.3c1.8-1,3.6-2.1,5.3-3.3c2.3-1.7,3.5-5,1.8-5.4c-2.4-0.6-3.1,7.5-0.8,8.6  c2.8,1.3,9.9-7.2,9.9-7.2l-2.3,7.4c2.2-1.6,4.8-2.5,7.5-2.5" />
<path
   id="path961"
   class="st2"
   d="M511.5,563c3.4,0.5-2.3,11.9-8.3,25.1s-13.4,21.9-13.6,22.6c-0.5,1.5,2.3-11.9,8.3-25.1  S508.5,562.6,511.5,563z" />
<line
   id="line963"
   class="st2"
   x1="501.2"
   y1="578.5"
   x2="506.3"
   y2="580.9" />
<polygon
   id="polygon965"
   class="st5"
   points="476,284.4 467.8,284.4 467.8,276.2 475.4,276.2 474.1,277.4 469.1,277.4 469.1,283.1   474.7,283.1 474.7,282.2 476,280.9 " />
<rect
   id="rect967"
   x="468.4"
   y="288.3"
   class="st2"
   width="6.9"
   height="6.9" />
<rect
   id="rect969"
   x="468.4"
   y="299.9"
   class="st2"
   width="6.9"
   height="6.9" />
<rect
   id="rect971"
   x="468.4"
   y="311.4"
   class="st2"
   width="6.9"
   height="6.9" />
<line
   id="line973"
   class="st2"
   x1="482.3"
   y1="280.3"
   x2="511.2"
   y2="280.3" />
<line
   id="line975"
   class="st2"
   x1="482.3"
   y1="291.8"
   x2="511.2"
   y2="291.8" />
<line
   id="line977"
   class="st2"
   x1="482.3"
   y1="303.4"
   x2="511.2"
   y2="303.4" />
<line
   id="line979"
   class="st2"
   x1="482.3"
   y1="314.9"
   x2="511.2"
   y2="314.9" />
<polyline
   id="polyline981"
   class="st2"
   points="470.3,278.7 472.8,281.2 478.5,275.6 " />
<g
   id="g1427"
   class="st0">
	<path
   id="path1409"
   class="st1"
   d="M449.1,658v-13.3c0-0.1,0.1-0.2,0.2-0.2h2c0.1,0,0.2,0.1,0.2,0.2v11.2c0,0.1,0,0.1,0.1,0.1h6.3   c0.1,0,0.2,0.1,0.2,0.2v1.7c0,0.1-0.1,0.2-0.2,0.2h-8.6C449.2,658.2,449.1,658.1,449.1,658z" />
	<path
   id="path1411"
   class="st1"
   d="M462.1,646.7h-1.8c-0.1,0-0.2-0.1-0.2-0.2v-1.7c0-0.1,0.1-0.2,0.2-0.2h1.8   c0.1,0,0.2,0.1,0.2,0.2v1.7C462.3,646.6,462.2,646.7,462.1,646.7z M462.1,658.2h-1.8c-0.1,0-0.2-0.1-0.2-0.2v-9.3   c0-0.1,0.1-0.2,0.2-0.2h1.8c0.1,0,0.2,0.1,0.2,0.2v9.3C462.3,658.1,462.2,658.2,462.1,658.2z" />
	<path
   id="path1413"
   class="st1"
   d="M469,658.4c-1,0-1.8-0.2-2.5-0.7s-1.2-1.1-1.5-2c-0.2-0.6-0.3-1.4-0.3-2.4s0.1-1.8,0.3-2.4   c0.3-0.9,0.8-1.5,1.5-2s1.5-0.7,2.5-0.7c1.4,0,2.5,0.5,3.4,1.5c0.1,0.1,0.1,0.2,0,0.3l-1.3,1.1c-0.1,0.1-0.2,0.1-0.3,0   c-0.5-0.6-1.1-0.8-1.8-0.8c-0.9,0-1.5,0.4-1.8,1.3c-0.1,0.4-0.2,1-0.2,1.8s0.1,1.4,0.2,1.8c0.3,0.8,0.9,1.2,1.8,1.2   c0.7,0,1.3-0.3,1.8-0.8c0.1-0.1,0.2-0.1,0.3,0l1.3,1.1c0.1,0.1,0.1,0.2,0,0.3C471.5,657.9,470.4,658.4,469,658.4z" />
	<path
   id="path1415"
   class="st1"
   d="M478.6,658.4c-1,0-1.9-0.2-2.6-0.7s-1.2-1.1-1.5-2c-0.2-0.7-0.3-1.5-0.3-2.4s0.1-1.7,0.3-2.4   c0.3-0.8,0.8-1.5,1.5-2s1.5-0.7,2.5-0.7s1.8,0.2,2.5,0.7s1.2,1.1,1.4,2c0.2,0.7,0.3,1.6,0.3,2.9c0,0.1-0.1,0.2-0.2,0.2h-6   c-0.1,0-0.1,0-0.1,0.1c0,0.2,0,0.5,0.1,0.7c0.3,1,1.1,1.5,2.2,1.5c1,0,1.7-0.3,2.3-0.9c0.1-0.1,0.2-0.1,0.3,0l1.2,1   c0.1,0.1,0.1,0.2,0,0.3C481.7,657.9,480.3,658.4,478.6,658.4z M480.6,652.2c0-0.3,0-0.6-0.1-0.8c-0.1-0.4-0.4-0.7-0.7-0.9   s-0.7-0.3-1.2-0.3c-1,0-1.6,0.4-1.9,1.2c-0.1,0.2-0.1,0.5-0.1,0.8c0,0.1,0,0.1,0.1,0.1h3.8C480.5,652.4,480.6,652.3,480.6,652.2z" />
	<path
   id="path1417"
   class="st1"
   d="M493.2,658.2h-1.8c-0.1,0-0.2-0.1-0.2-0.2v-5.6c0-0.6-0.2-1.2-0.5-1.5c-0.3-0.4-0.8-0.6-1.4-0.6   s-1,0.2-1.4,0.6s-0.5,0.9-0.5,1.5v5.6c0,0.1-0.1,0.2-0.2,0.2h-1.8c-0.1,0-0.2-0.1-0.2-0.2v-9.3c0-0.1,0.1-0.2,0.2-0.2h1.8   c0.1,0,0.2,0.1,0.2,0.2v0.7l0,0c0.5-0.8,1.4-1.1,2.6-1.1c1,0,1.8,0.3,2.4,1s0.9,1.5,0.9,2.6v6.1   C493.4,658.1,493.4,658.2,493.2,658.2z" />
	<path
   id="path1419"
   class="st1"
   d="M499.8,658.4c-1.7,0-3.1-0.5-4.2-1.5c-0.1-0.1-0.1-0.2,0-0.3l1.1-1.2c0.1-0.1,0.2-0.1,0.3,0   c0.4,0.3,0.8,0.6,1.3,0.8s1,0.3,1.5,0.3c0.6,0,1-0.1,1.3-0.3s0.5-0.5,0.5-0.8s-0.1-0.5-0.4-0.7s-0.7-0.3-1.3-0.3l-1-0.1   c-2-0.2-3-1.2-3-2.9c0-1,0.3-1.7,1-2.2s1.6-0.8,2.8-0.8c1.4,0,2.6,0.4,3.6,1.2c0.1,0.1,0.1,0.2,0,0.3l-1,1.2   c-0.1,0.1-0.2,0.1-0.3,0c-0.8-0.5-1.6-0.8-2.5-0.8c-0.5,0-0.8,0.1-1.1,0.3s-0.4,0.4-0.4,0.7s0.1,0.5,0.4,0.7   c0.2,0.2,0.6,0.3,1.2,0.3l1,0.1c1,0.1,1.7,0.4,2.2,0.9s0.8,1.1,0.8,1.9c0,1-0.4,1.8-1.1,2.4C502.1,658.1,501.1,658.4,499.8,658.4z" />
	<path
   id="path1421"
   class="st1"
   d="M508.3,646.7h-1.8c-0.1,0-0.2-0.1-0.2-0.2v-1.7c0-0.1,0.1-0.2,0.2-0.2h1.8   c0.1,0,0.2,0.1,0.2,0.2v1.7C508.5,646.6,508.5,646.7,508.3,646.7z M508.3,658.2h-1.8c-0.1,0-0.2-0.1-0.2-0.2v-9.3   c0-0.1,0.1-0.2,0.2-0.2h1.8c0.1,0,0.2,0.1,0.2,0.2v9.3C508.5,658.1,508.5,658.2,508.3,658.2z" />
	<path
   id="path1423"
   class="st1"
   d="M519.4,658.2h-1.8c-0.1,0-0.2-0.1-0.2-0.2v-5.6c0-0.6-0.2-1.2-0.5-1.5c-0.3-0.4-0.8-0.6-1.4-0.6   c-0.6,0-1,0.2-1.4,0.6c-0.3,0.4-0.5,0.9-0.5,1.5v5.6c0,0.1-0.1,0.2-0.2,0.2h-1.8c-0.1,0-0.2-0.1-0.2-0.2v-9.3   c0-0.1,0.1-0.2,0.2-0.2h1.8c0.1,0,0.2,0.1,0.2,0.2v0.7l0,0c0.5-0.8,1.4-1.1,2.6-1.1c1,0,1.8,0.3,2.4,1c0.6,0.7,0.9,1.5,0.9,2.6v6.1   C519.6,658.1,519.6,658.2,519.4,658.2z" />
	<path
   id="path1425"
   class="st1"
   d="M525.8,662c-0.7,0-1.3-0.1-2-0.4c-0.6-0.3-1.2-0.6-1.5-1.1c-0.1-0.1-0.1-0.2,0-0.3l1.2-1.2   c0.1-0.1,0.2-0.1,0.3,0c0.6,0.6,1.3,0.9,2.1,0.9c1.4,0,2.2-0.8,2.2-2.3v-0.9l0,0c-0.5,0.8-1.3,1.1-2.5,1.1c-0.8,0-1.5-0.2-2.1-0.6   c-0.6-0.4-1-1-1.2-1.7S522,654,522,653s0.1-1.8,0.3-2.5c0.5-1.6,1.6-2.4,3.3-2.4c1.2,0,2,0.4,2.5,1.1l0,0v-0.7   c0-0.1,0.1-0.2,0.2-0.2h1.8c0.1,0,0.2,0.1,0.2,0.2v8.9c0,1.4-0.4,2.5-1.2,3.3S527.3,662,525.8,662z M526.1,655.9   c0.9,0,1.5-0.4,1.7-1.2c0.1-0.4,0.2-0.9,0.2-1.6c0-0.6-0.1-1.2-0.2-1.6c-0.3-0.8-0.8-1.2-1.7-1.2s-1.4,0.4-1.7,1.2   c-0.1,0.4-0.2,1-0.2,1.6c0,0.7,0.1,1.2,0.2,1.6C524.7,655.5,525.2,655.9,526.1,655.9z" />
</g>
<circle
   id="circle985"
   class="st2"
   cx="489.5"
   cy="589.5"
   r="46.2" />
<line
   id="line987"
   class="st3"
   x1="245.9"
   y1="550.4"
   x2="343"
   y2="550.4" />
<line
   id="line989"
   class="st3"
   x1="358.5"
   y1="550.4"
   x2="445.4"
   y2="550.4" />
<polyline
   id="polyline991"
   class="st4"
   points="338.8,538.2 350.8,550.2 339.4,561.6 " />
<g
   id="g1447"
   class="st0">
	<path
   id="path1433"
   class="st1"
   d="M37.7,588.4c-1,0-1.9-0.2-2.8-0.5c-0.9-0.3-1.6-0.8-2.2-1.3c-0.1-0.1-0.1-0.2,0-0.3l1.2-1.4   c0.1-0.1,0.2-0.1,0.3,0c1.2,1,2.5,1.4,3.7,1.4c0.8,0,1.4-0.2,1.9-0.5c0.5-0.4,0.7-0.8,0.7-1.4c0-0.5-0.2-0.9-0.6-1.2   c-0.4-0.3-1-0.5-1.9-0.6l-0.7-0.1c-2.7-0.4-4.1-1.7-4.1-3.9c0-1.2,0.4-2.2,1.3-3c0.8-0.8,2-1.1,3.4-1.1c1.7,0,3.2,0.5,4.4,1.4   c0.1,0.1,0.1,0.2,0,0.3l-1,1.5c-0.1,0.1-0.2,0.1-0.3,0.1c-1.1-0.7-2.2-1.1-3.3-1.1c-0.7,0-1.2,0.2-1.6,0.5s-0.6,0.8-0.6,1.3   c0,1,0.8,1.6,2.5,1.8l0.7,0.1c2.7,0.4,4.1,1.7,4.1,4c0,1.3-0.4,2.3-1.3,3.1C40.6,588,39.4,588.4,37.7,588.4z" />
	<path
   id="path1435"
   class="st1"
   d="M49,588.3h-1c-1,0-1.6-0.2-2.1-0.7c-0.4-0.5-0.6-1.2-0.6-2.1v-5.1c0-0.1,0-0.1-0.1-0.1h-0.6   c-0.1,0-0.2-0.1-0.2-0.2v-1.3c0-0.1,0.1-0.2,0.2-0.2h0.6c0.1,0,0.1,0,0.1-0.1v-2.7c0-0.1,0.1-0.2,0.2-0.2h1.8   c0.1,0,0.2,0.1,0.2,0.2v2.7c0,0.1,0,0.1,0.1,0.1H49c0.1,0,0.2,0.1,0.2,0.2v1.3c0,0.1-0.1,0.2-0.2,0.2h-1.3c-0.1,0-0.1,0-0.1,0.1v5   c0,0.3,0.1,0.6,0.2,0.7c0.1,0.1,0.4,0.2,0.7,0.2H49c0.1,0,0.2,0.1,0.2,0.2v1.6C49.2,588.2,49.1,588.3,49,588.3z" />
	<path
   id="path1437"
   class="st1"
   d="M59.1,588.2h-1.7c-0.1,0-0.2-0.1-0.2-0.2v-0.7l0,0c-0.5,0.8-1.4,1.1-2.7,1.1   c-0.9,0-1.7-0.3-2.3-0.8s-0.9-1.2-0.9-2.2s0.3-1.8,1-2.3s1.6-0.8,2.9-0.8h2c0.1,0,0.1,0,0.1-0.1v-0.5c0-0.6-0.2-1-0.5-1.2   c-0.3-0.3-0.9-0.4-1.7-0.4c-0.9,0-1.6,0.2-2.2,0.7c-0.1,0.1-0.2,0.1-0.3,0l-0.7-1.3c-0.1-0.1-0.1-0.2,0-0.3c0.9-0.6,2-0.9,3.4-0.9   c1.5,0,2.5,0.3,3.1,0.8s0.9,1.4,0.9,2.6v6.3C59.3,588.1,59.2,588.2,59.1,588.2z M55,586.6c1.4,0,2.2-0.5,2.2-1.6v-0.7   c0-0.1,0-0.1-0.1-0.1h-1.6c-1.4,0-2.1,0.4-2.1,1.3C53.3,586.2,53.9,586.6,55,586.6z" />
	<path
   id="path1439"
   class="st1"
   d="M64.2,588.2h-1.8c-0.1,0-0.2-0.1-0.2-0.2v-9.3c0-0.1,0.1-0.2,0.2-0.2h1.8c0.1,0,0.2,0.1,0.2,0.2   v0.8l0,0c0.5-0.8,1.4-1.2,2.5-1.2c0.8,0,1.5,0.3,2,0.8c0.1,0.1,0.1,0.2,0,0.3l-1.1,1.3c-0.1,0.1-0.2,0.1-0.3,0   c-0.5-0.3-1-0.5-1.4-0.5c-1.2,0-1.8,0.8-1.8,2.5v5.2C64.4,588.1,64.3,588.2,64.2,588.2z" />
	<path
   id="path1441"
   class="st1"
   d="M74.4,588.3h-1c-1,0-1.6-0.2-2.1-0.7c-0.4-0.5-0.6-1.2-0.6-2.1v-5.1c0-0.1,0-0.1-0.1-0.1H70   c-0.1,0-0.2-0.1-0.2-0.2v-1.3c0-0.1,0.1-0.2,0.2-0.2h0.6c0.1,0,0.1,0,0.1-0.1v-2.7c0-0.1,0.1-0.2,0.2-0.2h1.8   c0.1,0,0.2,0.1,0.2,0.2v2.7c0,0.1,0,0.1,0.1,0.1h1.3c0.1,0,0.2,0.1,0.2,0.2v1.3c0,0.1-0.1,0.2-0.2,0.2H73c-0.1,0-0.1,0-0.1,0.1v5   c0,0.3,0.1,0.6,0.2,0.7c0.1,0.1,0.4,0.2,0.7,0.2h0.5c0.1,0,0.2,0.1,0.2,0.2v1.6C74.6,588.2,74.6,588.3,74.4,588.3z" />
	<path
   id="path1443"
   class="st1"
   d="M84.9,588.2H83c-0.1,0-0.2-0.1-0.2-0.2v-0.7l0,0c-0.6,0.8-1.4,1.1-2.5,1.1c-1,0-1.8-0.3-2.4-1   s-0.9-1.5-0.9-2.6v-6.1c0-0.1,0.1-0.2,0.2-0.2H79c0.1,0,0.2,0.1,0.2,0.2v5.6c0,0.6,0.2,1.2,0.5,1.5s0.8,0.6,1.3,0.6   c0.6,0,1-0.2,1.3-0.6c0.3-0.4,0.5-0.9,0.5-1.5v-5.6c0-0.1,0.1-0.2,0.2-0.2h1.8c0.1,0,0.2,0.1,0.2,0.2v9.3   C85.1,588.1,85,588.2,84.9,588.2z" />
	<path
   id="path1445"
   class="st1"
   d="M90.1,591.8h-1.8c-0.1,0-0.2-0.1-0.2-0.2v-12.9c0-0.1,0.1-0.2,0.2-0.2h1.8   c0.1,0,0.2,0.1,0.2,0.2v0.7l0,0c0.5-0.8,1.4-1.1,2.6-1.1c1.7,0,2.8,0.8,3.4,2.3c0.2,0.7,0.3,1.6,0.3,2.7c0,1.1-0.1,2-0.3,2.7   c-0.5,1.6-1.6,2.3-3.4,2.3c-1.2,0-2-0.4-2.6-1.1l0,0v4.3C90.3,591.7,90.2,591.8,90.1,591.8z M92.3,586.4c0.9,0,1.5-0.4,1.8-1.2   c0.1-0.4,0.2-1,0.2-1.8s-0.1-1.4-0.2-1.8c-0.3-0.8-0.9-1.2-1.8-1.2s-1.5,0.4-1.8,1.2c-0.1,0.4-0.2,1-0.2,1.8s0.1,1.4,0.2,1.8   C90.7,586,91.3,586.4,92.3,586.4z" />
</g>
<ellipse
   id="circle995"
   transform="matrix(6.652054e-02 -0.9978 0.9978 6.652054e-02 -458.1653 549.2786)"
   class="st6"
   cx="64.5"
   cy="519.5"
   rx="46.2"
   ry="46.2" />
<line
   id="line997"
   class="st2"
   x1="498.5"
   y1="803"
   x2="505.9"
   y2="808.1" />
<circle
   id="circle999"
   class="st2"
   cx="497.7"
   cy="812.1"
   r="3.5" />
<line
   id="line1001"
   class="st2"
   x1="491.3"
   y1="821.3"
   x2="482.4"
   y2="834.3" />
<path
   id="path1003"
   class="st2"
   d="M488.2,811.8c-5,7.2-7.9,17.8-7.9,17.8l7.2,5c0,0,8.8-6.5,13.8-13.8c6.3-9.1,4.9-21,4.9-21  S494.5,802.7,488.2,811.8z" />
<path
   id="path1005"
   class="st2"
   d="M485,817.5l-6.7,1.2l-5.9,8.6c2.6-2.3,6.2-3.3,9.6-2.6" />
<path
   id="path1007"
   class="st2"
   d="M491.5,831.3c1.8,3,2.2,6.6,1,9.9l5.9-8.6l-1.2-6.7" />
<line
   id="line1009"
   class="st2"
   x1="479.5"
   y1="832.3"
   x2="475.1"
   y2="838.8" />
<line
   id="line1011"
   class="st2"
   x1="478.9"
   y1="839.3"
   x2="474.5"
   y2="845.8" />
<line
   id="line1013"
   class="st2"
   x1="483.8"
   y1="838.4"
   x2="480.8"
   y2="842.7" />
<path
   id="path1015"
   class="st2"
   d="M200.7,91.9c-1.1,0-1.9-0.8-1.9-1.9v-5.2c0-1.6-0.6-3.1-1.6-4.3l-2.4-2.8l-0.1-0.1  c-4.2-5.4-3.3-13.3,2.2-17.5c5.4-4.2,13.3-3.3,17.5,2.2c3.5,4.5,3.5,10.8,0,15.3l-0.1,0.1l-2.4,2.8c-1,1.2-1.6,2.7-1.6,4.3V90  c0,1.1-0.9,1.9-1.9,1.9H200.7z" />
<path
   id="path1017"
   class="st2"
   d="M207.4,91.9c0,1.6-1.3,2.9-2.9,2.9c-1.6,0-2.9-1.3-2.9-2.9" />
<line
   id="line1019"
   class="st2"
   x1="210.2"
   y1="85.2"
   x2="198.8"
   y2="85.2" />
<line
   id="line1021"
   class="st2"
   x1="182.5"
   y1="70.8"
   x2="186.3"
   y2="70.8" />
<line
   id="line1023"
   class="st2"
   x1="222.7"
   y1="70.8"
   x2="226.5"
   y2="70.8" />
<line
   id="line1025"
   class="st2"
   x1="204.5"
   y1="48.8"
   x2="204.5"
   y2="52.6" />
<line
   id="line1027"
   class="st2"
   x1="185.4"
   y1="81.8"
   x2="188.7"
   y2="79.9" />
<line
   id="line1029"
   class="st2"
   x1="220.3"
   y1="61.7"
   x2="223.6"
   y2="59.8" />
<line
   id="line1031"
   class="st2"
   x1="193.5"
   y1="51.7"
   x2="195.4"
   y2="55" />
<line
   id="line1033"
   class="st2"
   x1="213.6"
   y1="55"
   x2="215.5"
   y2="51.7" />
<line
   id="line1035"
   class="st2"
   x1="185.4"
   y1="59.8"
   x2="188.7"
   y2="61.7" />
<line
   id="line1037"
   class="st2"
   x1="220.3"
   y1="79.9"
   x2="223.6"
   y2="81.8" />
<path
   id="path1039"
   class="st2"
   d="M186,303.1h4.5c0.6,0,1.3-0.3,1.6-0.9s0.3-1.3-0.1-1.8c-0.5-0.6-0.7-1.5-0.6-2.2  c0.2-1,1-1.9,2-2.1c1.5-0.3,2.9,0.6,3.2,2.1c0,0.2,0.1,0.4,0.1,0.6c0,0.6-0.2,1.2-0.6,1.8c-0.4,0.5-0.4,1.2-0.1,1.8  c0.3,0.6,0.9,0.9,1.6,0.9h4.5" />
<path
   id="path1041"
   class="st2"
   d="M202.1,303.1v4.5c0,0.6-0.3,1.3-0.9,1.6c-0.6,0.3-1.3,0.3-1.8-0.1c-0.6-0.5-1.5-0.7-2.2-0.6  c-1.1,0.2-1.9,1-2.1,2.1c-0.3,1.5,0.6,2.9,2,3.2c0.2,0,0.4,0.1,0.6,0.1c0.6,0,1.2-0.2,1.8-0.6c0.6-0.3,1.2-0.4,1.8-0.1  s0.9,0.9,0.9,1.6v4.5" />
<path
   id="path1043"
   class="st2"
   d="M206.6,303.1c0.7,0,1.3,0.3,1.6,0.9s0.3,1.3-0.1,1.8c-0.5,0.6-0.7,1.4-0.6,2.2  c0.2,1.1,1,1.9,2.1,2.1c1.5,0.3,2.9-0.6,3.2-2c0-0.2,0.1-0.4,0.1-0.6c0-0.6-0.2-1.2-0.6-1.8c-0.3-0.6-0.4-1.2-0.1-1.8  c0.3-0.6,0.9-0.9,1.6-0.9h4.5v14.3c0,1-0.8,1.8-1.8,1.8l0,0h-28.7c-1,0-1.8-0.8-1.8-1.8l0,0v-28.7c0-1,0.8-1.8,1.8-1.8l0,0h14.3v4.5  c0,1,0.7,1.8,1.7,1.8c0.4,0,0.7-0.1,1-0.3c0.6-0.5,1.5-0.7,2.2-0.6c1.1,0.2,1.9,1,2.1,2.1c0.3,1.5-0.6,2.9-2.1,3.2  c-0.2,0-0.4,0.1-0.6,0.1c-0.6,0-1.2-0.2-1.8-0.6c-0.8-0.5-1.9-0.3-2.4,0.5c-0.2,0.3-0.3,0.6-0.3,1v4.5L206.6,303.1z" />
<path
   id="path1045"
   class="st2"
   d="M229,292.4h-4.5c-0.6,0-1.3,0.3-1.6,0.9s-0.3,1.3,0.1,1.8c0.4,0.5,0.6,1.1,0.6,1.8  c0,1.5-1.2,2.7-2.7,2.7c-0.2,0-0.4,0-0.6-0.1c-1-0.2-1.9-1.1-2.1-2.1c-0.1-0.8,0.1-1.6,0.6-2.2c0.4-0.5,0.4-1.2,0.1-1.8  c-0.3-0.6-0.9-0.9-1.6-0.9h-4.5V288c0-0.6,0.3-1.3,0.9-1.6c0.6-0.3,1.3-0.3,1.8,0.1s1.1,0.6,1.8,0.6c1.5,0,2.7-1.2,2.7-2.7  c0-0.2,0-0.4-0.1-0.6c-0.2-1-1.1-1.9-2.1-2.1c-0.8-0.1-1.6,0.1-2.2,0.6c-0.5,0.4-1.2,0.4-1.8,0.1s-0.9-0.9-0.9-1.6v-4.5h14.3  c1,0,1.8,0.8,1.8,1.8l0,0V292.4z" />
<path
   id="rect1047"
   class="st2"
   d="M469.5,53.3h42c1.1,0,2,0.9,2,2v29.6c0,1.1-0.9,2-2,2h-42c-1.1,0-2-0.9-2-2V55.3  C467.5,54.2,468.3,53.3,469.5,53.3z" />
<line
   id="line1049"
   class="st2"
   x1="467.5"
   y1="83.4"
   x2="513.5"
   y2="83.4" />
<line
   id="line1051"
   class="st2"
   x1="480.7"
   y1="92.2"
   x2="500.2"
   y2="92.2" />
<line
   id="line1053"
   class="st2"
   x1="487.8"
   y1="92.2"
   x2="487.8"
   y2="86.9" />
<line
   id="line1055"
   class="st2"
   x1="493.1"
   y1="92.2"
   x2="493.1"
   y2="86.9" />
<path
   id="path1057"
   class="st2"
   d="M78.4,509c-4.3,0.8-18.6,10.6-18.6,23.2" />
<path
   id="path1059"
   class="st2"
   d="M64.4,519.5c-2.1-2.5-2.3-7.2,1.2-10.5c4.3-4.1,15.7-5.6,20.9-5.8c0,6.6-2,19.8-18.6,19.8" />
<path
   id="path1061"
   class="st2"
   d="M58.6,518.2c-1.1-9.5-11.6-10.4-15.1-10.4c0,5.1,0.9,16.3,14.1,16.3c-0.7-4.5-5-7.2-7.9-9.8" />
<polyline
   id="polyline1063"
   class="st2"
   points="43.5,540.4 45.8,536.9 50.5,535.7 56.3,535.7 59.8,532.2 62.1,534.6 64.4,534.6   66.7,535.7 69.1,535.7 71.4,538 73.7,538 76,539.2 " />
<path
   id="path1065"
   class="st2"
   d="M190.7,514.2h2.8l0,0v13.2l0,0h-2.8c-3.6,0-6.6-2.9-6.6-6.6l0,0l0,0  C184.1,517.1,187,514.2,190.7,514.2z" />
<path
   id="path1067"
   class="st2"
   d="M219.6,515.4v10.7c3,0,5.4-2.4,5.4-5.3C225,517.8,222.6,515.4,219.6,515.4L219.6,515.4z" />
<path
   id="path1069"
   class="st2"
   d="M193.5,514.2v13.2c0,0,18.5,1.6,26.1,7.9v-29C212,512.6,193.5,514.2,193.5,514.2z" />
<polyline
   id="polyline1071"
   class="st2"
   points="188.6,527.4 192.7,541.3 198.7,541.3 196.3,527.7 " />
<path
   id="path1073"
   class="st2"
   d="M221.1,832.9c-16.8-4.7-26.3,6.9-41,0v-22.1c9.4,6.3,33.1-6.5,41,0V832.9z" />
<path
   id="path1075"
   class="st2"
   d="M221.1,825.4c1.7,0.2,3.4,0.5,5,1v-22.1c-7.9-6.5-31.6,6.3-41,0v8.2" />
<circle
   id="circle1077"
   class="st2"
   cx="200.4"
   cy="822.2"
   r="6" />
<a
   id="a1102"
   xlink:href="#research"
   style="opacity:0"
   xlink:title="Research">
	<rect
   id="rect1084"
   x="156"
   y="24"
   class="st7"
   width="97.3"
   height="116.4" />
</a>
<a
   id="a1105"
   xlink:href="#report"
   style="opacity:0"
   xlink:title="Report Invention">
	<rect
   id="rect1086"
   x="418.5"
   y="24"
   class="st7"
   width="143.1"
   height="116.4" />
</a>
<a
   id="a1108"
   xlink:href="#development"
   style="opacity:0"
   xlink:title="Strategy Development">
	<rect
   id="rect1088"
   x="109.3"
   y="248.8"
   class="st7"
   width="192.8"
   height="118.2" />
</a>
<a
   id="a1111"
   xlink:href="#assess"
   style="opacity:0"
   xlink:title="Assess and Protect">
	<rect
   id="rect1090"
   x="405.2"
   y="250.6"
   class="st7"
   width="169.7"
   height="118.2" />
</a>
<a
   id="a1114"
   xlink:href="#startup"
   style="opacity:0"
   xlink:title="Startup">
	<rect
   id="rect1092"
   x="16.9"
   y="471.8"
   class="st7"
   width="95.1"
   height="118.2" />
</a>
<a
   id="a1117"
   xlink:href="#marketing"
   style="opacity:0"
   xlink:title="Marketing">
	<rect
   id="rect1094"
   x="154.6"
   y="474.5"
   class="st7"
   width="96.9"
   height="118.2" />
</a>
<a
   id="a1120"
   xlink:href="#license"
   style="opacity:0"
   xlink:title="Licensing">
	<rect
   id="rect1096"
   x="441.6"
   y="540.3"
   class="st7"
   width="96"
   height="120" />
</a>
<a
   id="a1126"
   xlink:href="#revenue"
   style="opacity:0"
   xlink:title="Revenue">
	<rect
   id="rect1098"
   x="156.4"
   y="769.5"
   class="st7"
   width="95.1"
   height="119.1" />
</a>
<a
   id="a1123"
   xlink:href="#commercialization"
   style="opacity:0"
   xlink:title="Commercialization">
	<rect
   id="rect1100"
   x="407.8"
   y="771.3"
   class="st7"
   width="162.6"
   height="116.4" />
</a>
<line
   id="line979_1_"
   class="st3"
   x1="256.7"
   y1="72.6"
   x2="340.1"
   y2="72.6" />
<line
   id="line981"
   class="st3"
   x1="352.4"
   y1="72.6"
   x2="436.7"
   y2="72.6" />
<polyline
   id="polyline983"
   class="st4"
   points="335.1,60.4 347.1,72.4 335.7,83.8 " />
<line
   id="line979_2_"
   class="st3"
   x1="257.1"
   y1="297.8"
   x2="340.5"
   y2="297.8" />
<line
   id="line981_1_"
   class="st3"
   x1="352.8"
   y1="297.8"
   x2="437.1"
   y2="297.8" />
<g
   id="g1049">
	<polyline
   id="polyline1047"
   class="st4"
   points="357,309 345,297 356.4,285.6  " />
</g>
<line
   id="line979_3_"
   class="st3"
   x1="256.4"
   y1="817.8"
   x2="339.8"
   y2="817.8" />
<line
   id="line981_2_"
   class="st3"
   x1="352.1"
   y1="817.8"
   x2="436.4"
   y2="817.8" />
<g
   id="g1049_1_">
	<polyline
   id="polyline1047_1_"
   class="st4"
   points="356.3,829 344.3,817 355.7,805.6  " />
</g>
</svg>
