<svg xmlns="http://www.w3.org/2000/svg" viewBox="0 0 68.17 68.17"><defs><style>.cls-1,.cls-2{fill:none;stroke:#6BCDB2;stroke-width:0.86px;}.cls-1{stroke-miterlimit:10;}.cls-2{stroke-linejoin:round;}</style></defs><g id="Layer_2" data-name="Layer 2"><circle class="cls-1" cx="34.08" cy="34.08" r="31.5"/><path class="cls-1" d="M44.21,21.42a16.47,16.47,0,1,0,4,4.38"/><path class="cls-1" d="M40.9,26.06a10.79,10.79,0,1,0,2.3,2.52"/><path class="cls-1" d="M36.43,30a4.92,4.92,0,0,0-2.23-.53,5.07,5.07,0,1,0,5,5.1,5.18,5.18,0,0,0-.42-2"/><polyline class="cls-2" points="34.17 34.51 46.17 23.71 46.14 21.1 48.37 18.93 48.37 21.1 50.66 21.1 48.49 23.74 47.34 23.74"/></g></svg>