<svg xmlns="http://www.w3.org/2000/svg" viewBox="0 0 68.17 68.17"><defs><style>.cls-1{fill:none;stroke:#6BCDB2;stroke-miterlimit:10;stroke-width:0.86px;}</style></defs><g id="Layer_2" data-name="Layer 2"><circle class="cls-1" cx="34.08" cy="34.08" r="31.5"/><path class="cls-1" d="M18.91,50.66a40.76,40.76,0,0,0,3.61-2.25c1.55-1.18,2.37-3.4,1.21-3.7-1.66-.43-2.13,5.1-.57,5.84,1.9.9,6.78-4.93,6.78-4.93l-1.61,5A8.83,8.83,0,0,1,33.48,49"/><path class="cls-1" d="M48.69,16.4c2.32.33-1.54,8.13-5.68,17.11A91.72,91.72,0,0,1,33.7,48.92c-.38,1,1.54-8.13,5.68-17.12S46.68,16.11,48.69,16.4Z"/><line class="cls-1" x1="41.72" y1="26.95" x2="45.18" y2="28.58"/></g></svg>