<svg xmlns="http://www.w3.org/2000/svg" viewBox="0 0 71.9 71.9"><defs><style>.cls-1,.cls-3{fill:none;}.cls-1,.cls-2,.cls-3{stroke:#124537;stroke-miterlimit:10;}.cls-1{stroke-width:0.86px;}.cls-2{fill:#124537;stroke-width:0.1px;}.cls-3{stroke-width:0.68px;}</style></defs><g id="Layer_2" data-name="Layer 2"><circle class="cls-1" cx="35.95" cy="35.95" r="31.5"/><path class="cls-1" d="M54.5,37.76A1.47,1.47,0,0,1,54.58,36l.1-.11a1.19,1.19,0,0,0-.08-1.61l-.11-.1a1.49,1.49,0,0,1-.25-1.72l.08-.13a1.17,1.17,0,0,0-.38-1.56l-.12-.08a1.46,1.46,0,0,1-.57-1.65l0-.14a1.16,1.16,0,0,0-.66-1.46l-.14-.05a1.48,1.48,0,0,1-.87-1.51l0-.15a1.18,1.18,0,0,0-.93-1.31l-.15,0a1.47,1.47,0,0,1-1.14-1.31V23a1.17,1.17,0,0,0-1.16-1.11H48.1a1.48,1.48,0,0,1-1.37-1.08l0-.14a1.17,1.17,0,0,0-1.35-.87l-.15,0a1.47,1.47,0,0,1-1.55-.8l-.06-.13a1.17,1.17,0,0,0-1.49-.6l-.14.06a1.49,1.49,0,0,1-1.67-.5l-.09-.12a1.17,1.17,0,0,0-1.57-.3l-.13.08a1.46,1.46,0,0,1-1.73-.17l-.11-.1a1.17,1.17,0,0,0-1.6,0l-.11.1a1.48,1.48,0,0,1-1.74.17l-.12-.08a1.19,1.19,0,0,0-1.58.3l-.08.12a1.49,1.49,0,0,1-1.68.5l-.13-.06a1.17,1.17,0,0,0-1.49.6l-.06.13a1.48,1.48,0,0,1-1.55.8l-.15,0a1.18,1.18,0,0,0-1.35.87l0,.15a1.48,1.48,0,0,1-1.38,1.07h-.14A1.17,1.17,0,0,0,22.31,23v.15a1.49,1.49,0,0,1-1.14,1.32l-.15,0a1.18,1.18,0,0,0-.93,1.31l0,.15a1.48,1.48,0,0,1-.87,1.51l-.14.05a1.17,1.17,0,0,0-.66,1.46l0,.14a1.46,1.46,0,0,1-.57,1.65l-.12.08a1.17,1.17,0,0,0-.38,1.56l.08.13a1.5,1.5,0,0,1-.25,1.73l-.11.1a1.17,1.17,0,0,0-.08,1.6l.1.11a1.47,1.47,0,0,1,.08,1.74l-.08.12a1.16,1.16,0,0,0,.23,1.59l.11.09a1.48,1.48,0,0,1,.41,1.7l-.06.13a1.18,1.18,0,0,0,.53,1.52l.13.07a1.47,1.47,0,0,1,.72,1.58l0,.15A1.17,1.17,0,0,0,20,46.1l.14,0a1.48,1.48,0,0,1,1,1.42v.15a1.17,1.17,0,0,0,1.05,1.21h.15a1.49,1.49,0,0,1,1.26,1.21l0,.14a1.17,1.17,0,0,0,1.26,1l.15,0a1.49,1.49,0,0,1,1.47,1l0,.14a1.18,1.18,0,0,0,1.43.73l.14,0a1.47,1.47,0,0,1,1.62.65l.08.12a1.17,1.17,0,0,0,1.54.46l.13-.07a1.48,1.48,0,0,1,1.71.33l.1.11a1.17,1.17,0,0,0,1.59.15L35,54.7a1.47,1.47,0,0,1,1.74,0l.12.09a1.18,1.18,0,0,0,1.6-.15l.09-.11a1.48,1.48,0,0,1,1.72-.33l.13.07a1.18,1.18,0,0,0,1.54-.46l.07-.12A1.47,1.47,0,0,1,43.62,53l.14,0a1.18,1.18,0,0,0,1.43-.74l.05-.14a1.49,1.49,0,0,1,1.46-.94h.15a1.16,1.16,0,0,0,1.26-1l0-.14a1.5,1.5,0,0,1,1.27-1.21h.14a1.16,1.16,0,0,0,1.05-1.21v-.15a1.47,1.47,0,0,1,1-1.42l.14,0a1.17,1.17,0,0,0,.8-1.39l0-.15A1.46,1.46,0,0,1,53.23,43l.13-.07a1.18,1.18,0,0,0,.53-1.52l-.06-.13a1.48,1.48,0,0,1,.41-1.7l.11-.09a1.16,1.16,0,0,0,.23-1.59Z"/><path class="cls-2" d="M27,33.88v6h-.63L22.69,35v4.89H22v-6h.63l3.63,4.88V33.88Z"/><path class="cls-2" d="M32.32,38H28.68a1.45,1.45,0,0,0,1.58,1.38,1.82,1.82,0,0,0,1.38-.57l.41.39a2.35,2.35,0,0,1-1.81.77A2.1,2.1,0,0,1,28,37.76a2.08,2.08,0,0,1,2.15-2.2A2,2,0,0,1,32.32,38Zm-3.63-.55h3a1.39,1.39,0,0,0-1.52-1.33A1.42,1.42,0,0,0,28.69,37.46Z"/><path class="cls-2" d="M42.72,26,37.88,39.88h-.69l-.42-1.23L36,36.56l-.75,2.09-.42,1.23h-.69L29.32,26H30l4,11.34.57,1.81,1.18-3.37-2-6.37h.56l3.26,9.75.58-1.82L42.05,26Z"/><path class="cls-2" d="M30,26l3.95,11.34.58,1.82,3.26-9.75h.56l-2,6.37,1.18,3.37.57-1.81L42,26h.68L37.87,39.88h-.69l-.42-1.23L36,36.56l-.74,2.09-.41,1.23h-.7L29.32,26Z"/><path class="cls-2" d="M40,36.88a3.09,3.09,0,0,1,5.28-2.2l-.46.42a2.3,2.3,0,0,0-1.7-.71,2.49,2.49,0,0,0,0,5,2.51,2.51,0,0,0,1.75-.71l.44.44a3,3,0,0,1-2.21.89A3,3,0,0,1,40,36.88Z"/><path class="cls-2" d="M45.88,37.76A2.21,2.21,0,1,1,48.09,40,2.12,2.12,0,0,1,45.88,37.76Zm3.78,0a1.57,1.57,0,1,0-1.57,1.61A1.54,1.54,0,0,0,49.66,37.76Z"/><line class="cls-3" x1="25.73" y1="43.04" x2="46.2" y2="43.04"/><line class="cls-3" x1="41.77" y1="45.43" x2="30.17" y2="45.43"/></g></svg>