<?xml version="1.0" encoding="UTF-8"?>
<svg xmlns="http://www.w3.org/2000/svg" xmlns:xlink="http://www.w3.org/1999/xlink" width="347pt" height="226pt" viewBox="0 0 347 226" version="1.1">
<g id="surface1">
<path style=" stroke:none;fill-rule:evenodd;fill:rgb(90.588235%,90.980392%,92.156863%);fill-opacity:1;" d="M 344.65625 107.261719 C 343.789062 105.960938 343.789062 105.003906 344.65625 103.785156 C 345.699219 102.65625 346.21875 101.351562 345.613281 99.789062 C 344.953125 98.15625 344.34375 96.503906 343.789062 94.832031 C 343.441406 93.703125 342.921875 92.484375 342.921875 91.355469 C 343.007812 90.746094 344.050781 90.140625 344.65625 89.445312 C 345.003906 88.921875 345.4375 88.3125 345.523438 87.707031 C 346.132812 85.445312 345.613281 83.53125 343.789062 82.140625 C 340.753906 79.882812 339.800781 76.925781 342.140625 73.363281 C 343.703125 71.015625 344.65625 68.148438 343.703125 65.539062 C 342.625 62.675781 342.039062 59.648438 341.96875 56.585938 C 341.96875 53.109375 339.367188 51.980469 336.328125 53.023438 C 335.722656 53.195312 335.203125 53.71875 334.59375 54.066406 L 330.257812 56.847656 C 329.214844 54.933594 329.390625 53.195312 329.738281 51.457031 C 330.171875 48.675781 329.738281 47.546875 327.480469 46.15625 C 328.347656 43.199219 327.566406 41.808594 324.011719 39.375 C 321.234375 37.636719 318.546875 38.679688 315.945312 39.375 C 313.167969 35.464844 309.871094 34.683594 305.878906 36.769531 C 305.445312 37.027344 304.492188 36.941406 304.144531 36.59375 C 303.527344 35.980469 303.054688 35.238281 302.757812 34.421875 C 302.148438 32.683594 301.28125 31.464844 299.632812 30.769531 C 299.257812 30.585938 298.953125 30.277344 298.765625 29.902344 C 297.378906 26.859375 295.296875 25.730469 292.085938 26.511719 C 290.960938 26.773438 290.003906 26.773438 289.050781 25.988281 C 286.449219 23.902344 283.324219 23.902344 281.15625 26.859375 C 280.550781 27.640625 279.855469 27.988281 278.554688 27.726562 C 275.953125 27.207031 274.304688 28.335938 273.347656 30.945312 C 272.914062 32.074219 272.570312 33.292969 272.046875 34.421875 C 270.746094 37.289062 268.75 39.375 265.28125 40.160156 C 265.714844 38.160156 267.363281 36.507812 266.324219 34.421875 C 265.28125 32.25 263.113281 32.597656 261.117188 32.160156 L 261.8125 31.292969 C 264.761719 28.164062 266.148438 22.949219 263.113281 18.425781 C 260.945312 15.210938 256.171875 14.253906 253.136719 16.863281 L 251.402344 18.339844 C 250.359375 17.210938 249.667969 15.992188 248.539062 15.296875 C 245.9375 13.734375 242.292969 14.515625 240.039062 16.601562 C 236.21875 20.078125 236.480469 20.167969 232.230469 18.425781 C 230.394531 17.582031 228.214844 18.210938 227.113281 19.90625 L 226.242188 21.210938 C 220.691406 18.863281 220.691406 18.863281 217.308594 22.949219 C 214.445312 22.339844 212.882812 21.992188 211.0625 28.25 C 209.589844 28.074219 209.152344 27.816406 208.375 26.511719 C 207.417969 24.859375 205.164062 24.25 203.34375 24.859375 C 201.433594 25.554688 201.171875 27.292969 200.914062 28.683594 L 196.054688 29.03125 C 195.359375 29.121094 194.753906 29.988281 194.148438 29.902344 C 191.371094 29.726562 189.460938 31.117188 187.988281 33.550781 C 187.121094 32.683594 186.078125 31.988281 185.820312 31.117188 C 185.382812 29.121094 185.992188 28.511719 188.074219 27.902344 C 190.761719 27.03125 192.933594 25.121094 190.851562 21.816406 C 190.554688 21.320312 190.460938 20.730469 190.589844 20.167969 C 191.195312 16.863281 189.460938 14.515625 186.164062 14.515625 C 184.777344 14.515625 184.171875 14.082031 184.082031 12.605469 C 183.960938 11.484375 183.574219 10.414062 182.957031 9.476562 C 182.089844 8.082031 180.351562 7.734375 179.3125 8.953125 C 178.359375 10.082031 177.925781 9.5625 176.882812 9.039062 C 175.617188 8.335938 174.144531 8.09375 172.71875 8.34375 C 171.332031 8.691406 171.851562 10.429688 171.851562 11.648438 C 171.851562 12.167969 172.460938 12.691406 172.546875 13.386719 L 172.285156 15.125 C 171.9375 14.777344 171.332031 14.515625 171.070312 14.167969 C 169.507812 11.125 167.253906 10.082031 164.132812 11.214844 C 162.65625 11.734375 161.355469 12.605469 160.3125 13.125 L 155.457031 10.691406 C 155.195312 10.691406 155.109375 10.34375 155.023438 10.082031 C 154.589844 8.171875 153.289062 7.214844 151.550781 6.605469 C 151.03125 6.519531 150.25 6.257812 150.164062 5.910156 C 149.644531 4.171875 148.167969 3.652344 146.867188 2.957031 C 142.355469 0.695312 138.191406 2.171875 136.023438 6.867188 C 135.851562 7.386719 135.675781 7.824219 135.328125 8.171875 C 134.550781 9.039062 132.8125 9.039062 132.726562 7.996094 C 132.121094 5.128906 130.125 4.085938 127.523438 3.390625 C 127.089844 3.304688 126.480469 2.78125 126.308594 2.347656 C 125.613281 0.175781 121.96875 -0.871094 120.0625 0.957031 C 118.308594 2.875 115.609375 3.617188 113.121094 2.867188 C 112.070312 2.671875 110.980469 2.890625 110.085938 3.476562 C 108.523438 4.605469 107.136719 6.085938 105.75 7.386719 C 103.667969 9.476562 103.667969 9.5625 100.976562 8.34375 C 99.070312 7.476562 97.246094 7.039062 95.164062 8.34375 C 94.382812 8.867188 93.167969 8.953125 92.128906 8.867188 C 90.046875 8.605469 88.136719 8.429688 86.75 10.605469 C 86.144531 11.5625 85.1875 11.910156 83.972656 11.214844 C 80.9375 9.476562 79.203125 9.734375 76.511719 12.257812 C 75.386719 13.300781 74.171875 13.820312 72.609375 12.863281 C 70.789062 11.648438 68.707031 11.996094 66.710938 12.429688 C 64.195312 12.953125 63.675781 13.648438 63.585938 16.167969 C 63.5 17.125 63.152344 17.472656 62.199219 17.558594 C 59.597656 17.644531 58.730469 18.425781 58.382812 20.773438 L 57.253906 20.339844 C 54.480469 19.558594 52.050781 20.949219 51.097656 23.816406 C 50.921875 24.25 50.226562 24.6875 49.707031 24.859375 C 47.277344 25.640625 46.324219 27.121094 46.933594 29.554688 L 47.539062 31.464844 C 48.234375 33.292969 47.800781 34.246094 46.0625 34.683594 L 45.023438 35.03125 C 43.972656 35.621094 43.261719 36.675781 43.109375 37.875 C 42.953125 39.074219 43.375 40.273438 44.242188 41.113281 C 47.277344 43.984375 46.585938 46.851562 42.679688 48.242188 C 40.859375 48.851562 39.210938 49.894531 38.605469 51.804688 C 37.5625 54.761719 36.957031 55.28125 33.917969 55.28125 C 31.835938 55.28125 29.84375 55.804688 28.800781 57.804688 C 27.5 60.410156 25.332031 60.847656 22.902344 61.105469 C 20.488281 61.300781 18.300781 62.621094 17.003906 64.671875 C 15.613281 66.757812 15.875 69.015625 16.917969 71.363281 C 17.261719 72.234375 17.261719 73.363281 17.003906 74.320312 C 16.570312 76.492188 16.570312 78.578125 18.042969 80.402344 C 18.910156 81.273438 18.21875 81.792969 17.351562 81.96875 C 16.742188 81.96875 16.046875 81.707031 15.441406 81.621094 C 14.3125 81.535156 13.1875 81.273438 12.058594 81.273438 C 9.628906 81.273438 7.722656 83.011719 5.117188 82.75 C 2.167969 82.402344 0.261719 85.621094 1.300781 88.3125 L 2.34375 90.398438 C 2.34375 90.574219 2.167969 90.746094 2.082031 90.835938 C -0.78125 93.617188 -0.695312 94.832031 2.082031 97.789062 C 3.816406 99.527344 4.425781 101.699219 3.816406 104.046875 C 3.382812 105.785156 2.515625 107.261719 1.996094 108.828125 C 1.128906 111.261719 1.820312 112.652344 4.164062 113.433594 L 8.328125 115.085938 C 7.460938 116.214844 6.679688 117 6.160156 117.953125 C 5.03125 119.953125 5.550781 122.039062 7.546875 123.171875 C 8.933594 123.867188 10.589844 123.769531 11.882812 122.910156 C 12.753906 122.476562 13.445312 121.691406 14.3125 121.429688 C 15.355469 120.996094 16.570312 120.128906 17.785156 121.257812 C 17.261719 122.386719 16.65625 123.429688 16.308594 124.472656 C 15.527344 126.558594 16.136719 127.777344 18.304688 128.296875 C 21.773438 129.167969 25.070312 129.253906 28.195312 127.167969 C 29.0625 126.558594 30.1875 126.300781 31.230469 125.953125 L 31.492188 126.472656 C 30.96875 127.167969 30.449219 127.777344 30.015625 128.558594 C 28.800781 130.296875 29.320312 132.210938 31.230469 132.90625 C 32.964844 133.425781 34.699219 133.6875 36.433594 133.863281 C 38.34375 134.121094 38.777344 134.46875 38.257812 136.46875 C 37.648438 139.164062 38.691406 141.511719 41.121094 142.988281 L 46.496094 146.464844 C 46.933594 146.726562 47.367188 147.160156 47.539062 147.59375 C 48.753906 151.679688 53.265625 152.027344 56.734375 151.941406 C 58.296875 151.855469 60.203125 151.507812 61.246094 152.203125 C 64.109375 154.289062 67.316406 154.898438 70.527344 155.070312 C 72.175781 155.15625 72.871094 155.941406 73.738281 157.070312 C 74.429688 157.9375 75.472656 158.808594 76.511719 159.328125 C 77.46875 159.851562 78.683594 159.9375 79.722656 159.851562 C 82.238281 159.675781 84.753906 159.242188 87.269531 158.980469 L 87.269531 159.589844 C 87.269531 163.675781 88.050781 164.632812 92.128906 165.328125 C 93.863281 165.589844 95.597656 165.328125 97.421875 165.328125 C 97.941406 168.628906 98.460938 169.324219 101.757812 170.023438 C 103.492188 170.457031 105.316406 170.542969 107.136719 170.890625 C 109.566406 171.152344 110.085938 171.933594 109.738281 174.367188 L 109.738281 177.410156 C 109.738281 179.84375 111.90625 181.234375 114.078125 180.191406 C 115.117188 179.757812 115.8125 179.757812 116.503906 180.453125 C 119.628906 183.148438 121.710938 186.277344 120.929688 190.882812 C 120.320312 194.621094 121.191406 198.183594 123.53125 201.3125 L 131.339844 211.65625 L 132.554688 213.832031 C 93.597656 216.382812 54.699219 219.714844 15.875 223.828125 L 15.527344 223.828125 L 15.527344 226 L 330.257812 226 L 330.257812 223.914062 L 329.476562 223.738281 C 326.613281 223.390625 268.578125 217.828125 248.367188 216.175781 L 213.40625 213.917969 C 210.457031 213.917969 207.59375 213.65625 204.296875 213.570312 C 206.03125 210.703125 207.507812 208.09375 209.242188 205.574219 C 210.195312 204.183594 211.324219 202.878906 212.539062 201.75 C 214.1875 200.183594 216.09375 198.96875 216.179688 196.445312 C 216.179688 196.097656 216.527344 195.664062 216.703125 195.402344 L 220.605469 190.015625 C 222.167969 187.667969 223.382812 184.972656 225.117188 182.710938 C 226.679688 180.714844 228.585938 178.625 230.667969 177.324219 C 235.875 173.847656 241.339844 170.804688 246.71875 167.761719 C 248.019531 166.890625 249.320312 166.457031 250.96875 165.761719 L 250.96875 167.5 C 251.054688 170.109375 252.703125 171.671875 255.304688 171.066406 C 257.214844 170.628906 258.949219 169.675781 260.683594 168.628906 C 261.550781 168.195312 262.070312 168.109375 263.113281 168.195312 C 264.585938 168.542969 266.324219 168.71875 267.796875 168.371094 C 271.007812 167.585938 272.65625 165.414062 272.394531 162.023438 C 276.644531 161.328125 277.511719 159.9375 276.734375 155.246094 C 277.601562 154.984375 278.640625 154.898438 279.507812 154.722656 C 280.027344 157.417969 281.589844 159.070312 284.972656 157.765625 C 285.667969 158.808594 286.101562 160.113281 286.96875 160.808594 C 289.832031 163.15625 296.25 163.9375 299.113281 159.15625 C 299.460938 158.546875 300.414062 158.027344 301.195312 157.9375 C 305.792969 157.070312 309.609375 154.898438 312.386719 150.984375 C 313.082031 150.117188 313.601562 148.984375 314.207031 148.03125 C 315.164062 148.464844 315.855469 148.898438 316.550781 149.074219 C 318.804688 149.941406 319.328125 149.59375 320.109375 147.335938 C 320.800781 145.597656 321.582031 143.769531 322.449219 142.121094 C 323.144531 140.816406 324.183594 140.378906 325.746094 141.074219 C 327.742188 142.121094 329.910156 142.121094 331.644531 140.46875 C 332.945312 139.164062 333.902344 137.339844 335.203125 135.601562 L 337.195312 135.601562 C 340.058594 135.601562 341.015625 134.90625 341.359375 132.035156 C 341.621094 130.296875 341.621094 128.386719 341.359375 126.648438 C 341.015625 124.472656 340.40625 122.300781 339.886719 120.128906 L 341.535156 120.734375 C 345.089844 121.777344 346.304688 120.5625 346.738281 117.433594 C 347.433594 113.871094 346.738281 110.304688 344.65625 107.261719 M 169.164062 178.191406 C 168.816406 180.191406 168.554688 182.191406 168.035156 184.277344 C 167.6875 185.40625 167.167969 186.625 166.648438 187.753906 C 165.085938 191.230469 164.652344 194.882812 164.738281 198.53125 C 164.910156 203.398438 163.871094 207.921875 161.703125 212.179688 C 161.441406 212.699219 160.835938 213.136719 160.3125 213.222656 C 156.496094 213.222656 152.679688 213.484375 148.949219 213.136719 C 147.5625 213.046875 146.171875 211.746094 144.960938 210.703125 L 133.941406 200.617188 C 130.828125 197.695312 129.097656 193.589844 129.171875 189.320312 L 129.171875 185.492188 C 129.171875 181.84375 130.90625 179.496094 134.550781 179.671875 C 137.410156 179.757812 139.753906 179.0625 142.097656 177.757812 C 143.570312 176.886719 145.046875 176.886719 146.695312 177.84375 C 150.773438 180.105469 156.0625 177.582031 156.671875 173.757812 C 156.671875 173.5 156.929688 173.324219 157.105469 173.0625 C 159.96875 174.890625 161.617188 174.800781 165.171875 172.195312 L 169.074219 176.800781 C 169.25 177.148438 169.25 177.671875 169.164062 178.191406 M 220.777344 169.675781 C 219.824219 171.414062 219.21875 173.152344 218.4375 174.976562 C 217.480469 177.410156 215.835938 179.234375 213.492188 180.367188 C 211.84375 181.234375 210.890625 182.363281 210.109375 184.101562 C 208.375 188.710938 206.03125 192.96875 202.5625 196.707031 C 201.085938 198.359375 199.957031 200.445312 198.917969 202.53125 C 196.75 207.050781 192.84375 209.484375 188.59375 211.65625 C 186.859375 212.527344 185.125 213.046875 183.042969 212.960938 L 175.667969 212.960938 C 175.0625 210.179688 174.28125 207.574219 173.933594 204.878906 C 173.148438 198.484375 174.109375 191.996094 176.710938 186.101562 C 177.578125 184.191406 178.183594 182.105469 179.140625 180.191406 C 179.746094 178.886719 180.441406 177.582031 181.394531 176.367188 C 182.523438 174.890625 183.996094 174.28125 185.992188 174.800781 C 188.246094 175.324219 190.589844 175.757812 192.933594 176.019531 C 195.535156 176.191406 196.402344 175.148438 196.402344 172.542969 L 196.402344 171.238281 C 196.402344 170.457031 196.664062 169.933594 197.703125 170.195312 C 198.832031 170.457031 200.046875 170.195312 201.171875 170.28125 C 203.863281 170.28125 204.902344 169.324219 205.078125 166.632812 C 205.078125 166.023438 205.335938 165.414062 205.511719 164.632812 C 207.417969 166.371094 208.808594 167.5 212.105469 165.152344 C 213.144531 168.371094 215.488281 168.28125 218.175781 167.585938 C 218.6875 167.457031 219.226562 167.457031 219.738281 167.585938 C 220.777344 167.933594 221.734375 168.195312 220.777344 169.675781 "/>
</g>
</svg>
