<?xml version="1.0" standalone="no"?>
<!DOCTYPE svg PUBLIC "-//W3C//DTD SVG 20010904//EN"
 "http://www.w3.org/TR/2001/REC-SVG-20010904/DTD/svg10.dtd">
<svg version="1.0" xmlns="http://www.w3.org/2000/svg"
 width="1024.000000pt" height="1024.000000pt" viewBox="0 0 1024.000000 1024.000000"
 preserveAspectRatio="xMidYMid meet">
<metadata>
Created by potrace 1.11, written by Peter Selinger 2001-2013
</metadata>
<g transform="translate(0.000000,1024.000000) scale(0.100000,-0.100000)"
fill="#000000" stroke="none">
<path d="M3793 7853 c-50 -35 -57 -37 -137 -37 -82 -1 -84 -2 -127 -40 -24
-22 -59 -54 -77 -73 -37 -37 -67 -41 -115 -17 -38 20 -110 22 -132 4 -10 -8
-46 -14 -88 -16 -40 -1 -75 -2 -80 -3 -4 0 -22 -15 -39 -32 -35 -33 -49 -34
-123 -6 -37 14 -42 14 -79 -5 -21 -11 -48 -28 -59 -39 -32 -29 -51 -31 -103
-11 -52 20 -120 19 -164 -1 -26 -13 -46 -45 -55 -89 -4 -21 -11 -28 -30 -28
-39 0 -73 -21 -84 -51 -9 -25 -13 -27 -38 -20 -59 17 -113 -8 -140 -64 -10
-20 -29 -39 -47 -46 -65 -27 -80 -72 -52 -154 18 -50 9 -67 -49 -95 -68 -33
-72 -88 -11 -169 48 -65 32 -107 -57 -152 -68 -35 -78 -45 -105 -104 -25 -54
-42 -66 -104 -71 -75 -7 -103 -20 -132 -65 -31 -46 -64 -64 -133 -74 -86 -11
-165 -77 -179 -148 -2 -12 3 -47 12 -77 12 -40 14 -74 9 -122 -5 -56 -3 -73
15 -108 26 -52 19 -63 -34 -54 -74 13 -120 11 -171 -6 -27 -9 -70 -17 -94 -19
-91 -6 -130 -77 -87 -159 12 -23 11 -29 -15 -65 -36 -50 -34 -75 14 -132 20
-24 41 -54 46 -67 14 -38 5 -108 -23 -175 -44 -105 -35 -124 70 -167 32 -14
58 -30 56 -37 -1 -6 -14 -26 -27 -44 -50 -65 -21 -139 58 -152 29 -4 46 1 87
26 58 36 104 49 115 32 3 -7 -3 -36 -16 -66 -21 -50 -21 -55 -6 -78 35 -53
185 -60 276 -13 55 29 91 41 91 29 0 -5 -11 -24 -25 -43 -16 -22 -24 -43 -21
-60 2 -14 5 -28 5 -31 2 -18 142 -58 175 -50 13 3 46 -30 40 -40 -11 -19 -5
-98 10 -128 12 -21 48 -52 107 -90 64 -41 97 -70 118 -103 40 -62 88 -81 206
-80 83 1 96 -1 160 -33 46 -21 94 -36 135 -41 78 -8 93 -15 147 -70 45 -44 90
-60 148 -50 77 12 165 17 166 9 1 -4 3 -24 5 -43 2 -19 9 -45 15 -57 14 -27
84 -47 167 -47 l62 0 11 -38 c5 -21 20 -44 32 -52 24 -15 93 -32 174 -41 80
-10 87 -19 88 -114 0 -68 3 -84 21 -101 23 -23 42 -26 94 -16 33 7 39 4 78
-35 59 -60 83 -114 83 -186 -1 -32 -2 -66 -4 -77 -6 -30 12 -125 30 -160 8
-17 59 -89 112 -161 129 -173 144 -195 138 -202 -3 -3 -27 -6 -54 -8 -188 -12
-253 -16 -288 -20 -22 -2 -85 -7 -140 -10 -55 -3 -118 -7 -140 -10 -22 -2 -83
-7 -135 -10 -91 -6 -120 -8 -290 -20 -41 -3 -102 -8 -135 -10 -33 -3 -91 -8
-130 -11 -38 -4 -86 -8 -105 -9 -37 -2 -154 -13 -230 -20 -25 -3 -70 -7 -100
-10 -30 -3 -75 -7 -100 -10 -25 -2 -76 -7 -115 -10 -38 -3 -86 -8 -105 -10
-19 -2 -62 -7 -95 -10 -33 -3 -80 -7 -105 -9 -25 -3 -80 -8 -123 -11 -43 -4
-86 -8 -95 -10 -10 -1 -48 -6 -87 -10 -38 -3 -86 -8 -105 -10 -19 -2 -62 -7
-95 -10 -86 -9 -95 -13 -95 -41 l0 -24 3865 0 3865 0 0 25 c0 28 -10 31 -105
40 -62 5 -115 10 -225 21 -36 4 -78 8 -95 9 -39 3 -160 15 -205 20 -19 2 -69
7 -110 10 -41 3 -86 8 -100 10 -14 2 -63 7 -110 10 -47 4 -92 9 -102 10 -9 2
-57 6 -108 10 -50 3 -100 8 -110 10 -11 2 -59 7 -107 11 -49 3 -101 8 -118 9
-16 2 -64 6 -105 9 -41 3 -91 8 -110 10 -19 3 -71 8 -115 11 -44 3 -102 8
-130 10 -27 3 -84 7 -125 10 -41 3 -106 7 -145 10 -38 3 -104 7 -145 10 -96 5
-248 15 -325 20 -90 6 -336 19 -367 19 -16 0 -28 2 -28 5 0 22 141 222 202
287 43 46 80 95 84 110 4 15 43 82 88 150 45 67 92 141 106 164 51 87 138 161
305 261 192 116 327 189 346 189 9 0 15 -13 16 -42 4 -89 68 -104 193 -45 68
32 81 35 136 30 107 -10 177 33 190 117 5 32 11 40 34 45 16 3 40 17 55 31 21
20 26 33 25 67 -3 63 -2 64 24 69 31 6 42 -1 55 -35 12 -32 53 -50 91 -42 22
5 30 0 51 -32 33 -51 88 -77 165 -76 72 1 95 11 151 69 33 33 53 45 95 53 98
21 195 91 255 186 19 31 33 43 43 39 93 -40 109 -36 135 33 32 85 64 141 84
148 11 3 41 -1 65 -9 70 -24 109 -7 169 74 48 63 50 64 100 67 39 2 57 8 76
27 23 23 25 33 24 108 0 46 -3 94 -6 108 -3 14 -8 36 -11 50 -3 14 -8 38 -12
53 -5 26 -4 28 15 22 93 -29 135 -4 146 89 10 78 0 133 -40 212 -31 63 -32 70
-19 96 8 15 18 30 24 33 18 11 11 69 -19 145 -45 120 -47 141 -11 178 56 59
53 126 -11 188 -80 77 -87 120 -33 226 44 88 48 127 20 231 -13 45 -24 107
-25 137 -7 138 -72 164 -206 80 -100 -62 -106 -57 -103 70 3 81 1 88 -24 119
-20 23 -26 39 -22 56 10 42 -33 96 -109 136 -39 20 -83 21 -150 4 -24 -6 -33
-3 -55 20 -14 15 -45 36 -68 47 -45 19 -67 18 -136 -7 -33 -13 -39 -12 -62 6
-13 11 -28 30 -32 42 -9 31 -53 87 -67 87 -7 0 -21 14 -31 30 -24 42 -64 80
-84 81 -9 1 -43 1 -74 0 -44 -1 -68 4 -106 25 -62 33 -101 28 -156 -21 -36
-31 -46 -35 -97 -35 -67 0 -79 -11 -123 -120 -15 -35 -37 -80 -51 -100 -24
-35 -109 -90 -120 -78 -3 3 1 28 10 56 15 45 15 53 1 80 -16 31 -23 35 -83 47
-18 4 -33 9 -33 11 0 3 11 20 24 37 91 121 67 290 -49 350 -65 33 -142 20
-201 -35 -21 -19 -22 -19 -45 9 -36 42 -55 54 -95 63 -54 13 -121 -11 -179
-65 -64 -57 -83 -62 -150 -37 -68 26 -101 21 -142 -23 l-33 -34 -46 19 c-64
28 -78 25 -128 -20 -35 -32 -48 -39 -74 -35 -42 5 -84 -30 -102 -85 -19 -57
-35 -60 -78 -16 -19 21 -45 41 -58 46 -51 20 -124 -20 -124 -67 0 -13 -1 -23
-2 -23 -2 -1 -30 -3 -63 -7 -33 -3 -72 -11 -86 -19 -15 -7 -29 -10 -33 -7 -12
12 -96 -29 -119 -58 l-23 -30 -27 27 c-26 26 -34 58 -19 80 4 6 32 23 64 38
68 32 83 61 62 122 -8 21 -14 60 -14 86 0 64 -28 95 -100 111 -47 11 -55 16
-58 37 -5 49 -34 98 -63 110 -24 10 -32 9 -55 -9 -24 -19 -28 -19 -55 -5 -35
18 -100 26 -119 14 -15 -9 -16 -71 -1 -98 6 -11 7 -29 4 -42 -6 -21 -9 -19
-53 31 -45 51 -50 54 -92 53 -27 -1 -66 -12 -98 -28 l-52 -26 -59 26 c-46 21
-64 36 -82 66 -15 27 -34 45 -60 55 -20 8 -47 28 -58 44 -38 54 -138 89 -213
75 -42 -8 -97 -57 -124 -112 -20 -40 -49 -58 -70 -45 -5 3 -16 22 -25 42 -15
37 -61 72 -108 84 -15 4 -32 18 -40 32 -15 28 -57 53 -91 53 -13 0 -47 -17
-75 -37z m2198 -4045 c15 0 37 6 49 12 18 10 25 7 50 -20 28 -30 31 -30 108
-28 44 2 83 0 87 -4 4 -4 -12 -53 -36 -110 -46 -107 -73 -141 -165 -209 -42
-30 -55 -49 -89 -125 -44 -99 -91 -174 -157 -252 -25 -28 -62 -83 -83 -121
-53 -98 -88 -137 -172 -192 -118 -77 -165 -90 -301 -87 -93 2 -116 6 -118 18
-2 8 -6 29 -9 45 -3 17 -8 37 -11 45 -23 64 -24 296 -1 385 33 128 106 307
155 378 28 42 65 66 97 62 11 -1 47 -7 80 -13 150 -27 176 -25 194 14 6 14 11
43 11 64 0 22 3 40 8 40 4 1 42 2 85 3 92 2 110 16 121 92 l7 45 31 -21 c17
-12 43 -22 59 -21z m-1046 -165 c14 -16 36 -44 51 -65 l25 -36 -15 -90 c-9
-49 -24 -110 -35 -135 -40 -93 -52 -143 -57 -231 -10 -212 -22 -276 -65 -371
-23 -50 -34 -53 -174 -54 -186 -2 -170 -9 -359 163 -250 227 -274 268 -274
469 -1 150 27 185 150 193 48 3 91 13 130 31 70 31 102 33 153 8 84 -39 200 4
233 87 10 25 19 35 26 29 6 -5 27 -13 47 -19 29 -8 43 -6 74 9 22 11 44 24 49
29 14 14 14 14 41 -17z"/>
</g>
</svg>
