<svg xmlns="http://www.w3.org/2000/svg" viewBox="0 0 71.9 71.9"><defs><style>.cls-1{fill:none;stroke:#6BCDB2;stroke-miterlimit:10;stroke-width:0.86px;}</style></defs><g id="Layer_2" data-name="Layer 2"><circle class="cls-1" cx="35.95" cy="35.95" r="31.5"/><path class="cls-1" d="M46.05,27c-3,.54-12.68,7.24-12.68,15.86"/><path class="cls-1" d="M36.54,34.16A5.31,5.31,0,0,1,37.33,27c3-2.82,10.73-3.86,14.27-4,0,4.5-1.38,13.48-12.68,13.48"/><path class="cls-1" d="M32.57,33.29c-.75-6.48-7.92-7.06-10.31-7.06,0,3.47.62,11.1,9.64,11.1-.48-3.08-3.39-4.88-5.38-6.72"/><polyline class="cls-1" points="22.26 48.43 23.85 46.05 27.02 45.26 30.99 45.26 33.37 42.88 34.95 44.46 36.54 44.46 38.12 45.26 39.71 45.26 41.3 46.84 42.88 46.84 44.47 47.64"/></g></svg>